<svg xmlns="http://www.w3.org/2000/svg" width="24" height="29" viewBox="0 0 24 29">
    <path fill="none" fill-rule="evenodd" stroke="#118ce0" d="M12.005 15.643c-2.455 0-4.473-1.996-4.473-4.437 0-2.44 2.018-4.437 4.473-4.437 2.456 0 4.473 1.996 4.473 4.437 0 2.44-2.017 4.437-4.473 4.437m9.034-9.85C18.978 2.73 15.69 1 12.005 1 8.322 1 5.033 2.73 2.972 5.792.91 8.81.428 12.626 1.7 15.998c.35.888.877 1.82 1.579 2.663L12.005 29l8.683-10.34c.702-.842 1.272-1.73 1.579-2.662 1.316-3.372.833-7.188-1.228-10.206"/>
</svg>
