<svg xmlns="http://www.w3.org/2000/svg" xmlns:xlink="http://www.w3.org/1999/xlink" width="21" height="21" viewBox="0 0 21 21">
    <defs>
        <circle id="a" cx="10.5" cy="10.5" r="10.5"/>
    </defs>
    <g fill="none" fill-rule="evenodd">
        <mask id="b" fill="#fff">
            <use xlink:href="#a"/>
        </mask>
        <use fill="#D8D8D8" xlink:href="#a"/>
        <path fill="#6E6D6D" d="M13.414 16.432c-.489-.486-.734-1.145-.734-1.978 0-.306.161-.639.483-1 .321-.36.538-.874.65-1.54a.603.603 0 0 1 .188-.375.789.789 0 0 1 .294-.167c.097-.027.195-.145.293-.354.098-.208.161-.506.189-.895 0-.472-.126-.763-.377-.874l.251-1.833c.084-.75-.196-1.526-.838-2.331-.643-.806-1.748-1.208-3.313-1.208-1.565 0-2.663.402-3.292 1.208-.629.805-.915 1.582-.86 2.331.056.528.14 1.139.252 1.833l-.083.083c-.056.028-.12.11-.19.25-.069.139-.104.319-.104.541.028.389.09.687.189.895.098.209.195.327.293.354A.792.792 0 0 1 7 11.54c.098.083.16.208.188.375.14.638.364 1.145.671 1.52.307.374.462.714.462 1.02 0 .833-.238 1.492-.713 1.978s-1.37.964-2.684 1.436c-2.851 1-4.277 1.846-4.277 2.54v2.207h19.708v-2.207c0-.694-1.426-1.54-4.277-2.54-1.287-.472-2.174-.95-2.663-1.436" mask="url(#b)"/>
    </g>
</svg>
