<svg xmlns="http://www.w3.org/2000/svg" xmlns:xlink="http://www.w3.org/1999/xlink" width="22" height="22" viewBox="0 0 22 22">
    <defs>
        <circle id="meulr9rxra" cx="11" cy="11" r="11"/>
        <path id="zmatgleo0c" d="M0 0L20.9 0 20.9 22 0 22z"/>
    </defs>
    <g fill="none" fill-rule="evenodd">
        <g>
            <g>
                <g transform="translate(-1272 -128) translate(1272 128)">
                    <mask id="288pmw2e4b" fill="#fff">
                        <use xlink:href="#meulr9rxra"/>
                    </mask>
                    <use fill="#D7D7DA" xlink:href="#meulr9rxra"/>
                    <g mask="url(#288pmw2e4b)">
                        <g transform="translate(.55 2.75)">
                            <mask id="egeqm2mykd" fill="#fff">
                                <use xlink:href="#zmatgleo0c"/>
                            </mask>
                            <path fill="#A9A9A9" d="M6.015 14.239C2.517 15.553 0 17.386 0 21.328c0 .366.307.672.675.672h19.55c.368 0 .675-.306.675-.672 0-3.942-2.517-5.806-6.046-7.09-1.105-.396-1.872-1.466-1.872-2.657v-1.436c1.043-.764 1.75-2.017 1.75-3.423V4.278C14.731 1.925 12.797 0 10.434 0 8.072 0 6.138 1.925 6.138 4.278v2.444c0 1.406.706 2.659 1.75 3.453v1.436c0 1.192-.737 2.23-1.873 2.628" mask="url(#egeqm2mykd)"/>
                        </g>
                    </g>
                </g>
            </g>
        </g>
    </g>
</svg>
