<svg xmlns="http://www.w3.org/2000/svg" width="21" height="35" viewBox="0 0 21 35">
    <g fill="none" fill-rule="evenodd">
        <g>
            <g>
                <path fill="#ED3A4B" d="M19.87 16.193c-.573.014-1.039.462-1.072 1.03-.339 4.217-3.97 7.628-8.3 7.628-4.329 0-7.952-3.41-8.29-7.629-.04-.603-.565-1.059-1.172-1.02l-.03.003C.4 16.258-.05 16.79.003 17.391l.001.008c.4 4.994 4.408 9.055 9.397 9.581v5.832H5.59c-.038-.002-.076-.002-.114 0-.608.044-1.064.57-1.02 1.173.044.585.544 1.032 1.134 1.014h9.826c.609.014 1.112-.465 1.126-1.07.013-.603-.47-1.104-1.077-1.117h-3.859v-5.834c4.983-.53 8.986-4.587 9.387-9.579.063-.6-.376-1.138-.981-1.2-.048-.006-.096-.008-.144-.006M10.5 0c-3.68 0-6.674 2.974-6.674 6.629v9.946c0 3.654 2.994 6.637 6.674 6.637 3.679 0 6.682-2.983 6.682-6.637V6.629C17.18 2.974 14.178 0 10.499 0"/>
                <path fill="#FFF" d="M13.96 15.001H16.942c.571-.012 1.044.425 1.057.977.012.552-.44 1.01-1.011 1.022H14.066c-.572.016-1.049-.418-1.066-.97-.016-.536.406-.99.96-1.029M13.96 11.001H16.942c.571-.012 1.044.426 1.057.977.012.552-.44 1.01-1.011 1.022H14.066c-.572.016-1.049-.419-1.066-.971-.016-.535.406-.988.96-1.028M13.96 6.001H16.942c.571-.012 1.044.426 1.057.977.012.552-.44 1.01-1.011 1.022H14.066c-.572.016-1.049-.419-1.066-.97-.016-.536.406-.99.96-1.029"/>
            </g>
        </g>
    </g>
</svg>
