<svg xmlns="http://www.w3.org/2000/svg" width="28" height="32" viewBox="0 0 28 32">
    <g fill="#1B3066" fill-rule="evenodd">
        <path d="M.213 12.836l2.076 1.987v-4.025zM0 31.08v.051l8.675-8.52L0 14.092zM6.014 13.882h15.914c.266 0 .532.26.532.522s-.266.523-.532.523H6.014a.529.529 0 0 1-.532-.523c0-.313.266-.522.532-.522m0-3.712h15.967c.266 0 .532.262.532.523 0 .262-.266.523-.532.523H6.014c-.266 0-.532-.261-.532-.523 0-.261.266-.523.532-.523m0-3.711h15.967a.53.53 0 0 1 .532.523.53.53 0 0 1-.532.523H6.014a.529.529 0 0 1-.532-.523c0-.262.266-.523.532-.523m0-3.711h15.967c.266 0 .532.26.532.522s-.266.523-.532.523H6.014c-.266 0-.532-.261-.532-.523 0-.261.266-.522.532-.522m12.029 15.89h-8.09c-.267 0-.532-.26-.532-.522 0-.261.212-.523.532-.523h8.09a.53.53 0 0 1 .532.523c0 .261-.267.522-.532.522M3.353 1.023v14.845l10.645 10.454 10.644-10.454V1.023A.529.529 0 0 0 24.11.5H3.885a.529.529 0 0 0-.532.523"/>
        <path d="M14.37 27.42a.58.58 0 0 1-.372.157.488.488 0 0 1-.373-.156l-4.151-4.078-8.676 8.52h26.399l-8.675-8.52-4.152 4.078zM25.707 14.823l2.075-1.987-2.075-2.038zM27.995 31.132V14.09l-8.675 8.522z"/>
    </g>
</svg>
