<svg xmlns="http://www.w3.org/2000/svg" width="42" height="42" viewBox="0 0 42 42">
    <g fill="none" fill-rule="evenodd">
        <circle cx="21" cy="21" r="21" fill="#E02020"/>
        <g fill="#FFF">
            <path d="M16.405 10.102c0-3.54-2.837-6.398-6.35-6.398-3.514 0-6.35 2.859-6.35 6.398 0 2.177 1.092 4.091 2.706 5.245.234-.446.547-.84.911-1.18-1.301-.892-2.16-2.386-2.16-4.065 0-2.7 2.186-4.903 4.867-4.903 2.68 0 4.866 2.203 4.866 4.903 0 1.679-.858 3.2-2.16 4.065.365.314.677.734.937 1.18 1.666-1.18 2.733-3.094 2.733-5.245" transform="translate(10.92 9.24)"/>
            <path d="M10.055 0C4.519 0 0 4.49 0 9.99c0 4.013 2.38 7.467 5.83 9.061v-1.7c-2.568-1.462-4.306-4.198-4.306-7.334.027-4.703 3.851-8.502 8.53-8.502 4.707 0 8.505 3.8 8.505 8.449 0 3.135-1.712 5.872-4.279 7.334v1.7c3.423-1.594 5.83-5.048 5.83-9.06C20.11 4.49 15.59 0 10.055 0" transform="translate(10.92 9.24)"/>
            <path d="M9.79 6.88c1.608 0 2.91 1.303 2.91 2.91 0 1.608-1.302 2.91-2.91 2.91-1.607 0-2.91-1.302-2.91-2.91 0-1.607 1.303-2.91 2.91-2.91M9.79 14.818c-1.292 0-2.381 1.125-2.381 2.518v5.547c0 1.366 1.064 2.519 2.381 2.519 1.318 0 2.382-1.126 2.382-2.519v-5.547c0-1.393-1.064-2.518-2.382-2.518" transform="translate(10.92 9.24)"/>
        </g>
    </g>
</svg>
