<svg xmlns="http://www.w3.org/2000/svg" xmlns:xlink="http://www.w3.org/1999/xlink" width="80" height="25" viewBox="0 0 80 25">
    <defs>
        <path id="a" d="M0 0h19v15H0z"/>
    </defs>
    <g fill="none" fill-rule="evenodd">
        <path fill="#EDA400" d="M20 5h55v15H20z"/>
        <g transform="translate(0 5)">
            <mask id="b" fill="#fff">
                <use xlink:href="#a"/>
            </mask>
            <path fill="#EDA400" d="M5.447 15a1.69 1.69 0 0 1-1.71-1.683v-2.93L0 7.5l3.737-2.93V1.663C3.737.748 4.497 0 5.426 0H17.29C18.24 0 19 .748 19 1.683v11.634A1.69 1.69 0 0 1 17.29 15H5.447z" mask="url(#b)"/>
        </g>
        <path fill="#FFF" fill-rule="nonzero" stroke="#FFF" d="M11.52 8.5h.96v3.52H16v.96h-3.52v3.52h-.96v-3.52H8v-.96h3.52z"/>
        <path fill="#FFF" fill-rule="nonzero" d="M25.872 16V9.133h2.31c1.501 0 2.614.525 2.614 2.121 0 1.523-1.134 2.226-2.614 2.226H27.09V16h-1.218zm1.218-3.496h.997c1.018 0 1.512-.41 1.512-1.25 0-.861-.515-1.144-1.512-1.144h-.997v2.394zm6.653-2.394v2.236h.976c.935 0 1.45-.399 1.45-1.176 0-.787-.515-1.06-1.45-1.06h-.976zM37.638 16h-1.364l-1.481-2.688h-1.05V16h-1.218V9.133h2.32c1.428 0 2.52.504 2.52 2.037 0 1.05-.546 1.68-1.364 1.963L37.639 16zm1.614 0V9.133h4.137v1.029H40.47v1.753h2.468v1.03H40.47v2.026h3.024V16h-4.242zm6.087 0V9.133h1.343l1.24 3.381.451 1.302h.042l.441-1.302 1.218-3.381h1.344V16h-1.145v-3.14c0-.64.095-1.553.158-2.183h-.042l-.556 1.564-1.187 3.119h-.567l-1.187-3.119-.546-1.564h-.041c.063.63.157 1.543.157 2.184V16h-1.123zm8.26 0V9.133h1.218V16h-1.218zm3.367-3.014V9.133h1.218v3.948c0 1.491.556 1.985 1.386 1.985.84 0 1.428-.494 1.428-1.985V9.133h1.165v3.854c0 2.257-.997 3.139-2.593 3.139-1.586 0-2.605-.882-2.605-3.14zM64.311 16V9.133h1.344l1.239 3.381.452 1.302h.041l.441-1.302 1.219-3.381h1.343V16h-1.144v-3.14c0-.64.094-1.553.157-2.183h-.041l-.557 1.564-1.186 3.119h-.568l-1.186-3.119-.546-1.564h-.042c.063.63.157 1.543.157 2.184V16h-1.123z"/>
    </g>
</svg>
