<svg xmlns="http://www.w3.org/2000/svg" width="22" height="17" viewBox="0 0 22 17">
    <path fill="#F03746" fill-rule="evenodd" d="M0 15.583C0 16.366.595 17 1.328 17c.734 0 1.328-.634 1.328-1.417V12.75h15.938v2.833c0 .783.594 1.417 1.328 1.417.733 0 1.328-.634 1.328-1.417V5.313c0-1.76-1.338-3.188-2.988-3.188h-6.973c-.733 0-1.328.634-1.328 1.417v6.375H2.656v-8.5C2.656.634 2.062 0 1.328 0 .595 0 0 .634 0 1.417v14.166zM6.375 8.5C5.201 8.5 4.25 7.358 4.25 5.95S5.201 3.4 6.375 3.4 8.5 4.542 8.5 5.95 7.549 8.5 6.375 8.5z"/>
</svg>
