<svg xmlns="http://www.w3.org/2000/svg" width="28" height="17" viewBox="0 0 28 17">
    <path fill="#F03746" fill-rule="evenodd" d="M20.068 13.813c0-.585.475-1.063 1.056-1.063a1.063 1.063 0 0 1 0 2.125c-.58 0-1.056-.478-1.056-1.063zm-14.787 0c0-.585.475-1.063 1.056-1.063a1.063 1.063 0 0 1 0 2.125c-.58 0-1.056-.478-1.056-1.063zm8.45-11.688v4.25h-6.4c.126-.202.247-.398.364-.595C8.76 3.984 9.86 2.125 13.73 2.125zm2.112.133c3.85.526 4.595 2.502 5.155 4.005.01.038.026.075.042.112h-5.197V2.258zm7.134 3.262c-.67-1.801-1.88-5.052-7.9-5.472a1.033 1.033 0 0 0-.29-.048.857.857 0 0 0-.2.021C14.311.011 14.026 0 13.73 0 8.66 0 6.987 2.821 5.878 4.691c-.724 1.222-1.056 1.684-1.653 1.684C1.895 6.375 0 8.282 0 10.625c0 2.03 1.42 3.73 3.317 4.149A3.173 3.173 0 0 0 6.337 17a3.17 3.17 0 0 0 2.984-2.125h8.82A3.17 3.17 0 0 0 21.124 17a3.173 3.173 0 0 0 3.021-2.226 4.249 4.249 0 0 0 3.317-4.149c0-2.311-1.844-4.197-4.125-4.25-.106-.165-.253-.558-.36-.855z"/>
</svg>
