<svg xmlns="http://www.w3.org/2000/svg" width="20" height="17" viewBox="0 0 20 17">
    <g fill="#F03746" fill-rule="evenodd">
        <path d="M0 7.712h19.419V6.367H0zM3.633.088a2.512 2.512 0 0 0-2.512 2.511v2.916h1.166V2.599h3.857A2.51 2.51 0 0 0 3.633.088M18.387 11.874V8.532H1.122v3.342c0 1.036.47 1.961 1.211 2.574l-.412.587a.83.83 0 0 0 1.358.953l.582-.829c.196.036.396.057.602.057h10.583c.178 0 .35-.018.521-.044l.574.816a.831.831 0 0 0 1.359-.953l-.381-.542a3.336 3.336 0 0 0 1.268-2.619"/>
    </g>
</svg>
