<svg xmlns="http://www.w3.org/2000/svg" xmlns:xlink="http://www.w3.org/1999/xlink" width="18" height="13" viewBox="0 0 18 13">
    <defs>
        <path id="g7wgysemoa" d="M0 0L18 0 18 13 0 13z"/>
    </defs>
    <g fill="none" fill-rule="evenodd">
        <g>
            <g>
                <g transform="translate(-1276 -85) translate(1276 85)">
                    <mask id="v1zheyi9ab" fill="#fff">
                        <use xlink:href="#g7wgysemoa"/>
                    </mask>
                    <path fill="#000" d="M17.196 11.169c0 .168-.082.315-.227.403-.145.087-.314.093-.466.015-2.006-1.02-4.401-1.02-6.409 0l-.692.357V2.022l1.06-.545c1.776-.904 3.898-.904 5.673 0l.805.413c.158.082.256.242.256.42v8.859zM4.701 10.82c-1.1 0-2.201.256-3.205.767-.15.077-.32.071-.465-.016-.144-.088-.227-.235-.227-.403v-8.86c0-.177.098-.337.256-.419l.804-.413c1.776-.904 3.898-.904 5.673 0l1.061.545v9.922l-.694-.357c-1.002-.51-2.102-.766-3.203-.766zm12.608-9.64l-.806-.416c-2.006-1.02-4.401-1.02-6.409.001L9 1.33 7.904.766c-2.006-1.021-4.4-1.021-6.408 0l-.805.414C.265 1.4 0 1.832 0 2.31v8.859c0 .447.23.853.614 1.085.384.233.852.249 1.25.044 1.776-.904 3.898-.904 5.673 0l1.278.657.015.007.02.008c.01.004.02.008.03.01l.019.007.034.007.016.003L9 13l.051-.003.016-.003.034-.007.02-.006.03-.01.02-.01.014-.006 1.277-.657c1.776-.904 3.898-.904 5.673 0 .4.205.867.189 1.252-.044.384-.232.613-.638.613-1.085v-8.86c0-.477-.265-.91-.69-1.129z" mask="url(#v1zheyi9ab)"/>
                </g>
            </g>
        </g>
    </g>
</svg>
