<svg xmlns="http://www.w3.org/2000/svg" width="30" height="24" viewBox="0 0 30 24">
    <g fill="none" fill-rule="evenodd">
        <g fill="#FFF">
            <g>
                <path d="M26.48 3.763c1.321-.783 2.221-1.892 2.7-3.327-1.207.718-2.506 1.21-3.895 1.48C24.055.638 22.55 0 20.774 0c-1.708 0-3.167.593-4.374 1.78-1.207 1.188-1.81 2.623-1.81 4.303 0 .45.044.907.136 1.378C12.198 7.328 9.84 6.7 7.653 5.58c-2.186-1.12-4.055-2.61-5.603-4.47-.57.94-.855 1.95-.855 3.025 0 1.076.25 2.05.753 2.925.5.873 1.173 1.591 2.015 2.15-.98-.044-1.902-.301-2.768-.772-.023 1.545.445 2.834 1.401 3.932.958 1.099 2.141 1.793 3.554 2.084-.525.135-1.06.202-1.606.202-.365 0-.752-.033-1.162-.102.41 1.211 1.14 2.208 2.187 2.993 1.048.784 2.243 1.188 3.588 1.21-2.233 1.725-4.783 2.588-7.654 2.588-.547 0-1.048-.023-1.503-.068C2.87 23.092 6.024 24 9.464 24c2.187.023 4.238-.313 6.15-1.008 1.914-.694 3.554-1.601 4.92-2.722 1.367-1.12 2.54-2.432 3.52-3.933.98-1.502 1.708-3.059 2.187-4.672.479-1.614.718-3.239.718-4.874 0-.337-.012-.595-.034-.774C28.132 5.165 29.156 4.122 30 2.89c0 0-2.336.74-3.52.873z" transform="translate(-1366 -42) translate(1366 42)"/>
            </g>
        </g>
    </g>
</svg>
