<svg xmlns="http://www.w3.org/2000/svg" width="27" height="27" viewBox="0 0 27 27">
    <path fill="#118CE0" fill-rule="evenodd" d="M19.245 19.245c-1.613 1.612-3.537 2.418-5.777 2.418-2.239 0-4.155-.806-5.744-2.418-1.592-1.611-2.387-3.526-2.387-5.745 0-.376.042-.9.126-1.57H0v10.8c0 1.173.408 2.176 1.224 3.014C2.04 26.58 3.034 27 4.206 27h18.587c1.171 0 2.166-.42 2.982-1.256.817-.838 1.225-1.841 1.225-3.014v-10.8h-5.526c.126.502.189 1.026.189 1.57 0 2.219-.807 4.134-2.418 5.745zM4.206 0C3.035 0 2.04.408 1.224 1.224.408 2.04 0 3.034 0 4.206V8.79h6.844c1.548-2.303 3.767-3.453 6.656-3.453 2.803 0 5.023 1.15 6.656 3.453H27V4.206c0-1.172-.408-2.166-1.225-2.982C24.959.408 23.964 0 22.793 0H4.206zm19.842 5.966h-2.26a.68.68 0 0 1-.533-.253c-.147-.166-.22-.334-.22-.502v-2.26c0-.503.25-.753.752-.753h2.261c.503 0 .754.25.754.753v2.26c0 .502-.252.755-.754.755zm-7 3.955c-.984-.963-2.166-1.444-3.548-1.444-1.382 0-2.565.481-3.547 1.444-.985.963-1.476 2.145-1.476 3.548 0 1.402.491 2.595 1.476 3.579.982.983 2.165 1.476 3.547 1.476 1.382 0 2.564-.493 3.547-1.476.984-.984 1.476-2.166 1.476-3.548 0-1.424-.492-2.616-1.476-3.579z"/>
</svg>
