<svg xmlns="http://www.w3.org/2000/svg" width="27" height="27" viewBox="0 0 27 27">
    <path fill="#F03746" fill-rule="evenodd" d="M19.245 19.245c-1.613 1.613-3.537 2.418-5.777 2.418-2.239 0-4.155-.805-5.744-2.418-1.592-1.611-2.387-3.527-2.387-5.745 0-.377.042-.9.126-1.57H0v10.8c0 1.173.408 2.176 1.224 3.015C2.04 26.58 3.034 27 4.206 27h18.586c1.172 0 2.166-.42 2.983-1.255.817-.839 1.225-1.842 1.225-3.015v-10.8h-5.526c.126.502.189 1.026.189 1.57 0 2.218-.807 4.134-2.418 5.745zM4.206 0C3.035 0 2.04.408 1.224 1.224.408 2.04 0 3.034 0 4.206V8.79h6.844c1.548-2.303 3.767-3.453 6.656-3.453 2.803 0 5.023 1.15 6.656 3.453H27V4.206c0-1.171-.408-2.166-1.225-2.982C24.959.408 23.964 0 22.792 0H4.206zm19.842 5.965h-2.26a.68.68 0 0 1-.533-.251c-.147-.167-.22-.335-.22-.503v-2.26c0-.503.25-.754.753-.754h2.26c.503 0 .755.251.755.753v2.261c0 .503-.253.754-.755.754zm-7 3.956c-.985-.963-2.166-1.444-3.548-1.444-1.382 0-2.565.481-3.547 1.444-.985.963-1.476 2.145-1.476 3.547 0 1.403.491 2.595 1.476 3.58.982.984 2.165 1.476 3.547 1.476 1.382 0 2.563-.492 3.547-1.477.985-.984 1.476-2.165 1.476-3.547 0-1.423-.491-2.616-1.476-3.579z"/>
</svg>
