<svg xmlns="http://www.w3.org/2000/svg" xmlns:xlink="http://www.w3.org/1999/xlink" width="27" height="27" viewBox="0 0 27 27">
    <defs>
        <path id="a" d="M7.829 48.602a.798.798 0 0 1-.812-.897s-.04.291.001-.008C7.903 41.094 13.578 36 20.448 36 27.934 36 34 42.044 34 49.5S27.933 63 20.449 63c-6.869 0-12.543-5.09-13.43-11.692-.04-.3-.002-.014-.002-.014a.799.799 0 0 1 .812-.896h15.428c.25 0 .308.142.134.315l-3.562 3.538c-.851.846.426 2.117 1.278 1.27l5.335-5.248a1.102 1.102 0 0 0-.007-1.58l-5.328-5.214c-.852-.847-2.13.423-1.278 1.27l3.562 3.537c.174.175.117.316-.134.316H7.83z"/>
    </defs>
    <use fill="#FFF" fill-rule="evenodd" transform="rotate(90 35 28)" xlink:href="#a"/>
</svg>
