<svg xmlns="http://www.w3.org/2000/svg" width="172" height="45" viewBox="0 0 172 45">
    <g fill="#FFF" fill-rule="nonzero">
        <path stroke="#FFF" d="M38.041 29.507l-18.344-.19-16.744.19c-1.793 0-1.793-.35-1.793-.605 0-.446.608-.573 2.337-.732 2.914-.287 3.746-1.02 3.746-3.345V5.97c0-2.262-.672-2.835-4.194-3.28-1.44-.16-1.825-.288-1.825-.797 0-.255.224-.542 1.377-.542h26.956l6.82-.19 2.913 7.198c.128.159.16.35.16.541 0 .382-.288.605-.832.605-.48 0-.96-.19-1.28-.605-3.202-3.567-8.997-5.924-15.368-5.924h-7.396V13.23h12.358c3.074 0 4.034-.478 4.642-2.357.385-1.02.673-1.37 1.345-1.37.608 0 1.057.446 1.057 1.179 0 .287-.289 2.707-.289 3.185 0 .478.289 3.28.289 3.918a.793.793 0 0 1-.673.892h-.128c-.672 0-.96-.287-1.344-1.21-.737-2.262-1.857-2.708-6.82-2.708H14.574v10.639c0 1.815 1.857 2.484 6.595 2.484 8.004 0 14.375-2.102 18.505-6.18.737-.732 1.345-1.273 1.953-1.273.512 0 .833.19.833.573a2.7 2.7 0 0 1-.289.987l-4.13 7.517z"/>
        <path stroke="#FFF" d="M45.885 16.799c0-2.644-1.12-3.727-4.034-3.982-.672-.064-1.056-.096-1.056-.382 0-.478.384-.828 1.12-.828.673 0 1.345.063 2.177.095.769.064 1.633.096 2.561.096.833 0 1.665-.064 2.466-.16a26.363 26.363 0 0 1 2.24-.095c.673 0 1.217.287 1.217.733 0 .541-.288 2.102-.224 2.739 3.298-2.39 6.307-3.631 9.733-3.631 5.859 0 8.484 2.102 8.484 6.37v7.708c0 1.561.896 2.357 2.85 2.708.96.159 1.28.286 1.28.796s-.384.541-1.505.541c-.896 0-4.194-.19-6.371-.19-2.241 0-5.635.19-6.435.19-.608 0-.896-.19-.896-.477s.384-.542 1.12-.637c2.113-.287 3.522-.701 3.522-3.058V18.39c0-3.344-1.409-4.714-4.867-4.714-2.24 0-3.905.478-6.883 2.453v9.046c0 2.006.96 2.898 3.298 3.185.832.095 1.504.19 1.504.7 0 .287-.16.446-.96.446-2.69 0-5.699-.19-8.164-.19-1.409 0-4.866.19-6.083.19-.608 0-.896-.159-.896-.446 0-.35.288-.477 1.28-.573 2.626-.255 3.586-1.083 3.586-2.994l-.064-8.695z"/>
        <path stroke="#FFF" d="M87.056 18.519c5.475 2.388 7.044 3.726 7.044 5.924 0 3.058-3.97 5.192-9.605 5.192-2.369 0-4.706-.287-6.979-.924-.32-.095-.64-.16-.96-.191a1.125 1.125 0 0 0-.897.541c-.288.35-.448.446-.672.446-.608 0-.672-.19-.512-.891.064-.383.096-.797.064-1.179 0-.733-.897-4.268-.897-4.65 0-.574.288-.988.673-.988.384 0 .672.287 1.056 1.115 1.729 3.28 5.539 5.479 9.605 5.479 2.785 0 4.578-.829 4.578-2.294 0-1.178-1.57-2.261-6.531-4.427-5.539-2.389-7.332-3.886-7.332-6.02 0-2.708 3.234-4.523 7.812-4.523 1.76.032 3.521.223 5.25.605.48.127.993.223 1.505.255.416 0 .832-.16 1.217-.382.192-.16.416-.255.672-.255.448 0 .672.287.672.828 0 .255-.16.924-.16 1.72 0 .924.672 3.185.672 3.822a.437.437 0 0 1-.448.446c-.384 0-.512-.191-.96-.987-1.793-3.25-4.642-4.937-8.164-4.937-2.113 0-3.522.796-3.522 1.847s1.12 1.911 5.923 4.013l.896.415zM106.97 25.335c0 1.56 1.28 2.644 3.682 3.058.768.159 1.44.286 1.44.732 0 .287-.512.382-1.12.382-.448 0-6.82-.19-7.556-.19-.736 0-6.307.19-6.883.19-.736 0-1.12-.063-1.12-.446 0-.382.512-.637 1.888-.796 1.505-.19 3.234-.382 3.234-2.357V15.843c0-1.816-1.44-2.74-4.194-2.803-.897 0-1.569-.064-1.569-.478 0-.573.833-.732 2.785-.732 5.923 0 7.94-.287 8.677-.287.736 0 1.184 0 1.184.637 0 .478-.384 2.899-.384 3.44v9.715h-.064zm.736-20.99c0 1.37-1.729 2.516-3.81 2.516-2.08 0-3.81-1.115-3.81-2.517 0-1.337 1.633-2.516 3.746-2.516 2.305.032 3.906 1.21 3.874 2.516z"/>
        <path stroke="#FFF" d="M122.945 11.32a24.81 24.81 0 0 1 7.492 1.274c1.056.35 1.633.542 2.401.542.608 0 .96-.192 1.633-.829.96-.923 2.017-1.465 2.913-1.465 1.505 0 2.401.733 2.401 1.88 0 1.274-1.344 2.102-3.457 2.102-1.28-.032-2.562-.223-3.81-.478 1.12 1.656 1.44 2.357 1.44 3.44 0 4.332-4.642 7.421-11.237 7.421-1.825 0-3.65-.254-5.41-.732-.16-.032-.352-.064-.513-.096-.832 0-3.233.924-3.233 2.548 0 1.21 1.953 2.07 4.866 2.07 1.409 0 8.676-.286 10.341-.286 6.595 0 10.63 2.102 10.63 5.606 0 5.542-7.204 9.524-17.321 9.524-6.98 0-12.07-2.548-12.07-5.988 0-2.803 1.633-4.173 6.755-5.702-3.681-.987-5.314-2.389-5.314-4.364 0-1.72.896-2.739 4.13-3.917-3.01-1.88-3.97-3.186-3.97-5.479 0-4.077 4.866-7.071 11.333-7.071zm2.978 21.086c-7.652 0-12.294.287-12.294 4.268 0 3.44 3.682 5.893 8.772 5.893 7.492 0 13.575-2.803 13.575-6.339 0-2.644-2.626-3.822-8.613-3.822h-1.44zm-2.69-8.25c3.01 0 4.643-1.72 4.643-4.746 0-4.013-2.305-7.007-5.539-7.007-2.85 0-4.354 1.56-4.354 4.523 0 4.587 1.889 7.23 5.25 7.23z"/>
        <path stroke="#FFF" d="M142.186 16.799c0-2.644-1.12-3.727-4.033-3.982-.673-.064-1.057-.096-1.057-.382 0-.478.384-.828 1.12-.828.673 0 1.345.063 2.178.095.736.064 1.632.096 2.56.096.833 0 1.666-.064 2.466-.16a26.363 26.363 0 0 1 2.241-.095c.672 0 1.185.287 1.185.733 0 .541-.289 2.102-.225 2.739 3.298-2.39 6.307-3.631 9.733-3.631 5.859 0 8.452 2.102 8.452 6.37v7.708c0 1.561.896 2.357 2.85 2.708.96.159 1.28.286 1.28.796s-.384.541-1.505.541c-.896 0-4.194-.19-6.37-.19-2.242 0-5.635.19-6.436.19-.608 0-.896-.19-.896-.477s.384-.542 1.12-.637c2.081-.287 3.522-.701 3.522-3.058V18.39c0-3.344-1.44-4.714-4.866-4.714-2.241 0-3.906.478-6.884 2.453v9.046c0 2.006.96 2.898 3.298 3.185.832.095 1.505.19 1.505.7 0 .287-.16.446-.96.446-2.69 0-5.7-.19-8.165-.19-1.408 0-4.866.19-6.082.19-.609 0-.897-.159-.897-.446 0-.35.288-.477 1.28-.573 2.626-.223 3.586-1.051 3.586-2.962v-8.727z"/>
        <path d="M42.075 2.115c0-.446-.192-.605-.8-.67-.256-.03-.32-.03-.32-.095 0-.063.16-.063.352-.063.192 0 .992.032 1.377.032.32 0 1.6-.032 1.856-.032.833 0 1.345.095 1.73.35.32.16.544.478.576.828 0 .478-.225.765-.929 1.115.544.096 1.6.319 1.6 1.242a1.344 1.344 0 0 1-.703 1.115c-.513.35-1.313.478-2.434.478-.384 0-1.216-.032-1.664-.032-.449 0-1.249.032-1.473.032-.16 0-.224 0-.224-.096 0-.095.064-.095.256-.127.576-.032.8-.223.8-.669V2.115zm1.313 1.401c.192 0 .352.032.448.032 1.057 0 1.6-.35 1.6-1.02 0-.668-.575-1.082-1.664-1.082-.128 0-.224 0-.352.032-.032.223-.064.446-.064.7l.032 1.338zm0 1.784c0 .86.128.924.672.924a3.155 3.155 0 0 0 1.537-.287c.32-.191.512-.51.544-.892 0-.924-.832-1.37-2.4-1.338h-.353V5.3zM54.305 6.415l-3.33-.032-3.04.032c-.321 0-.321-.064-.321-.096s.096-.095.416-.127c.544-.064.672-.191.672-.605v-3.44c0-.414-.128-.51-.768-.606-.256-.031-.32-.063-.32-.159 0-.095.032-.095.256-.095h4.898l1.249-.032.512 1.306c.032.032.032.063.032.095 0 .064-.064.096-.16.096a.291.291 0 0 1-.224-.096 3.797 3.797 0 0 0-2.785-1.083h-1.345v1.88h2.241c.576 0 .736-.096.833-.414.064-.192.128-.255.256-.255.096 0 .192.095.192.19v.033c0 .063-.064.477-.064.573 0 .096.064.605.064.7 0 .064-.032.16-.128.16h-.032c-.128 0-.192-.064-.256-.223-.129-.414-.353-.478-1.249-.478h-1.889v1.943c0 .319.352.446 1.185.446 1.472 0 2.625-.382 3.361-1.115.128-.127.256-.223.352-.223.096 0 .16.032.16.096a.451.451 0 0 1-.064.191l-.704 1.338z"/>
        <path d="M56.002 1.956a1.62 1.62 0 0 0-1.025-.478c-.16-.032-.192-.032-.192-.128 0-.095.064-.095.16-.095l1.089.032c.096 0 .576-.032.672-.032.128 0 .256.032.352.127l5.283 3.663V2.18c0-.446-.288-.67-.96-.701-.16 0-.32-.032-.32-.096 0-.063.063-.095.223-.095s1.025.032 1.249.032c.224 0 1.024-.032 1.152-.032.129 0 .193.032.193.095 0 .064-.032.064-.225.096-.576.063-.8.318-.8.796v4.077c0 .16-.032.191-.16.191-.064 0-.128 0-.192-.032l-6.019-4.14v3.026c0 .573.256.828.929.891.192.032.256.032.256.128 0 .095-.096.095-.385.095-.224 0-.8-.031-1.152-.031-.352 0-.993.031-1.12.031-.065 0-.129-.031-.129-.095s.032-.096.224-.128c.64-.063.833-.318.833-1.019l.064-3.312zM66.407 2.274c-.128-.191-.192-.287-.192-.35 0-.064.032-.096.16-.191.192-.096.384-.255.48-.446.064-.096.128-.128.192-.128s.096.032.128.096l2.53 4.236c.16.35.448.573.832.669.192.032.224.064.224.127 0 .064-.032.096-.192.096s-1.025-.032-1.28-.032c-.257 0-.833.032-.993.032-.256 0-.385-.032-.385-.096 0-.063.065-.095.289-.127.288-.032.384-.096.384-.255 0-.064-.064-.19-.256-.478l-.48-.828h-2.562c-.512.733-.704 1.115-.704 1.306 0 .128.096.223.416.255.192.032.224.064.224.096 0 .031-.064.095-.256.095-.096 0-.608-.032-.8-.032-.192 0-.545.032-.64.032-.097 0-.225-.032-.225-.095 0-.064.032-.064.16-.128.257-.095.449-.255.609-.446l2.337-3.408zm.192.319l-1.153 1.751h2.21l-1.057-1.751z"/>
        <path d="M73.066 5.523c0 .478.192.573.992.573.737 0 2.37 0 3.554-1.178.128-.128.192-.16.288-.16.064 0 .128.032.128.096a.758.758 0 0 1-.192.35c-.256.35-.448.765-.608 1.147l-3.234-.032-3.041.032c-.288 0-.384 0-.384-.095 0-.096.096-.096.288-.128.864-.095.864-.287.864-1.306V2.083c0-.414-.128-.542-.736-.573-.32 0-.384-.032-.384-.128 0-.095.096-.127.288-.127.192 0 1.152.032 1.377.032.544 0 1.44-.032 1.6-.032.16 0 .256 0 .256.095 0 .096-.096.128-.352.128s-.704.063-.704.51v3.535z"/>
        <path d="M80.333 5.523c0 .478.192.573.993.573.704 0 2.369 0 3.553-1.178.129-.128.193-.16.289-.16.064 0 .128.032.128.096a.758.758 0 0 1-.192.35c-.257.35-.449.765-.609 1.147l-3.233-.032-3.042.032c-.288 0-.384 0-.384-.095 0-.096.096-.096.288-.128.865-.095.865-.287.865-1.306V2.083c0-.414-.128-.542-.737-.573-.32 0-.384-.032-.384-.128 0-.095.096-.127.288-.127.192 0 1.153.032 1.377.032.544 0 1.44-.032 1.6-.032.16 0 .257 0 .257.095 0 .096-.064.128-.352.128s-.705.063-.705.51v3.535zM88.145 2.274c-.128-.191-.192-.287-.192-.35 0-.064.032-.096.16-.191.192-.096.384-.255.48-.446.032-.064.128-.128.192-.128s.096.032.128.096l2.53 4.236c.16.35.448.573.8.669.192.032.224.064.224.127 0 .064-.032.096-.192.096s-1.025-.032-1.28-.032c-.257 0-.833.064-.993.064-.256 0-.384-.032-.384-.096 0-.063.064-.095.288-.127.288-.032.384-.096.384-.255 0-.064-.064-.191-.256-.478l-.48-.828h-2.562c-.512.733-.704 1.115-.704 1.306 0 .127.096.223.416.255.192.032.224.064.224.095 0 .032-.064.096-.256.096-.096 0-.608-.032-.8-.032-.192 0-.544.032-.64.032-.096 0-.224-.032-.224-.096 0-.063.032-.063.16-.127.256-.096.448-.223.608-.446l2.369-3.44zm.192.319l-1.152 1.751h2.177l-1.025-1.751z"/>
    </g>
</svg>
