<svg id="Layer_1" data-name="Layer 1" xmlns="http://www.w3.org/2000/svg" viewBox="0 0 685.21 135.75"><defs><style>.cls-1,.cls-2{fill:#fff;}.cls-1,.cls-3{stroke:#fff;}.cls-3{fill:none;stroke-width:0.75px;fill-rule:evenodd;}</style></defs><title>BenEnsign ALL WHITE vector</title><path class="cls-1" d="M115.67,90.59,58.32,90l-52.2.61C.5,90.59.5,89.52.5,88.75c0-1.39,1.87-1.85,7.26-2.31,9.13-.93,11.7-3.24,11.7-10.47V16.67c0-7.08-2.11-8.93-13.11-10.31C1.9,5.89.73,5.43.73,3.89.73,3.12,1.44,2.2,5,2.2H89.22l21.3-.62,9.13,22.64a2.55,2.55,0,0,1,.47,1.69c0,1.24-.94,1.85-2.58,1.85a5,5,0,0,1-4-1.85C103.5,14.67,85.47,7.28,65.57,7.28H42.4V39.47H81c9.6,0,12.64-1.54,14.52-7.4,1.17-3.23,2.1-4.31,4.21-4.31,1.87,0,3.28,1.39,3.28,3.7,0,.92-.94,8.47-.94,10s.94,10.32.94,12.32a2.47,2.47,0,0,1-2.58,2.77c-2.1,0-3-.92-4.21-3.85-2.34-7.08-5.85-8.47-21.3-8.47H42.4V77.66c0,5.7,5.85,7.85,20.6,7.85,25,0,44.94-6.62,57.82-19.4,2.34-2.31,4.21-4,6.08-4,1.64,0,2.58.62,2.58,1.85a6.9,6.9,0,0,1-.94,3.08Z"/><path class="cls-1" d="M140.24,50.71c0-8.32-3.51-11.71-12.64-12.48-2.1-.15-3.28-.3-3.28-1.23,0-1.54,1.18-2.62,3.52-2.62,2.1,0,4.21.16,6.78.31,2.35.16,5.15.31,8,.31a74.31,74.31,0,0,0,7.73-.46,62.81,62.81,0,0,1,7-.31c2.11,0,3.75.92,3.75,2.31,0,1.69-.94,6.62-.71,8.62,10.3-7.54,19.67-11.39,30.43-11.39,18.26,0,26.46,6.62,26.46,20V78c0,4.92,2.8,7.39,8.89,8.47,3,.46,4,.92,4,2.46s-1.17,1.69-4.68,1.69c-2.81,0-13.11-.61-19.9-.61-7,0-17.55.61-20.13.61-1.87,0-2.81-.61-2.81-1.54s1.17-1.69,3.51-2c6.56-.92,11-2.15,11-9.55V55.64c0-10.48-4.44-14.79-15.21-14.79-7,0-12.17,1.54-21.54,7.7V77c0,6.32,3,9.09,10.3,10,2.58.31,4.68.62,4.68,2.16,0,.92-.46,1.38-3,1.38-8.43,0-17.79-.61-25.51-.61-4.45,0-15.22.61-19,.61-1.88,0-2.81-.46-2.81-1.38,0-1.08.93-1.54,4-1.85,8.19-.77,11.23-3.39,11.23-9.39Z"/><path class="cls-1" d="M268.75,56.1c17.09,7.54,22,11.7,22,18.63,0,9.55-12.4,16.33-30,16.33A79.09,79.09,0,0,1,239,88.13a15.09,15.09,0,0,0-3-.62,3.55,3.55,0,0,0-2.81,1.7c-.94,1.08-1.4,1.38-2.11,1.38-1.87,0-2.1-.61-1.63-2.77a19.89,19.89,0,0,0,.23-3.69c0-2.31-2.81-13.4-2.81-14.63,0-1.85.94-3.08,2.11-3.08s2.1.92,3.27,3.54c5.39,10.32,17.33,17.25,30,17.25,8.66,0,14.28-2.62,14.28-7.24,0-3.7-4.92-7.09-20.37-13.86-17.32-7.55-22.94-12.17-22.94-18.94,0-8.47,10.07-14.17,24.35-14.17a84,84,0,0,1,16.38,1.85,21.78,21.78,0,0,0,4.68.77,7.08,7.08,0,0,0,3.75-1.24,3.41,3.41,0,0,1,2.1-.77c1.41,0,2.11.93,2.11,2.62,0,.77-.47,2.93-.47,5.39,0,2.93,2.11,10,2.11,12a1.44,1.44,0,0,1-1.4,1.39c-1.18,0-1.64-.62-3-3.08-5.62-10.16-14.51-15.55-25.51-15.55-6.56,0-11,2.46-11,5.85s3.51,6,18.49,12.63Z"/><path class="cls-1" d="M331,77.5c0,4.93,4,8.32,11.47,9.55,2.35.46,4.45.93,4.45,2.31,0,.93-1.64,1.23-3.51,1.23-1.4,0-21.3-.61-23.64-.61s-19.67.61-21.54.61c-2.34,0-3.51-.15-3.51-1.38s1.64-2,5.85-2.47c4.69-.61,10.07-1.23,10.07-7.39V47.63c0-5.7-4.45-8.63-13.11-8.78-2.81,0-4.92-.15-4.92-1.54,0-1.85,2.58-2.31,8.67-2.31,18.49,0,24.81-.92,27.15-.92s3.74,0,3.74,2c0,1.54-1.17,9.08-1.17,10.78Zm2.34-65.91c0,4.31-5.38,7.86-11.93,7.86s-11.94-3.55-11.94-7.86c0-4.16,5.15-7.85,11.7-7.85C328.44,3.74,333.35,7.43,333.35,11.59Z"/><path class="cls-1" d="M380.87,33.46a76.67,76.67,0,0,1,23.41,4c3.28,1.07,5.15,1.69,7.49,1.69,1.87,0,3-.62,5.15-2.62,3-2.93,6.32-4.62,9.13-4.62,4.68,0,7.49,2.31,7.49,5.85,0,4-4.21,6.62-10.77,6.62a65.77,65.77,0,0,1-11.94-1.54c3.51,5.24,4.45,7.4,4.45,10.78,0,13.56-14.51,23.26-35.11,23.26a61.59,61.59,0,0,1-16.85-2.31,13,13,0,0,0-1.64-.31c-2.58,0-10.07,2.93-10.07,8,0,3.85,6.09,6.47,15.22,6.47,4.44,0,27.15-.93,32.3-.93,20.6,0,33.24,6.62,33.24,17.56,0,17.4-22.47,29.87-54.07,29.87-21.77,0-37.69-8-37.69-18.78,0-8.78,5.15-13.09,21.07-17.87-11.47-3.08-16.62-7.54-16.62-13.7,0-5.39,2.81-8.63,12.87-12.32-9.36-5.86-12.4-10-12.4-17.25C345.53,42.85,360.74,33.46,380.87,33.46Zm9.37,66.22c-23.88,0-38.39.92-38.39,13.4,0,10.78,11.47,18.48,27.38,18.48,23.41,0,42.37-8.78,42.37-19.87,0-8.31-8.19-12-26.92-12Zm-8.43-25.87c9.36,0,14.51-5.39,14.51-14.94,0-12.63-7.25-22-17.32-22-8.9,0-13.58,4.93-13.58,14.17C365.42,65.49,371.27,73.81,381.81,73.81Z"/><path class="cls-1" d="M441,50.71c0-8.32-3.51-11.71-12.64-12.48-2.11-.15-3.28-.3-3.28-1.23,0-1.54,1.17-2.62,3.51-2.62,2.11,0,4.21.16,6.79.31,2.34.16,5.15.31,8,.31a74.13,74.13,0,0,0,7.72-.46,63,63,0,0,1,7-.31c2.1,0,3.74.92,3.74,2.31,0,1.69-.94,6.62-.7,8.62,10.3-7.54,19.66-11.39,30.43-11.39,18.26,0,26.45,6.62,26.45,20V78c0,4.92,2.81,7.39,8.9,8.47,3,.46,4,.92,4,2.46s-1.17,1.69-4.69,1.69c-2.81,0-13.1-.61-19.89-.61-7,0-17.56.61-20.13.61-1.88,0-2.81-.61-2.81-1.54s1.17-1.69,3.51-2c6.55-.92,11-2.15,11-9.55V55.64c0-10.48-4.45-14.79-15.22-14.79-7,0-12.17,1.54-21.53,7.7V77c0,6.32,3,9.09,10.3,10,2.57.31,4.68.62,4.68,2.16,0,.92-.47,1.38-3,1.38-8.43,0-17.79-.61-25.52-.61-4.44,0-15.21.61-19,.61-1.87,0-2.81-.46-2.81-1.38,0-1.08.94-1.54,4-1.85C438,86.59,441,84,441,78Z"/><path class="cls-2" d="M128.31,4.58c0-1.37-.6-1.88-2.52-2.1-.76-.06-1-.14-1-.34s.46-.25,1.14-.25,3.11.11,4.26.11c1,0,5-.11,5.75-.11,2.63,0,4.17.31,5.4,1.12a3.47,3.47,0,0,1,1.83,2.57c0,1.46-.72,2.36-2.85,3.53,1.66.34,5,1,5,3.89a4.55,4.55,0,0,1-2.21,3.53c-1.58,1.07-4.09,1.54-7.58,1.54-1.23,0-3.75-.11-5.19-.11s-3.87.11-4.64.11c-.51,0-.68-.05-.68-.28s.17-.28.81-.36c1.78-.14,2.47-.73,2.47-2.1ZM132.43,9c.56,0,1.11.06,1.45.06,3.28,0,5-1.12,5-3.19s-1.83-3.37-5.23-3.37a6.89,6.89,0,0,0-1.07.06,12.76,12.76,0,0,0-.17,2.18Zm0,5.55c0,2.71.39,2.93,2.09,2.93a10,10,0,0,0,4.81-.89,3.43,3.43,0,0,0,1.7-2.8c0-2.86-2.64-4.34-7.53-4.2l-1.07,0Z"/><path class="cls-2" d="M166.48,18.07,156.05,18l-9.49.11c-1,0-1-.19-1-.33s.34-.34,1.32-.42c1.66-.17,2.13-.59,2.13-1.91V4.63c0-1.29-.38-1.62-2.38-1.87-.81-.09-1-.17-1-.45s.13-.31.77-.31h15.32l3.87-.11L167.2,6a.47.47,0,0,1,.09.31c0,.23-.17.34-.47.34a.9.9,0,0,1-.72-.34,11.89,11.89,0,0,0-8.73-3.39h-4.21V8.78h7c1.75,0,2.3-.28,2.64-1.35.21-.59.38-.78.77-.78a.6.6,0,0,1,.59.67c0,.17-.17,1.54-.17,1.82s.17,1.88.17,2.24a.44.44,0,0,1-.47.5c-.38,0-.55-.16-.76-.7-.43-1.28-1.07-1.54-3.87-1.54h-5.92v6.08c0,1,1.06,1.43,3.74,1.43,4.56,0,8.18-1.2,10.52-3.53.42-.42.76-.73,1.1-.73s.47.11.47.34a1.21,1.21,0,0,1-.17.56Z"/><path class="cls-2" d="M171.8,4.1a5.37,5.37,0,0,0-3.23-1.51c-.47-.09-.6-.14-.6-.37s.17-.33.51-.33l3.36.11c.26,0,1.79-.11,2.09-.11a1.76,1.76,0,0,1,1.15.39l16.47,11.48v-9c0-1.37-.94-2.07-3-2.24-.51,0-1-.08-1-.34s.21-.33.72-.33,3.2.11,3.88.11,3.19-.11,3.61-.11.64.06.64.28-.13.25-.72.33c-1.75.23-2.47,1-2.47,2.47V17.68c0,.45-.08.56-.51.56a1.57,1.57,0,0,1-.55-.11l-18.82-13v9.46c0,1.85.77,2.61,2.94,2.8.64.06.81.09.81.37s-.26.33-1.19.33c-.72,0-2.51-.11-3.58-.11s-3.1.11-3.53.11c-.25,0-.38-.11-.38-.28s.13-.28.72-.36c2-.22,2.64-1,2.64-3.22Z"/><path class="cls-2" d="M204.27,5.11c-.42-.59-.64-.9-.64-1.12s.09-.34.52-.56a3.71,3.71,0,0,0,1.53-1.37c.21-.26.38-.4.64-.4s.29.12.42.31l7.88,13.3a3.79,3.79,0,0,0,2.55,2.1c.55.14.72.23.72.39s-.13.31-.64.31-3.19-.11-4-.11-2.64.11-3.15.11c-.81,0-1.19-.11-1.19-.31s.21-.28.85-.39c.94-.14,1.24-.33,1.24-.78,0-.22-.22-.56-.81-1.54l-1.53-2.58h-8c-1.62,2.35-2.22,3.48-2.22,4.09,0,.42.34.67,1.28.84.55.11.68.17.68.34s-.17.33-.81.33c-.34,0-1.87-.11-2.51-.11s-1.66.11-2,.11-.68-.11-.68-.31.08-.19.47-.36a4,4,0,0,0,1.91-1.4Zm.6.95-3.62,5.46h6.85Z"/><path class="cls-2" d="M225.13,15.3c0,1.49.64,1.85,3.1,1.85,2.26,0,7.45,0,11.07-3.67.43-.39.6-.5.94-.5a.35.35,0,0,1,.38.31,3.44,3.44,0,0,1-.6,1.14,16.13,16.13,0,0,0-1.87,3.64L228.06,18l-9.49.11c-.93,0-1.19-.05-1.19-.31s.34-.28.94-.36c2.68-.34,2.68-.95,2.68-4.06V4.47c0-1.35-.38-1.68-2.26-1.8-1,0-1.23-.14-1.23-.42s.34-.36.85-.36S222,2,222.66,2c1.7,0,4.51-.11,5-.11s.81,0,.81.33-.26.4-1.11.42-2.25.17-2.25,1.6Z"/><path class="cls-2" d="M247.77,15.3c0,1.49.64,1.85,3.11,1.85,2.25,0,7.44,0,11.06-3.67.43-.39.6-.5.94-.5a.35.35,0,0,1,.38.31,3.44,3.44,0,0,1-.6,1.14,16.13,16.13,0,0,0-1.87,3.64L250.71,18l-9.5.11c-.93,0-1.19-.05-1.19-.31s.34-.28.94-.36c2.68-.34,2.68-.95,2.68-4.06V4.47c0-1.35-.38-1.68-2.26-1.8-1,0-1.23-.14-1.23-.42s.34-.36.85-.36,3.62.11,4.3.11c1.7,0,4.51-.11,5-.11s.81,0,.81.33-.25.4-1.11.42-2.25.17-2.25,1.6Z"/><path class="cls-2" d="M272.2,5.11c-.43-.59-.64-.9-.64-1.12s.08-.34.51-.56a3.71,3.71,0,0,0,1.53-1.37.82.82,0,0,1,.64-.4c.17,0,.3.12.43.31l7.87,13.3a3.81,3.81,0,0,0,2.55,2.1c.56.14.73.23.73.39s-.13.31-.64.31-3.19-.11-4-.11-2.64.11-3.15.11c-.81,0-1.19-.11-1.19-.31s.21-.28.85-.39c.93-.14,1.23-.33,1.23-.78,0-.22-.21-.56-.81-1.54l-1.53-2.58h-8c-1.62,2.35-2.21,3.48-2.21,4.09,0,.42.34.67,1.27.84.56.11.68.17.68.34s-.17.33-.8.33c-.34,0-1.88-.11-2.51-.11s-1.66.11-2,.11-.68-.11-.68-.31.09-.19.47-.36a4,4,0,0,0,1.92-1.4Zm.59.95-3.61,5.46H276Z"/><path class="cls-3" d="M602.79.44c5.77,2.57,8.58,8.09,14,11,4.67-.32,4.33-5.67,9-6-.22,16.56,16.5,16.17,34,15a112.82,112.82,0,0,0-6,13c3,3.78,4.22,2.33,2,8,21.22,2.45,22.91,24.43,29,42-8,10.65-17.47,19.87-37,19-.28,22.39-27.34,18-40,28-8.71-12.85-26-10.56-39-19-11.61-7.55-13.21-27.07-34-24,14.68-21.47,42.85-36.16,32-77,8.32,2.16,13.77,9.07,22,7C596.09,15.61,597.87,5,602.79.44Z"/><path class="cls-3" d="M594.79,19.44c8.23.56,13.67-1.66,18-5C608.76-.91,597.69,9.94,594.79,19.44Z"/><path class="cls-3" d="M610.79,20.44c6.39,2.94,14.59,4.08,21,7-1.76-6.57-5.54-11.12-9-16C620,15.69,612.83,15.48,610.79,20.44Z"/><path class="cls-3" d="M562.79,62.44c3.87-.53,4.88,1.79,9,1-4.21-25.21,18.74-23.26,24-39a161.83,161.83,0,0,1-26-9C573.57,32.91,570,50.62,562.79,62.44Z"/><path class="cls-3" d="M599.79,48.44c-2.87-15.2,5.62-19,10-27C594.46,19.75,591.53,40.81,599.79,48.44Z"/><path class="cls-3" d="M649.79,35.44a46.11,46.11,0,0,0,5-11h-19A18.56,18.56,0,0,0,649.79,35.44Z"/><path class="cls-3" d="M609.79,49.44c9.36,2.54,16.06-20.21,5-24C616.27,36.59,611.75,41.73,609.79,49.44Z"/><path class="cls-3" d="M602.79,49.44c7.26-1.36,11.81-15.11,7-22C604.28,31.6,601.32,38.3,602.79,49.44Z"/><path class="cls-3" d="M626.79,49.44c7.36-4.12,9.71-23.36-5-21C625,33.94,625.58,42,626.79,49.44Z"/><path class="cls-3" d="M635.79,77.44c9-9.38,12.13-24.54,17-38-8.17-.18-14.11-7.87-19-8C640.25,41.48,635.34,67.21,635.79,77.44Z"/><path class="cls-3" d="M604.79,61.44c-1.27-11.72-14.43-11.56-13-26C586.2,47.48,592.51,61,604.79,61.44Z"/><path class="cls-3" d="M614.79,51.44c4.88,3.51,10.88-4.84,7-10C621,46.31,618.15,49.13,614.79,51.44Z"/><path class="cls-3" d="M583.79,42.44c-6.81,3.83-12.25,13.25-6,22,10.21,6.25,23.25,1.62,33,6,8.51,3.83,8.4,13.6,17,16,1.14-21.13-20.23-19.76-35-25C587.3,57.6,589,46.61,583.79,42.44Z"/><path class="cls-3" d="M634.79,84.44c6.16,21.78,39.79,15.81,45-3-3.34-17.32-8-33.3-25-37Q648.75,68.4,634.79,84.44Z"/><path class="cls-3" d="M605.79,55.44c-.18,7.52,6.74,7.93,13,9,3.78,4.23,7.23,8.77,12,12,1.88-8.78,2.21-19.12,3-29C626,51.6,620,57.64,605.79,55.44Z"/><path class="cls-3" d="M540.79,84.44c22.45-.94,22.76,32.79,48,27,5.28-1.21,9.56-6.75,13-12-15.3-5.36-22.91-18.42-30-32C555.12,63.32,546.55,74.48,540.79,84.44Z"/><path class="cls-3" d="M626.79,92.44c-7.46-3.94-8.08-15.15-17-19-9.45-4.07-22.33-1.29-32-4C583.45,86.11,607.11,108.83,626.79,92.44Z"/><path class="cls-3" d="M606.79,102.44c-4.69,5.64-12,8.7-17,14,7.45-1,10.92,8.56,19,9,2.66.15,19-3.93,25-7,7.36-3.77,8.63-10.43,11-17a126.82,126.82,0,0,0-14-12C628.8,99.79,619,102.32,606.79,102.44Z"/></svg>