<?xml version="1.0" encoding="utf-8"?>
<!-- Generator: Adobe Illustrator 21.1.0, SVG Export Plug-In . SVG Version: 6.00 Build 0)  -->
<!DOCTYPE svg PUBLIC "-//W3C//DTD SVG 1.1//EN" "http://www.w3.org/Graphics/SVG/1.1/DTD/svg11.dtd">
<svg version="1.1" id="Layer_1" xmlns="http://www.w3.org/2000/svg" xmlns:xlink="http://www.w3.org/1999/xlink" x="0px" y="0px"
	 viewBox="0 0 387.8 206.5" style="enable-background:new 0 0 387.8 206.5;" xml:space="preserve">
<style type="text/css">
	.st0{fill:#ED3A4B;}
	.st1{fill:#FFFFFF;}
</style>
<g>
	<path class="st0" d="M87.8,127.9l-40.6-0.4l-36.9,0.4c-4,0-4-0.8-4-1.3c0-1,1.3-1.3,5.1-1.6c6.5-0.7,8.3-2.3,8.3-7.4V75.7
		c0-5-1.5-6.3-9.3-7.3c-3.1-0.3-4-0.7-4-1.7c0-0.5,0.5-1.2,3-1.2H69L84.1,65l6.5,16c0.3,0.4,0.3,0.9,0.3,1.2c0,0.9-0.7,1.3-1.8,1.3
		c-1.2,0-1.8-0.3-2.8-1.3c-7.2-8-19.9-13.2-34-13.2H35.9v22.8h27.3c6.8,0,8.9-1.1,10.3-5.2c0.8-2.3,1.5-3,3-3c1.3,0,2.3,1,2.3,2.6
		c0,0.7-0.7,6-0.7,7.1c0,1.2,0.7,7.3,0.7,8.7c0,1.2-0.7,2-1.8,2c-1.5,0-2.2-0.7-3-2.7c-1.7-5-4.1-6-15.1-6h-23v23.6
		c0,4,4.1,5.6,14.6,5.6c17.7,0,31.8-4.7,40.9-13.7c1.7-1.6,3-2.8,4.3-2.8c1.2,0,1.8,0.4,1.8,1.3c0,0.5-0.2,1.2-0.7,2.2L87.8,127.9z"
		/>
	<path class="st0" d="M105.1,99.7c0-5.9-2.5-8.3-8.9-8.8c-1.5-0.1-2.3-0.2-2.3-0.9c0-1.1,0.8-1.9,2.5-1.9c1.5,0,3,0.1,4.8,0.2
		c1.7,0.1,3.6,0.2,5.6,0.2c1.5,0,3.5-0.1,5.5-0.3c2-0.2,3.8-0.2,5-0.2c1.5,0,2.7,0.7,2.7,1.6c0,1.2-0.7,4.7-0.5,6.1
		c7.3-5.3,13.9-8.1,21.5-8.1c12.9,0,18.7,4.7,18.7,14.2V119c0,3.5,2,5.2,6.3,6c2.2,0.3,2.8,0.7,2.8,1.7c0,1.2-0.8,1.2-3.3,1.2
		c-2,0-9.3-0.4-14.1-0.4c-5,0-12.4,0.4-14.2,0.4c-1.3,0-2-0.4-2-1.1c0-0.8,0.8-1.2,2.5-1.4c4.6-0.7,7.8-1.5,7.8-6.8v-15.5
		c0-7.4-3.1-10.5-10.8-10.5c-5,0-8.6,1.1-15.2,5.4v20.2c0,4.5,2.2,6.4,7.3,7.1c1.8,0.2,3.3,0.4,3.3,1.5c0,0.7-0.3,1-2.2,1
		c-6,0-12.6-0.4-18-0.4c-3.1,0-10.8,0.4-13.4,0.4c-1.3,0-2-0.3-2-1c0-0.8,0.7-1.1,2.8-1.3c5.8-0.5,7.9-2.4,7.9-6.6V99.7H105.1z"/>
	<path class="st0" d="M196,103.5c12.1,5.3,15.6,8.3,15.6,13.2c0,6.8-8.8,11.5-21.2,11.5c-5.3,0-10.4-0.7-15.4-2.1
		c-0.8-0.2-1.7-0.4-2.2-0.4c-0.7,0-1.3,0.3-2,1.2c-0.7,0.8-1,1-1.5,1c-1.3,0-1.5-0.4-1.2-2c0.2-0.9,0.2-1.7,0.2-2.6
		c0-1.6-2-9.5-2-10.3c0-1.3,0.7-2.2,1.5-2.2s1.5,0.7,2.3,2.5c3.8,7.3,12.3,12.2,21.2,12.2c6.1,0,10.1-1.9,10.1-5.1
		c0-2.6-3.5-5-14.4-9.8c-12.3-5.3-16.2-8.6-16.2-13.4c0-6,7.1-10,17.2-10c3.6,0,7,0.4,11.6,1.3c1.3,0.3,2.5,0.5,3.3,0.5
		s1.5-0.2,2.7-0.9c0.7-0.4,1-0.5,1.5-0.5c1,0,1.5,0.7,1.5,1.9c0,0.5-0.3,2.1-0.3,3.8c0,2.1,1.5,7.1,1.5,8.5c0,0.5-0.5,1-1,1
		c-0.8,0-1.2-0.4-2.2-2.2c-4-7.2-10.3-11-18-11c-4.6,0-7.8,1.7-7.8,4.1c0,2.5,2.5,4.2,13.1,8.9L196,103.5z"/>
	<path class="st0" d="M240.1,118.7c0,3.5,2.8,5.9,8.1,6.8c1.7,0.3,3.1,0.7,3.1,1.6c0,0.7-1.2,0.9-2.5,0.9c-1,0-15.1-0.4-16.7-0.4
		c-1.7,0-13.9,0.4-15.2,0.4c-1.7,0-2.5-0.1-2.5-1s1.2-1.4,4.1-1.7c3.3-0.4,7.1-0.9,7.1-5.2V97.5c0-4-3.1-6.1-9.3-6.2
		c-2,0-3.5-0.1-3.5-1.1c0-1.3,1.8-1.6,6.1-1.6c13.1,0,17.6-0.7,19.2-0.7c1.7,0,2.6,0,2.6,1.4c0,1.1-0.8,6.4-0.8,7.6v21.8H240.1z
		 M241.7,72.1c0,3-3.8,5.6-8.4,5.6c-4.6,0-8.4-2.5-8.4-5.6c0-2.9,3.6-5.6,8.3-5.6C238.3,66.5,241.7,69.1,241.7,72.1z"/>
	<path class="st0" d="M275.3,87.5c5.3,0,10.8,1,16.6,2.8c2.3,0.8,3.6,1.2,5.3,1.2c1.3,0,2.2-0.4,3.6-1.9c2.2-2.1,4.5-3.3,6.5-3.3
		c3.3,0,5.3,1.6,5.3,4.1c0,2.8-3,4.7-7.6,4.7c-2,0-4.5-0.3-8.4-1.1c2.5,3.7,3.1,5.2,3.1,7.6c0,9.6-10.3,16.4-24.8,16.4
		c-4,0-8.9-0.7-11.9-1.6c-0.5-0.1-1-0.2-1.2-0.2c-1.8,0-7.1,2.1-7.1,5.7c0,2.7,4.3,4.6,10.8,4.6c3.1,0,19.2-0.7,22.8-0.7
		c14.6,0,23.5,4.7,23.5,12.4c0,12.3-15.9,21.1-38.2,21.1c-15.4,0-26.7-5.7-26.7-13.3c0-6.2,3.6-9.3,14.9-12.6
		c-8.1-2.2-11.8-5.3-11.8-9.7c0-3.8,2-6.1,9.1-8.7c-6.6-4.1-8.8-7.1-8.8-12.2C250.3,94.2,261.1,87.5,275.3,87.5z M282,134.4
		c-16.9,0-27.2,0.7-27.2,9.5c0,7.6,8.1,13.1,19.4,13.1c16.6,0,30-6.2,30-14.1c0-5.9-5.8-8.5-19-8.5H282z M276,116.1
		c6.6,0,10.3-3.8,10.3-10.6c0-8.9-5.1-15.6-12.3-15.6c-6.3,0-9.6,3.5-9.6,10C264.4,110.2,268.5,116.1,276,116.1z"/>
	<path class="st0" d="M317.9,99.7c0-5.9-2.5-8.3-8.9-8.8c-1.5-0.1-2.3-0.2-2.3-0.9c0-1.1,0.8-1.9,2.5-1.9c1.5,0,3,0.1,4.8,0.2
		c1.7,0.1,3.6,0.2,5.6,0.2c1.5,0,3.5-0.1,5.5-0.3c2-0.2,3.8-0.2,5-0.2c1.5,0,2.6,0.7,2.6,1.6c0,1.2-0.7,4.7-0.5,6.1
		c7.3-5.3,13.9-8.1,21.5-8.1c12.9,0,18.7,4.7,18.7,14.2V119c0,3.5,2,5.2,6.3,6c2.2,0.3,2.8,0.7,2.8,1.7c0,1.2-0.8,1.2-3.3,1.2
		c-2,0-9.3-0.4-14.1-0.4c-5,0-12.4,0.4-14.2,0.4c-1.3,0-2-0.4-2-1.1c0-0.8,0.8-1.2,2.5-1.4c4.6-0.7,7.8-1.5,7.8-6.8v-15.5
		c0-7.4-3.1-10.5-10.8-10.5c-5,0-8.6,1.1-15.2,5.4v20.2c0,4.5,2.2,6.4,7.3,7.1c1.8,0.2,3.3,0.4,3.3,1.5c0,0.7-0.3,1-2.2,1
		c-6,0-12.6-0.4-18-0.4c-3.1,0-10.8,0.4-13.4,0.4c-1.3,0-2-0.3-2-1c0-0.8,0.7-1.1,2.8-1.3c5.8-0.5,7.9-2.4,7.9-6.6L317.9,99.7
		L317.9,99.7z"/>
</g>
<g>
	<path class="st1" d="M96.7,67.1c0-1-0.4-1.3-1.8-1.5c-0.5,0-0.7-0.1-0.7-0.2c0-0.2,0.3-0.2,0.8-0.2s2.2,0.1,3,0.1
		c0.7,0,3.6-0.1,4.1-0.1c1.9,0,2.9,0.2,3.8,0.8c0.8,0.5,1.3,1.2,1.3,1.8c0,1-0.5,1.7-2,2.5c1.2,0.2,3.5,0.7,3.5,2.8
		c0,0.9-0.6,1.9-1.6,2.5c-1.1,0.8-2.9,1.1-5.4,1.1c-0.9,0-2.7-0.1-3.7-0.1c-0.9,0-2.7,0.1-3.3,0.1c-0.4,0-0.5,0-0.5-0.2
		s0.1-0.2,0.6-0.3c1.3-0.1,1.7-0.5,1.7-1.5v-7.6H96.7z M99.6,70.2c0.4,0,0.8,0,1,0c2.3,0,3.6-0.8,3.6-2.3s-1.3-2.4-3.7-2.4
		c-0.3,0-0.4,0-0.8,0c-0.1,0.5-0.1,1-0.1,1.5V70.2z M99.6,74.1c0,1.9,0.3,2.1,1.5,2.1c0.8,0,2.3,0,3.4-0.6c0.8-0.5,1.2-1.2,1.2-2
		c0-2-1.9-3.1-5.3-3h-0.8C99.6,70.6,99.6,74.1,99.6,74.1z"/>
	<path class="st1" d="M123.7,76.6l-7.4-0.1l-6.7,0.1c-0.7,0-0.7-0.1-0.7-0.2c0-0.2,0.2-0.2,0.9-0.3c1.2-0.1,1.5-0.4,1.5-1.3v-7.6
		c0-0.9-0.3-1.1-1.7-1.3c-0.6-0.1-0.7-0.1-0.7-0.3c0-0.1,0.1-0.2,0.5-0.2h10.8l2.7-0.1l1.2,2.9c0.1,0.1,0.1,0.2,0.1,0.2
		c0,0.2-0.1,0.2-0.3,0.2c-0.2,0-0.3-0.1-0.5-0.2c-1.3-1.4-3.6-2.4-6.2-2.4h-3v4.1h5c1.2,0,1.6-0.2,1.9-1c0.2-0.4,0.3-0.6,0.5-0.6
		s0.4,0.2,0.4,0.5c0,0.1-0.1,1.1-0.1,1.3c0,0.2,0.1,1.3,0.1,1.6c0,0.2-0.1,0.4-0.3,0.4c-0.3,0-0.4-0.1-0.5-0.5
		c-0.3-0.9-0.8-1.1-2.7-1.1h-4.2V75c0,0.7,0.8,1,2.6,1c3.2,0,5.8-0.9,7.4-2.5c0.3-0.3,0.5-0.5,0.8-0.5c0.2,0,0.3,0.1,0.3,0.2
		s0,0.2-0.1,0.4L123.7,76.6z"/>
	<path class="st1" d="M127.5,66.8c-1-0.8-1.4-1-2.3-1.1c-0.3-0.1-0.4-0.1-0.4-0.3c0-0.2,0.1-0.2,0.4-0.2c0.2,0,2.2,0.1,2.4,0.1
		c0.2,0,1.3-0.1,1.5-0.1c0.3,0,0.5,0,0.8,0.3l11.7,8.1v-6.3c0-1-0.7-1.5-2.1-1.6c-0.4,0-0.7-0.1-0.7-0.2c0-0.2,0.2-0.2,0.5-0.2
		c0.4,0,2.3,0.1,2.7,0.1c0.5,0,2.3-0.1,2.6-0.1s0.5,0,0.5,0.2c0,0.1-0.1,0.2-0.5,0.2c-1.2,0.2-1.7,0.7-1.7,1.7v9
		c0,0.3-0.1,0.4-0.4,0.4c-0.2,0-0.3,0-0.4-0.1l-13.3-9.2v6.7c0,1.3,0.5,1.8,2.1,2c0.5,0,0.6,0.1,0.6,0.3c0,0.2-0.2,0.2-0.8,0.2
		c-0.5,0-1.8-0.1-2.5-0.1s-2.2,0.1-2.5,0.1c-0.2,0-0.3-0.1-0.3-0.2c0-0.2,0.1-0.2,0.5-0.3c1.4-0.2,1.9-0.7,1.9-2.3v-7.1H127.5z"/>
	<path class="st1" d="M150.4,67.5c-0.3-0.4-0.5-0.6-0.5-0.8c0-0.2,0.1-0.2,0.4-0.4c0.5-0.2,0.8-0.5,1.1-1c0.2-0.2,0.3-0.3,0.5-0.3
		c0.1,0,0.2,0.1,0.3,0.2l5.6,9.4c0.5,0.9,1,1.3,1.8,1.5c0.4,0.1,0.5,0.2,0.5,0.3c0,0.2-0.1,0.2-0.5,0.2s-2.3-0.1-2.8-0.1
		c-0.6,0-1.9,0.1-2.2,0.1c-0.6,0-0.8-0.1-0.8-0.2s0.2-0.2,0.6-0.3c0.7-0.1,0.9-0.2,0.9-0.6c0-0.2-0.2-0.4-0.6-1.1l-1.1-1.8h-5.7
		c-1.1,1.7-1.6,2.5-1.6,2.9c0,0.3,0.2,0.5,0.9,0.6c0.4,0.1,0.5,0.1,0.5,0.2c0,0.2-0.1,0.2-0.6,0.2c-0.2,0-1.3-0.1-1.8-0.1
		s-1.2,0.1-1.4,0.1c-0.3,0-0.5-0.1-0.5-0.2s0.1-0.1,0.3-0.3c0.7-0.3,1-0.5,1.4-1L150.4,67.5z M150.8,68.1l-2.6,3.9h4.8L150.8,68.1z"
		/>
	<path class="st1" d="M165.2,74.7c0,1,0.5,1.3,2.2,1.3c1.6,0,5.3,0,7.8-2.6c0.3-0.3,0.4-0.4,0.7-0.4c0.2,0,0.3,0.1,0.3,0.2
		s-0.2,0.4-0.4,0.8c-0.6,1-1,1.6-1.3,2.6l-7.1-0.1l-6.7,0.1c-0.7,0-0.8,0-0.8-0.2s0.2-0.2,0.7-0.3c1.9-0.2,1.9-0.7,1.9-2.9V67
		c0-1-0.3-1.2-1.6-1.3c-0.7,0-0.9-0.1-0.9-0.3c0-0.2,0.2-0.3,0.6-0.3c0.3,0,2.6,0.1,3,0.1c1.2,0,3.2-0.1,3.6-0.1
		c0.3,0,0.6,0,0.6,0.2s-0.2,0.3-0.8,0.3c-0.7,0-1.6,0.1-1.6,1.1v8H165.2z"/>
	<path class="st1" d="M181.2,74.7c0,1,0.5,1.3,2.2,1.3c1.6,0,5.3,0,7.8-2.6c0.3-0.3,0.4-0.4,0.7-0.4c0.2,0,0.3,0.1,0.3,0.2
		s-0.2,0.4-0.4,0.8c-0.6,1-1,1.6-1.3,2.6l-7.1-0.1l-6.7,0.1c-0.7,0-0.8,0-0.8-0.2s0.2-0.2,0.7-0.3c1.9-0.2,1.9-0.7,1.9-2.9V67
		c0-1-0.3-1.2-1.6-1.3c-0.7,0-0.9-0.1-0.9-0.3c0-0.2,0.2-0.3,0.6-0.3c0.3,0,2.6,0.1,3,0.1c1.2,0,3.2-0.1,3.6-0.1
		c0.3,0,0.6,0,0.6,0.2s-0.2,0.3-0.8,0.3c-0.7,0-1.6,0.1-1.6,1.1v8H181.2z"/>
	<path class="st1" d="M198.5,67.5c-0.3-0.4-0.5-0.6-0.5-0.8c0-0.2,0.1-0.2,0.4-0.4c0.5-0.2,0.8-0.5,1.1-1c0.1-0.2,0.3-0.3,0.5-0.3
		c0.1,0,0.2,0.1,0.3,0.2l5.6,9.4c0.5,0.9,1,1.3,1.8,1.5c0.4,0.1,0.5,0.2,0.5,0.3c0,0.2-0.1,0.2-0.5,0.2s-2.3-0.1-2.8-0.1
		c-0.6,0-1.9,0.1-2.2,0.1c-0.6,0-0.8-0.1-0.8-0.2s0.2-0.2,0.6-0.3c0.7-0.1,0.9-0.2,0.9-0.6c0-0.2-0.2-0.4-0.6-1.1l-1.1-1.8H196
		c-1.1,1.7-1.6,2.5-1.6,2.9c0,0.3,0.2,0.5,0.9,0.6c0.4,0.1,0.5,0.1,0.5,0.2c0,0.2-0.1,0.2-0.6,0.2c-0.2,0-1.3-0.1-1.8-0.1
		s-1.2,0.1-1.4,0.1c-0.3,0-0.5-0.1-0.5-0.2s0.1-0.1,0.3-0.3c0.7-0.3,1-0.5,1.4-1L198.5,67.5z M198.9,68.1l-2.6,3.9h4.8L198.9,68.1z"
		/>
</g>
</svg>
