<svg xmlns="http://www.w3.org/2000/svg" xmlns:xlink="http://www.w3.org/1999/xlink" width="260" height="71" viewBox="0 0 260 71">
    <defs>
        <path id="zbyfm8rwpa" d="M0 0.26L35.926 0.26 35.926 53.006 0 53.006z"/>
        <path id="d66n0czmgc" d="M0.196 0.239L4.125 0.239 4.125 23.948 0.196 23.948z"/>
        <path id="q4ibbfv5re" d="M0 71L259 71 259 1 0 1z"/>
    </defs>
    <g fill="none" fill-rule="evenodd">
        <g>
            <path fill="#72BF44" d="M10.004 64c-.458 0-.92-.143-1.296-.434-.845-.654-.948-1.81-.232-2.581l4.992-5.34c.716-.77 1.98-.864 2.825-.21.843.654.948 1.808.23 2.58l-4.99 5.339c-.397.428-.962.646-1.53.646"/>
            <path fill="#72BF44" d="M34.5 71c9.204 0 17.905-3.614 24.5-10.178L56.311 58c-5.871 5.842-13.617 9.06-21.812 9.06-8.194 0-15.94-3.218-21.812-9.06L10 60.822C16.594 67.386 25.295 71 34.5 71"/>
            <path fill="#72BF44" d="M60.996 64c.458 0 .92-.143 1.296-.434.845-.654.948-1.81.231-2.581l-4.99-5.34c-.717-.77-1.982-.864-2.826-.21-.843.654-.948 1.808-.23 2.58l4.99 5.339c.397.428.962.646 1.53.646"/>
            <g>
                <mask id="r56x5osawb" fill="#fff">
                    <use xlink:href="#zbyfm8rwpa"/>
                </mask>
                <path fill="#00B0E3" d="M15.761 34.297v.002h.008l.001 12.245c0 1.454-1.179 2.635-2.627 2.635h-6.08c-2.13-4.29-3.25-9.068-3.25-13.89 0-8.497 3.342-16.438 9.41-22.364 6.067-5.923 14.072-9.05 22.555-8.827.05.002.098.007.148.008V.276l-.044-.002c-9.501-.266-18.507 3.26-25.318 9.91C3.752 16.836 0 25.751 0 35.29c0 5.839 1.464 11.62 4.231 16.719l.541.998h8.37c3.552 0 6.442-2.9 6.442-6.461V34.138" mask="url(#r56x5osawb)"/>
            </g>
            <path fill="#00B0E3" d="M53.645 34.2v.003h-.01v12.304c0 1.46 1.15 2.647 2.56 2.647h5.924c2.073-4.309 3.165-9.111 3.165-13.957 0-8.537-3.256-16.516-9.167-22.47-5.911-5.952-13.71-9.094-21.974-8.87-.048.002-.094.007-.143.008V.015l.043-.001C43.3-.253 52.072 3.29 58.708 9.972 65.343 16.656 69 25.614 69 35.197c0 5.867-1.426 11.676-4.122 16.8L64.35 53h-8.156c-3.459 0-6.275-2.914-6.275-6.493V34.041M85 44.45v-22.9c0-.366.185-.55.552-.55h2.897c.367 0 .551.184.551.55v22.9c0 .367-.184.55-.55.55h-2.898c-.367 0-.552-.183-.552-.55M93.57 44.443V27.812c0-.369.18-.554.538-.554h2.819c.356 0 .536.186.536.554v16.631c0 .372-.18.557-.536.557h-2.82c-.357 0-.537-.186-.537-.557m.135-20.12c-.47-.474-.705-1.082-.705-1.822s.234-1.343.705-1.807c.469-.462 1.073-.694 1.811-.694.74 0 1.337.232 1.796.694.458.464.688 1.067.688 1.807s-.23 1.347-.688 1.823c-.458.475-1.056.711-1.796.711-.739 0-1.342-.236-1.81-.711M106.649 44.567l-5.614-15.969c-.024-.068-.035-.144-.035-.233 0-.243.165-.365.497-.365h3.34c.331 0 .544.143.64.432l3.376 11.045c.047.089.101.133.16.133s.1-.044.124-.133l3.376-11.012c.094-.31.307-.465.639-.465l3.342.033c.188 0 .33.055.425.166.095.11.106.255.036.432l-5.58 15.936c-.094.289-.307.433-.639.433h-3.447c-.332 0-.545-.144-.64-.433M123.661 31.047c-.584.422-.982 1.008-1.197 1.76-.167.455-.262.932-.287 1.434-.023.138.037.205.179.205h7.179c.143 0 .214-.067.214-.205-.094-.684-.167-1.092-.214-1.23-.213-.797-.637-1.429-1.268-1.896-.631-.464-1.422-.7-2.375-.7-.904 0-1.648.211-2.23.632m5.25 10.076c.654-.33 1.183-.779 1.588-1.35.119-.181.275-.273.464-.273.12 0 .226.035.323.102L133 40.901c.166.16.25.307.25.444 0 .092-.036.195-.107.308-.69 1.048-1.631 1.867-2.822 2.46-1.19.59-2.56.887-4.107.887-1.881 0-3.459-.427-4.733-1.282-1.273-.854-2.196-2.043-2.768-3.569-.476-1.251-.713-2.663-.713-4.234 0-1.573.13-2.778.393-3.62.451-1.618 1.344-2.905 2.679-3.86 1.333-.957 2.952-1.435 4.856-1.435 4.452 0 7.06 2.333 7.822 7.002.12.752.203 1.684.25 2.8 0 .365-.19.548-.57.548h-11.074c-.142 0-.212.068-.212.203 0 .615.07 1.116.212 1.504.263.819.764 1.457 1.501 1.911.738.457 1.655.685 2.75.685.88-.023 1.65-.2 2.304-.53M149.705 36.085c0-1.763-.346-3.14-1.038-4.136-.669-.947-1.624-1.423-2.863-1.423-1.146 0-2.04.497-2.685 1.491-.598.927-.894 2.272-.894 4.034 0 1.739.274 3.05.822 3.932.668 1.063 1.6 1.593 2.792 1.593 1.383 0 2.386-.542 3.007-1.626.573-.95.859-2.24.859-3.865m4.295-.068c0 1.56-.215 2.971-.645 4.237-.524 1.47-1.384 2.627-2.578 3.474-1.193.847-2.624 1.272-4.294 1.272-1.695 0-3.054-.587-4.08-1.764-.048-.089-.102-.123-.161-.101-.06.023-.089.08-.089.168v.882c0 .363-.192.543-.573.543h-3.007c-.382 0-.573-.18-.573-.543V21.543c0-.36.191-.543.573-.543h3.007c.382 0 .573.182.573.543v7.186c0 .09.028.14.089.153.06.011.113-.017.161-.085 1.05-1.107 2.41-1.66 4.08-1.66 1.741 0 3.199.416 4.367 1.252 1.169.838 2.016 2.001 2.541 3.492.406 1.153.609 2.532.609 4.136M166.725 27h2.746c.352 0 .529.186.529.555V44.2c0 .372-.177.557-.529.557h-2.746c-.354 0-.53-.185-.53-.557v-.904c0-.09-.029-.15-.084-.172-.055-.024-.105.012-.147.104-.884 1.181-2.23 1.772-4.04 1.772-1.677 0-3.083-.508-4.22-1.53-1.136-1.018-1.704-2.466-1.704-4.342V27.555c0-.369.177-.555.529-.555h2.78c.353 0 .53.186.53.555v10.424c0 1.09.272 1.959.81 2.609.542.647 1.298.97 2.268.97.993 0 1.787-.324 2.383-.97.597-.65.894-1.519.894-2.609V27.555c0-.369.176-.555.53-.555M173.827 50.437v-2.253c0-.376.083-.564.25-.564h.216c.982 0 1.747-.088 2.3-.263.55-.177 1-.512 1.347-1.005.346-.492.664-1.23.951-2.219.048-.117.048-.209 0-.28l-5.857-17.22c-.023-.07-.034-.153-.034-.247 0-.257.166-.386.503-.386h3.232c.336 0 .551.152.647.457l3.522 11.655c.046.094.1.142.16.142s.102-.048.126-.142l3.414-11.655c.095-.305.311-.457.646-.457h3.234c.215 0 .363.052.449.159.083.104.089.261.018.474l-6.287 18.345c-.599 1.667-1.188 2.911-1.76 3.733-.576.821-1.36 1.408-2.353 1.76-.995.353-2.403.529-4.222.529h-.252c-.167 0-.25-.188-.25-.563M192 44.45v-22.9c0-.366.184-.55.552-.55h2.897c.367 0 .551.184.551.55v22.9c0 .367-.184.55-.551.55h-2.897c-.368 0-.552-.183-.552-.55M209.256 40.867c.612-.477 1.046-1.148 1.3-2.015.256-.728.383-1.685.383-2.87 0-1.115-.116-2.072-.347-2.869-.256-.865-.7-1.531-1.337-1.999-.636-.464-1.394-.7-2.272-.7-.881 0-1.63.236-2.255.7-.626.468-1.066 1.134-1.32 1.999-.232.797-.348 1.754-.348 2.87s.116 2.072.348 2.87c.254.866.7 1.537 1.336 2.014.635.477 1.406.717 2.307.717.856 0 1.59-.24 2.205-.717m-6.924 2.766c-1.319-.91-2.233-2.173-2.741-3.79-.395-1.116-.591-2.414-.591-3.894 0-1.457.185-2.757.556-3.894.532-1.594 1.457-2.835 2.776-3.723 1.318-.888 2.904-1.332 4.756-1.332 1.756 0 3.28.444 4.563 1.332 1.284.888 2.192 2.117 2.724 3.688.417 1.093.625 2.392.625 3.895 0 1.434-.197 2.732-.59 3.893-.532 1.618-1.446 2.887-2.741 3.809-1.297.922-2.835 1.383-4.617 1.383-1.827 0-3.402-.455-4.72-1.367M221.372 43.65c-1.34-.898-2.273-2.11-2.799-3.636-.383-1.025-.573-2.391-.573-4.1 0-1.64.19-2.982.573-4.03.503-1.503 1.429-2.692 2.78-3.57 1.351-.875 2.949-1.314 4.79-1.314 1.866 0 3.491.444 4.88 1.332 1.387.888 2.307 2.004 2.762 3.348.072.204.143.522.215.954v.138c0 .252-.156.41-.466.477l-2.978.445h-.145c-.262 0-.43-.137-.5-.41l-.108-.444c-.169-.684-.586-1.258-1.257-1.724-.67-.466-1.47-.701-2.403-.701-.91 0-1.68.222-2.313.666-.635.445-1.057 1.054-1.275 1.828-.238.73-.358 1.742-.358 3.04 0 1.252.107 2.266.322 3.04.238.797.669 1.429 1.292 1.895.622.467 1.4.7 2.331.7.91 0 1.691-.221 2.35-.667.657-.443 1.081-1.03 1.274-1.758l.036-.17c.024-.114.101-.228.232-.342.131-.114.282-.16.45-.136l2.977.443c.311.069.466.229.466.479 0 .137-.046.41-.143.819-.454 1.457-1.375 2.612-2.762 3.466-1.389.854-3.014 1.282-4.88 1.282-1.84 0-3.431-.45-4.77-1.35M246.151 40.968c.75-.591 1.124-1.343 1.124-2.255v-1.57c0-.136-.063-.205-.192-.205h-2.665c-1.134 0-2.033.23-2.697.684-.663.455-.996 1.104-.996 1.946 0 .73.256 1.293.771 1.69.513.399 1.166.599 1.958.599 1.048 0 1.948-.295 2.697-.889m1.622-13.217c1.039.5 1.836 1.188 2.394 2.066.556.876.833 1.873.833 2.988v11.374c0 .365-.17.547-.513.547h-2.697c-.344 0-.515-.182-.515-.547v-.853c0-.091-.021-.141-.064-.154-.042-.01-.096.007-.16.051-1.156 1.185-2.698 1.777-4.623 1.777-1.586 0-2.886-.433-3.903-1.299-1.017-.864-1.525-2.15-1.525-3.858 0-1.777.584-3.16 1.75-4.152 1.168-.989 2.81-1.485 4.93-1.485h3.403c.13 0 .193-.069.193-.204v-.786c0-.888-.252-1.576-.753-2.067-.505-.49-1.248-.733-2.232-.733-.75 0-1.372.142-1.862.426-.494.285-.826.678-.996 1.178-.086.319-.28.468-.578.443l-2.891-.375c-.17-.021-.3-.073-.384-.152-.088-.08-.12-.177-.097-.291.191-1.366.903-2.48 2.135-3.347 1.23-.865 2.757-1.298 4.575-1.298 1.349-.001 2.542.25 3.58.75"/>
            <g transform="translate(255 21)">
                <mask id="cttrtksisd" fill="#fff">
                    <use xlink:href="#d66n0czmgc"/>
                </mask>
                <path fill="#00B0E3" d="M.196 23.405V.782c0-.36.18-.542.542-.542h2.845c.36 0 .542.182.542.542v22.623c0 .362-.181.543-.542.543H.738c-.361 0-.542-.181-.542-.543" mask="url(#cttrtksisd)"/>
            </g>
            <path fill="#00B0E3" d="M16.88 24.915h6.714l4.133-6.83h-4.65l-6.197 6.83zM24.76 28H13.724c-.63 0-1.212-.307-1.513-.803-.302-.495-.278-1.097.062-1.574l8.84-9.915c.316-.44.866-.708 1.45-.708h7.713c.573 0 1.108.253 1.429.679.32.425.384.964.172 1.436l-5.518 9.915c-.263.588-.896.97-1.6.97zM46.922 18.085h-4.65l4.133 6.83h6.714l-6.197-6.83zm-3.283 8.946l-5.516-9.916c-.212-.473-.148-1.012.172-1.437.32-.426.856-.678 1.428-.678h7.713c.586 0 1.135.268 1.45.708l8.84 9.915c.342.476.365 1.08.062 1.573-.3.497-.883.804-1.513.804H45.24c-.703 0-1.337-.382-1.6-.969z"/>
            <path fill="#00B0E3" d="M15.333 28.192v1.103c0 1.938 1.647 3.513 3.67 3.513 2.02 0 3.665-1.575 3.665-3.513v-1.103h-7.335zM19.003 36C15.14 36 12 32.996 12 29.295v-2.7c0-.881.745-1.595 1.666-1.595h10.668c.921 0 1.666.714 1.666 1.595v2.7c0 3.7-3.137 6.705-6.997 6.705z"/>
            <path fill="#00B0E3" d="M26.333 28.192v1.103c0 1.938 1.645 3.513 3.666 3.513s3.668-1.575 3.668-3.513v-1.103h-7.334zM29.999 36C26.139 36 23 32.996 23 29.295v-2.7c0-.881.745-1.595 1.666-1.595h10.667c.922 0 1.667.714 1.667 1.595v2.7c0 3.7-3.141 6.705-7.001 6.705z"/>
            <path fill="#00B0E3" d="M36.334 28.192v1.103c0 1.938 1.645 3.513 3.665 3.513 2.023 0 3.67-1.575 3.67-3.513v-1.103h-7.335zM40 36C36.14 36 33 32.996 33 29.295v-2.7c0-.881.746-1.595 1.666-1.595h10.668c.921 0 1.666.714 1.666 1.595v2.7c.001 3.7-3.14 6.705-7 6.705z"/>
            <path fill="#00B0E3" d="M47.335 28.192v1.103c0 1.937 1.645 3.512 3.667 3.512 2.021 0 3.666-1.575 3.666-3.512v-1.103h-7.333zM51 36C47.14 36 44 32.995 44 29.295v-2.7c0-.881.746-1.595 1.667-1.595h10.667c.921 0 1.666.714 1.666 1.595v2.7c0 3.7-3.137 6.705-6.999 6.705z"/>
            <mask id="3nv6y3whtf" fill="#fff">
                <use xlink:href="#q4ibbfv5re"/>
            </mask>
            <path fill="#00B0E3" d="M25 19L45 19 45 16 25 16z" mask="url(#3nv6y3whtf)"/>
            <path fill="#00B0E3" d="M33 29L37 29 37 17 33 17zM24 49L33 49 33 40 24 40zM37 49L46 49 46 40 37 40z" mask="url(#3nv6y3whtf)"/>
        </g>
    </g>
</svg>
