<?xml version="1.0" encoding="utf-8"?>
<!-- Generator: Adobe Illustrator 21.1.0, SVG Export Plug-In . SVG Version: 6.00 Build 0)  -->
<!DOCTYPE svg PUBLIC "-//W3C//DTD SVG 1.1//EN" "http://www.w3.org/Graphics/SVG/1.1/DTD/svg11.dtd">
<svg version="1.1" xmlns="http://www.w3.org/2000/svg" xmlns:xlink="http://www.w3.org/1999/xlink" x="0px" y="0px"
	 viewBox="0 0 387.8 206.5" style="enable-background:new 0 0 387.8 206.5;" xml:space="preserve">
<style type="text/css">
	.st0{fill:#FFFFFF;}
</style>
<g id="Layer_2">
</g>
<g id="Layer_1">
	<g>
		<g>
			<path class="st0" d="M42.6,64.5c-0.7-5.8-4.7-7.8-9.6-7.8c-8.4,0-12.5,6.9-12.5,16.4c0,9.2,3.4,17,12.1,17c4.9,0,9.4-2,9.9-8.4
				h13.7c-0.6,15.3-11.4,19-24.8,19c-13.3,0-24.1-7.9-24.1-27.3C7.2,54,17.5,46,33.4,46c11.3,0,22.3,4.7,22.5,18.5H42.6z"/>
			<path class="st0" d="M59.9,73.9c0.6-9.4,9.7-12,17.8-12c12.1,0,19,3.4,19,15.6v13.8c0,2.7,0.1,5.4,0.2,8.1H85.5
				c-0.1-1.2-0.2-3.9-0.2-5.8h-0.1c-2.8,5.5-8.1,7.2-13.4,7.2c-8.8,0-14-4.2-14-11.7c0-8.6,6.9-12.5,18.5-12.5h8.6
				c0-5.8-2.3-7.2-7-7.2c-4.4,0-5.7,2-5.8,4.5H59.9z M79.9,83.6c-7.9,0-9.6,2.5-9.6,5.5c0,2.2,1.8,3.7,5.1,3.7
				c7.7,0,9.4-5.5,9.4-9.2H79.9z"/>
			<path class="st0" d="M101.1,70.7c0-2.3-0.1-5-0.2-7.4h11.5c0.1,2.2,0.2,4.3,0.2,6.5h0.1c3-5.1,6.9-7.9,12.7-7.9
				c4.6,0,9,2.5,11.1,8.1c2.6-4.8,6.8-8.1,13.1-8.1c6.6,0,14.6,2.8,14.6,17v20.5h-11.8v-19c0-5.4-1.8-9.4-6.6-9.4
				c-3.9,0-7.2,3.7-7.2,9.1v19.2h-11.8V80.9c0-5.4-1-9.8-6.4-9.8c-4.1,0-7.4,4.4-7.4,11v17.3h-11.8L101.1,70.7L101.1,70.7z"/>
			<path class="st0" d="M169.4,69.2c0-2.2-0.1-4-0.2-6h11.5c0.2,2,0.2,4,0.2,6c2.7-3.7,6.2-7.3,13.9-7.3c9.8,0,17.2,7.3,17.2,19.7
				c0,12-7.1,19.2-17.5,19.2c-6.8,0-10.8-3.2-13.2-6.1v14.4h-11.8L169.4,69.2L169.4,69.2z M190.4,70.2c-5.4,0-9.2,4.4-9.2,10.8
				c0,7,3.8,11.4,9.2,11.4c5.2,0,8.9-4.5,8.9-10.9C199.4,75.7,196.5,70.2,190.4,70.2z"/>
			<path class="st0" d="M295.4,69.2c0-2.2-0.1-4-0.2-6h11.5c0.2,2,0.2,4,0.2,6c2.7-3.7,6.2-7.3,13.9-7.3c9.8,0,17.2,7.3,17.2,19.7
				c0,12-7.1,19.2-17.5,19.2c-6.8,0-10.8-3.2-13.2-6.1v14.4h-11.8V69.2H295.4z M316.4,70.2c-5.4,0-9.2,4.4-9.2,10.8
				c0,7,3.8,11.4,9.2,11.4c5.2,0,8.9-4.5,8.9-10.9C325.3,75.7,322.5,70.2,316.4,70.2z"/>
			<path class="st0" d="M216.5,73.9c0.6-9.4,9.7-12,17.8-12c12.1,0,19,3.4,19,15.6v13.8c0,2.7,0.1,5.4,0.2,8.1H242
				c-0.1-1.2-0.2-3.9-0.2-5.8h-0.1c-2.8,5.5-8.1,7.2-13.4,7.2c-8.8,0-14-4.2-14-11.7c0-8.6,6.9-12.5,18.5-12.5h8.6
				c0-5.8-2.3-7.2-7-7.2c-4.4,0-5.7,2-5.8,4.5H216.5z M236.5,83.6c-7.9,0-9.6,2.5-9.6,5.5c0,2.2,1.8,3.7,5.1,3.7
				c7.7,0,9.4-5.5,9.4-9.2H236.5z"/>
			<path class="st0" d="M268.7,88.1c0,1.9,0.6,3.2,1.5,4.1s2.3,1.1,3.9,1.1c2.5,0,6.2-0.4,6.2-4c0-2.5-2.8-3.4-5.2-3.8l-8.2-1.5
				c-5.9-1.1-9.4-4.4-9.4-10c0-10.3,10.1-12.1,16.9-12.1c13.4,0,17.1,4.5,17.3,12.1h-11.8c-0.2-1.9-0.8-3.1-1.5-3.7
				c-0.9-0.7-2.7-0.9-4.2-0.9c-1.9,0-4.4,0.9-4.4,3.2c0,2.6,2.9,3.2,5.4,3.7l8,1.5c6.8,1.3,9.3,4.8,9.3,10.8
				c0,11-11.9,12.2-18.8,12.2c-15.5,0-16.7-7.4-17.1-12.7C256.6,88.1,268.7,88.1,268.7,88.1z"/>
			<path class="st0" d="M352.6,84.7c0.2,5.6,3.1,8.6,8.1,8.6c5.2,0,6.1-2.5,6.7-4.9H380c-2.5,11.5-10.9,12.4-19.5,12.4
				c-10.7,0-20.1-4.6-20.1-18.9c0-14,9.3-20,19.9-20c15.1,0,20.3,8.7,20.3,22.8H352.6z M368,77.2c-0.1-5.9-3.4-7.9-7.6-7.9
				c-5.5,0-7.1,4.1-7.6,7.9H368z"/>
		</g>
		<g>
			<path class="st0" d="M8.1,107.2h20.7l18.3,38.3L47,107.2h13.1v51.4H39.9l-18.7-39.9l0.2,39.9H8.1V107.2z"/>
			<path class="st0" d="M103.6,122.8H118l6.2,25.3l6.7-25.3h15.8l6.6,25.2l6.7-25.2h12.6l-11.9,35.7h-15.8l-6.9-24.9l-7.4,24.9
				h-15.5L103.6,122.8z"/>
			<path class="st0" d="M186.2,147c0,0.6,0,2,0.6,3.2c0.5,1.1,1.7,2.2,4.1,2.2c3.2,0,4.3-2.1,4.3-3.6c0-2.5-2.2-3.2-5.3-4l-7.7-2.1
				c-2.3-0.6-9.2-2.3-9.2-9.7c0-3.6,2-6.5,4.5-8.1c3.3-2.2,7.8-3.1,13.4-3.1c8.1,0,16.6,2.1,17.2,12h-13.4c0-1.1,0-2.4-0.5-3.5
				c-0.6-1.1-1.7-1.9-3.9-1.9s-4.2,0.9-4.2,3.1c0,2.1,1.6,2.8,3.8,3.4l10.1,2.6c3.6,0.9,8.9,2.8,8.9,9.8c0,12.1-14.8,12.1-18.1,12.1
				c-7.7,0-18.7-1.1-18.5-12.6h13.9V147z"/>
			<path class="st0" d="M76,144.4c0.2,5.6,3.1,8.6,8.1,8.6c5.2,0,6.1-2.5,6.7-4.9h12.6c-2.5,11.5-10.9,12.4-19.5,12.4
				c-10.7,0-20.1-4.6-20.1-18.9c0-14,9.3-20,19.9-20c15.1,0,20.3,8.7,20.3,22.8L76,144.4L76,144.4z M91.4,136.9
				c-0.1-5.9-3.4-7.9-7.6-7.9c-5.5,0-7.1,4.1-7.6,7.9H91.4z"/>
		</g>
	</g>
</g>
</svg>
