<svg xmlns="http://www.w3.org/2000/svg" width="161" height="50" viewBox="0 0 161 50">
    <g fill="#FFF" fill-rule="nonzero">
        <path d="M15.239 8.043c-.301-2.521-2.023-3.39-4.133-3.39-3.616 0-5.38 3-5.38 7.13 0 4 1.463 7.39 5.208 7.39 2.11 0 4.047-.869 4.262-3.651h5.898c-.216 6.652-4.908 8.26-10.676 8.26C4.649 23.783 0 20.393 0 11.958 0 3.522 4.477 0 11.279 0c4.864 0 9.6 2.043 9.685 8l-5.725.043zM22.73 12.13c.258-4.087 4.175-5.217 7.662-5.217 5.209 0 8.18 1.478 8.18 6.783v6c0 1.174.042 2.347.085 3.521h-4.95a39.424 39.424 0 0 1-.086-2.521h-.043c-1.206 2.391-3.487 3.13-5.769 3.13-3.788 0-6.027-1.826-6.027-5.13 0-3.74 2.97-5.435 7.964-5.435h3.702c0-2.522-.99-3.13-3.013-3.13-1.894 0-2.454.869-2.497 1.956H22.73v.043zm8.609 4.218c-3.444 0-4.133 1.043-4.133 2.391 0 .957.775 1.652 2.196 1.652 3.315 0 4.046-2.391 4.046-4H31.34v-.043zM40.422 10.74c0-1-.043-2.175-.086-3.218h4.908c.043.956.086 1.87.086 2.826h.043c1.291-2.218 2.97-3.435 5.51-3.435 1.98 0 3.874 1.087 4.778 3.565 1.12-2.087 2.928-3.565 5.64-3.565 2.84 0 6.285 1.217 6.285 7.391v8.957h-5.08V15c0-2.348-.775-4.087-2.841-4.087-1.68 0-3.1 1.652-3.1 3.957v8.39h-5.08v-8.086c0-2.348-.43-4.261-2.755-4.261-1.764 0-3.185 1.913-3.185 4.783v7.521h-5.123V10.74zM69.867 10.087c0-.87-.043-1.74-.086-2.609h4.908c.086.87.086 1.74.086 2.609 1.162-1.609 2.669-3.174 5.983-3.174 4.219 0 7.405 3.174 7.405 8.565 0 5.218-3.057 8.348-7.534 8.348-2.195.044-4.305-.913-5.682-2.652v6.26h-5.08V10.088zm9.04.435c-2.324 0-3.96 1.913-3.96 4.695 0 3.044 1.636 4.957 3.96 4.957 2.325 0 3.832-1.957 3.832-4.74 0-2.521-1.206-4.912-3.832-4.912zM124.065 10.087c0-.957-.043-1.74-.086-2.609h4.95c.086.87.086 1.74.086 2.609 1.163-1.609 2.626-3.174 5.984-3.174 4.219 0 7.404 3.174 7.404 8.565 0 5.218-3.056 8.348-7.533 8.348-2.196.044-4.305-.913-5.683-2.652v6.26h-5.08V10.088h-.042zm9.04.435c-2.325 0-3.96 1.913-3.96 4.695 0 3.044 1.635 4.957 3.96 4.957 2.324 0 3.831-1.957 3.831-4.74 0-2.521-1.205-4.912-3.831-4.912zM90.143 12.13c.258-4.087 4.175-5.217 7.662-5.217 5.21 0 8.18 1.478 8.18 6.783v6c0 1.174.043 2.347.086 3.521h-4.95a39.424 39.424 0 0 1-.087-2.521h-.043c-1.205 2.391-3.487 3.13-5.769 3.13-3.788 0-6.026-1.826-6.026-5.13 0-3.74 2.97-5.435 7.964-5.435h3.702c0-2.522-.99-3.13-3.014-3.13-1.894 0-2.453.869-2.496 1.956h-5.21v.043zm8.61 4.218c-3.444 0-4.133 1.043-4.133 2.391 0 .957.775 1.652 2.195 1.652 3.315 0 4.047-2.391 4.047-4h-2.11v-.043zM112.614 18.304a2.301 2.301 0 0 0 .646 1.783 2.544 2.544 0 0 0 1.679.478c1.076 0 2.625-.174 2.625-1.739 0-1.087-1.205-1.478-2.238-1.652l-3.53-.652c-2.54-.479-4.047-1.913-4.047-4.348 0-4.478 4.348-5.261 7.276-5.261 5.768 0 7.36 1.957 7.447 5.26h-5.08c0-.608-.215-1.173-.645-1.608a3.252 3.252 0 0 0-1.808-.391c-.818 0-1.895.391-1.895 1.391 0 1.13 1.249 1.392 2.325 1.652l3.444.653c2.927.565 4.003 2.087 4.003 4.695 0 4.783-5.122 5.305-8.093 5.305-6.672 0-7.189-3.174-7.361-5.522l5.252-.044zM148.688 16.826c.086 2.435 1.335 3.74 3.487 3.74 2.239 0 2.626-1.044 2.884-2.131h5.424c-1.076 5-4.692 5.391-8.394 5.391-4.606 0-8.653-2-8.653-8.217 0-6.087 4.004-8.696 8.567-8.696 6.5 0 8.696 3.783 8.739 9.913h-12.054zm6.63-3.26c-.043-2.566-1.507-3.436-3.272-3.436-2.368 0-3.056 1.783-3.272 3.435h6.544zM.387 26.609h8.911L17.22 43.26l-.086-16.652h5.683v22.348h-8.74l-8.05-17.392.087 17.348H.387zM41.498 33.391h6.2l2.668 11 2.885-11h6.801l2.798 10.957 2.884-10.957h5.425l-5.123 15.522h-6.802l-2.97-10.826-3.186 10.826h-6.672zM77.1 43.913c0 .478.085.957.257 1.391.216.479.732.957 1.765.957 1.378 0 1.852-.913 1.852-1.565 0-1.087-.948-1.392-2.282-1.74l-3.315-.913c-.99-.26-3.96-1.043-3.96-4.217 0-1.435.732-2.739 1.937-3.522 1.42-.956 3.358-1.347 5.768-1.347 3.487 0 7.146.913 7.405 5.217h-5.769a3.633 3.633 0 0 0-.215-1.522c-.258-.478-.689-.826-1.679-.826-.99 0-1.808.391-1.808 1.348 0 .956.689 1.26 1.636 1.478l4.305 1.13c1.55.392 3.831 1.218 3.831 4.261 0 5.261-6.371 5.261-7.792 5.261-3.314 0-8.05-.478-8.007-5.478l6.07.087zM29.617 42.783c.086 2.434 1.335 3.739 3.444 3.739 2.238 0 2.626-1.087 2.884-2.13h5.424c-1.076 5-4.692 5.39-8.394 5.39-4.606 0-8.653-2-8.653-8.217 0-6.087 4.004-8.695 8.567-8.695 6.5 0 8.695 3.782 8.739 9.956l-12.01-.043zm6.673-3.261c-.043-2.565-1.507-3.435-3.272-3.435-2.368 0-3.057 1.783-3.272 3.435h6.544z"/>
    </g>
</svg>
