<svg id="Layer_1" data-name="Layer 1" xmlns="http://www.w3.org/2000/svg" viewBox="0 0 736.98 107.88"><defs><style>.cls-1{fill:#dcddde;}.cls-2{fill:#fff;}</style></defs><title>CampaspeNews_White</title><path class="cls-1" d="M481.58,21.11H507l22.5,47-.18-47h16.14V84.19h-24.9l-23-49,.19,49H481.58Z"/><path class="cls-1" d="M598.82,40.33h17.71l7.56,31.11,8.21-31.11h19.36l8.12,30.93L668,40.33h15.49L668.91,84.19H649.54l-8.48-30.58-9.13,30.58h-19Z"/><path class="cls-1" d="M700.31,70a8.8,8.8,0,0,0,.74,3.93c.64,1.4,2.12,2.71,5.07,2.71,4,0,5.26-2.53,5.26-4.46,0-3-2.68-3.93-6.55-4.89l-9.41-2.53c-2.86-.7-11.25-2.89-11.25-11.89a12,12,0,0,1,5.53-10c4.06-2.7,9.59-3.76,16.42-3.76,10,0,20.38,2.54,21.12,14.77H710.82a9.84,9.84,0,0,0-.65-4.28c-.73-1.4-2-2.36-4.79-2.36s-5.16,1.14-5.16,3.85c0,2.53,1.93,3.49,4.7,4.19l12.36,3.23c4.42,1.14,10.88,3.5,10.88,12.06,0,14.86-18.17,14.86-22.23,14.86-9.4,0-23-1.31-22.77-15.47Z"/><path class="cls-1" d="M49.16,41.92c-.84-7.08-5.75-9.56-11.8-9.56C27,32.36,22,40.86,22,52.54c0,11.33,4.16,20.89,14.9,20.89C43,73.43,48.48,71,49,63.16H65.79C65.11,82,51.8,86.53,35.32,86.53S5.68,76.79,5.68,53c0-24,12.7-33.71,32.21-33.71,13.91,0,27.37,5.75,27.6,22.65Z"/><path class="cls-1" d="M70.47,53.52c.76-11.6,11.87-14.78,21.85-14.78,14.82,0,23.29,4.16,23.29,19.2v17c0,3.28.08,6.64.3,9.92H101.85c-.15-1.51-.3-4.78-.3-7.17h-.15c-3.48,6.73-10,8.85-16.41,8.85-10.81,0-17.16-5.14-17.16-14.43,0-10.53,8.46-15.31,22.68-15.31H101.1c0-7.08-2.8-8.85-8.55-8.85-5.37,0-7,2.48-7.11,5.58ZM95.05,65.46c-9.76,0-11.8,3-11.8,6.73,0,2.74,2.19,4.6,6.28,4.6,9.45,0,11.57-6.72,11.57-11.33Z"/><path class="cls-1" d="M121,49.54c0-2.84-.07-6.11-.3-9.12h14.07c.15,2.65.3,5.31.3,8h.15c3.63-6.28,8.47-9.64,15.65-9.64,5.67,0,11,3,13.61,10,3.18-5.93,8.39-10,16-10,8.09,0,17.92,3.45,17.92,20.88V84.85H184V61.57c0-6.64-2.19-11.51-8.09-11.51-4.84,0-8.84,4.61-8.84,11.16V84.85H152.5V62.1c0-6.64-1.29-12-7.87-12-5.06,0-9.07,5.4-9.07,13.55V84.85H121Z"/><path class="cls-1" d="M205,47.76c0-2.74-.07-4.95-.3-7.34h14.06c.23,2.48.3,4.87.3,7.34,3.33-4.6,7.57-9,17-9,12,0,21.09,8.93,21.09,24.16,0,14.69-8.77,23.63-21.47,23.63A20,20,0,0,1,219.48,79V96.67H205ZM230.74,49c-6.57,0-11.26,5.4-11.26,13.28,0,8.58,4.69,14,11.26,14s11-5.57,11-13.36C241.71,55.73,238.23,49,230.74,49Z"/><path class="cls-1" d="M359.62,47.76c0-2.74-.08-4.95-.3-7.34h14.06c.23,2.48.3,4.87.3,7.34,3.33-4.6,7.56-9,17-9,12,0,21.09,8.93,21.09,24.16,0,14.69-8.77,23.63-21.47,23.63A19.92,19.92,0,0,1,374.14,79V96.67H359.62ZM385.4,49c-6.58,0-11.26,5.4-11.26,13.28,0,8.58,4.68,14,11.26,14s11-5.57,11-13.36C396.37,55.73,392.89,49,385.4,49Z"/><path class="cls-1" d="M262.8,53.52c.76-11.6,11.87-14.78,21.85-14.78,14.82,0,23.29,4.16,23.29,19.2v17c0,3.28.07,6.64.3,9.92H294.18c-.15-1.51-.3-4.78-.3-7.17h-.15c-3.48,6.73-10,8.85-16.41,8.85-10.82,0-17.17-5.14-17.17-14.43,0-10.53,8.47-15.31,22.69-15.31h10.58c0-7.08-2.8-8.85-8.54-8.85-5.37,0-7,2.48-7.11,5.58Zm24.57,11.94c-9.75,0-11.79,3-11.79,6.73,0,2.74,2.19,4.6,6.27,4.6,9.46,0,11.57-6.72,11.57-11.33Z"/><path class="cls-1" d="M326.91,71a6.56,6.56,0,0,0,1.81,5c1.14,1.06,2.88,1.33,4.77,1.33,3,0,7.56-.54,7.56-4.87,0-3.1-3.41-4.16-6.35-4.69l-10.06-1.86c-7.26-1.33-11.49-5.4-11.49-12.31,0-12.65,12.4-14.86,20.71-14.86,16.49,0,20.95,5.57,21.25,14.86H340.59c-.22-2.38-1-3.8-1.89-4.51s-3.32-1.15-5.14-1.15c-2.34,0-5.44,1.15-5.44,3.9,0,3.18,3.55,4,6.65,4.6l9.83,1.86C352.92,59.89,356,64.23,356,71.57c0,13.54-14.67,15-23.06,15-19,0-20.49-9-21-15.58Z"/><path class="cls-1" d="M429.87,66.79c.31,6.9,3.79,10.54,9.91,10.54,6.35,0,7.49-3,8.24-6h15.43c-3,14.07-13.39,15.22-23.9,15.22-13.15,0-24.65-5.66-24.65-23.19,0-17.17,11.42-24.6,24.43-24.6,18.52,0,24.87,10.7,24.95,28.05Zm19-9.2c-.15-7.26-4.23-9.65-9.37-9.65-6.73,0-8.7,5-9.38,9.65Z"/><path class="cls-1" d="M564.93,66.79c.3,6.9,3.78,10.54,9.91,10.54,6.35,0,7.48-3,8.24-6H598.5c-3,14.07-13.38,15.22-23.89,15.22-13.16,0-24.65-5.66-24.65-23.19,0-17.17,11.42-24.6,24.42-24.6,18.53,0,24.88,10.7,25,28.05Zm19-9.2c-.15-7.26-4.23-9.65-9.37-9.65-6.74,0-8.7,5-9.38,9.65Z"/><rect class="cls-2" y="98.55" width="736.98" height="9.33"/><path class="cls-2" d="M484.77,19.23h25.45l22.5,47-.18-47h16.14V82.32h-24.9l-23-49,.18,49H484.77Z"/><path class="cls-2" d="M602,38.45h17.71l7.56,31.11,8.21-31.11h19.36L663,69.39l8.21-30.94h15.49L672.1,82.32H652.74l-8.49-30.58-9.13,30.58h-19Z"/><path class="cls-2" d="M703.5,68.08a8.84,8.84,0,0,0,.74,3.93c.64,1.39,2.12,2.71,5.07,2.71,4,0,5.26-2.54,5.26-4.46,0-3.06-2.68-3.93-6.55-4.89l-9.41-2.54c-2.86-.7-11.25-2.88-11.25-11.88a11.93,11.93,0,0,1,5.54-10c4.05-2.71,9.59-3.76,16.41-3.76,10,0,20.38,2.53,21.12,14.77H714a10,10,0,0,0-.64-4.28c-.74-1.4-2-2.36-4.8-2.36s-5.16,1.13-5.16,3.84c0,2.54,1.93,3.5,4.7,4.2l12.36,3.23c4.42,1.14,10.88,3.49,10.88,12.06,0,14.85-18.17,14.85-22.22,14.85-9.41,0-23-1.31-22.78-15.46Z"/><path class="cls-2" d="M52.35,40.05c-.84-7.08-5.75-9.56-11.8-9.56C30.19,30.49,25.2,39,25.2,50.67c0,11.32,4.16,20.89,14.9,20.89,6,0,11.57-2.48,12.09-10.27H69C68.3,80.14,55,84.65,38.51,84.65c-16.33,0-29.64-9.73-29.64-33.54,0-24,12.7-33.72,32.21-33.72,13.91,0,27.37,5.75,27.6,22.66Z"/><path class="cls-2" d="M73.66,51.64c.76-11.59,11.88-14.78,21.86-14.78,14.81,0,23.28,4.16,23.28,19.21v17c0,3.27.08,6.64.31,9.91H105c-.15-1.5-.3-4.78-.3-7.17h-.15c-3.48,6.73-10,8.85-16.41,8.85C77.37,84.65,71,79.52,71,70.23,71,59.7,79.49,54.92,93.7,54.92h10.59c0-7.09-2.8-8.85-8.55-8.85-5.37,0-7,2.47-7.11,5.57Zm24.58,12c-9.76,0-11.8,3-11.8,6.73,0,2.74,2.19,4.6,6.28,4.6,9.45,0,11.57-6.73,11.57-11.33Z"/><path class="cls-2" d="M124.24,47.66c0-2.83-.08-6.11-.31-9.12H138c.15,2.66.3,5.31.3,8h.15c3.63-6.29,8.47-9.65,15.65-9.65,5.67,0,11,3,13.61,10,3.18-5.93,8.39-10,16-10,8.09,0,17.92,3.45,17.92,20.89V83H187.14V59.7c0-6.64-2.19-11.51-8.09-11.51-4.84,0-8.84,4.6-8.84,11.15V83H155.69V60.22c0-6.63-1.29-12-7.86-12-5.07,0-9.08,5.4-9.08,13.54V83H124.24Z"/><path class="cls-2" d="M208.15,45.89c0-2.74-.07-5-.3-7.35h14.06c.23,2.48.3,4.87.3,7.35,3.33-4.61,7.57-9,17-9,12,0,21.09,8.94,21.09,24.16,0,14.7-8.77,23.63-21.47,23.63a20,20,0,0,1-16.18-7.52V94.8H208.15Zm25.78,1.24c-6.57,0-11.26,5.39-11.26,13.27,0,8.59,4.69,14,11.26,14s11-5.58,11-13.37C244.9,53.85,241.42,47.13,233.93,47.13Z"/><path class="cls-2" d="M362.81,45.89c0-2.74-.07-5-.3-7.35h14.06c.23,2.48.3,4.87.3,7.35,3.33-4.61,7.57-9,17-9,12,0,21.09,8.94,21.09,24.16,0,14.7-8.77,23.63-21.47,23.63a20,20,0,0,1-16.18-7.52V94.8H362.81Zm25.78,1.24c-6.57,0-11.26,5.39-11.26,13.27,0,8.59,4.69,14,11.26,14s11-5.58,11-13.37C399.56,53.85,396.08,47.13,388.59,47.13Z"/><path class="cls-2" d="M266,51.64c.76-11.59,11.87-14.78,21.85-14.78,14.82,0,23.29,4.16,23.29,19.21v17c0,3.27.08,6.64.3,9.91H297.37c-.15-1.5-.3-4.78-.3-7.17h-.15c-3.48,6.73-10,8.85-16.41,8.85-10.81,0-17.17-5.13-17.17-14.42,0-10.53,8.47-15.31,22.69-15.31h10.58c0-7.09-2.8-8.85-8.54-8.85-5.37,0-7,2.47-7.11,5.57Zm24.57,12c-9.75,0-11.79,3-11.79,6.73,0,2.74,2.19,4.6,6.27,4.6,9.46,0,11.57-6.73,11.57-11.33Z"/><path class="cls-2" d="M330.1,69.08a6.52,6.52,0,0,0,1.81,5c1.14,1.06,2.88,1.33,4.77,1.33,3,0,7.56-.53,7.56-4.87,0-3.1-3.4-4.16-6.35-4.69L327.83,64c-7.26-1.32-11.49-5.4-11.49-12.3,0-12.66,12.4-14.87,20.72-14.87,16.48,0,20.94,5.58,21.24,14.87H343.79c-.23-2.39-1-3.81-1.89-4.51-1.06-.8-3.33-1.15-5.14-1.15-2.35,0-5.45,1.15-5.45,3.89,0,3.19,3.55,4,6.65,4.6l9.83,1.86c8.32,1.59,11.42,5.93,11.42,13.28,0,13.54-14.67,15-23.06,15-19,0-20.49-9-21-15.57Z"/><path class="cls-2" d="M433.07,64.92c.3,6.9,3.78,10.53,9.9,10.53,6.35,0,7.49-3,8.24-6h15.43c-3,14.07-13.39,15.22-23.9,15.22-13.15,0-24.65-5.66-24.65-23.19,0-17.16,11.42-24.6,24.43-24.6,18.52,0,24.87,10.71,25,28.06Zm19-9.21c-.15-7.25-4.23-9.64-9.37-9.64-6.73,0-8.7,5-9.38,9.64Z"/><path class="cls-2" d="M568.12,64.92c.31,6.9,3.78,10.53,9.91,10.53,6.35,0,7.49-3,8.24-6H601.7c-3,14.07-13.39,15.22-23.9,15.22-13.16,0-24.65-5.66-24.65-23.19,0-17.16,11.42-24.6,24.43-24.6,18.52,0,24.87,10.71,24.95,28.06Zm19-9.21c-.15-7.25-4.23-9.64-9.37-9.64-6.73,0-8.7,5-9.38,9.64Z"/><path class="cls-2" d="M717.61,31.89l-36.8-.19s-12.23-11.41,17-26.43c0,0-26.34-2.3-19.45,26.31l-9.87.1S634.46,21,631.72,9c0,0-16.13,4.91,33.84,22.79l-21.23-.88S609.67,15.9,612.06,0c0,0-3.71,23.89,31.18,33.16,0,0,43.62,1.84,71.72-.24Z"/><path class="cls-2" d="M643,32s-32.67.7-71-13.89C572,18.11,597,35.51,643,32Z"/><path class="cls-2" d="M586.16.93s18.21,21.8,44.69,30.82C630.85,31.75,578.73,15.93,586.16.93Z"/></svg>