<?xml version="1.0" encoding="utf-8"?>
<!-- Generator: Adobe Illustrator 21.1.0, SVG Export Plug-In . SVG Version: 6.00 Build 0)  -->
<!DOCTYPE svg PUBLIC "-//W3C//DTD SVG 1.1//EN" "http://www.w3.org/Graphics/SVG/1.1/DTD/svg11.dtd">
<svg version="1.1" id="Layer_1" xmlns="http://www.w3.org/2000/svg" xmlns:xlink="http://www.w3.org/1999/xlink" x="0px" y="0px"
	 viewBox="0 0 387.8 206.5" style="enable-background:new 0 0 387.8 206.5;" xml:space="preserve">
<style type="text/css">
	.st0{fill:#ED3A4B;}
</style>
<g>
	<path class="st0" d="M79.5,80.1c-2.2-6.2-9.9-9.5-18.7-9.5c-19,0-24.3,11.7-24.7,22.8c0,11.6,3.4,25.2,24.3,25.2
		c11.6,0,18.5-4.2,24.1-7.6l3.9,1.5c-1.5,3.4-2.9,6.8-4.1,10.3c-7.3,1.8-16.8,4.2-29.5,4.2C27.7,127,6,115,6,95.4
		c0-21,23-32.8,51.9-32.8c10.1,0,21,1.8,30.4,4.3c-0.5,2-1.4,3.9-2,5.9c-0.8,2.5-1.3,4.8-1.8,7.3C84.5,80.1,79.5,80.1,79.5,80.1z"/>
	<path class="st0" d="M149.9,103.5c0,13.7-13.2,20.5-30,20.5c-17.4,0-29.8-6.6-29.8-20.4c0-13.4,13.6-20.4,30.1-20.4
		C139.8,83.1,149.9,92.4,149.9,103.5z M120,88.2c-6.3,0-6.9,6.3-6.9,14.7c0,7.8,0.1,16,6.9,16s6.9-7.4,6.9-15.4
		C126.9,95.7,126.7,88.2,120,88.2z"/>
	<path class="st0" d="M153,83.7c4.1,0.3,8.2,0.7,12.3,0.7c3.6,0,7.2-0.3,10.7-0.7c-0.5,6.4-0.8,10.3-0.8,22.4c0,5.2,0,10,5.9,10
		s5.9-6.1,5.9-11.2c0-7.1,0-15-0.6-21.3c4,0.4,7.9,0.7,11.9,0.7c3.8,0,7.5-0.2,11.3-0.7c-1,4.2-1,16.1-1,23.4c0,8.2,0.1,14,0.8,18.6
		c-3.2-0.3-7.7-0.7-11.5-0.7c-3.5,0-7.2,0.4-10.6,0.7c0.3-2.1,0.5-4.1,0.6-6.2c-5.5,4.5-9.3,6.4-17.5,6.4
		c-11.5,0-17.3-5.3-17.3-13.8c0-3.4,0.1-8.8,0.1-12.1C153.3,92.7,153.5,88.2,153,83.7z"/>
	<path class="st0" d="M235.6,94.8h0.4c1.7-5.1,7.4-11.1,15.9-11.1c1.7,0,2.7,0.1,4.4,0.6c-1.2,5.5-1.4,7.9-1.4,14.6l-1.3,0.6
		c-2.2-1.6-4.6-2.1-7.5-2.1c-8.1,0-9.1,4.3-9.1,9.7c0,6.3,0.3,12.6,0.8,18.8c-4-0.4-7.9-0.7-11.9-0.7c-3.7,0-7.3,0.4-11,0.7
		c1.1-5.2,1.1-14,1.1-20.4c0-10.6-0.2-13-0.8-21.5c4.2,0.6,7.5,0.7,11.2,0.7c3.6,0,6.6-0.2,10.1-0.7L235.6,94.8z"/>
	<path class="st0" d="M258.9,82.2c3.2,0.6,6.5,0.8,9.8,0.8s6.7-0.3,9.9-0.8c-0.7,9.1-0.8,17.1-0.8,22.3c0,4.8,0.1,15.1,0.5,21.4
		c-3.4-0.4-6.8-0.8-10.3-0.8c-3.1,0-6.2,0.4-9.3,0.8c0.6-8,0.8-10.3,0.8-23.2C259.6,90.1,259.5,88.4,258.9,82.2z M268.8,61.1
		c4.9,0,9.2,4,9.2,8.8s-4.3,8.8-9.2,8.8c-5.1,0-9.3-4.1-9.3-8.8C259.6,65.2,263.8,61.1,268.8,61.1z"/>
	<path class="st0" d="M334.7,115.5c-2,2.8-2.6,4-3.8,7c-5.6,2-12.7,3.2-18.8,3.2c-24.6,0-29.7-13.4-29.7-21.3
		c0-11.4,8.8-20.9,28-20.9c8.2,0,16.3,2.4,21.3,7.5c4.3,4.4,4.6,10,4.8,14.7c-2.7-0.1-6.2-0.2-9.2-0.2c-7.6,0-15.1,0.1-22.7,0.2
		c0,6.3,3.9,12.3,13.2,12.3c4.6,0,10.8-1.9,14.2-4.6L334.7,115.5z M316.5,100.1c0.1-5.1,0.2-11.2-5.7-11.2c-6.2,0-6.2,6.3-6.2,11.2
		H316.5z"/>
	<path class="st0" d="M361,94.6h0.4c1.7-5.1,7.4-11.1,15.9-11.1c1.7,0,2.7,0.1,4.4,0.6c-1.2,5.5-1.4,7.9-1.4,14.6l-1.3,0.6
		c-2.2-1.6-4.6-2.1-7.5-2.1c-8.1,0-9.1,4.3-9.1,9.7c0,6.3,0.3,12.6,0.8,18.8c-4-0.4-7.9-0.7-11.9-0.7c-3.7,0-7.3,0.4-11,0.7
		c1.1-5.2,1.1-14,1.1-20.4c0-10.6-0.2-13-0.8-21.5c4.2,0.6,7.5,0.7,11.2,0.7c3.6,0,6.6-0.2,10.1-0.7L361,94.6z"/>
	<g>
		<path class="st0" d="M103.9,78.7V69h-3.8v-2h10v2h-3.7v9.7H103.9z"/>
		<path class="st0" d="M111.8,78.7V67h2.6v4.6h5V67h2.6v11.7h-2.6v-5.1h-5v5.1H111.8z"/>
		<path class="st0" d="M124.6,78.7V67h9.4v2h-6.8v2.6h6.3v2h-6.3v3.2h7.1v2L124.6,78.7L124.6,78.7z"/>
	</g>
	<g>
		<path class="st0" d="M279.1,136.9c-0.6-0.9-2.6-1.5-4.7-1.5c-4.1,0-6.1,2-6.1,4.4c0,2.6,2.3,4.4,6.5,4.4c2.1,0,3.6-0.5,5.1-1.2
			l0.5,0.2c-0.2,0.4-0.5,0.8-0.8,1.5c-1.8,0.5-3.8,0.7-5.8,0.7c-6.6,0-10.4-2.4-10.4-5.4c0-3.2,4.1-5.5,10.7-5.5
			c2.2,0,4.5,0.2,6.5,0.8c-0.5,0.6-0.7,1.4-0.8,1.8h-0.7V136.9z"/>
		<path class="st0" d="M292.3,145.4c-6,0-10.4-1.8-10.4-5.4c0-3.2,3.7-5.6,10.5-5.6c5.8,0,10.5,1.8,10.5,5.3
			C302.9,143.6,297.7,145.4,292.3,145.4z M292.5,135.5c-4.1,0-5.7,2.2-5.7,4.6c0,3,2.6,4.3,5.5,4.3c3.4,0,5.7-1.7,5.7-4.6
			C298,137.2,296,135.5,292.5,135.5z"/>
		<path class="st0" d="M314.9,139.5c1.1,0.1,4.6,0.4,4.6,2.6c0,1.8-2.8,3-6.7,3c-0.7,0-2.9-0.1-4-0.1c-0.9,0-1.8,0-2.7,0.1
			c0.2-1.3,0.2-2.9,0.2-4.2c0-1.5,0-2.9-0.1-4.4c-0.1-1-0.2-1.5-0.2-1.9c0.6,0.1,1.5,0.1,2.3,0.1c1.3,0,3.1-0.1,4.9-0.1
			c3.2,0,5.9,0.9,5.9,2.5C319.1,138.9,316.1,139.3,314.9,139.5L314.9,139.5z M310.8,139.1c0.2,0,0.4,0,0.5,0c1.6,0,3.2-0.5,3.2-1.8
			c0-1.2-1-1.7-3.1-1.7c-0.2,0-0.3,0-0.6,0c0,0.2,0,1.1,0,1.3V139.1z M310.8,140.1c0,2.5,0,3,0.1,4c0.2,0,0.5,0,0.8,0
			c2.2,0,3.1-0.9,3.1-2.1C314.8,140.5,313.3,140.1,310.8,140.1z"/>
		<path class="st0" d="M332.5,140l4.2,3.7c0.4,0.4,1.4,1.1,1.9,1.4l-0.1,0.1c-0.9-0.1-1.9-0.1-2.8-0.1c-1.2,0-1.8,0-2.8,0.1
			c-0.1-0.1-0.6-0.7-1.6-1.6l-3.7-3.2h-0.1c0,0,0,0,0,0.1c0,1.4,0,2.3,0.1,3.4c0,0.5,0,0.9,0.1,1.4c-0.8-0.1-1.6-0.1-2.4-0.1
			c-0.7,0-1.8,0-2.5,0.1c0.2-1.4,0.2-2.8,0.2-5.9c0-2.4,0-3.8-0.2-4.7c1.2,0.1,2.3,0.1,2.9,0.1c1.7,0,3.4-0.1,5.1-0.1
			c1,0,5.9,0,5.9,2.7C336.8,139.1,334.1,139.9,332.5,140z M327.6,139.5c0.2,0,0.5,0,0.8,0c1,0,3.8,0,3.8-2c0-1.7-2-1.8-3.5-1.8
			c-0.4,0-0.7,0-1,0L327.6,139.5z"/>
		<path class="st0" d="M347.1,134.5c0.5,0.1,0.9,0.1,1.4,0.1c0.4,0,0.9,0,1.3-0.1c2.5,4.2,5.6,8.5,7.3,10.7
			c-0.8-0.1-1.7-0.1-2.5-0.1c-0.9,0-2,0-2.9,0.1c-0.8-1.6-1.4-2.5-1.7-3c-0.9,0-1.8,0-2.8,0s-2.1,0-3.1,0c-0.5,0.8-1.2,1.9-1.6,3
			c-0.5,0-0.9-0.1-1.5-0.1c-0.3,0-0.9,0-1.5,0.1C341.2,143.2,345.3,137.5,347.1,134.5z M347.2,137.7l-2.3,3.3c0.7,0,1.5,0,2.2,0
			c0.8,0,1.5,0,2.3,0L347.2,137.7z"/>
		<path class="st0" d="M380.8,141.6c0.2,1.2,0.6,2.4,1,3.6c-0.9-0.1-1.6-0.1-2.5-0.1c-1.2,0-1.8,0-2.6,0.1c0-0.7-0.1-1.5-0.4-3.3
			c-0.1-0.6-0.6-3.2-0.7-3.7c-1.9,2.2-2.1,2.4-3.9,4.8c-1.1,1.4-1.2,1.6-1.6,2.2c-0.2,0-0.5,0-1,0s-0.8,0-1,0
			c-0.3-0.5-0.6-1-1.5-2.3c-1.2-1.6-2.5-3.1-3.7-4.7c-0.4,1.5-0.7,3-0.9,4.5c-0.1,0.8-0.2,1.6-0.2,2.5c-0.5-0.1-1-0.1-1.5-0.1
			s-1,0-1.5,0.1c0.2-0.6,0.5-1.2,0.6-1.8l1.9-7c0.2-0.6,0.3-1.2,0.3-1.8c0.5,0,1.4,0.1,2,0.1s1.3-0.1,1.8-0.1c0.6,1.1,4,5.7,5.1,7.1
			c1.5-1.8,3-3.6,4.3-5.5c0.6-0.9,0.8-1.2,1.1-1.6c0.6,0.1,1.3,0.1,1.9,0.1c0.7,0,1.1,0,1.7-0.1c0.1,0.6,0.2,1.4,0.3,2L380.8,141.6z
			"/>
	</g>
</g>
</svg>
