<svg xmlns="http://www.w3.org/2000/svg" width="162" height="39" viewBox="0 0 162 39">
    <g fill="#FFF" fill-rule="nonzero">
        <path stroke="#FFF" stroke-width=".25" d="M32.475 9.225c-.932-2.655-4.193-4.06-8.024-4.06-8.128 0-10.405 5.049-10.56 9.786 0 4.997 1.449 10.827 10.405 10.827 4.97 0 7.92-1.822 10.302-3.28l1.656.625a35.423 35.423 0 0 0-1.708 4.425 49.053 49.053 0 0 1-12.632 1.822c-11.596 0-20.862-5.154-20.862-13.534 0-9.058 9.836-14.107 22.208-14.107 4.4.052 8.801.676 12.994 1.822-.207.885-.57 1.717-.88 2.498-.31 1.041-.517 2.083-.776 3.124l-2.123.052zM62.605 19.271c0 5.882-5.643 8.797-12.84 8.797-7.454 0-12.734-2.863-12.734-8.797 0-5.726 5.798-8.797 12.89-8.797 8.387.052 12.684 4.06 12.684 8.797zm-12.787-6.559c-2.692 0-2.951 2.707-2.951 6.351 0 3.384.052 6.871 2.95 6.871 2.9 0 2.951-3.175 2.951-6.61 0-3.436-.051-6.612-2.95-6.612zM63.95 10.786c1.76.156 3.52.313 5.28.313 1.554 0 3.055-.104 4.608-.313-.259 3.228-.414 6.403-.362 9.63 0 2.239 0 4.321 2.537 4.321 2.536 0 2.536-2.603 2.536-4.79 0-3.018 0-6.454-.259-9.16 1.709.208 3.365.312 5.074.312 1.604 0 3.21-.104 4.814-.313-.414 1.822-.414 6.924-.414 10.099 0 3.54.052 5.986.362 8.016-1.346-.156-3.313-.312-4.918-.312-1.5 0-3.054.156-4.555.312.155-.885.207-1.77.259-2.654-2.33 1.926-3.935 2.758-7.455 2.758-4.918 0-7.403-2.29-7.403-5.934 0-1.457.052-3.748.052-5.205-.052-3.176.052-5.154-.156-7.08zM99.257 15.575h.155a7.282 7.282 0 0 1 6.833-4.789c.622 0 1.243.052 1.864.26a25.762 25.762 0 0 0-.621 6.3l-.57.26c-.932-.625-2.07-.99-3.21-.885-3.468 0-3.934 1.874-3.934 4.164 0 2.707.104 5.414.363 8.068a41.477 41.477 0 0 0-5.074-.312c-1.553 0-3.106.156-4.71.312.465-2.238.465-6.038.465-8.797 0-4.58-.103-5.622-.362-9.266 1.605.209 3.158.313 4.763.313a29.3 29.3 0 0 0 4.296-.313l-.258 4.685zM109.248 10.162c1.398.208 2.795.364 4.193.312 1.398 0 2.847-.104 4.245-.312-.31 3.904-.31 7.34-.31 9.578 0 2.082.051 6.507.207 9.213a30.729 30.729 0 0 0-4.4-.312c-1.347.052-2.64.156-3.987.312.259-3.331.414-6.663.31-9.994.104-2.915 0-5.882-.258-8.797zm4.245-9.11a3.937 3.937 0 0 1 3.934 3.748c-.103 2.186-1.967 3.904-4.141 3.748a3.938 3.938 0 0 1-3.727-3.748c.051-2.082 1.811-3.748 3.934-3.748zM141.655 24.477a10.545 10.545 0 0 0-1.605 3.019 24.736 24.736 0 0 1-8.024 1.353c-10.56 0-12.683-5.778-12.683-9.161 0-4.893 3.779-8.954 11.958-8.954 3.52 0 6.937 1.041 9.112 3.228 1.863 1.874 1.967 4.32 2.07 6.298a91.898 91.898 0 0 0-3.934-.104c-3.21 0-6.471.052-9.68.104 0 2.707 1.656 5.31 5.642 5.31 1.967 0 4.607-.833 6.057-1.978l1.087.885zm-7.765-6.663c.051-2.187.103-4.79-2.433-4.79-2.64 0-2.64 2.708-2.64 4.79h5.073zM152.94 15.471h.156a7.282 7.282 0 0 1 6.833-4.789c.621 0 1.243.052 1.864.26a25.762 25.762 0 0 0-.621 6.3l-.57.26a5.356 5.356 0 0 0-3.21-.886c-3.468 0-3.882 1.874-3.882 4.165 0 2.707.104 5.414.362 8.068a41.477 41.477 0 0 0-5.073-.312c-1.553 0-3.106.156-4.71.312.465-2.238.465-6.038.465-8.797 0-4.58-.104-5.622-.362-9.266 1.604.209 3.158.313 4.762.313a29.3 29.3 0 0 0 4.297-.313l-.31 4.685z"/>
        <path d="M42.932 8.652V4.488h-1.604v-.885h4.296v.885H44.02v4.164zM46.35 8.652v-5.05h1.086v1.979h2.123V3.603h1.087V8.6h-1.087V6.414h-2.123V8.6H46.35zM51.785 8.652v-5.05h3.986v.886h-2.899V5.58h2.692v.833h-2.692v1.353h3.003V8.6h-4.09zM70.629 33.847c0-.521-.415-.73-1.346-.73h-.26V34.629h.208c.673 0 1.398-.209 1.398-.781zM69.024 35.044v1.718h.362c.932 0 1.346-.417 1.346-.885 0-.677-.621-.833-1.708-.833zM76.686 33.118h-.466l-.052 1.666h.362c.414 0 1.605 0 1.605-.885.052-.73-.828-.781-1.45-.781zM61.207 33.066c-1.76 0-2.433.937-2.433 1.978 0 1.301 1.139 1.822 2.33 1.822 1.449 0 2.432-.729 2.432-1.978 0-1.093-.828-1.822-2.33-1.822z"/>
        <path d="M1 31.452v7.236h159.602v-7.236H1zm52.597 5.362c.776 0 1.501-.156 2.174-.52l.207.051a1.763 1.763 0 0 0-.31.625c-.829.208-1.657.312-2.485.312-2.848 0-4.452-1.04-4.452-2.342 0-1.406 1.76-2.395 4.555-2.395.932 0 1.864.104 2.796.313a1.768 1.768 0 0 0-.31.78h-.26c-.259-.416-1.139-.624-2.019-.624-1.76 0-2.64.885-2.64 1.926 0 1.04.932 1.874 2.744 1.874zm7.506.52c-2.588 0-4.452-.78-4.452-2.342 0-1.406 1.605-2.395 4.504-2.395 2.485 0 4.452.781 4.452 2.29.052 1.666-2.174 2.447-4.504 2.447zm8.8-.104c-.31 0-1.242-.052-1.708-.052-.362 0-.776 0-1.138.052.051-.625.103-1.197.103-1.822 0-.624 0-1.25-.052-1.926 0-.26-.051-.572-.103-.833.31.052.673.052.983.052.57 0 1.346-.052 2.071-.052 1.398 0 2.537.365 2.537 1.093 0 .73-1.294.937-1.76 1.042v.052c.466.052 1.967.208 1.967 1.145-.052.78-1.243 1.25-2.9 1.25zm10.976 0c-.414-.052-.777-.052-1.19-.052-.519 0-.777 0-1.243.052a4.15 4.15 0 0 0-.673-.677l-1.553-1.405h-.052v.052c0 .625 0 .989.052 1.458 0 .208 0 .416.051.572-.31 0-.673-.052-1.035-.052-.362 0-.777 0-1.035.052.103-.833.155-1.718.103-2.55.052-.677 0-1.354-.103-2.03.517 0 .983.051 1.242.051.725 0 1.45-.052 2.174-.052.415 0 2.537 0 2.537 1.146 0 .78-1.19 1.093-1.812 1.145l1.812 1.613c.259.209.518.417.828.573l-.103.104zm6.885-.052c-.414 0-.828 0-1.242.052-.208-.468-.466-.885-.725-1.301H83.26c-.259.416-.518.833-.725 1.301-.207 0-.414-.052-.62-.052-.208 0-.415 0-.674.052.725-.833 2.485-3.331 3.262-4.633.207.052.414.052.62.052.208 0 .363 0 .57-.052 1.087 1.822 2.433 3.644 3.158 4.633-.362 0-.725-.052-1.087-.052zm10.509 0c-.518 0-.777 0-1.087.052 0-.468-.104-.937-.207-1.457-.052-.26-.26-1.354-.31-1.614-.777.937-.88 1.041-1.657 2.082-.466.625-.518.677-.673.937h-.829a6.63 6.63 0 0 0-.673-.989c-.517-.677-1.035-1.353-1.605-2.03a25.57 25.57 0 0 0-.414 1.926c-.051.364-.103.729-.103 1.093-.207-.052-.414-.052-.621-.052-.208 0-.415 0-.673.052.103-.26.207-.52.258-.78l.777-3.02c.052-.26.103-.52.103-.78.208 0 .622.051.829.051.207 0 .517 0 .776-.052a41.214 41.214 0 0 0 2.175 3.071l1.863-2.342c.156-.208.31-.468.466-.677.259.052.57.052.828.052.26 0 .466 0 .725-.052.052.26.104.625.104.833l.466 2.134c.103.521.259 1.042.414 1.562-.207.052-.518 0-.932 0z"/>
        <path d="M83.623 35.46h1.915l-.932-1.457-.983 1.457z"/>
    </g>
</svg>
