<svg id="Layer_1" data-name="Layer 1" xmlns="http://www.w3.org/2000/svg" viewBox="0 0 310.71 72.4"><defs><style>.cls-1,.cls-2{fill:#fff;}.cls-1{stroke:#fff;stroke-width:0.25px;}</style></defs><title>CobramCourier_White</title><path class="cls-1" d="M60.81,15.8C59,10.66,52.65,8,45.33,8c-15.7,0-20.09,9.7-20.41,18.83,0,9.56,2.83,20.78,20.09,20.78,9.63,0,15.28-3.47,19.88-6.3l3.25,1.23a87,87,0,0,0-3.35,8.55,94.1,94.1,0,0,1-24.38,3.47C18,54.54.12,44.62.12,28.47.12,11.09,19.17,1.39,43,1.39A99.44,99.44,0,0,1,68.14,4.94C67.72,6.6,67,8.2,66.46,9.79c-.62,2-1,4-1.46,6Z"/><path class="cls-1" d="M119,35.12c0,11.29-10.92,16.94-24.78,16.94-14.37,0-24.61-5.46-24.61-16.88,0-11,11.25-16.88,24.86-16.88C110.69,18.3,119,26,119,35.12ZM94.3,22.49c-5.2,0-5.71,5.2-5.71,12.18,0,6.47.09,13.2,5.71,13.2S100,41.78,100,35.18,99.85,22.49,94.3,22.49Z"/><path class="cls-1" d="M121.56,18.81c3.39.27,6.78.6,10.17.6a77.73,77.73,0,0,0,8.87-.6,181.68,181.68,0,0,0-.7,18.51c0,4.31,0,8.29,4.87,8.29s4.87-5,4.87-9.22c0-5.83,0-12.4-.52-17.58a95.16,95.16,0,0,0,9.83.6,72.6,72.6,0,0,0,9.3-.6c-.79,3.45-.79,13.27-.79,19.37,0,6.77.09,11.55.7,15.39-2.61-.26-6.35-.59-9.48-.59-2.87,0-5.91.33-8.78.59a49,49,0,0,0,.52-5.1c-4.52,3.71-7.65,5.3-14.43,5.3-9.48,0-14.26-4.37-14.26-11.41,0-2.78.09-7.23.09-10C121.82,26.25,122,22.53,121.56,18.81Z"/><path class="cls-1" d="M189.81,28h.33a14,14,0,0,1,13.18-9.19,10.93,10.93,0,0,1,3.61.47,44.73,44.73,0,0,0-1.18,12.09l-1.09.47a9.9,9.9,0,0,0-6.21-1.72c-6.71,0-7.55,3.57-7.55,8,0,5.23.25,10.38.67,15.54a97.83,97.83,0,0,0-9.82-.6c-3,0-6,.33-9.06.6.92-4.3.92-11.57.92-16.86,0-8.79-.16-10.77-.67-17.78a66,66,0,0,0,9.23.6,49.89,49.89,0,0,0,8.31-.6Z"/><path class="cls-1" d="M209.11,17.57a45.59,45.59,0,0,0,8.11.62,54.25,54.25,0,0,0,8.18-.62c-.58,7.52-.65,14.14-.65,18.41,0,4,.07,12.48.43,17.72a70.81,70.81,0,0,0-8.47-.62,73.58,73.58,0,0,0-7.68.62,184.74,184.74,0,0,0,.65-19.17A148.53,148.53,0,0,0,209.11,17.57ZM217.29.12a7.57,7.57,0,0,1,7.6,7.25,7.65,7.65,0,0,1-15.28,0A7.59,7.59,0,0,1,217.29.12Z"/><path class="cls-1" d="M271.69,45.06a20.44,20.44,0,0,0-3.12,5.77,49.16,49.16,0,0,1-15.51,2.63c-20.36,0-24.53-11.09-24.53-17.58,0-9.44,7.28-17.25,23.14-17.25,6.76,0,13.43,2,17.59,6.17,3.56,3.61,3.82,8.26,4,12.13-2.25-.06-5.11-.2-7.63-.2q-9.36,0-18.72.2c0,5.18,3.21,10.17,10.92,10.17,3.82,0,8.93-1.58,11.7-3.81Zm-15-12.72c.08-4.2.17-9.25-4.68-9.25-5.12,0-5.12,5.25-5.12,9.25Z"/><path class="cls-1" d="M293.45,27.77h.33A14,14,0,0,1,307,18.59a11,11,0,0,1,3.61.46,44.73,44.73,0,0,0-1.18,12.09l-1.09.47a10,10,0,0,0-6.21-1.72c-6.71,0-7.55,3.57-7.55,8,0,5.22.25,10.37.67,15.53a97.83,97.83,0,0,0-9.82-.6c-3,0-6,.33-9.06.6.92-4.3.92-11.57.92-16.86,0-8.79-.17-10.77-.67-17.78a64.55,64.55,0,0,0,9.23.6,48.77,48.77,0,0,0,8.31-.6Z"/><path class="cls-2" d="M81,14.68v-8H77.88V5h8.31V6.67H83.1v8Z"/><path class="cls-2" d="M87.55,14.68V5h2.11V8.83h4.13V5H95.9v9.64H93.79V10.47H89.66v4.21Z"/><path class="cls-2" d="M98.09,14.68V5h7.73V6.67H100.2V8.8h5.23v1.64H100.2v2.61H106v1.63Z"/><path class="cls-2" d="M134.46,63.1c0-1-.83-1.43-2.55-1.43h-.49c0,.16,0,.89,0,1v1.86h.45C133.14,64.6,134.46,64.21,134.46,63.1Z"/><path class="cls-2" d="M131.4,65.42c0,2.06,0,2.47,0,3.29a6.59,6.59,0,0,0,.67,0c1.8,0,2.57-.76,2.57-1.7C134.69,65.71,133.48,65.42,131.4,65.42Z"/><path class="cls-2" d="M146.15,61.72a8,8,0,0,0-.85,0l-.05,3.15h.67c.83,0,3.13,0,3.13-1.67C149.05,61.8,147.42,61.72,146.15,61.72Z"/><path class="cls-2" d="M116.25,61.57c-3.4,0-4.69,1.81-4.69,3.79,0,2.51,2.19,3.52,4.51,3.52,2.84,0,4.72-1.39,4.72-3.8C120.79,63,119.15,61.57,116.25,61.57Z"/><path class="cls-2" d="M0,58.48V72.4H308.28V58.48ZM101.56,68.84a9.2,9.2,0,0,0,4.2-1l.38.12a5.81,5.81,0,0,0-.64,1.2,18.87,18.87,0,0,1-4.79.57c-5.47,0-8.55-2-8.55-4.48,0-2.67,3.39-4.57,8.8-4.57a21,21,0,0,1,5.38.64,3.41,3.41,0,0,0-.64,1.46h-.49c-.54-.76-2.17-1.24-3.91-1.24-3.42,0-5.08,1.66-5.08,3.66S98.1,68.84,101.56,68.84Zm14.51.93c-5,0-8.58-1.51-8.58-4.48,0-2.66,3.08-4.62,8.72-4.62,4.8,0,8.64,1.47,8.64,4.38C124.85,68.3,120.56,69.77,116.07,69.77Zm17-.16c-.61,0-2.39-.08-3.33-.08-.72,0-1.48,0-2.24.08a28.94,28.94,0,0,0,.18-3.51c0-1.21,0-2.43-.06-3.65a11.24,11.24,0,0,0-.21-1.6,16,16,0,0,0,1.93.08c1.09,0,2.57-.08,4-.08,2.68,0,4.85.71,4.85,2.07s-2.46,1.83-3.42,2v.06c.89.09,3.82.37,3.82,2.18C138.64,68.65,136.34,69.61,133.1,69.61Zm21.27,0c-.76-.06-1.54-.08-2.32-.08-1,0-1.5,0-2.35.08a9,9,0,0,0-1.3-1.33l-3-2.66a.17.17,0,0,0-.09,0s0,0,0,.07c0,1.19,0,1.88.07,2.82a6.07,6.07,0,0,0,.11,1.12c-.63,0-1.34-.08-2-.08s-1.47,0-2,.08a30.41,30.41,0,0,0,.18-4.88,20.22,20.22,0,0,0-.18-3.88c1,0,1.88.08,2.43.08,1.39,0,2.8-.08,4.18-.08.81,0,4.88,0,4.88,2.25,0,1.5-2.26,2.12-3.54,2.21l3.47,3.09a8.77,8.77,0,0,0,1.61,1.13Zm13.27-.08a23,23,0,0,0-2.37.08,23.78,23.78,0,0,0-1.43-2.49c-.76,0-1.52,0-2.33,0l-2.56,0a18,18,0,0,0-1.35,2.49,12.09,12.09,0,0,0-1.22-.08,8.26,8.26,0,0,0-1.26.08c1.37-1.63,4.76-6.37,6.3-8.86a9.33,9.33,0,0,0,1.17.08,8.11,8.11,0,0,0,1.09-.08c2.1,3.48,4.67,7,6.06,8.86C169,69.55,168.33,69.53,167.64,69.53Zm20.33,0c-1,0-1.5,0-2.15.09a16,16,0,0,0-.35-2.75c-.09-.49-.49-2.64-.56-3.08-1.54,1.78-1.7,2-3.2,4-.87,1.16-1,1.32-1.32,1.84-.15,0-.44,0-.8,0a5.81,5.81,0,0,0-.83,0,12.1,12.1,0,0,0-1.27-1.91c-1-1.3-2-2.6-3.08-3.88a34.7,34.7,0,0,0-.79,3.72,15,15,0,0,0-.2,2.07,9.67,9.67,0,0,0-1.2-.08c-.38,0-.83,0-1.26.08a9.73,9.73,0,0,0,.52-1.49l1.54-5.8a7.41,7.41,0,0,0,.25-1.47c.44,0,1.18.08,1.63.08s1,0,1.47-.08a63.5,63.5,0,0,0,4.25,5.86c1.25-1.49,2.45-3,3.57-4.51a10.1,10.1,0,0,0,.9-1.35,12.25,12.25,0,0,0,1.6.08,11.34,11.34,0,0,0,1.39-.08c.07.48.16,1.19.25,1.64l.87,4.13a24.45,24.45,0,0,0,.8,3C189.29,69.55,188.71,69.52,188,69.52Z"/><path class="cls-2" d="M159.59,66.16c.61,0,1.21,0,1.81,0s1.25,0,1.88,0l-1.79-2.76Z"/></svg>