<?xml version="1.0" encoding="utf-8"?>
<!-- Generator: Adobe Illustrator 21.1.0, SVG Export Plug-In . SVG Version: 6.00 Build 0)  -->
<!DOCTYPE svg PUBLIC "-//W3C//DTD SVG 1.1//EN" "http://www.w3.org/Graphics/SVG/1.1/DTD/svg11.dtd">
<svg version="1.1" id="Layer_1" xmlns="http://www.w3.org/2000/svg" xmlns:xlink="http://www.w3.org/1999/xlink" x="0px" y="0px"
	 viewBox="0 0 387.8 206.5" style="enable-background:new 0 0 387.8 206.5;" xml:space="preserve">
<style type="text/css">
	.st0{fill:#0F77B2;}
	.st1{fill:#FFFFFF;}
</style>
<g>
	<path class="st0" d="M58.3,26.2h52.1v16.5h-31v13.4H106v15.5H79.5V103H58.3V26.2z"/>
	<path class="st0" d="M114.7,47.4h17.7v9.1c1.7-4,3.5-6.7,5.3-8.2s4.1-2.2,6.7-2.2c2.8,0,5.9,1,9.2,2.9l-5.9,15.2
		c-2.2-1-4-1.6-5.3-1.6c-2.5,0-4.4,1.2-5.8,3.5c-2,3.3-2.9,9.3-2.9,18.3v18.7h-19V47.4z"/>
	<path class="st0" d="M210.3,80.6h-38c0.3,3.4,1.2,6,2.5,7.7c1.8,2.4,4.2,3.6,7.2,3.6c1.9,0,3.6-0.5,5.3-1.6c1-0.7,2.1-1.8,3.3-3.5
		l18.7,1.9c-2.9,5.6-6.3,9.6-10.3,12s-9.8,3.6-17.4,3.6c-6.5,0-11.7-1-15.4-3.1c-3.8-2.1-6.9-5.4-9.3-9.9c-2.5-4.5-3.7-9.9-3.7-16
		c0-8.7,2.5-15.8,7.4-21.1c5-5.4,11.8-8.1,20.5-8.1c7.1,0,12.7,1.2,16.8,3.6c4.1,2.4,7.2,5.9,9.4,10.5c2.1,4.6,3.2,10.5,3.2,17.9
		v2.5H210.3z M191,70.3c-0.4-4.1-1.4-7.1-3-8.9c-1.6-1.8-3.7-2.7-6.3-2.7c-3,0-5.4,1.3-7.2,4c-1.1,1.7-1.9,4.2-2.2,7.5H191V70.3z"/>
	<path class="st0" d="M271,80.6h-38c0.3,3.4,1.2,6,2.5,7.7c1.8,2.4,4.2,3.6,7.2,3.6c1.9,0,3.6-0.5,5.3-1.6c1-0.7,2.1-1.8,3.3-3.5
		l18.7,1.9c-2.9,5.6-6.3,9.6-10.3,12s-9.8,3.6-17.4,3.6c-6.5,0-11.7-1-15.4-3.1c-3.8-2.1-6.9-5.4-9.3-9.9c-2.5-4.5-3.7-9.9-3.7-16
		c0-8.7,2.5-15.8,7.4-21.1c4.9-5.4,11.8-8.1,20.5-8.1c7.1,0,12.7,1.2,16.8,3.6c4.1,2.4,7.2,5.9,9.4,10.5c2.1,4.6,3.2,10.5,3.2,17.9
		v2.5H271z M251.8,70.3c-0.4-4.1-1.4-7.1-3-8.9c-1.6-1.8-3.7-2.7-6.3-2.7c-3,0-5.4,1.3-7.2,4c-1.1,1.7-1.9,4.2-2.2,7.5h18.7V70.3z"
		/>
</g>
<g>
	<path class="st0" d="M58.3,107.2h35c7.6,0,13.3,2.1,17.2,6.1c3.8,4.1,5.7,9.9,5.7,17.5c0,7.8-2.1,13.8-6.2,18.2s-10.5,6.6-19,6.6
		H79.5v28.5H58.3V107.2z M79.5,140h5.2c4.1,0,6.9-0.8,8.6-2.4c1.6-1.6,2.5-3.6,2.5-6.1c0-2.4-0.7-4.5-2.1-6.1
		c-1.4-1.7-4.1-2.5-8.1-2.5h-6L79.5,140L79.5,140z"/>
	<path class="st0" d="M123.3,128.4H141v9.1c1.7-4,3.5-6.7,5.3-8.2s4.1-2.2,6.7-2.2c2.8,0,5.9,1,9.2,2.9l-5.9,15.2
		c-2.2-1.1-4-1.6-5.3-1.6c-2.5,0-4.4,1.2-5.8,3.5c-2,3.3-2.9,9.3-2.9,18.3v18.7h-19V128.4z"/>
	<path class="st0" d="M219,161.5h-38c0.3,3.4,1.2,6,2.5,7.7c1.8,2.4,4.2,3.6,7.2,3.6c1.9,0,3.6-0.5,5.3-1.6c1-0.7,2.1-1.8,3.3-3.5
		l18.7,1.9c-2.9,5.6-6.3,9.6-10.3,12s-9.8,3.6-17.4,3.6c-6.5,0-11.7-1-15.5-3.1s-6.9-5.4-9.3-9.9c-2.5-4.5-3.7-9.9-3.7-16
		c0-8.7,2.5-15.8,7.4-21.1c5-5.4,11.8-8.1,20.5-8.1c7.1,0,12.7,1.2,16.8,3.6s7.2,5.9,9.4,10.5c2.1,4.6,3.2,10.5,3.2,17.9L219,161.5
		L219,161.5z M199.7,151.3c-0.4-4.1-1.4-7.1-3-8.9c-1.6-1.8-3.7-2.7-6.3-2.7c-3,0-5.4,1.3-7.2,4c-1.1,1.7-1.9,4.2-2.2,7.5
		L199.7,151.3L199.7,151.3z"/>
	<path class="st0" d="M221.5,168.6l18.8-2c0.8,2.5,1.9,4.3,3.3,5.4c1.4,1.1,3.3,1.6,5.6,1.6c2.5,0,4.5-0.6,5.9-1.8
		c1.1-0.9,1.6-2,1.6-3.4c0-1.5-0.7-2.7-2.1-3.6c-1-0.6-3.7-1.3-8.1-2.2c-6.6-1.3-11.2-2.5-13.7-3.6c-2.6-1.1-4.7-3-6.5-5.6
		c-1.7-2.6-2.6-5.6-2.6-9c0-3.7,0.9-6.8,2.8-9.5c1.9-2.7,4.5-4.6,7.8-5.9c3.3-1.3,7.8-2,13.4-2c5.9,0,10.2,0.5,13.1,1.5
		c2.8,1,5.2,2.6,7,4.7c1.9,2.1,3.4,5,4.7,8.7l-18,2c-0.5-1.8-1.2-3.1-2.3-3.9c-1.5-1.1-3.3-1.7-5.4-1.7c-2.1,0-3.7,0.4-4.7,1.3
		c-1,0.9-1.5,1.9-1.5,3.1c0,1.4,0.6,2.4,1.9,3.1c1.2,0.7,3.9,1.3,8.1,1.9c6.3,0.8,11,1.9,14.1,3.3c3.1,1.4,5.4,3.5,7.1,6.1
		c1.6,2.7,2.4,5.6,2.4,8.8s-0.9,6.3-2.6,9.4c-1.7,3-4.4,5.5-8.1,7.3s-8.8,2.7-15.2,2.7c-9,0-15.5-1.4-19.3-4.4
		C225,178.1,222.6,174,221.5,168.6z"/>
	<path class="st0" d="M276.9,168.6l18.8-2c0.8,2.5,1.9,4.3,3.3,5.4c1.4,1.1,3.3,1.6,5.6,1.6c2.5,0,4.5-0.6,5.9-1.8
		c1.1-0.9,1.6-2,1.6-3.4c0-1.5-0.7-2.7-2.1-3.6c-1-0.6-3.7-1.3-8.1-2.2c-6.6-1.3-11.2-2.5-13.7-3.6c-2.6-1.1-4.7-3-6.5-5.6
		s-2.6-5.6-2.6-9c0-3.7,0.9-6.8,2.8-9.5s4.5-4.6,7.8-5.9c3.3-1.3,7.8-2,13.4-2c5.9,0,10.2,0.5,13.1,1.5c2.8,1,5.2,2.6,7,4.7
		c1.9,2.1,3.4,5,4.7,8.7l-18,2c-0.5-1.8-1.2-3.1-2.3-3.9c-1.5-1.1-3.3-1.7-5.4-1.7s-3.7,0.4-4.7,1.3c-1,0.9-1.5,1.9-1.5,3.1
		c0,1.4,0.6,2.4,1.9,3.1c1.2,0.7,3.9,1.3,8.1,1.9c6.3,0.8,11,1.9,14.1,3.3c3.1,1.4,5.4,3.5,7.1,6.1c1.6,2.7,2.4,5.6,2.4,8.8
		s-0.9,6.3-2.6,9.4c-1.7,3-4.4,5.5-8.1,7.3s-8.8,2.7-15.2,2.7c-9,0-15.5-1.4-19.3-4.4C280.4,178.1,278,174,276.9,168.6z"/>
</g>
<g>
	<path class="st1" d="M119,42.1V25h-5.4v-3.5h14.5V25h-5.4v17.1H119z"/>
	<path class="st1" d="M135.5,21.5v7.6c1.1-1.5,2.5-2.2,4.1-2.2c0.8,0,1.5,0.2,2.2,0.5s1.1,0.8,1.5,1.3c0.3,0.5,0.6,1.1,0.7,1.7
		c0.1,0.6,0.2,1.6,0.2,3v8.8h-3.5v-7.9c0-1.6-0.1-2.6-0.2-3c-0.1-0.4-0.4-0.8-0.7-1s-0.8-0.4-1.3-0.4c-0.6,0-1.1,0.2-1.6,0.5
		s-0.8,0.8-1,1.4c-0.2,0.6-0.3,1.6-0.3,2.8v7.5H132V21.5H135.5z"/>
	<path class="st1" d="M156.8,37.4l3.5,0.7c-0.4,1.4-1.2,2.5-2.1,3.3c-1,0.7-2.2,1.1-3.6,1.1c-2.3,0-4-0.9-5.1-2.5
		c-0.9-1.4-1.3-3.1-1.3-5.1c0-2.5,0.6-4.4,1.7-5.8c1.1-1.4,2.6-2.1,4.4-2.1c2,0,3.5,0.7,4.7,2.2c1.1,1.5,1.7,3.7,1.6,6.7h-8.8
		c0,1.2,0.3,2.1,0.8,2.7c0.5,0.6,1.2,1,2,1c0.6,0,1-0.2,1.4-0.5C156.3,38.6,156.6,38.1,156.8,37.4z M157,33.4c0-1.1-0.3-2-0.8-2.6
		s-1.1-0.9-1.8-0.9c-0.8,0-1.4,0.3-1.9,0.9s-0.7,1.5-0.7,2.6H157z"/>
	<path class="st1" d="M185.2,34.5l3.6,1.3c-0.5,2.3-1.5,3.9-2.7,5c-1.3,1.1-2.9,1.6-4.9,1.6c-2.4,0-4.4-0.9-6-2.8
		c-1.6-1.9-2.3-4.4-2.3-7.7c0-3.4,0.8-6.1,2.4-8c1.6-1.9,3.6-2.8,6.2-2.8c2.2,0,4.1,0.7,5.5,2.2c0.8,0.9,1.5,2.1,1.9,3.8l-3.7,1
		c-0.2-1.1-0.7-1.9-1.4-2.5s-1.5-0.9-2.5-0.9c-1.4,0-2.5,0.6-3.3,1.6c-0.8,1.1-1.3,2.9-1.3,5.3c0,2.6,0.4,4.5,1.2,5.6
		s1.9,1.7,3.2,1.7c1,0,1.8-0.4,2.5-1.1C184.4,37.1,184.9,36,185.2,34.5z"/>
	<path class="st1" d="M192.7,34.4c0-1.3,0.3-2.6,0.9-3.8c0.6-1.2,1.4-2.2,2.4-2.8c1.1-0.6,2.2-1,3.5-1c2,0,3.6,0.7,4.9,2.2
		c1.3,1.5,1.9,3.3,1.9,5.6s-0.6,4.1-1.9,5.6c-1.3,1.5-2.9,2.2-4.9,2.2c-1.2,0-2.4-0.3-3.5-0.9c-1.1-0.6-1.9-1.5-2.5-2.7
		C193,37.6,192.7,36.1,192.7,34.4z M196.3,34.6c0,1.5,0.3,2.6,0.9,3.4c0.6,0.8,1.4,1.2,2.3,1.2c0.9,0,1.7-0.4,2.3-1.2
		s0.9-1.9,0.9-3.4s-0.3-2.6-0.9-3.4c-0.6-0.8-1.4-1.2-2.3-1.2c-0.9,0-1.7,0.4-2.3,1.2C196.6,32,196.3,33.2,196.3,34.6z"/>
	<path class="st1" d="M214,42.1h-3.5V27.2h3.3v2.1c0.6-1,1.1-1.7,1.5-2s1-0.5,1.5-0.5c0.8,0,1.6,0.2,2.3,0.7L218,31
		c-0.6-0.4-1.1-0.6-1.6-0.6s-0.9,0.1-1.3,0.5c-0.3,0.3-0.6,0.9-0.8,1.7s-0.3,2.5-0.3,5L214,42.1L214,42.1z"/>
	<path class="st1" d="M221.3,34.4c0-1.3,0.3-2.6,0.9-3.8c0.6-1.2,1.4-2.2,2.4-2.8c1.1-0.6,2.2-1,3.5-1c2,0,3.6,0.7,4.9,2.2
		c1.3,1.5,1.9,3.3,1.9,5.6s-0.6,4.1-1.9,5.6c-1.3,1.5-2.9,2.2-4.9,2.2c-1.2,0-2.4-0.3-3.5-0.9c-1.1-0.6-1.9-1.5-2.5-2.7
		C221.6,37.6,221.3,36.1,221.3,34.4z M224.9,34.6c0,1.5,0.3,2.6,0.9,3.4c0.6,0.8,1.4,1.2,2.3,1.2c0.9,0,1.7-0.4,2.3-1.2
		s0.9-1.9,0.9-3.4s-0.3-2.6-0.9-3.4c-0.6-0.8-1.4-1.2-2.3-1.2c-0.9,0-1.7,0.4-2.3,1.2C225.2,32,224.9,33.2,224.9,34.6z"/>
	<path class="st1" d="M241.7,42.1l-4.2-14.9h3.4l2.5,9.8l2.3-9.8h3.4l2.2,9.8l2.5-9.8h3.5L253,42.1h-3.4l-2.3-9.6l-2.2,9.6H241.7z"
		/>
	<path class="st1" d="M263.2,31.7l-3.2-0.6c0.4-1.4,1-2.5,1.8-3.2c0.9-0.7,2.2-1,3.9-1c1.6,0,2.7,0.2,3.5,0.6s1.3,0.9,1.6,1.6
		c0.3,0.6,0.5,1.8,0.5,3.5v4.6c0,1.3,0.1,2.3,0.2,2.9c0.1,0.6,0.3,1.3,0.6,2h-3.5c-0.1-0.3-0.2-0.7-0.3-1.2
		c-0.1-0.2-0.1-0.4-0.1-0.5c-0.6,0.7-1.2,1.2-1.9,1.5c-0.7,0.3-1.4,0.5-2.2,0.5c-1.4,0-2.4-0.4-3.2-1.3c-0.8-0.8-1.2-1.9-1.2-3.2
		c0-0.8,0.2-1.6,0.5-2.3c0.4-0.7,0.9-1.2,1.5-1.5s1.6-0.7,2.8-0.9c1.6-0.3,2.8-0.7,3.4-1V32c0-0.8-0.2-1.3-0.5-1.6
		c-0.3-0.3-1-0.5-1.9-0.5c-0.6,0-1.1,0.1-1.5,0.4C263.7,30.6,263.4,31,263.2,31.7z M267.9,34.9c-0.4,0.2-1.2,0.4-2.1,0.6
		c-1,0.2-1.6,0.5-1.9,0.7c-0.5,0.4-0.7,0.8-0.7,1.4c0,0.6,0.2,1,0.6,1.4s0.8,0.6,1.4,0.6s1.2-0.2,1.8-0.7c0.4-0.4,0.7-0.8,0.8-1.3
		c0.1-0.3,0.1-1,0.1-1.9L267.9,34.9L267.9,34.9z"/>
</g>
</svg>
