<svg id="Layer_1" data-name="Layer 1" xmlns="http://www.w3.org/2000/svg" viewBox="0 0 271.09 164.21"><defs><style>.cls-1{fill:#fff;}</style></defs><title>CorowaFreePress_White</title><path class="cls-1" d="M0,5.08H52.13V21.6H21.18V35H47.62V50.56H21.18V82H0Z"/><path class="cls-1" d="M56.32,26.27H74.05V35.4q2.55-5.92,5.29-8.16A10.27,10.27,0,0,1,86.06,25,18.32,18.32,0,0,1,95.23,28L89.36,43.16a13.68,13.68,0,0,0-5.3-1.57,6.38,6.38,0,0,0-5.77,3.46q-2.94,4.89-2.94,18.26V82h-19Z"/><path class="cls-1" d="M152,59.43H114c.34,3.42,1.17,6,2.47,7.66a8.59,8.59,0,0,0,7.17,3.62,9.87,9.87,0,0,0,5.31-1.58,13.17,13.17,0,0,0,3.3-3.51l18.67,1.94q-4.29,8.39-10.34,12t-17.36,3.65q-9.81,0-15.45-3.12a24,24,0,0,1-9.33-9.91,32.89,32.89,0,0,1-3.7-16q0-13.06,7.42-21.14T122.65,25q10.62,0,16.76,3.62a23.37,23.37,0,0,1,9.36,10.49Q152,46,152,57ZM132.71,49.19q-.56-6.18-3-8.86a8.08,8.08,0,0,0-6.31-2.68,8.3,8.3,0,0,0-7.21,4,16.09,16.09,0,0,0-2.19,7.5Z"/><path class="cls-1" d="M212.69,59.43h-38c.34,3.42,1.17,6,2.47,7.66a8.59,8.59,0,0,0,7.17,3.62,9.81,9.81,0,0,0,5.3-1.58A13,13,0,0,0,193,65.62l18.66,1.94q-4.27,8.39-10.33,12t-17.36,3.65q-9.83,0-15.45-3.12a24,24,0,0,1-9.34-9.91,33,33,0,0,1-3.7-16q0-13.06,7.43-21.14T183.37,25q10.62,0,16.76,3.62a23.29,23.29,0,0,1,9.35,10.49Q212.69,46,212.69,57ZM193.42,49.19q-.55-6.18-2.95-8.86a8.08,8.08,0,0,0-6.3-2.68,8.3,8.3,0,0,0-7.22,4,16.09,16.09,0,0,0-2.19,7.5Z"/><path class="cls-1" d="M0,86H35.05q11.46,0,17.15,6.14t5.71,17.47q0,11.64-6.22,18.21t-19,6.56H21.18V163H0Zm21.18,32.79h5.17c4.06,0,6.92-.79,8.56-2.39a8.14,8.14,0,0,0,2.47-6.11,9.2,9.2,0,0,0-2.14-6.14c-1.43-1.67-4.12-2.51-8-2.51h-6Z"/><path class="cls-1" d="M65,107.24H82.74v9.12c1.7-4,3.47-6.66,5.28-8.15A10.25,10.25,0,0,1,94.75,106a18.32,18.32,0,0,1,9.17,2.94l-5.87,15.21a13.5,13.5,0,0,0-5.3-1.57A6.38,6.38,0,0,0,87,126Q84,130.9,84,144.27V163H65Z"/><path class="cls-1" d="M160.66,140.4h-38q.51,5.13,2.47,7.65a8.57,8.57,0,0,0,7.17,3.62,9.85,9.85,0,0,0,5.3-1.57,13.25,13.25,0,0,0,3.31-3.52l18.66,1.94q-4.29,8.4-10.34,12t-17.36,3.64q-9.81,0-15.45-3.12a24.14,24.14,0,0,1-9.33-9.91,32.89,32.89,0,0,1-3.7-16q0-13.06,7.42-21.14T131.34,106q10.6,0,16.75,3.62a23.2,23.2,0,0,1,9.36,10.49q3.21,6.87,3.21,17.89Zm-19.27-10.24q-.55-6.19-3-8.86a8,8,0,0,0-6.3-2.68,8.28,8.28,0,0,0-7.21,4q-1.73,2.52-2.19,7.5Z"/><path class="cls-1" d="M163.15,147.48l18.81-2a10.59,10.59,0,0,0,3.25,5.41,8.91,8.91,0,0,0,5.59,1.62,8.68,8.68,0,0,0,5.91-1.83,4.26,4.26,0,0,0,1.63-3.41,3.93,3.93,0,0,0-2.14-3.56c-1-.59-3.74-1.33-8.15-2.2q-9.87-1.94-13.7-3.59a14.86,14.86,0,0,1-6.48-5.58,15.84,15.84,0,0,1-2.62-9,16,16,0,0,1,2.83-9.49,17,17,0,0,1,7.83-5.94q5-2,13.36-2,8.83,0,13,1.52a16.86,16.86,0,0,1,7,4.72,25.4,25.4,0,0,1,4.68,8.66l-18,2a7,7,0,0,0-2.32-3.93,8.73,8.73,0,0,0-5.4-1.68c-2.15,0-3.71.43-4.68,1.28a4,4,0,0,0-1.47,3.12,3.35,3.35,0,0,0,1.86,3.09q1.86,1.05,8.1,1.89,9.45,1.2,14.06,3.35a15.94,15.94,0,0,1,7,6.13,16.42,16.42,0,0,1,2.45,8.75,18.71,18.71,0,0,1-2.59,9.38,18.06,18.06,0,0,1-8.14,7.26q-5.56,2.7-15.16,2.7-13.55,0-19.29-4.36A19.82,19.82,0,0,1,163.15,147.48Z"/><path class="cls-1" d="M218.54,147.48l18.8-2a10.6,10.6,0,0,0,3.26,5.41,8.88,8.88,0,0,0,5.58,1.62,8.72,8.72,0,0,0,5.92-1.83,4.28,4.28,0,0,0,1.62-3.41,3.93,3.93,0,0,0-2.14-3.56c-1-.59-3.74-1.33-8.14-2.2q-9.87-1.94-13.71-3.59a14.84,14.84,0,0,1-6.47-5.58,15.77,15.77,0,0,1-2.63-9,16,16,0,0,1,2.84-9.49,16.92,16.92,0,0,1,7.82-5.94q5-2,13.36-2,8.83,0,13.06,1.52a16.93,16.93,0,0,1,7,4.72,25.56,25.56,0,0,1,4.67,8.66l-18,2a7,7,0,0,0-2.32-3.93,8.73,8.73,0,0,0-5.4-1.68,7.06,7.06,0,0,0-4.68,1.28,4,4,0,0,0-1.46,3.12,3.34,3.34,0,0,0,1.86,3.09q1.86,1.05,8.09,1.89,9.47,1.2,14.06,3.35a15.88,15.88,0,0,1,7.05,6.13,16.42,16.42,0,0,1,2.45,8.75,18.71,18.71,0,0,1-2.59,9.38,18,18,0,0,1-8.14,7.26q-5.57,2.7-15.15,2.7-13.54,0-19.29-4.36A19.73,19.73,0,0,1,218.54,147.48Z"/><path class="cls-1" d="M60.69,21V3.83H55.27V.35H69.79V3.83H64.38V21Z"/><path class="cls-1" d="M77.17.35V7.93a5,5,0,0,1,4.06-2.24,4.67,4.67,0,0,1,2.18.51,3.71,3.71,0,0,1,1.46,1.29,4.78,4.78,0,0,1,.67,1.74,16.68,16.68,0,0,1,.18,3V21h-3.5V13.07a12.65,12.65,0,0,0-.2-3,1.89,1.89,0,0,0-.7-1,2.08,2.08,0,0,0-1.27-.38,2.64,2.64,0,0,0-1.55.48,2.68,2.68,0,0,0-1,1.44,9.65,9.65,0,0,0-.32,2.84V21h-3.5V.35Z"/><path class="cls-1" d="M98.48,16.21l3.49.66a6.47,6.47,0,0,1-2.12,3.29,5.77,5.77,0,0,1-3.64,1.13,5.68,5.68,0,0,1-5.11-2.54,9.37,9.37,0,0,1-1.31-5.15,9,9,0,0,1,1.72-5.81,5.4,5.4,0,0,1,4.35-2.1,5.58,5.58,0,0,1,4.67,2.2c1.14,1.47,1.68,3.71,1.63,6.74H93.38a4.31,4.31,0,0,0,.85,2.73,2.52,2.52,0,0,0,2,1,2,2,0,0,0,1.39-.51A3.21,3.21,0,0,0,98.48,16.21Zm.2-4A4.16,4.16,0,0,0,97.9,9.6a2.31,2.31,0,0,0-1.82-.89,2.34,2.34,0,0,0-1.9.94,4,4,0,0,0-.73,2.56Z"/><path class="cls-1" d="M126.89,13.38l3.58,1.28a9.17,9.17,0,0,1-2.74,5,7.17,7.17,0,0,1-4.85,1.63,7.43,7.43,0,0,1-6-2.8,11.54,11.54,0,0,1-2.35-7.66c0-3.44.79-6.1,2.36-8A7.66,7.66,0,0,1,123.11,0a7.1,7.1,0,0,1,5.45,2.24A8.42,8.42,0,0,1,130.43,6l-3.66,1a4.43,4.43,0,0,0-1.35-2.53,3.65,3.65,0,0,0-2.5-.93,4,4,0,0,0-3.3,1.65c-.84,1.1-1.26,2.87-1.26,5.33s.41,4.45,1.24,5.56a3.87,3.87,0,0,0,3.24,1.66,3.44,3.44,0,0,0,2.53-1.05A6.31,6.31,0,0,0,126.89,13.38Z"/><path class="cls-1" d="M134.33,13.28a8.84,8.84,0,0,1,.87-3.81,6.39,6.39,0,0,1,2.43-2.81,6.62,6.62,0,0,1,3.53-1,6.26,6.26,0,0,1,4.93,2.2A8.15,8.15,0,0,1,148,13.45a8.18,8.18,0,0,1-1.94,5.61,6.18,6.18,0,0,1-4.88,2.23,7,7,0,0,1-3.47-.93,6,6,0,0,1-2.51-2.72A9.91,9.91,0,0,1,134.33,13.28Zm3.6.21a5.34,5.34,0,0,0,.94,3.4,2.82,2.82,0,0,0,4.6,0,5.45,5.45,0,0,0,.93-3.43,5.34,5.34,0,0,0-.93-3.37,2.83,2.83,0,0,0-4.6,0A5.34,5.34,0,0,0,137.93,13.49Z"/><path class="cls-1" d="M155.63,21h-3.5V6h3.26V8.15a6.08,6.08,0,0,1,1.5-2,2.52,2.52,0,0,1,1.51-.48,4.07,4.07,0,0,1,2.31.75l-1.09,3.44A2.84,2.84,0,0,0,158,9.23a1.79,1.79,0,0,0-1.25.46,3.17,3.17,0,0,0-.8,1.65,25.81,25.81,0,0,0-.3,5Z"/><path class="cls-1" d="M162.94,13.28a9,9,0,0,1,.86-3.81,6.47,6.47,0,0,1,2.44-2.81,6.54,6.54,0,0,1,3.52-1,6.21,6.21,0,0,1,4.92,2.2,8.16,8.16,0,0,1,1.92,5.56,8.18,8.18,0,0,1-1.94,5.61,6.15,6.15,0,0,1-4.87,2.23,7,7,0,0,1-3.48-.93,6,6,0,0,1-2.51-2.72A10.06,10.06,0,0,1,162.94,13.28Zm3.6.21a5.4,5.4,0,0,0,.92,3.4,2.86,2.86,0,0,0,2.31,1.19,2.8,2.8,0,0,0,2.3-1.19,5.45,5.45,0,0,0,.93-3.43,5.34,5.34,0,0,0-.93-3.37,2.79,2.79,0,0,0-2.3-1.18,2.85,2.85,0,0,0-2.31,1.18A5.4,5.4,0,0,0,166.54,13.49Z"/><path class="cls-1" d="M183.35,21,179.16,6h3.4l2.49,9.78L187.33,6h3.38l2.2,9.78L195.44,6h3.46L194.65,21h-3.37L189,11.35,186.75,21Z"/><path class="cls-1" d="M204.9,10.58l-3.19-.65a5.73,5.73,0,0,1,1.85-3.2,6.2,6.2,0,0,1,3.89-1,7.49,7.49,0,0,1,3.49.63,3.64,3.64,0,0,1,1.62,1.58,9.23,9.23,0,0,1,.46,3.54l0,4.61a17,17,0,0,0,.17,2.9,9.44,9.44,0,0,0,.62,2h-3.46q-.13-.39-.33-1.17c-.07-.23-.11-.39-.13-.46a6.36,6.36,0,0,1-1.92,1.48,5.09,5.09,0,0,1-2.19.49A4.2,4.2,0,0,1,202.53,20a4.45,4.45,0,0,1-1.18-3.16,4.66,4.66,0,0,1,.54-2.26,3.66,3.66,0,0,1,1.5-1.52,10.9,10.9,0,0,1,2.79-.92,16.11,16.11,0,0,0,3.4-1v-.39a2.2,2.2,0,0,0-.49-1.62,2.73,2.73,0,0,0-1.89-.49,2.29,2.29,0,0,0-1.46.42A2.84,2.84,0,0,0,204.9,10.58Zm4.68,3.21a18.4,18.4,0,0,1-2.13.6,5.76,5.76,0,0,0-1.91.69,1.72,1.72,0,0,0-.69,1.39,2.07,2.07,0,0,0,.56,1.44,1.78,1.78,0,0,0,1.39.6,2.83,2.83,0,0,0,1.81-.7,2.54,2.54,0,0,0,.84-1.31,9,9,0,0,0,.13-1.92Z"/></svg>