<svg xmlns="http://www.w3.org/2000/svg" width="101" height="62" viewBox="0 0 101 62">
    <g fill="#FFF" fill-rule="nonzero">
        <path d="M0 2.278h19.346v6.163H7.835v5.005h9.803v5.826H7.872V31H0zM20.906 10.196h6.572v3.4c.631-1.457 1.3-2.503 1.968-3.063a3.775 3.775 0 0 1 2.488-.822 7.003 7.003 0 0 1 3.416 1.12l-2.19 5.677c-.595-.336-1.263-.522-1.969-.597-.891 0-1.745.485-2.153 1.307-.743 1.233-1.077 3.474-1.077 6.835V31h-7.055V10.196zM56.441 22.559h-14.11c.111 1.27.445 2.241.928 2.876a3.124 3.124 0 0 0 2.674 1.345c.705 0 1.374-.225 1.968-.598.482-.374.89-.784 1.225-1.307l6.944.71c-1.077 2.09-2.34 3.585-3.825 4.481-1.485.897-3.639 1.345-6.46 1.382-2.414 0-4.345-.373-5.72-1.158-1.484-.859-2.673-2.166-3.453-3.697-.965-1.83-1.41-3.885-1.373-5.976 0-3.25.928-5.901 2.747-7.88 1.82-1.98 4.382-3.026 7.613-2.989 2.636 0 4.715.448 6.238 1.345 1.522.934 2.748 2.278 3.49 3.921.817 1.719 1.188 3.96 1.188 6.686v.859h-.074zm-7.166-3.81c-.149-1.53-.52-2.651-1.114-3.324a2.956 2.956 0 0 0-2.34-1.008c-1.077 0-2.116.56-2.673 1.494-.483.859-.78 1.83-.817 2.801l6.944.037zM78.98 22.559H64.87c.112 1.27.446 2.241.929 2.876a3.124 3.124 0 0 0 2.673 1.345c.706 0 1.374-.225 1.968-.598a4.697 4.697 0 0 0 1.263-1.307l6.943.71c-1.04 2.09-2.339 3.585-3.824 4.481-1.486.897-3.64 1.345-6.461 1.382-2.451 0-4.345-.373-5.719-1.158-1.485-.859-2.673-2.166-3.453-3.697-.965-1.83-1.411-3.885-1.374-5.976 0-3.25.928-5.901 2.748-7.88 1.82-1.98 4.381-3.026 7.612-2.989 2.636 0 4.716.448 6.238 1.345 1.523.934 2.748 2.278 3.49 3.921.78 1.719 1.189 3.96 1.189 6.686v.859h-.111zm-7.166-3.81c-.149-1.53-.52-2.651-1.077-3.324a2.956 2.956 0 0 0-2.34-1.008c-1.076 0-2.116.56-2.673 1.494-.482.859-.78 1.83-.817 2.801l6.907.037zM0 32.494h12.996c2.822 0 4.976.747 6.35 2.278 1.411 1.532 2.116 3.698 2.116 6.536 0 2.914-.78 5.155-2.302 6.798-1.522 1.643-3.899 2.465-7.055 2.465H7.872v10.682H0V32.494zm7.872 12.25h1.93c1.523 0 2.563-.298 3.194-.896a3.23 3.23 0 0 0 .929-2.278c.037-.822-.26-1.643-.78-2.278s-1.523-.934-2.97-.934H7.945l-.074 6.387zM24.136 40.412h6.572v3.399c.632-1.494 1.3-2.503 1.968-3.063a3.775 3.775 0 0 1 2.488-.821c1.226.037 2.377.448 3.417 1.083L36.39 46.76c-.594-.336-1.263-.522-1.968-.597-.891 0-1.708.485-2.117 1.27-.742 1.232-1.114 3.51-1.114 6.835v6.984h-7.055V40.412zM59.672 52.812h-14.11c.11 1.27.445 2.241.928 2.839a3.124 3.124 0 0 0 2.673 1.344c.706 0 1.374-.224 1.968-.597a5.819 5.819 0 0 0 1.226-1.308l6.943.71c-1.076 2.092-2.339 3.586-3.824 4.482-1.486.896-3.64 1.345-6.461 1.345-2.414 0-4.345-.374-5.719-1.158-1.485-.86-2.673-2.167-3.453-3.698-.965-1.83-1.411-3.884-1.374-5.976 0-3.25.928-5.901 2.748-7.88 1.82-2.017 4.382-2.988 7.612-2.988 2.636 0 4.716.448 6.238 1.344a8.716 8.716 0 0 1 3.49 3.922c.78 1.718 1.189 3.921 1.189 6.685v.934h-.074zm-7.167-3.81c-.148-1.53-.52-2.651-1.114-3.324a2.956 2.956 0 0 0-2.34-1.008c-1.076 0-2.116.56-2.673 1.494-.445.635-.705 1.569-.817 2.801l6.944.037zM60.563 55.464l6.98-.747a3.86 3.86 0 0 0 1.189 2.017c.594.448 1.337.635 2.08.597.78.038 1.559-.186 2.19-.672.372-.299.594-.784.594-1.27 0-.56-.297-1.083-.78-1.344-.37-.225-1.373-.486-3.007-.822-2.45-.486-4.122-.934-5.087-1.345a5.478 5.478 0 0 1-2.414-2.091 5.725 5.725 0 0 1-.965-3.362 6.02 6.02 0 0 1 1.04-3.548c.742-1.008 1.745-1.793 2.896-2.204 1.225-.485 2.896-.746 4.975-.746 2.191 0 3.788.186 4.828.56a6.566 6.566 0 0 1 2.599 1.755 9.821 9.821 0 0 1 1.745 3.25l-6.684.747a2.555 2.555 0 0 0-.854-1.457 3.547 3.547 0 0 0-2.005-.635c-.78 0-1.374.15-1.745.486-.334.298-.557.71-.557 1.157 0 .486.26.934.705 1.158.446.262 1.449.486 3.008.71 2.34.299 4.085.71 5.236 1.232a5.926 5.926 0 0 1 2.599 2.279c.594.97.928 2.129.891 3.286a6.939 6.939 0 0 1-.965 3.511 6.878 6.878 0 0 1-3.008 2.727c-1.374.672-3.268 1.008-5.644 1.008-3.342 0-5.756-.56-7.167-1.643a7.585 7.585 0 0 1-2.673-4.594zM81.134 55.464l6.981-.747c.186.784.594 1.494 1.225 2.017.595.448 1.337.635 2.08.597.78.038 1.56-.186 2.19-.672.372-.299.595-.784.595-1.27 0-.56-.297-1.083-.78-1.344-.371-.225-1.374-.486-3.008-.822-2.45-.486-4.121-.934-5.087-1.345a5.478 5.478 0 0 1-2.413-2.091 5.725 5.725 0 0 1-.966-3.362 6.02 6.02 0 0 1 1.04-3.548c.742-1.008 1.745-1.793 2.896-2.204 1.225-.485 2.896-.746 4.976-.746 2.19 0 3.787.186 4.864.56a6.566 6.566 0 0 1 2.6 1.755 9.821 9.821 0 0 1 1.745 3.25l-6.684.747a2.555 2.555 0 0 0-.854-1.457 3.547 3.547 0 0 0-2.005-.635c-.632-.037-1.226.112-1.746.486-.334.298-.557.71-.557 1.157 0 .486.26.934.706 1.158.446.262 1.448.486 3.008.71 2.339.299 4.084.71 5.235 1.232 1.077.486 2.006 1.27 2.6 2.279.594.97.928 2.129.928 3.286a6.939 6.939 0 0 1-.966 3.511 6.878 6.878 0 0 1-3.007 2.727c-1.374.672-3.268 1.008-5.607 1.008-3.342 0-5.756-.56-7.167-1.643-1.522-1.12-2.488-2.764-2.822-4.594zM22.54 8.217V1.793h-2.006V.523h5.384V1.83h-2.005v6.387zM28.666.523V3.36a1.772 1.772 0 0 1 1.523-.821c.297 0 .557.074.817.187.222.112.408.261.556.485.112.187.223.41.26.635.075.373.075.747.075 1.12v3.25h-1.3v-2.95c.037-.374 0-.748-.074-1.121a.743.743 0 0 0-.743-.523c-.223 0-.408.075-.594.187-.186.149-.297.336-.371.523-.075.336-.149.71-.112 1.045v2.839h-1.3V.523h1.263zM36.575 6.424l1.3.262a2.694 2.694 0 0 1-.78 1.232c-.408.299-.854.448-1.337.41-.742.038-1.485-.298-1.893-.933-.334-.597-.52-1.232-.483-1.905a3.454 3.454 0 0 1 .631-2.166 2.075 2.075 0 0 1 1.597-.784 2.026 2.026 0 0 1 1.745.821c.409.56.631 1.382.594 2.503h-3.267c0 .373.111.71.297 1.008.185.224.445.374.742.374a.884.884 0 0 0 .52-.187 1.18 1.18 0 0 0 .334-.635zm.075-1.494c0-.336-.075-.71-.297-.971a.792.792 0 0 0-.669-.336c-.26 0-.557.112-.705.336a1.423 1.423 0 0 0-.26.971h1.93zM47.121 5.378l1.337.486c-.149.71-.483 1.382-1.003 1.867-.52.411-1.151.635-1.782.598-.854.037-1.671-.374-2.228-1.046a4.192 4.192 0 0 1-.854-2.876c0-1.27.297-2.278.891-2.988A2.758 2.758 0 0 1 45.784.373a2.525 2.525 0 0 1 2.005.822c.335.411.594.897.706 1.42l-1.374.373c-.074-.374-.223-.71-.483-.934a1.421 1.421 0 0 0-.928-.336c-.483 0-.928.224-1.225.598-.297.41-.483 1.083-.483 1.98 0 .896.148 1.643.445 2.09.26.412.743.636 1.189.636.371 0 .705-.15.928-.374.297-.373.483-.821.557-1.27zM49.869 5.341c0-.486.111-.971.334-1.42.186-.448.52-.784.891-1.045a2.379 2.379 0 0 1 1.3-.374c.705 0 1.374.3 1.82.822.482.598.742 1.345.705 2.092a3.107 3.107 0 0 1-.706 2.091c-.445.523-1.114.86-1.82.822-.445 0-.89-.112-1.299-.336a2.21 2.21 0 0 1-.928-1.009 4.945 4.945 0 0 1-.297-1.643zm1.337.075c-.038.448.11.896.334 1.27.334.485 1.002.597 1.448.261a.87.87 0 0 0 .26-.261c.26-.374.371-.822.334-1.27.037-.449-.111-.897-.334-1.27-.334-.486-1.003-.598-1.448-.262a.87.87 0 0 0-.26.262c-.223.373-.372.821-.334 1.27zM57.778 8.217h-1.3V2.614h1.226V3.4c.148-.299.334-.523.557-.747a.997.997 0 0 1 .557-.187c.297 0 .594.112.854.299l-.409 1.27a.907.907 0 0 0-.594-.224.613.613 0 0 0-.445.186c-.149.187-.26.374-.298.598a7.896 7.896 0 0 0-.11 1.867l-.038 1.756zM60.489 5.341c0-.486.111-.971.334-1.42.185-.448.52-.784.891-1.045a2.379 2.379 0 0 1 1.3-.374c.705-.037 1.373.3 1.82.822.482.598.742 1.307.705 2.092a3.107 3.107 0 0 1-.706 2.091c-.445.523-1.114.86-1.82.822-.445 0-.89-.112-1.299-.336a2.21 2.21 0 0 1-.928-1.009 4.945 4.945 0 0 1-.297-1.643zm1.336.075c-.037.448.075.896.335 1.27.185.261.52.448.854.448.334 0 .668-.15.854-.448.26-.374.371-.822.334-1.27.037-.449-.112-.897-.334-1.27a1.088 1.088 0 0 0-.854-.448c-.335 0-.669.149-.854.448a2.495 2.495 0 0 0-.335 1.27zM68.1 8.217l-1.559-5.603h1.263l.928 3.66.854-3.66h1.263l.816 3.66.929-3.66h1.3l-1.597 5.603h-1.263L70.18 4.63l-.817 3.586zM76.084 4.333l-1.188-.225c.074-.448.334-.896.705-1.195.409-.299.929-.41 1.449-.373.445-.038.89.037 1.3.224.26.112.482.336.593.597.149.411.186.86.186 1.308v1.718c0 .373 0 .71.074 1.083.037.261.112.523.223.747h-1.3a2.554 2.554 0 0 1-.11-.448c-.038-.075-.038-.15-.038-.187-.186.224-.446.41-.706.56-.26.112-.52.187-.816.187a1.442 1.442 0 0 1-1.189-.486 1.768 1.768 0 0 1-.445-1.195c0-.299.074-.597.185-.859.112-.224.335-.448.557-.56a4.84 4.84 0 0 1 1.04-.336 4.92 4.92 0 0 0 1.263-.374v-.15a.692.692 0 0 0-.186-.597.927.927 0 0 0-.706-.186c-.185 0-.371.037-.557.149-.185.187-.297.373-.334.598zm1.745 1.195l-.78.224c-.26.037-.482.112-.705.261a.655.655 0 0 0-.26.523c0 .187.074.411.223.523.149.15.334.224.52.224.26 0 .483-.112.668-.261a.831.831 0 0 0 .297-.486c.037-.224.075-.485.037-.71v-.298z"/>
    </g>
</svg>
