<svg xmlns="http://www.w3.org/2000/svg" width="168" height="31" viewBox="0 0 168 31">
    <g fill="none" fill-rule="evenodd">
        <path fill="#FEFEFE" d="M100.055 12.082l-.002-.001v-.002a.374.374 0 0 0-.365-.38h-1.982c-1 0-1.562.41-1.881 1.371l-2.223 6.725c-.068.202-.14.457-.213.76a.11.11 0 0 1-.106.086.111.111 0 0 1-.107-.085 7.874 7.874 0 0 0-.233-.767l-2.555-6.723c-.181-.504-.4-.838-.689-1.052-.291-.215-.661-.316-1.165-.316h-1.93v.001a.374.374 0 0 0-.367.38l-.001.001v2.4l.001.001c.001.209.164.377.366.379h.168c.308 0 .423.052.55.376l4.297 9.997a.118.118 0 0 1 0 .092l-.387.92c-.415 1.045-1.127 1.62-2.007 1.62-.698 0-1.276-.427-1.56-.682h-.004a.361.361 0 0 0-.248-.1.365.365 0 0 0-.324.203h-.001L86.05 29.25v.003a.383.383 0 0 0 .078.457c.147.136.411.359.783.583a4.848 4.848 0 0 0 2.49.707 4.875 4.875 0 0 0 2.82-.871c.891-.626 1.572-1.546 2.023-2.736l4.675-12.157c.125-.321.259-.376.6-.376l.165-.002c.203 0 .368-.17.368-.38l.002-.002v-2.394zM23.124 21.985l-1.336-1.811a.477.477 0 0 0-.746-.027c-.02.022-1.96 2.245-5.14 2.245-3.258 0-5.81-2.845-5.81-6.478 0-3.593 2.33-6.201 5.654-6.201 1.764 0 3.655.748 3.655 1.749v1.006c0 .27.381.366.646.366h2.27c.265 0 .594-.095.594-.366v-1.736c0-2.83-3.499-4.07-6.179-4.298l-2.241.94c-1.016.438-2.811 1.326-3.927 2.054-1.826 1.192-2.89 2.36-3.5 3.376-.304.968-.47 2.01-.47 3.11 0 5.6 3.99 9.822 9.298 9.822 4.562 0 7.111-3.013 7.218-3.141a.497.497 0 0 0 .014-.61M12.347 4.666c-.812.4-1.478.743-2.09 1.12-.478.305-.937.62-1.37.94l.154-.041c1.332-.3 2.684-.628 4.02-.978.44-.132.889-.263 1.334-.389.158-.054.318-.105.488-.159.318-.1.647-.204.988-.343.163-.066.33-.136.47-.196a8.44 8.44 0 0 1-.805-.39c-.316-.166-.615-.324-.894-.417-.002 0-.03-.011-.067-.011a.168.168 0 0 0-.052.008c-.843.27-1.554.55-2.176.856M3.494 5.644a8.292 8.292 0 0 0 1.033 2.251v.001l.017-.009.008-.003c.017-.008 1.714-.703 3.013-1.064a.9.9 0 0 0 .193-.07.375.375 0 0 0 .05-.034c.026-.02.05-.04.073-.063.026-.024.053-.048.08-.07.318-.246.674-.506 1.09-.792.373-.258.765-.508 1.163-.745.385-.23.786-.452 1.193-.663.422-.22.822-.41 1.22-.583.437-.19.88-.36 1.258-.5l.048-.018.104-.038a.037.037 0 0 0 .01-.008c-.001 0-.01-.023-.06-.063-.298-.234-.62-.45-.931-.658l-.15-.101a66.374 66.374 0 0 1-.336-.227c-.336-.23-.673-.456-1.01-.683l-.209-.14-.266-.18a14.516 14.516 0 0 0-.819-.506A4.004 4.004 0 0 0 9.83.464a2.258 2.258 0 0 0-.666-.17c-.063 0-.133.003-.203.008-.766.084-1.572.388-2.392.903-.83.52-1.533 1.087-2.09 1.685l-.096.106a5.474 5.474 0 0 0-.146.188c-.017.021-.033.045-.05.069l-.004.007c-.32.434-.55.91-.688 1.415a4.34 4.34 0 0 0-.018.08l-.014.058a2.5 2.5 0 0 0-.021.44c.005.117.023.257.052.392"/>
        <path fill="#FEFEFE" d="M16.774 5.473c.407-.17.792-.384 1.245-.653.12-.072.238-.143.356-.217.35-.219.69-.522 1.01-.903.333-.41.59-.921.76-1.518.105-.33.173-.734.205-1.204.01-.151.003-.29-.023-.415a.875.875 0 0 0-.308-.525l-.03-.015c-.167-.058-.388-.005-.642.156-.295.188-.529.36-.695.51a29.871 29.871 0 0 0-2.623 2.796l.24.11.107.05c.11.05.228.104.348.155a11.511 11.511 0 0 0 .373.152c.04.018.095.04.116.03.344-.17.808-.504 1.024-.709.357-.337.569-.712.646-1.145l.006-.037a.606.606 0 0 1 .02-.098.172.172 0 0 1 .186-.12c.108.015.231.1.207.414a2.02 2.02 0 0 1-.076.384 3.289 3.289 0 0 1-.25.583c-.16.299-.385.56-.69.8l-.013.01-.022.018-.013.01-.006.004c-.148.11-.312.217-.491.317l-.291.16a4.93 4.93 0 0 1-.449.218c-.749.31-1.567.534-2.433.771l-.257.07c-1.31.43-2.677.747-4 1.053-1.228.285-2.498.579-3.721.964-1.192.375-2.733.93-4.085 1.901a9.436 9.436 0 0 0-.982.807C.27 11.544-.52 13.553.399 15.096l.003.006c.237.396.633.794.985.99.342.192.734.285 1.199.285.251 0 .527-.027.84-.084.312-.055 1.967-.528 2.107-.714-.04-.137-.244-.928.119-2.088.648-2.072 2.593-3.685 4.11-4.674.997-.649 2.716-1.447 3.656-1.866-.708.14-1.476.305-2.173.456l-.496.107a47.698 47.698 0 0 0-2.75.669c-1.2.333-2.368.674-3.461 1.184-.327.153-.62.309-.896.477a9.896 9.896 0 0 0-1.236.893c-.198.167-.4.358-.634.6l-.045.05c-.15.166-.322.343-.47.343a.174.174 0 0 1-.074-.015c-.023-.011-.074-.045-.067-.13.009-.106.11-.26.209-.397l.015-.021c.177-.256.388-.507.629-.747.228-.229.484-.448.76-.652 1.16-.86 2.157-1.21 3.663-1.686l.168-.052c.038-.01.075-.022.112-.033.376-.115.787-.235 1.256-.368l.064-.018c.307-.087.644-.172 1.062-.27.844-.198 1.71-.362 2.546-.52.655-.124 1.332-.252 1.994-.395.594-.129 1.117-.26 1.599-.4.563-.162 1.095-.348 1.581-.553"/>
        <path fill="#8CC63F" d="M101.775 9.066h4.003l6.371 8.502V9.066h4.247v16.085h-3.76l-6.614-8.824v8.824h-4.247zM117.83 9.066h12.503v3.792h-8.24v2.435h7.462v3.516h-7.462v2.55h8.35v3.792H117.83zM131.017 9.111h4.596l2.735 9.215 3.026-9.26h3.744l3.027 9.26 2.735-9.215h4.506l-5.246 16.04h-3.789l-3.161-9.169-3.139 9.169h-3.788zM154.239 22.527l2.432-2.918c1.554 1.244 3.289 1.9 5.113 1.9 1.171 0 1.802-.407 1.802-1.086v-.045c0-.656-.519-1.018-2.658-1.516-3.356-.769-5.946-1.719-5.946-4.976v-.045c0-2.941 2.32-5.067 6.104-5.067 2.68 0 4.774.723 6.486 2.103l-2.185 3.1c-1.441-1.019-3.017-1.562-4.414-1.562-1.058 0-1.577.453-1.577 1.018v.046c0 .724.54 1.04 2.726 1.538 3.626.791 5.878 1.968 5.878 4.931v.045c0 3.235-2.545 5.158-6.374 5.158-2.792 0-5.45-.882-7.387-2.624"/>
        <path fill="#FEFEFE" d="M33.155 21.483a3.63 3.63 0 0 1-2.636 1.105 3.592 3.592 0 0 1-2.612-1.105c-.71-.739-1.102-1.773-1.102-2.912 0-1.13.392-2.161 1.102-2.903a3.585 3.585 0 0 1 2.612-1.115c1.008 0 1.943.396 2.636 1.115.712.74 1.105 1.772 1.105 2.903 0 1.14-.393 2.175-1.105 2.912m4.117-.016c.379-.895.571-1.87.571-2.896 0-2.003-.759-3.834-2.136-5.154-1.352-1.297-3.194-2.011-5.188-2.011-1.981 0-3.816.714-5.165 2.01-1.375 1.323-2.132 3.153-2.132 5.155 0 1.026.192 2 .57 2.896.364.86.89 1.623 1.562 2.268 1.346 1.29 3.18 2 5.165 2 1.997 0 3.84-.71 5.188-2a6.779 6.779 0 0 0 1.565-2.268M52.75 22.401v-.007a.373.373 0 0 0-.368-.378l-.006.001h-.581c-.273 0-.41-.141-.41-.42v-9.52a.373.373 0 0 0-.37-.377l-.033.003h-2.753l-.033-.003a.373.373 0 0 0-.369.377l.002.024v5.648c0 1.18-.325 2.263-.915 3.05-.636.848-1.532 1.297-2.592 1.297-.719 0-1.192-.217-1.487-.682-.26-.41-.382-1.008-.382-1.885v-5.916c0-.654-.147-1.124-.45-1.438-.307-.317-.77-.472-1.417-.472h-2.61c-.017-.002-.033-.005-.05-.005a.373.373 0 0 0-.37.377l.002.015v2.379c0 .208.166.376.37.376l.025-.003h.56c.288 0 .41.126.41.42v4.948c0 .907.108 1.707.32 2.376.207.656.52 1.206.93 1.636.774.81 1.92 1.221 3.407 1.221 1.666 0 3.228-.774 4.179-2.07a.108.108 0 0 1 .123-.04.112.112 0 0 1 .075.107v.042c0 .513.169.934.488 1.217.322.285.786.43 1.38.43h2.55l.007.001a.373.373 0 0 0 .369-.377V22.401zM85.147 14.488v-2.582a.154.154 0 0 0-.128-.154 4.167 4.167 0 0 0-.613-.054c-.985 0-1.918.358-2.7 1.035-.423.366-.789.66-1.088 1.182a.109.109 0 0 1-.124.052.112.112 0 0 1-.081-.109v-.357c0-.6-.165-1.054-.49-1.35-.317-.288-.776-.428-1.403-.428H75.767a.373.373 0 0 0-.367.378v2.383c0 .208.164.377.367.378h.808c.288 0 .41.126.41.42v9.491c0 .209.165.378.369.378l.014-.002h2.763l.015.002a.373.373 0 0 0 .368-.374v-4.591c0-3.313 1.33-5.312 3.687-5.312l.577-.009a.373.373 0 0 0 .369-.377M67.372 22.418a.373.373 0 0 0-.368-.377c-.011 0-.021.003-.032.004h-.446c-.336 0-.52-.19-.52-.533v-4.987c0-1.732-.405-3.042-1.204-3.893-.764-.814-1.903-1.226-3.388-1.226-1.181 0-2.224.327-3.101.973-.4.294-.757.65-1.063 1.059a.218.218 0 0 1-.245.076.225.225 0 0 1-.15-.213v-.047c0-.489-.148-.87-.44-1.131-.297-.268-.74-.403-1.314-.403H52.546a.373.373 0 0 0-.369.376l.001.01v2.15c0 .207.164.376.368.376h.587c.35 0 .52.174.52.532v9.6l-.001.01c0 .207.164.376.367.377h2.57c.204 0 .37-.17.37-.377l-.001-.006v-5.783c0-.655.085-1.25.253-1.766.229-.793.663-1.463 1.257-1.939a3.483 3.483 0 0 1 2.205-.753c.721 0 1.228.215 1.549.656.31.426.453 1.068.453 2.022v6.123c0 .646.138 1.102.422 1.391.283.29.727.432 1.359.432h2.546c.203 0 .368-.17.368-.377v-.005l.002-2.35M74.825 22.564v-.017a.372.372 0 0 0-.362-.379h-.001a3.3 3.3 0 0 1-.37.02c-.419 0-1.024-.071-1.525-.408-.581-.391-.876-1.177-.876-2.085v-4.619c0-.062.049-.113.109-.113h2.45l.008.001c.2 0 .364-.17.364-.379V12.2a.372.372 0 0 0-.364-.378H71.8a.11.11 0 0 1-.11-.113V7.985l.001-.003a.371.371 0 0 0-.364-.378H68.62a.371.371 0 0 0-.364.378v3.727a.11.11 0 0 1-.109.113h-1.27l-.001.002a.371.371 0 0 0-.363.372l-.001.001v2.388c0 .21.163.379.364.379H68.071c.06 0 .109.05.109.112v5.167c0 1.075.203 2.003.604 2.759a4.127 4.127 0 0 0 1.475 1.581c1.133.711 2.49.86 3.43.86.321 0 .592-.024.772-.046.2-.002.362-.17.362-.378v-.004l.002-.002v-2.449z"/>
    </g>
</svg>
