<svg xmlns="http://www.w3.org/2000/svg" xmlns:xlink="http://www.w3.org/1999/xlink" width="730" height="125" viewBox="0 0 730 125">
    <defs>
        <path id="a" d="M33.792.691h33.037v88.345H.754V.691z"/>
    </defs>
    <g fill="none" fill-rule="evenodd">
        <g transform="translate(663 -2.691)">
            <mask id="b" fill="#fff">
                <use xlink:href="#a"/>
            </mask>
            <path fill="#FFF" d="M38.441 32.75c-6.24-1.713-11.746-2.692-11.746-8.442 0-5.262 3.671-7.464 10.4-7.464 2.692 0 4.772.367 6.363.856l2.447 9.177h18.353V2.038H48.596C45.05 1.304 40.643.691 32.934.691 14.581.691 1.122 8.768 1.122 28.223c0 18.476 11.257 23.616 23.737 26.919 9.055 2.447 14.685 3.548 14.685 9.421 0 5.384-3.916 7.586-10.403 7.586-3.303 0-5.506-.244-7.342-.855l-2.447-10.647H.754v27.042h18.232c4.282.858 8.565 1.347 14.438 1.347 23.004 0 33.405-10.156 33.405-28.756 0-16.395-7.83-22.023-28.388-27.53" mask="url(#b)"/>
        </g>
        <path fill="#FFF" d="M663.575-.653h-35.729v15.662h1.836c5.506 0 6.485 3.059 4.772 9.177l-6.24 25.573h-.368L615.856-.653h-20.312L583.43 49.759h-.246l-7.586-34.75h7.586V-.653H541.34v15.662h1.59c1.468 0 3.181 1.468 3.67 2.692l16.641 67.297h28.144l10.4-42.826h.244l10.401 42.826h28.02l17.253-66.318c.612-1.958 2.937-3.671 4.65-3.671h1.223V-.653zM520.036 68.603h-19.844v-18.6h20.7V32.628h-20.7V16.233h19.354l2.448 10.89h16.52V-.653h-73.927v15.662h3.547c1.468 0 3.425 2.079 3.425 3.426V66.4c0 1.346-1.957 3.549-3.425 3.549h-3.547v15.05h75.026V55.633h-17.252l-2.325 12.97zM410.063 69.949h-7.83V36.422h.365l28.266 48.577h24.84V18.435c0-1.346 1.957-3.425 3.302-3.425h3.182V-.653h-34.506V15.01h7.464v28.509h-.367L409.206-.653h-34.383V15.01h3.548c1.47 0 3.426 2.079 3.426 3.425V66.4c0 1.346-1.957 3.549-3.426 3.549h-3.548v15.05h35.24v-15.05z"/>
        <path fill="#00A0E3" d="M247.813 16.11h4.845c7.995 0 10.418 3.916 10.418 10.768s-2.302 10.645-10.418 10.645h-4.845V16.11zm8.357 53.839h-7.63v-17.62h5.087c6.178 0 8.6 2.447 9.45 9.422l2.785 23.248h31.011v-15.05h-2.059c-1.09 0-2.544-.858-3.029-3.06l-1.332-5.506c-2.665-11.991-6.906-15.785-15.627-17.62v-.49c11.63-3.06 16.475-9.298 16.475-19.454 0-16.397-11.145-24.473-35.857-24.473H213.29v15.662h3.512c1.453 0 3.393 2.08 3.393 3.427V66.4c0 1.346-1.94 3.549-3.393 3.549h-3.512v15.05h42.881v-15.05zM36.074 16.11h3.513c12.598 0 18.534 8.32 18.534 26.552s-6.178 26.552-18.534 26.552h-3.513V16.11zm51.12 25.45c0-28.754-14.658-42.214-46.759-42.214H.823v15.662h3.513c1.454 0 3.392 2.08 3.392 3.427V66.4c0 1.346-1.938 3.549-3.392 3.549H.823v15.05h38.764c32.585 0 47.606-14.928 47.606-43.438z"/>
        <path fill="#00A0E3" d="M337.1 15.008h1.94c5.33 0 6.54 2.938 3.876 7.464l-7.147 12.481h-.363l-11.387-19.945h7.39V-.654h-40.703v15.662h1.938c1.213 0 2.787 1.347 3.514 2.57l21.32 34.995V66.4c0 1.345-1.817 3.548-3.271 3.548h-4.118v15.05h43.246v-15.05h-4.12c-1.454 0-3.391-2.203-3.391-3.548V51.961l20.714-33.403c1.09-1.715 3.029-3.55 4.725-3.55h1.21V-.654h-35.372v15.662zM121.622 50.102c-7.205 0-12.645-8.105-8.974-16.171 3.782-8.308 6.787-11.352 8.974-19.94 2.187 8.588 5.192 11.632 8.974 19.94 3.671 8.066-1.769 16.17-8.974 16.17m85.077-35.093h4.24V-.654h-43.367v15.662h4.119c1.453 0 3.391 2.08 3.391 3.427V66.4c0 1.346-1.938 3.549-3.391 3.549h-3.579c-1.212 0-3.15-1.47-3.634-2.816L143.279-.654H97.61v15.662h3.998c1.575 0 2.665 1.958 2.18 3.305L87.071 66.156c-.847 2.202-2.665 3.793-4.603 3.793h-1.574v15.049h35.977v-15.05h-3.15c-5.935 0-6.662-3.67-4.36-11.134h23.863l3.15 11.135h-9.449v15.049h84.014v-15.05h-4.24c-1.333 0-3.27-2.202-3.27-3.548V18.435c0-1.347 1.937-3.427 3.27-3.427"/>
        <path fill="#FEFEFE" d="M118.698 45.738c4.915 0 8.9-4.298 8.9-9.598 0-1.077-.173-2.11-.476-3.076 1.317 1.496 2.131 3.516 2.131 5.742 0 4.612-3.466 8.35-7.743 8.35-1.702 0-3.27-.601-4.549-1.605a8.245 8.245 0 0 0 1.737.187m2.924 4.364c7.205 0 12.645-8.105 8.973-16.171-3.78-8.308-6.786-11.352-8.973-19.94-2.187 8.588-5.192 11.632-8.974 19.94-3.67 8.066 1.77 16.17 8.974 16.17"/>
        <path fill="#E5E6E7" d="M129.253 38.806c0-2.227-.814-4.246-2.131-5.742.303.967.475 1.999.475 3.076 0 5.3-3.984 9.598-8.9 9.598a8.312 8.312 0 0 1-1.736-.187c1.278 1.004 2.847 1.605 4.549 1.605 4.277 0 7.743-3.739 7.743-8.35"/>
        <path fill="#D92128" d="M0 121.309h725.82V99.975H0z"/>
        <path fill="#FEFEFE" d="M400.835 105.471h-3.075v11.008h8.259v-2.659h-5.184zM367.934 110.626h-2.48v-2.54h2.465c1.234 0 1.619.237 1.619 1.292 0 1.01-.416 1.248-1.604 1.248m4.71-1.366c0-2.065-.67-3.789-4.606-3.789h-5.584v11.008h3v-3.298h1.99l1.783 3.298h3.298l-2.005-3.7c1.782-.697 2.124-2.153 2.124-3.519M299.129 109.022l1.367 3.506h-2.733l1.366-3.506zm-2.347 6.03h4.695l.548 1.427h3.195l-4.442-11.082h-3.133l-4.412 11.082h3l.549-1.426zM329.112 108.814c0 2.48 1.485 3.104 4.71 3.506 1.56.192 2.286.326 2.286.876 0 .609-.089.906-2.183.906-1.47 0-2.867-.446-3.966-1.203l-1.545 2.214c1.188.92 3.15 1.529 5.6 1.529 4.01 0 5.14-1.351 5.14-3.595 0-2.54-1.798-3.03-4.546-3.386-1.648-.208-2.435-.297-2.435-.921 0-.534.192-.773 1.796-.773 1.144 0 2.511.416 3.15.847l1.663-2.392c-.83-.534-2.273-1.13-4.783-1.13-3.342 0-4.887.893-4.887 3.522M321.9 112.157v-6.686h-2.987v6.27c0 1.574-.327 2.242-2.243 2.242-1.946 0-2.243-.742-2.243-2.242v-6.27h-3.09v6.686c0 2.064.268 4.545 5.29 4.545 5.02 0 5.272-2.481 5.272-4.545M412.786 116.479h3.076v-11.008h-3.076zM345.375 108.25h3.653v8.228h3.09v-8.229h3.654v-2.778h-10.397zM383.625 112.528l1.367-3.506 1.366 3.506h-2.733zm-.119-7.131l-4.412 11.082h3.002l.549-1.426h4.693l.551 1.426h3.192l-4.44-11.082h-3.135zM427.138 112.528l1.367-3.506 1.366 3.506h-2.733zm-.12-7.131l-4.41 11.082h3l.55-1.426h4.694l.55 1.426h3.192l-4.44-11.082h-3.135z"/>
        <path fill="#231F20" d="M271.75 107.115l3.897 1.54 1.36-4.018 1.39 3.899 3.957-1.421-2.265 3.505 3.561 2.177-4.166.42.485 4.14-3.052-2.961-2.841 2.902.515-4.08-4.231-.393 3.626-2.146zM443.56 107.115l3.899 1.54 1.36-4.018 1.388 3.899 3.959-1.421-2.267 3.505 3.562 2.177-4.166.42.484 4.14-3.051-2.961-2.841 2.902.514-4.08-4.23-.393 3.625-2.146z"/>
    </g>
</svg>
