<svg xmlns="http://www.w3.org/2000/svg" width="125" height="60" viewBox="0 0 125 60">
    <g fill="#FFF" fill-rule="nonzero">
        <path d="M.034 32.932h23.57l.034 7.909h-1.124c-.375-2.83-1.43-4.739-3.168-5.727-.988-.546-2.452-.853-4.394-.92v20.624c0 1.432.239 2.387.75 2.864.51.477 1.532.716 3.133.716v.988H4.871v-.988c1.532 0 2.554-.239 3.065-.716.51-.477.75-1.432.75-2.864V34.16c-1.908.068-3.373.341-4.394.92-1.874 1.023-2.93 2.932-3.168 5.728H0l.034-7.875zM26.533 58.432c1.124-.034 1.907-.17 2.384-.41.783-.408 1.192-1.192 1.192-2.352V36.682c0-1.16-.375-1.91-1.124-2.318-.443-.239-1.26-.375-2.452-.444v-.988h13.692v.988c-1.226.069-2.078.205-2.52.41-.75.409-1.159 1.159-1.159 2.318v18.988c0 1.091.307 1.841.92 2.182.613.341 1.533.546 2.759.546v.988H26.533v-.92zM42.439 58.432c1.498 0 2.452-.273 2.895-.784.443-.512.681-1.296.681-2.318V36.716c0-1.057-.238-1.773-.75-2.114-.51-.34-1.43-.545-2.724-.647v-.99h9.843l7.698 18.137h.306l7.664-18.136h9.877v.989c-1.328.102-2.248.34-2.725.75-.476.375-.715 1.33-.715 2.83v17.317c0 1.432.239 2.387.715 2.83.477.443 1.397.682 2.725.75v.988H64.92v-.988c1.157-.034 2.043-.239 2.622-.58.579-.34.885-1.125.885-2.318V36.41h-.306L58.583 59.42h-1.056l-9.673-22.568h-.17V54.58c0 1.295.238 2.25.715 2.863.477.614 1.567.92 3.202.989v.988h-9.162v-.988zM80.28 59.42v-.988c1.123-.034 1.907-.205 2.383-.477.716-.41 1.09-1.16 1.09-2.285V36.682c0-1.125-.374-1.91-1.124-2.284-.442-.239-1.226-.375-2.35-.443v-.99h22.548v7.91h-.954c-.51-2.523-1.328-4.261-2.52-5.182-1.192-.92-3.372-1.398-6.506-1.398-1.192 0-1.975.137-2.282.375-.34.24-.476.75-.476 1.466v9.069c2.248.034 3.746-.375 4.53-1.228.783-.818 1.396-2.352 1.805-4.568h.987v13.227H96.39c-.273-2.25-.852-3.818-1.703-4.704-.852-.887-2.385-1.364-4.633-1.364v9.477c0 .819.205 1.398.648 1.705.442.307 1.294.443 2.622.443 2.487 0 4.53-.477 6.131-1.466 1.6-.954 2.997-2.795 4.19-5.454h1.09l-1.567 8.147H80.279zM106.335 50.284h1.124c.613 2.932 1.635 5.046 3.031 6.375a6.901 6.901 0 0 0 4.769 2.011c1.737 0 2.997-.443 3.712-1.363.682-.818 1.09-1.807 1.09-2.898a3.757 3.757 0 0 0-1.158-2.864c-.51-.477-1.532-1.125-3.1-1.909l-2.486-1.261c-2.486-1.261-4.223-2.489-5.245-3.716a7.09 7.09 0 0 1-1.532-4.534 8.528 8.528 0 0 1 2.009-5.352c1.328-1.67 3.406-2.489 6.199-2.489 1.396 0 2.793.205 4.121.648.75.273 1.499.477 2.248.648a.981.981 0 0 0 .886-.375c.17-.307.306-.648.408-.99h1.158v8.524h-1.09a12.145 12.145 0 0 0-2.69-5.114c-1.158-1.364-2.895-2.148-4.7-2.148-1.295 0-2.317.375-3.066 1.091a3.39 3.39 0 0 0-1.124 2.625c0 1.227.34 2.148 1.056 2.762.715.613 2.248 1.534 4.666 2.76l2.895 1.467a11.422 11.422 0 0 1 3.066 2.182 7.55 7.55 0 0 1 2.146 5.386c0 1.977-.784 3.852-2.317 5.59-1.532 1.74-3.985 2.626-7.39 2.626-1.601 0-3.236-.307-4.735-.886l-.75-.307c-.17-.034-.34-.103-.51-.137-.136-.034-.273-.034-.409-.034-.306-.034-.647.103-.817.341-.17.307-.307.648-.409.989h-1.124v-9.648h.068zM.272 29.523c.818-.068 1.329-.239 1.635-.512.273-.272.41-.852.41-1.704V16.67c0-.92-.137-1.465-.41-1.704-.272-.239-.817-.41-1.6-.477v-.614h7.867c2.078 0 3.679.34 4.769.989 1.09.681 1.635 1.806 1.635 3.443 0 .784-.239 1.568-.647 2.216-.511.75-1.26 1.363-2.112 1.67-.715.273-1.465.477-2.214.546-.75.068-1.84.102-3.304.102v4.5c0 .886.136 1.466.443 1.739.306.272.885.409 1.703.443v.613H.272v-.613zm8.924-8.046c.784-.477 1.158-1.534 1.158-3.136.034-.92-.17-1.841-.579-2.66C9.401 15 8.685 14.66 7.63 14.66a2.228 2.228 0 0 0-1.055.17c-.239.137-.341.41-.307.682v6.478c1.465-.034 2.418-.205 2.93-.512zM11.512 29.523a1.857 1.857 0 0 0 1.43-.784c.41-.648.716-1.33.989-2.012l5.45-13.193h.68l5.45 12.648a15.68 15.68 0 0 0 1.362 2.727c.307.41.784.648 1.295.614v.613h-7.936v-.58a6.18 6.18 0 0 0 1.566-.204c.239-.102.375-.375.375-.784a3.464 3.464 0 0 0-.204-.852 3.827 3.827 0 0 0-.34-.818l-.614-1.466h-5.45c-.34.954-.579 1.568-.68 1.875-.171.443-.273.886-.307 1.363 0 .341.238.614.715.75.409.103.817.137 1.26.137v.613h-5.04v-.647zm9.196-5.08l-2.35-5.557h-.204l-2.214 5.557h4.768zM28.61 24.511h.716c.374 1.807 1.021 3.103 1.873 3.92a4.251 4.251 0 0 0 2.997 1.228c1.09 0 1.873-.273 2.316-.852a2.623 2.623 0 0 0 .681-1.773c.035-.682-.238-1.295-.715-1.773a7.922 7.922 0 0 0-1.941-1.159l-1.567-.784c-1.533-.784-2.623-1.568-3.27-2.284a4.164 4.164 0 0 1-.953-2.795c0-1.228.476-2.387 1.26-3.307.851-1.023 2.146-1.534 3.883-1.534.885 0 1.737.136 2.554.409.477.17.92.307 1.43.409.205.034.41-.068.546-.239.102-.17.204-.375.238-.613h.715v5.25h-.68a7.44 7.44 0 0 0-1.704-3.137 3.88 3.88 0 0 0-2.93-1.33 2.588 2.588 0 0 0-1.906.683c-.443.409-.716.988-.716 1.602a2.144 2.144 0 0 0 .682 1.704c.442.375 1.396.955 2.929 1.705l1.805.886c.715.341 1.362.784 1.941 1.33a4.501 4.501 0 0 1 1.329 3.307 5.156 5.156 0 0 1-1.43 3.443c-.955 1.09-2.487 1.602-4.633 1.602-.511 0-.988-.034-1.465-.136-.51-.103-.987-.239-1.464-.41l-.477-.136c-.102-.034-.204-.068-.307-.068-.068-.034-.17-.034-.272-.034a.55.55 0 0 0-.511.205c-.102.204-.204.409-.238.613h-.716v-5.932zM41.042 13.84H55.79l.034 4.842h-.715c-.238-1.739-.886-2.898-1.975-3.512-.614-.34-1.533-.51-2.76-.545v12.682c0 .886.171 1.466.477 1.773.307.272.988.443 1.976.443v.613h-8.72v-.613c.954 0 1.601-.137 1.908-.443.307-.307.477-.887.477-1.773V14.625c-.954-.034-1.873.17-2.759.545-1.158.614-1.84 1.807-1.976 3.512h-.715V13.84zM71.458 15.818c1.669 1.602 2.52 3.682 2.52 6.205 0 2.522-.851 4.602-2.52 6.204-1.635 1.568-3.679 2.353-6.165 2.353-2.623 0-4.734-.853-6.403-2.591a8.19 8.19 0 0 1-2.316-5.864c0-2.523.817-4.602 2.418-6.205 1.6-1.602 3.712-2.454 6.3-2.454 2.487 0 4.53.784 6.166 2.352zm-2.384 10.773c.408-1.466.579-3 .545-4.534 0-2.557-.375-4.5-1.159-5.796-.783-1.295-1.839-1.943-3.167-1.943-1.84 0-3.134 1.091-3.815 3.239a15.38 15.38 0 0 0-.545 4.5 15.61 15.61 0 0 0 .545 4.534c.681 2.148 1.942 3.204 3.78 3.204 1.874 0 3.134-1.056 3.816-3.204zM74.285 29.523c.817-.034 1.396-.205 1.703-.443.306-.24.443-.853.443-1.74V16.67c0-.92-.17-1.534-.545-1.806-.239-.17-.784-.307-1.601-.375v-.614h7.868c1.328-.034 2.69.136 3.985.511 1.975.682 2.929 1.91 2.929 3.682a3.707 3.707 0 0 1-1.533 3.102c-.75.546-1.6.92-2.486 1.091l5.21 6.819c.103.17.24.306.444.375.17.068.374.102.545.102v.58h-5.11l-5.721-7.535v4.705c0 .852.136 1.432.442 1.704.307.273.852.444 1.703.478v.613h-8.276v-.58zm9.537-8.387c.68-.409 1.021-1.397 1.021-2.897.034-.75-.102-1.5-.374-2.216-.443-.92-1.295-1.364-2.487-1.364-.647 0-1.09.068-1.294.239-.204.204-.34.477-.307.784v6.136c1.601-.034 2.76-.238 3.44-.682z"/>
        <path d="M91.008 29.523a1.857 1.857 0 0 0 1.43-.784c.41-.648.716-1.33.988-2.012l5.45-13.193h.681l5.45 12.648a15.68 15.68 0 0 0 1.362 2.727c.307.41.784.648 1.294.614v.613h-7.935v-.58c.544 0 1.055-.067 1.566-.204.239-.102.375-.375.375-.784a3.464 3.464 0 0 0-.204-.852 3.827 3.827 0 0 0-.341-.818l-.613-1.466h-5.484c-.34.954-.579 1.568-.681 1.875-.17.443-.272.886-.306 1.363 0 .341.238.614.715.75.408.103.817.137 1.26.137v.613h-5.007v-.647zm9.196-5.08l-2.35-5.557h-.204l-2.214 5.557h4.768zM108.208 29.523c.477 0 .988-.068 1.431-.273.477-.239.715-.716.715-1.432V16.16c0-.716-.238-1.159-.681-1.432-.477-.204-.954-.272-1.465-.272v-.614h8.55v.614c-.988.034-1.67.17-1.976.409-.34.238-.51.852-.51 1.772v11.387c0 .545.135.886.408 1.057.272.17.851.272 1.669.272 1.294.034 2.588-.272 3.712-.954.988-.648 1.874-1.875 2.589-3.75h.715l-.988 5.454h-14.203v-.58h.034zM.068 9.614c.273 0 .545-.069.783-.17a.782.782 0 0 0 .443-.785V1.534C1.328 1.227 1.158.92.886.75A2.34 2.34 0 0 0 .068.58V.239h4.496c1.805 0 3.202.477 4.121 1.431.852.853 1.295 2.012 1.295 3.478a4.608 4.608 0 0 1-1.295 3.307C7.698 9.477 6.37 9.989 4.7 9.989H.068v-.375zm3.747-.341c.17.17.408.238.613.204.817.034 1.6-.307 2.146-.92.579-.58.851-1.739.851-3.443.034-.887-.136-1.773-.443-2.625C6.505 1.295 5.688.716 4.53.716a.878.878 0 0 0-.75.239c-.102.17-.136.375-.102.613V8.66a.964.964 0 0 0 .137.614zM10.388 9.955V9.58c.307 0 .613-.035.886-.17a.916.916 0 0 0 .409-.853V1.602a.916.916 0 0 0-.41-.852 2.556 2.556 0 0 0-.885-.17V.239h8.447v2.897h-.34c-.17-.92-.511-1.568-.954-1.909-.443-.34-1.26-.511-2.452-.511-.307-.034-.58.034-.852.136a.63.63 0 0 0-.17.546v3.34c.817 0 1.396-.136 1.703-.443.306-.306.545-.852.681-1.67h.375V7.5h-.41c-.101-.818-.306-1.398-.646-1.739-.34-.34-.92-.511-1.737-.511v3.477a.677.677 0 0 0 .238.614c.307.136.647.204.988.17.783.034 1.6-.136 2.282-.545.579-.341 1.124-1.023 1.567-2.011h.408l-.579 3h-8.549zM19.891 9.614c.545 0 .886-.103 1.056-.307.17-.239.272-.546.238-.852V1.636c-.442-.511-.715-.784-.817-.886-.136-.102-.273-.17-.443-.17V.239h3.1l5.04 6.034h.069V2.01A1.648 1.648 0 0 0 27.86.955a1.759 1.759 0 0 0-1.09-.375V.239h3.134v.375c-.341.034-.648.136-.92.306-.17.137-.238.41-.238.853v8.454h-.41l-6.436-7.704h-.103v5.659c-.034.34.034.648.205.954.204.307.613.444 1.192.478v.375H19.89v-.375zM30.177 9.614c.307 0 .613-.034.886-.137a.879.879 0 0 0 .442-.852V1.602a.916.916 0 0 0-.408-.852 2.918 2.918 0 0 0-.92-.17V.239h5.11v.375c-.307 0-.648.034-.955.17-.306.17-.442.511-.408.852v6.989a.955.955 0 0 0 .34.818c.307.17.682.239 1.022.205v.375h-5.109v-.41zM35.627 9.614c.306 0 .579-.034.851-.17a.879.879 0 0 0 .443-.853V1.602a.916.916 0 0 0-.409-.852 2.556 2.556 0 0 0-.885-.17V.239h5.109v.375c-.409-.034-.818.068-1.192.238-.205.137-.307.512-.307 1.057v6.818c-.034.239.068.478.273.648.306.136.647.17.987.17a3.855 3.855 0 0 0 2.214-.58c.613-.374 1.124-1.124 1.533-2.25h.443l-.58 3.274h-8.48v-.375zM45.061 9.614c.307 0 .613-.034.886-.137a.879.879 0 0 0 .443-.852V1.602a.916.916 0 0 0-.41-.852 2.918 2.918 0 0 0-.919-.17V.239h5.11v.375c-.307 0-.648.034-.954.17a.879.879 0 0 0-.443.852v6.989a.955.955 0 0 0 .34.818c.307.17.682.239 1.022.205v.375h-5.109l.034-.41zM59.605 1.398a4.769 4.769 0 0 1 1.499 3.716c.068 1.534-.614 3-1.806 3.954a5.816 5.816 0 0 1-1.941.989c.204.511.579.954 1.022 1.261.443.341.987.512 1.532.512.17 0 .341 0 .477-.035.137-.034.307-.068.511-.136l.102.341c-.51.205-1.055.34-1.635.41-.34.067-.68.067-1.021.067a5.632 5.632 0 0 1-2.453-.58 3.385 3.385 0 0 1-1.635-1.738c-.034-.068-.034-.136-.068-.17a.484.484 0 0 0-.204-.069 5.822 5.822 0 0 1-1.771-1.056c-.988-.955-1.567-2.284-1.533-3.648A4.992 4.992 0 0 1 55.484.034h.408a5.078 5.078 0 0 1 3.713 1.364zm-1.43 6.443c.238-.886.374-1.807.34-2.727 0-1.534-.238-2.694-.715-3.478A2.13 2.13 0 0 0 55.892.477c-1.09 0-1.873.648-2.282 1.943a8.97 8.97 0 0 0-.306 2.694c-.034.92.102 1.84.34 2.727.41 1.295 1.158 1.909 2.282 1.909s1.874-.614 2.248-1.91zM66.553.239v.375a1.845 1.845 0 0 0-1.124.272c-.204.17-.272.512-.272 1.057v4.841a4.17 4.17 0 0 0 .272 1.705c.307.75.92 1.125 1.84 1.125 1.123 0 1.873-.41 2.281-1.228.239-.613.375-1.261.341-1.909V2.045A1.49 1.49 0 0 0 69.584.99C69.244.75 68.87.614 68.46.648v-.41h3.236v.376c-.34.034-.647.17-.92.34-.136.137-.238.41-.238.887v4.602c0 1.227-.306 2.182-.885 2.83-.58.647-1.533.988-2.827.988-1.67 0-2.827-.511-3.44-1.5a3.861 3.861 0 0 1-.477-2.045V1.909c0-.545-.068-.886-.205-1.023a1.774 1.774 0 0 0-.987-.306V.239h4.836zM71.866 9.614c.307 0 .614-.034.886-.137.307-.17.51-.511.477-.852V1.602A.916.916 0 0 0 72.82.75a2.952 2.952 0 0 0-.954-.17V.239h5.11v.375c-.307 0-.648.034-.954.17a.879.879 0 0 0-.443.852v6.989a.955.955 0 0 0 .34.818c.307.17.682.239 1.022.205v.375h-5.109v-.41h.034zM77.282 9.614c.545 0 .886-.103 1.056-.307.17-.239.272-.546.238-.852V1.636c-.442-.511-.715-.784-.817-.852-.136-.102-.273-.17-.443-.17V.239h3.1l5.04 6.034h.069V2.01a1.648 1.648 0 0 0-.273-1.056 1.759 1.759 0 0 0-1.09-.375V.239h3.168v.375c-.34.034-.647.136-.92.306-.136.103-.238.375-.238.819v8.488h-.41l-6.436-7.704h-.103v5.659c-.034.34.034.648.17.954.205.307.614.444 1.193.478v.375h-3.338v-.375h.034z"/>
    </g>
</svg>
