<?xml version="1.0" encoding="utf-8"?>
<!-- Generator: Adobe Illustrator 21.1.0, SVG Export Plug-In . SVG Version: 6.00 Build 0)  -->
<!DOCTYPE svg PUBLIC "-//W3C//DTD SVG 1.1//EN" "http://www.w3.org/Graphics/SVG/1.1/DTD/svg11.dtd">
<svg version="1.1" id="Layer_1" xmlns="http://www.w3.org/2000/svg" xmlns:xlink="http://www.w3.org/1999/xlink" x="0px" y="0px"
	 viewBox="0 0 387.8 206.5" style="enable-background:new 0 0 387.8 206.5;" xml:space="preserve">
<style type="text/css">
	.st0{fill:#ED3A4B;}
</style>
<g>
	<path class="st0" d="M10.7,113.1h69.2l0.1,23.2h-3.3c-1.1-8.3-4.2-13.9-9.3-16.8c-2.9-1.6-7.2-2.5-12.9-2.6v60.5
		c0,4.2,0.7,7,2.2,8.4s4.6,2.1,9.2,2.1v2.9h-41v-2.9c4.5,0,7.5-0.7,8.9-2.1c1.5-1.4,2.2-4.2,2.2-8.4v-60.5c-5.6,0.2-9.9,1-12.9,2.6
		c-5.5,3-8.6,8.6-9.3,16.8h-3.3L10.7,113.1z"/>
	<path class="st0" d="M88.5,187.8c3.3-0.1,5.6-0.5,7-1.2c2.3-1.2,3.5-3.5,3.5-6.9V124c0-3.4-1.1-5.6-3.3-6.8
		c-1.3-0.7-3.7-1.1-7.2-1.3V113h40.2v2.9c-3.6,0.1-6.1,0.6-7.4,1.2c-2.2,1.2-3.4,3.4-3.4,6.9v55.7c0,3.2,0.9,5.4,2.7,6.5
		c1.8,1.1,4.5,1.6,8.1,1.6v2.9H88.5V187.8z"/>
	<path class="st0" d="M135.2,187.8c4.4,0,7.2-0.8,8.5-2.3s2-3.8,2-6.8v-54.6c0-3.1-0.7-5.2-2.2-6.2s-4.2-1.6-8-1.9v-2.9h29
		l22.6,53.2h1l22.5-53.2h29v2.9c-3.9,0.3-6.5,1-8,2.1c-1.4,1.1-2.1,3.9-2.1,8.3v50.8c0,4.2,0.7,7,2.1,8.3c1.4,1.3,4.1,2,8,2.2v2.9
		h-38.2v-2.9c3.4-0.1,6-0.7,7.7-1.7s2.6-3.3,2.6-6.8V123h-0.8l-28.2,67.6h-3.1L151,124.5h-0.5v52c0,3.8,0.7,6.6,2.1,8.4
		c1.4,1.8,4.6,2.7,9.4,2.9v2.9h-26.9L135.2,187.8L135.2,187.8z"/>
	<path class="st0" d="M246.2,190.8v-2.9c3.3-0.1,5.6-0.6,7-1.3c2.1-1.2,3.2-3.4,3.2-6.7v-55.7c0-3.3-1.1-5.6-3.3-6.7
		c-1.3-0.7-3.6-1.2-6.9-1.3v-2.9h66.2v23.2h-2.8c-1.5-7.4-3.9-12.5-7.4-15.2s-9.9-4.1-19.1-4.1c-3.5,0-5.8,0.4-6.7,1.1
		c-1,0.7-1.4,2.2-1.4,4.3V149c6.5,0.1,11-1.1,13.3-3.6s4.1-6.9,5.3-13.4h2.9v38.8h-2.9c-0.8-6.5-2.5-11.2-5-13.8
		c-2.5-2.7-7.1-4-13.6-4v27.8c0,2.4,0.6,4.1,1.9,5s3.8,1.3,7.7,1.3c7.3,0,13.3-1.4,18-4.3c4.6-2.8,8.8-8.2,12.3-16h3.2l-4.7,23.9
		h-67.2V190.8z"/>
	<path class="st0" d="M322.8,163.9h3.3c1.8,8.6,4.8,14.8,8.9,18.7s8.8,5.8,14,5.8c5.1,0,8.8-1.3,10.9-4c2.2-2.7,3.2-5.5,3.2-8.5
		c0-3.4-1.1-6.3-3.4-8.4c-1.5-1.4-4.5-3.3-9.1-5.6l-7.3-3.7c-7.3-3.7-12.4-7.3-15.4-10.9c-3-3.6-4.5-8-4.5-13.3
		c0-5.6,2-10.9,5.9-15.7c4-4.9,10-7.3,18.2-7.3c4.2,0,8.2,0.6,12.1,1.9s6.1,1.9,6.6,1.9c1.2,0,2.1-0.4,2.6-1.1s0.9-1.7,1.2-2.9h3.4
		v25h-3.2c-1.5-5.8-4.1-10.8-7.9-15s-8.4-6.3-13.8-6.3c-3.8,0-6.8,1.1-9,3.2s-3.3,4.7-3.3,7.7c0,3.6,1,6.3,3.1,8.1
		c2,1.8,6.6,4.5,13.7,8.1l8.5,4.3c3.8,1.9,6.8,4,9,6.3c4.2,4.3,6.3,9.6,6.3,15.8c0,5.8-2.3,11.3-6.8,16.4
		c-4.5,5.1-11.7,7.7-21.7,7.7c-2.3,0-4.6-0.2-6.9-0.6c-2.3-0.4-4.6-1.1-6.9-2l-2.2-0.8c-0.5-0.1-1-0.3-1.5-0.4
		c-0.5-0.1-0.9-0.1-1.2-0.1c-1.2,0-2,0.3-2.4,1s-0.8,1.7-1.2,2.9h-3.3L322.8,163.9L322.8,163.9z"/>
</g>
<g>
	<path class="st0" d="M11.3,103c2.4-0.2,3.9-0.6,4.8-1.5c0.8-0.8,1.2-2.5,1.2-5V65.3c0-2.7-0.4-4.3-1.2-5c-0.8-0.7-2.4-1.2-4.7-1.4
		v-1.8h23.1c6.1,0,10.8,1,14,2.9c3.2,2,4.8,5.3,4.8,10.1c0,2.3-0.6,4.5-1.9,6.5c-1.3,2-3.3,3.7-6.2,4.9c-2.2,0.9-4.4,1.4-6.5,1.6
		c-2.2,0.2-5.4,0.3-9.7,0.3v13.2c0,2.6,0.4,4.3,1.3,5.1c0.9,0.8,2.6,1.3,5,1.3v1.8h-24V103z M37.5,79.5c2.3-1.4,3.4-4.5,3.4-9.2
		c0-3.2-0.6-5.8-1.7-7.8c-1.1-2-3.2-3-6.3-3c-1.4,0-2.5,0.2-3.1,0.5c-0.5,0.4-0.8,1-0.8,2v19C33.3,80.9,36.1,80.4,37.5,79.5z"/>
	<path class="st0" d="M44.3,103c1.7-0.1,3.1-0.9,4.2-2.3c0.7-0.9,1.6-2.9,2.9-5.9l16-38.7h2l16,37.1c1.8,4.2,3.1,6.8,4,8.1
		c0.9,1.2,2.2,1.8,3.8,1.7v1.8H70V103c2.3-0.1,3.9-0.3,4.6-0.6c0.7-0.3,1.1-1.1,1.1-2.3c0-0.6-0.2-1.4-0.6-2.5
		c-0.2-0.7-0.6-1.5-0.9-2.4l-1.8-4.3H56.2c-1.1,2.8-1.7,4.6-2,5.5c-0.6,1.8-0.9,3.1-0.9,4c0,1,0.7,1.7,2.1,2.2
		c0.8,0.3,2,0.4,3.7,0.4v1.8H44.3V103z M71.3,88.1l-6.9-16.3h-0.6l-6.5,16.3C57.3,88.1,71.3,88.1,71.3,88.1z"/>
	<path class="st0" d="M94.6,88.3h2.1c1.1,5.3,3,9.1,5.5,11.5c2.6,2.4,5.5,3.6,8.8,3.6c3.2,0,5.5-0.8,6.8-2.5c1.4-1.6,2-3.4,2-5.2
		c0-2.1-0.7-3.8-2.1-5.2c-0.9-0.9-2.8-2-5.7-3.4l-4.6-2.3c-4.5-2.3-7.8-4.5-9.6-6.7C96,76,95.1,73.3,95.1,70c0-3.5,1.2-6.7,3.7-9.7
		s6.3-4.5,11.4-4.5c2.6,0,5.1,0.4,7.5,1.2s3.8,1.2,4.2,1.2c0.8,0,1.3-0.2,1.6-0.7c0.3-0.4,0.5-1,0.7-1.8h2.1v15.4h-2
		c-0.9-3.6-2.6-6.6-5-9.2c-2.4-2.6-5.2-3.9-8.6-3.9c-2.4,0-4.3,0.7-5.6,2c-1.4,1.3-2.1,2.9-2.1,4.7c0,2.2,0.6,3.9,1.9,5
		s4.1,2.8,8.6,5l5.3,2.6c2.4,1.2,4.3,2.5,5.7,3.9c2.6,2.7,3.9,5.9,3.9,9.7c0,3.6-1.4,6.9-4.2,10.1c-2.8,3.2-7.3,4.7-13.6,4.7
		c-1.4,0-2.9-0.1-4.3-0.4c-1.5-0.3-2.9-0.7-4.3-1.2l-1.4-0.5c-0.3-0.1-0.6-0.2-0.9-0.2c-0.3-0.1-0.6-0.1-0.8-0.1
		c-0.7,0-1.2,0.2-1.5,0.6s-0.5,1-0.7,1.8h-2.1C94.6,105.7,94.6,88.3,94.6,88.3z"/>
	<path class="st0" d="M131.1,57.1h43.3l0.1,14.2h-2.1c-0.7-5.1-2.6-8.5-5.8-10.3c-1.8-1-4.5-1.5-8.1-1.6v37.2c0,2.6,0.5,4.3,1.4,5.2
		c0.9,0.9,2.8,1.3,5.8,1.3v1.8H140V103c2.8,0,4.7-0.4,5.6-1.3c0.9-0.9,1.4-2.6,1.4-5.2V59.3c-3.5,0.1-6.2,0.6-8.1,1.6
		c-3.4,1.8-5.4,5.3-5.8,10.3H131L131.1,57.1z"/>
	<path class="st0" d="M220.4,62.9c4.9,4.7,7.4,10.8,7.4,18.2s-2.5,13.5-7.4,18.2c-4.8,4.6-10.8,6.9-18.1,6.9
		c-7.7,0-13.9-2.5-18.8-7.6c-4.5-4.7-6.8-10.5-6.8-17.2c0-7.4,2.4-13.5,7.1-18.2c4.8-4.8,10.9-7.2,18.5-7.2
		C209.6,56,215.6,58.3,220.4,62.9z M213.4,94.4c1.1-3.4,1.6-7.8,1.6-13.3c0-7.5-1.1-13.2-3.4-17c-2.3-3.8-5.4-5.7-9.3-5.7
		c-5.4,0-9.2,3.2-11.2,9.6c-1.1,3.4-1.6,7.8-1.6,13.2c0,5.5,0.5,9.9,1.6,13.3c2,6.3,5.7,9.4,11.1,9.4
		C207.7,103.8,211.4,100.7,213.4,94.4z"/>
	<path class="st0" d="M228.6,103c2.4-0.1,4.1-0.6,5-1.3c0.9-0.8,1.3-2.5,1.3-5.1V65.3c0-2.7-0.5-4.5-1.6-5.3
		c-0.7-0.5-2.3-0.9-4.7-1.1v-1.8h23.1c4.8,0,8.7,0.5,11.7,1.5c5.8,2,8.6,5.6,8.6,10.8c0,3.8-1.5,6.9-4.5,9.1
		c-2.3,1.7-4.7,2.7-7.3,3.2l15.3,20.1c0.4,0.6,0.8,0.9,1.3,1.1c0.4,0.2,1,0.3,1.7,0.3v1.7h-15l-16.8-22.1l0,0v13.8
		c0,2.5,0.4,4.2,1.3,5c0.8,0.9,2.5,1.3,5.1,1.4v1.8h-24.3V103H228.6z M256.7,78.5c2-1.2,3-4.1,3-8.5c0-2.7-0.4-4.9-1.2-6.5
		c-1.3-2.7-3.8-4-7.3-4c-1.9,0-3.2,0.2-3.8,0.7s-0.9,1.2-0.9,2.3v18C251.3,80.4,254.7,79.7,256.7,78.5z"/>
	<path class="st0" d="M277.8,103c1.7-0.1,3.1-0.9,4.2-2.3c0.7-0.9,1.7-2.9,2.9-5.9l16-38.7h2l16,37.1c1.8,4.2,3.1,6.8,4,8.1
		c0.9,1.2,2.2,1.8,3.8,1.7v1.8h-23.3V103c2.3-0.1,3.9-0.3,4.6-0.6c0.7-0.3,1.1-1.1,1.1-2.3c0-0.6-0.2-1.4-0.6-2.5
		c-0.2-0.7-0.6-1.5-0.9-2.4l-1.8-4.3h-16.1c-1.1,2.8-1.7,4.6-2,5.5c-0.6,1.8-0.9,3.1-0.9,4c0,1,0.7,1.7,2.1,2.2
		c0.8,0.3,2,0.4,3.7,0.4v1.8h-14.7V103H277.8z M304.8,88.1l-6.9-16.3h-0.6l-6.5,16.3C290.8,88.1,304.8,88.1,304.8,88.1z"/>
	<path class="st0" d="M328.3,103c2-0.1,3.4-0.3,4.2-0.8c1.4-0.7,2.1-2.1,2.1-4.2V63.8c0-2.1-0.7-3.4-2-4.1c-0.8-0.4-2.2-0.7-4.3-0.8
		v-1.8h25.1v1.8c-2.9,0.1-4.9,0.5-5.8,1.2c-1,0.7-1.5,2.5-1.5,5.2v33.4c0,1.6,0.4,2.6,1.2,3.1c0.8,0.5,2.5,0.8,4.9,0.8
		c4.3,0,8-0.9,10.9-2.8s5.5-5.5,7.6-11h2.1l-2.9,16h-41.6L328.3,103L328.3,103z"/>
</g>
<g>
	<path class="st0" d="M10.8,44.6c1.1-0.1,1.9-0.2,2.3-0.5c0.8-0.4,1.3-1.2,1.3-2.3V21c0-1.1-0.4-1.8-1.2-2.3
		c-0.5-0.2-1.3-0.4-2.4-0.5v-1.1H24c5.3,0,9.4,1.4,12.1,4.2c2.5,2.5,3.8,5.9,3.8,10.2c0,3.8-1.3,7.1-3.8,9.7
		c-2.9,3-6.8,4.5-11.7,4.5H10.8V44.6z M21.8,43.7c0.3,0.4,0.9,0.6,1.8,0.6c2.5,0,4.6-0.9,6.3-2.7c1.6-1.8,2.5-5.2,2.5-10.2
		c0-3-0.4-5.6-1.3-7.7c-1.4-3.5-3.8-5.2-7.2-5.2c-1.1,0-1.8,0.2-2.2,0.7c-0.2,0.3-0.3,0.9-0.3,1.8v20.8
		C21.4,42.7,21.5,43.3,21.8,43.7z"/>
	<path class="st0" d="M41.1,45.7v-1.1c1.2,0,2.1-0.2,2.6-0.5c0.8-0.4,1.2-1.3,1.2-2.5V21.2c0-1.2-0.4-2.1-1.2-2.5
		c-0.5-0.3-1.3-0.4-2.6-0.5v-1.1h24.8v8.5h-1.1C64.3,22.9,63.3,21,62,20s-3.7-1.5-7.2-1.5c-1.3,0-2.2,0.1-2.5,0.4
		c-0.4,0.3-0.5,0.8-0.5,1.6v9.8c2.5,0,4.1-0.4,5-1.3s1.5-2.5,2-4.9h1.1v14.3h-1.1c-0.3-2.4-0.9-4.1-1.9-5.1c-0.9-1-2.6-1.5-5.1-1.5
		V42c0,0.9,0.2,1.5,0.7,1.8s1.4,0.5,2.9,0.5c2.7,0,5-0.5,6.7-1.6c1.7-1,3.3-3,4.6-5.9H68l-1.7,8.8H41.1V45.7z"/>
	<path class="st0" d="M68.9,44.6c1.6,0,2.6-0.3,3.1-0.9c0.5-0.6,0.7-1.4,0.7-2.5v-20c-1.3-1.4-2.1-2.3-2.4-2.5
		c-0.3-0.3-0.7-0.4-1.3-0.5v-1.1h9.1l14.8,17.7h0.2V22.3c0-1.4-0.3-2.5-0.8-3.1s-1.6-1-3.2-1.1V17h9.2v1.1c-1.3,0.2-2.2,0.5-2.7,0.9
		s-0.7,1.2-0.7,2.5v24.9h-1.2L74.9,23.9h-0.3v16.6c0,1.3,0.2,2.2,0.5,2.8c0.6,0.9,1.8,1.3,3.5,1.4v1.1h-9.8v-1.2H68.9z"/>
	<path class="st0" d="M99.2,44.6c1.2,0,2.1-0.2,2.6-0.4c0.9-0.4,1.3-1.3,1.3-2.5V21.2c0-1.2-0.4-2.1-1.2-2.5
		c-0.5-0.3-1.4-0.4-2.7-0.5v-1.1h15v1.1c-1.3,0.1-2.3,0.2-2.8,0.5c-0.8,0.4-1.3,1.3-1.3,2.5v20.5c0,1.2,0.3,2,1,2.4s1.7,0.6,3,0.6
		v1.1h-15L99.2,44.6L99.2,44.6z"/>
	<path class="st0" d="M115.1,44.6c1.2,0,2-0.2,2.5-0.5c0.9-0.4,1.3-1.3,1.3-2.5V21.2c0-1.2-0.4-2.1-1.2-2.5
		c-0.5-0.3-1.3-0.4-2.6-0.5v-1.1h15v1.1c-1.8,0.1-2.9,0.3-3.5,0.7c-0.6,0.4-0.9,1.5-0.9,3.1v20c0,0.9,0.2,1.6,0.7,1.9
		c0.5,0.3,1.5,0.5,2.9,0.5c2.6,0,4.8-0.6,6.5-1.7c1.8-1.1,3.3-3.3,4.5-6.6h1.3l-1.7,9.6H115L115.1,44.6L115.1,44.6z"/>
	<path class="st0" d="M142.9,44.6c1.2,0,2.1-0.2,2.6-0.4c0.9-0.4,1.3-1.3,1.3-2.5V21.2c0-1.2-0.4-2.1-1.2-2.5
		c-0.5-0.3-1.4-0.4-2.7-0.5v-1.1h15v1.1c-1.3,0.1-2.3,0.2-2.8,0.5c-0.8,0.4-1.3,1.3-1.3,2.5v20.5c0,1.2,0.3,2,1,2.4s1.7,0.6,3,0.6
		v1.1h-15L142.9,44.6L142.9,44.6z"/>
	<path class="st0" d="M185.6,20.6c3,2.8,4.4,6.5,4.4,10.9c0,4.9-1.8,8.8-5.3,11.6c-1.3,1.2-3.2,2.1-5.7,2.9c0.6,1.5,1.6,2.8,3,3.7
		c1.4,1,2.9,1.5,4.5,1.5c0.6,0,1,0,1.4-0.1s0.9-0.2,1.5-0.4l0.3,1c-1.4,0.6-3,1-4.8,1.2c-1.1,0.2-2.1,0.2-3,0.2
		c-2.4,0-4.8-0.6-7.1-1.8s-3.9-2.9-4.8-5.1c-0.1-0.3-0.2-0.5-0.3-0.5c-0.1-0.1-0.3-0.1-0.6-0.2c-1.8-0.6-3.5-1.7-5.2-3.1
		c-3-2.8-4.5-6.4-4.5-10.7s1.4-7.9,4.2-10.8c2.9-2.9,6.6-4.4,11.1-4.4C179.1,16.5,182.7,17.8,185.6,20.6z M181.4,39.5
		c0.6-2,1-4.7,1-8c0-4.5-0.7-7.9-2.1-10.2c-1.4-2.3-3.2-3.4-5.6-3.4c-3.3,0-5.5,1.9-6.7,5.7c-0.6,2-0.9,4.7-0.9,7.9
		c0,3.3,0.3,5.9,1,8c1.2,3.8,3.4,5.6,6.7,5.6C178,45.1,180.2,43.2,181.4,39.5z"/>
	<path class="st0" d="M205.9,17.1v1.1c-1.7,0.1-2.8,0.3-3.3,0.8c-0.6,0.5-0.8,1.5-0.8,3.1v14.2c0,2.2,0.3,3.8,0.8,5
		c0.9,2.2,2.7,3.3,5.4,3.3c3.3,0,5.5-1.2,6.7-3.6c0.6-1.3,1-3.2,1-5.6V22.3c0-1.5-0.3-2.6-0.9-3.1c-0.6-0.6-1.7-0.9-3.3-1v-1.1h9.5
		v1.1c-1.4,0.3-2.3,0.6-2.7,1s-0.7,1.2-0.7,2.6v13.5c0,3.6-0.9,6.4-2.6,8.3c-1.8,2-4.5,2.9-8.3,2.9c-4.9,0-8.3-1.5-10.1-4.4
		c-1-1.5-1.5-3.5-1.5-6V22c0-1.6-0.2-2.6-0.6-3c-0.4-0.4-1.4-0.7-2.9-0.9V17h14.3V17.1z"/>
	<path class="st0" d="M221.6,44.6c1.2,0,2.1-0.2,2.6-0.4c0.9-0.4,1.3-1.3,1.3-2.5V21.2c0-1.2-0.4-2.1-1.2-2.5
		c-0.5-0.3-1.4-0.4-2.7-0.5v-1.1h15v1.1c-1.3,0.1-2.3,0.2-2.8,0.5c-0.8,0.4-1.3,1.3-1.3,2.5v20.5c0,1.2,0.3,2,1,2.4s1.7,0.6,3,0.6
		v1.1h-15L221.6,44.6L221.6,44.6z"/>
	<path class="st0" d="M237.5,44.6c1.6,0,2.6-0.3,3.1-0.9c0.5-0.6,0.7-1.4,0.7-2.5v-20c-1.3-1.4-2.1-2.3-2.4-2.5
		c-0.3-0.3-0.7-0.4-1.3-0.5v-1.1h9.1l14.8,17.7h0.2V22.3c0-1.4-0.3-2.5-0.8-3.1s-1.6-1-3.2-1.1V17h9.2v1.1c-1.3,0.2-2.2,0.5-2.7,0.9
		s-0.7,1.2-0.7,2.5v24.9h-1.2l-18.9-22.6h-0.3v16.6c0,1.3,0.2,2.2,0.5,2.8c0.6,0.9,1.8,1.3,3.5,1.4v1.1h-9.8v-1.1H237.5z"/>
</g>
</svg>
