<svg id="Layer_1" data-name="Layer 1" xmlns="http://www.w3.org/2000/svg" viewBox="0 0 366.29 175.91"><defs><style>.cls-1{fill:#fff;}</style></defs><title>DeniliquinPastoralTimes_White</title><path class="cls-1" d="M.11,96.63H69.3l.11,23.17H66.1Q64.47,107.37,56.78,103q-4.32-2.43-12.9-2.65v60.54c0,4.23.74,7,2.22,8.42s4.55,2.08,9.23,2.08v2.92h-41v-2.92c4.49,0,7.48-.7,9-2.11s2.22-4.2,2.22-8.39V100.33q-8.41.23-12.91,2.65-8.23,4.5-9.31,16.82H0Z"/><path class="cls-1" d="M77.88,171.37q4.88-.12,7-1.18,3.48-1.8,3.48-6.9V107.62q0-5.07-3.31-6.79c-1.34-.71-3.74-1.14-7.18-1.29V96.63h40.18v2.91c-3.6.15-6.06.56-7.41,1.23-2.25,1.15-3.37,3.44-3.37,6.85v55.67c0,3.21.9,5.37,2.7,6.45s4.48,1.63,8.08,1.63v2.92H77.88Z"/><path class="cls-1" d="M124.62,171.37q6.57-.06,8.53-2.33t2-6.82v-54.6q0-4.68-2.24-6.15t-8-1.93V96.63h28.95l22.62,53.19h.95L199.9,96.63h29v2.91q-5.84.45-8,2.15T218.77,110v50.84q0,6.33,2.14,8.3t8,2.19v2.92H190.72v-2.92c3.4-.12,6-.68,7.68-1.71s2.59-3.29,2.59-6.77V106.73h-.85L172,174.29h-3.09l-28.45-66.22h-.5v52q0,5.76,2.13,8.4t9.43,2.94v2.92H124.62Z"/><path class="cls-1" d="M235.66,174.29v-2.92c3.29-.12,5.63-.56,7-1.35,2.14-1.2,3.2-3.44,3.2-6.73V107.62q0-5-3.31-6.74-1.91-1-6.9-1.34V96.63h66.21V119.8h-2.8q-2.19-11.11-7.44-15.21t-19.1-4.09q-5.28,0-6.71,1.09c-.95.73-1.43,2.18-1.43,4.35v26.6q9.83.11,13.3-3.56T283,115.54h2.92v38.83H283q-1.23-9.83-5-13.84t-13.61-4v27.83c0,2.44.63,4.09,1.88,5s3.82,1.32,7.71,1.32q11,0,18-4.27t12.34-16h3.2l-4.65,23.91Z"/><path class="cls-1" d="M312.2,147.46h3.31q2.75,12.89,8.86,18.73a19.71,19.71,0,0,0,14,5.85q7.68,0,10.92-4a13.34,13.34,0,0,0,3.23-8.46,11.15,11.15,0,0,0-3.38-8.42q-2.24-2.13-9.06-5.56l-7.32-3.7q-10.89-5.5-15.37-10.9a20.1,20.1,0,0,1-4.48-13.31A24.44,24.44,0,0,1,318.86,102q5.92-7.29,18.18-7.3a38.53,38.53,0,0,1,12.06,1.91,45.18,45.18,0,0,0,6.65,1.91,2.87,2.87,0,0,0,2.59-1.1,9.13,9.13,0,0,0,1.16-2.88h3.42v25h-3.19a35.1,35.1,0,0,0-7.93-15A17.9,17.9,0,0,0,338,98.25q-5.72,0-9,3.18a10.27,10.27,0,0,0-3.31,7.72q0,5.44,3.1,8.14t13.69,8.09l8.48,4.26A33.62,33.62,0,0,1,360,136a21.86,21.86,0,0,1,6.3,15.81q0,8.69-6.76,16.4t-21.67,7.71A37.83,37.83,0,0,1,324,173.28l-2.21-.85a15.28,15.28,0,0,0-1.49-.36,6.8,6.8,0,0,0-1.21-.14,2.64,2.64,0,0,0-2.43,1,10.48,10.48,0,0,0-1.16,2.94H312.2Z"/><path class="cls-1" d="M.77,86.55q3.54-.24,4.76-1.47c.8-.82,1.21-2.48,1.21-5V48.85q0-4-1.23-5c-.82-.69-2.4-1.17-4.74-1.42V40.61H23.91q9.19,0,14,2.93t4.79,10.07a12.25,12.25,0,0,1-1.88,6.53,13,13,0,0,1-6.2,4.92,22.83,22.83,0,0,1-6.53,1.59q-3.25.27-9.69.27V80.1q0,3.9,1.34,5.1t5,1.35v1.79H.77ZM27,63q3.41-2.13,3.41-9.2A16,16,0,0,0,28.72,46q-1.65-3-6.32-3a7,7,0,0,0-3.08.5,2,2,0,0,0-.93,2v19C22.68,64.4,25.53,63.92,27,63Z"/><path class="cls-1" d="M33.76,86.55a5.47,5.47,0,0,0,4.18-2.31,32.62,32.62,0,0,0,2.91-5.94l16-38.66h2l16,37.11a49.28,49.28,0,0,0,4,8,4.28,4.28,0,0,0,3.79,1.75v1.79H59.42V86.55A16.57,16.57,0,0,0,64,86q1.11-.45,1.11-2.28a8.77,8.77,0,0,0-.57-2.51c-.23-.67-.55-1.48-.95-2.42L61.8,74.47H45.66q-1.57,4.22-2,5.49a13.92,13.92,0,0,0-.94,4c0,1,.69,1.75,2.07,2.21a13.92,13.92,0,0,0,3.68.42v1.79H33.76Zm27-14.87L53.83,55.33h-.6L46.74,71.68Z"/><path class="cls-1" d="M84,71.85h2.07q1.71,7.92,5.54,11.52A12.47,12.47,0,0,0,100.42,87c3.21,0,5.48-.82,6.83-2.47a8.06,8.06,0,0,0,2-5.19,6.82,6.82,0,0,0-2.12-5.18,26.54,26.54,0,0,0-5.66-3.42l-4.58-2.27Q90.1,65,87.3,61.73a12.24,12.24,0,0,1-2.81-8.18,14.89,14.89,0,0,1,3.71-9.66q3.72-4.48,11.38-4.49a24.46,24.46,0,0,1,7.54,1.17,28.68,28.68,0,0,0,4.16,1.17,1.81,1.81,0,0,0,1.63-.67,5.62,5.62,0,0,0,.72-1.77h2.14V54.68h-2a21.37,21.37,0,0,0-5-9.21,11.25,11.25,0,0,0-8.63-3.86,7.89,7.89,0,0,0-5.64,2,6.24,6.24,0,0,0-2.08,4.74,6.22,6.22,0,0,0,2,5q1.91,1.68,8.56,5l5.31,2.62a21,21,0,0,1,5.66,3.9,13.3,13.3,0,0,1,3.94,9.72,14.94,14.94,0,0,1-4.23,10.08q-4.23,4.74-13.56,4.74a23.82,23.82,0,0,1-4.33-.4,23.32,23.32,0,0,1-4.33-1.22L90,87.2c-.32-.09-.63-.16-.93-.22a4,4,0,0,0-.76-.09,1.68,1.68,0,0,0-1.52.64,6.46,6.46,0,0,0-.72,1.81H84Z"/><path class="cls-1" d="M120.52,40.61h43.29l.07,14.24H161.8c-.67-5.1-2.62-8.54-5.82-10.34q-2.72-1.48-8.08-1.63V80.09q0,3.9,1.39,5.18c.92.85,2.85,1.28,5.77,1.28v1.79H129.43V86.55q4.22,0,5.6-1.3t1.39-5.16V42.88a18.79,18.79,0,0,0-8.07,1.63q-5.16,2.76-5.83,10.34h-2.07Z"/><path class="cls-1" d="M209.8,46.43q7.41,7.08,7.41,18.22T209.8,82.86q-7.23,6.9-18.08,6.89-11.5,0-18.78-7.55A24,24,0,0,1,166.16,65q0-11.12,7.1-18.25t18.46-7.24Q202.61,39.54,209.8,46.43Zm-7,31.53a45.43,45.43,0,0,0,1.61-13.31q0-11.28-3.43-17t-9.29-5.72q-8.16,0-11.18,9.55a45.08,45.08,0,0,0-1.59,13.18A44.87,44.87,0,0,0,180.56,78q3,9.42,11.15,9.41T202.82,78Z"/><path class="cls-1" d="M218.06,86.55q3.65-.18,5-1.35t1.34-5.1V48.85q0-4.08-1.58-5.32c-.7-.55-2.28-.92-4.74-1.13V40.61h23.13a37.77,37.77,0,0,1,11.66,1.48q8.64,3,8.64,10.79A10.65,10.65,0,0,1,257,62a17.86,17.86,0,0,1-7.31,3.17l15.28,20.11a2.84,2.84,0,0,0,1.26,1.08,5.52,5.52,0,0,0,1.65.33v1.69h-15L236.06,66.27h0V80.1c0,2.48.43,4.15,1.27,5s2.53,1.34,5,1.43v1.79H218.06ZM246.13,62q3-1.84,3-8.53A15.09,15.09,0,0,0,248,47c-1.34-2.69-3.77-4-7.31-4-1.92,0-3.17.23-3.77.7A2.8,2.8,0,0,0,236,46V64Q243.1,63.89,246.13,62Z"/><path class="cls-1" d="M267.25,86.55a5.47,5.47,0,0,0,4.18-2.31,32.62,32.62,0,0,0,2.91-5.94l16-38.66h2l16.05,37.11a49.28,49.28,0,0,0,4,8,4.28,4.28,0,0,0,3.79,1.75v1.79H292.91V86.55a16.57,16.57,0,0,0,4.62-.59q1.11-.45,1.11-2.28a8.77,8.77,0,0,0-.57-2.51c-.23-.67-.55-1.48-.95-2.42l-1.83-4.28H279.15q-1.57,4.22-2,5.49a13.92,13.92,0,0,0-.94,4c0,1,.68,1.75,2.07,2.21a13.92,13.92,0,0,0,3.68.42v1.79H267.25Zm27-14.87-6.92-16.35h-.6l-6.49,16.35Z"/><path class="cls-1" d="M317.73,86.55a10.79,10.79,0,0,0,4.22-.76q2.15-1.11,2.14-4.21V47.37q0-3.09-2-4.15a11.19,11.19,0,0,0-4.32-.82V40.61h25.14V42.4q-4.38.14-5.84,1.2t-1.46,5.25V82.23c0,1.57.42,2.6,1.25,3.11s2.45.76,4.86.76a19.91,19.91,0,0,0,10.9-2.81q4.41-2.82,7.6-11h2.11l-2.92,16H317.73Z"/><path class="cls-1" d="M.2,28.14a6.45,6.45,0,0,0,2.33-.46,2.37,2.37,0,0,0,1.26-2.33V4.5a2.35,2.35,0,0,0-1.2-2.27A6.71,6.71,0,0,0,.2,1.71V.64H13.35q8,0,12.15,4.17,3.81,3.8,3.8,10.2a13.52,13.52,0,0,1-3.82,9.72q-4.31,4.48-11.69,4.48H.2Zm11-.93a2.25,2.25,0,0,0,1.84.58,8.18,8.18,0,0,0,6.28-2.66Q21.82,22.48,21.82,15a20.23,20.23,0,0,0-1.32-7.7q-2.14-5.19-7.23-5.19a2.61,2.61,0,0,0-2.19.71,3.19,3.19,0,0,0-.33,1.75V25.33A3.45,3.45,0,0,0,11.24,27.21Z"/><path class="cls-1" d="M30.52,29.21V28.14a6.15,6.15,0,0,0,2.63-.5,2.57,2.57,0,0,0,1.2-2.48V4.69a2.53,2.53,0,0,0-1.24-2.48,6.75,6.75,0,0,0-2.59-.5V.64h24.8V9.17h-1c-.55-2.73-1.48-4.59-2.79-5.6s-3.69-1.51-7.15-1.51a4.82,4.82,0,0,0-2.51.41,1.91,1.91,0,0,0-.54,1.6v9.78q3.67,0,5-1.31t2-4.94h1.09V21.88H48.26c-.31-2.41-.94-4.1-1.88-5.09s-2.65-1.47-5.1-1.47V25.56A2.06,2.06,0,0,0,42,27.38a5.57,5.57,0,0,0,2.88.49A12.87,12.87,0,0,0,51.6,26.3q2.61-1.57,4.62-5.88h1.2l-1.74,8.79Z"/><path class="cls-1" d="M58.37,28.14q2.39-.06,3.09-.9a3.81,3.81,0,0,0,.69-2.47v-20C60.83,3.3,60,2.45,59.71,2.2a2.41,2.41,0,0,0-1.26-.49V.64h9.12L82.36,18.3h.21V5.88a4.66,4.66,0,0,0-.79-3.06A4.71,4.71,0,0,0,78.6,1.71V.64h9.25V1.71a6.15,6.15,0,0,0-2.7.89c-.46.36-.68,1.19-.68,2.48V30h-1.2L64.33,7.39H64V24a5.1,5.1,0,0,0,.55,2.76c.57.87,1.75,1.34,3.53,1.41v1.07H58.37Z"/><path class="cls-1" d="M88.58,28.14a6.8,6.8,0,0,0,2.63-.44,2.56,2.56,0,0,0,1.3-2.54V4.69a2.55,2.55,0,0,0-1.24-2.51,7.22,7.22,0,0,0-2.69-.47V.64h15V1.71a8.08,8.08,0,0,0-2.77.45A2.56,2.56,0,0,0,99.6,4.69V25.16a2.54,2.54,0,0,0,1,2.38,6.09,6.09,0,0,0,3,.6v1.07h-15Z"/><path class="cls-1" d="M104.56,28.14a6.39,6.39,0,0,0,2.52-.46,2.57,2.57,0,0,0,1.28-2.52V4.69a2.53,2.53,0,0,0-1.22-2.48,6.73,6.73,0,0,0-2.58-.5V.64h15V1.71a7,7,0,0,0-3.5.72c-.58.43-.87,1.47-.87,3.14v20a2,2,0,0,0,.75,1.86,6.11,6.11,0,0,0,2.91.46,11.9,11.9,0,0,0,6.52-1.68c1.76-1.13,3.28-3.31,4.55-6.56h1.26l-1.74,9.58H104.56Z"/><path class="cls-1" d="M132.32,28.14a6.78,6.78,0,0,0,2.62-.44,2.57,2.57,0,0,0,1.31-2.54V4.69A2.56,2.56,0,0,0,135,2.18a7.31,7.31,0,0,0-2.69-.47V.64h15V1.71a8.08,8.08,0,0,0-2.77.45,2.56,2.56,0,0,0-1.26,2.53V25.16a2.52,2.52,0,0,0,1,2.38,6,6,0,0,0,3,.6v1.07h-15Z"/><path class="cls-1" d="M175,4.13A14.41,14.41,0,0,1,179.45,15a14.17,14.17,0,0,1-5.27,11.62,15.91,15.91,0,0,1-5.66,2.87,8.4,8.4,0,0,0,3,3.73A7.56,7.56,0,0,0,176,34.7a8,8,0,0,0,1.42-.11c.39-.08.88-.21,1.48-.38l.26,1a20.83,20.83,0,0,1-4.77,1.24,21.4,21.4,0,0,1-3,.24A15.49,15.49,0,0,1,164.23,35a9.78,9.78,0,0,1-4.83-5.14,1.86,1.86,0,0,0-.25-.52,2.61,2.61,0,0,0-.61-.25,15.69,15.69,0,0,1-5.17-3.13,14.21,14.21,0,0,1-4.47-10.72A14.68,14.68,0,0,1,164.19,0,15,15,0,0,1,175,4.13ZM170.83,23a26.91,26.91,0,0,0,1-8q0-6.75-2.05-10.18a6.26,6.26,0,0,0-5.57-3.43q-4.87,0-6.69,5.72a27.21,27.21,0,0,0-.94,7.89,27.15,27.15,0,0,0,1,8q1.8,5.63,6.67,5.63T170.83,23Z"/><path class="cls-1" d="M195.36.64V1.71a6.07,6.07,0,0,0-3.34.76c-.56.45-.84,1.49-.84,3.1V19.74a12.64,12.64,0,0,0,.78,5q1.39,3.27,5.4,3.27c3.3,0,5.54-1.2,6.7-3.61a13.05,13.05,0,0,0,1-5.56V5.88a4.39,4.39,0,0,0-.86-3.12,5.29,5.29,0,0,0-3.33-1V.64h9.46V1.71a6.34,6.34,0,0,0-2.72,1q-.66.57-.66,2.61V18.81c0,3.59-.89,6.36-2.65,8.31s-4.54,2.94-8.32,2.94q-7.42,0-10.15-4.36a11.09,11.09,0,0,1-1.45-6V5.57c0-1.58-.22-2.58-.64-3a5.44,5.44,0,0,0-2.89-.87V.64Z"/><path class="cls-1" d="M211,28.14a6.78,6.78,0,0,0,2.62-.44A2.57,2.57,0,0,0,215,25.16V4.69a2.56,2.56,0,0,0-1.24-2.51A7.27,7.27,0,0,0,211,1.71V.64h15V1.71a8.08,8.08,0,0,0-2.77.45,2.56,2.56,0,0,0-1.26,2.53V25.16a2.52,2.52,0,0,0,1,2.38,6,6,0,0,0,3,.6v1.07H211Z"/><path class="cls-1" d="M226.92,28.14q2.4-.06,3.09-.9a3.81,3.81,0,0,0,.7-2.47v-20c-1.32-1.45-2.13-2.3-2.44-2.55A2.41,2.41,0,0,0,227,1.71V.64h9.12L250.92,18.3h.21V5.88a4.66,4.66,0,0,0-.79-3.06,4.71,4.71,0,0,0-3.18-1.11V.64h9.25V1.71a6.15,6.15,0,0,0-2.7.89c-.46.36-.69,1.19-.69,2.48V30h-1.2L232.89,7.39h-.29V24a5.21,5.21,0,0,0,.54,2.76c.58.87,1.75,1.34,3.53,1.41v1.07h-9.75Z"/></svg>