<svg xmlns="http://www.w3.org/2000/svg" width="136" height="55" viewBox="0 0 136 55">
    <g fill="#FFF" fill-rule="nonzero">
        <path d="M13.6 9.382l8.03 10.785c1.121 1.51 2.098 2.552 2.93 3.091.542.36 1.23.575 1.88.575v.683h-11.9v-.683c.76-.072 1.23-.18 1.447-.36.217-.143.326-.395.326-.682 0-.503-.507-1.438-1.556-2.84L9.55 12.869l-.832.755v6.686c0 1.295.072 2.085.217 2.373.18.36.434.611.76.79.578.252 1.193.36 1.844.324v.683H0v-.683h.76a3.049 3.049 0 0 0 1.591-.36c.326-.215.543-.502.687-.862.145-.287.181-1.042.181-2.265V4.206c0-1.258-.072-2.05-.18-2.337a1.697 1.697 0 0 0-.76-.827C1.809.791 1.302.647.759.683H0V0h11.357v.683c-.614-.036-1.23.072-1.772.36-.325.18-.542.503-.687.862-.145.324-.217 1.079-.217 2.3v7.622l8.464-7.37c1.157-1.006 1.772-1.833 1.772-2.444 0-.467-.29-.899-.723-1.078-.217-.144-.832-.216-1.809-.252V0h8.898v.683c-.651.036-1.302.18-1.88.467-.471.252-1.52 1.079-3.148 2.517L13.6 9.382z"/>
        <path d="M28.936 25.2l-5.064-12.546c-.76-1.906-1.338-3.056-1.7-3.487a2.855 2.855 0 0 0-1.338-.899v-.683h8.355v.683c-.398-.036-.832.108-1.157.36-.217.18-.326.467-.326.754 0 .468.29 1.366.832 2.696l2.713 6.615 1.845-5.105c.65-1.797.976-3.091.976-3.774.037-.396-.144-.791-.398-1.079a2.149 2.149 0 0 0-1.446-.431v-.647h5.28v.611c-.47.036-.94.288-1.265.647-.326.36-.869 1.618-1.628 3.739l-4.521 12.545c-1.122 3.128-1.99 5.069-2.532 5.788a3.54 3.54 0 0 1-2.894 1.51 3.174 3.174 0 0 1-2.279-.863c-.578-.54-.868-1.294-.868-2.085a2.317 2.317 0 0 1 .615-1.725 1.932 1.932 0 0 1 1.483-.683c.507-.036 1.013.18 1.375.575.397.503.578 1.15.542 1.797-.036.288.036.611.145.899.072.144.217.215.398.215.361-.035.65-.251.868-.539.434-.503.976-1.653 1.591-3.487l.398-1.402zM45.068 22c-1.917 1.833-3.653 2.732-5.172 2.732-.832.036-1.664-.324-2.243-.935-.615-.647-.904-1.51-.904-2.372 0-1.33.579-2.588 1.555-3.487 1.013-1.043 3.292-2.409 6.764-4.098v-1.69c0-1.258-.072-2.085-.18-2.408a1.873 1.873 0 0 0-.724-.863 2.14 2.14 0 0 0-1.23-.36 2.755 2.755 0 0 0-1.808.54c-.254.18-.435.431-.435.755.037.36.218.683.47.934.399.396.616.935.652 1.51 0 .575-.217 1.115-.615 1.51a2.076 2.076 0 0 1-1.592.611 2.35 2.35 0 0 1-1.772-.683c-.47-.395-.723-1.006-.723-1.618 0-.898.361-1.797.976-2.48.724-.827 1.628-1.474 2.677-1.797a10.174 10.174 0 0 1 3.58-.647c1.484 0 2.677.323 3.545 1.006.796.54 1.375 1.33 1.7 2.229.145.503.254 1.653.254 3.487v6.578c0 .468 0 .97.072 1.438.036.18.145.324.253.432a.546.546 0 0 0 .398.143c.29 0 .579-.215.904-.683l.507.432a6.356 6.356 0 0 1-1.737 1.94 3.837 3.837 0 0 1-2.061.612c-.76.036-1.52-.18-2.098-.683-.615-.575-.977-1.294-1.013-2.085zm0-1.33v-5.644a10.608 10.608 0 0 0-3.038 2.768c-.398.575-.651 1.258-.651 1.977 0 .54.217 1.079.578 1.474.29.324.724.503 1.194.503.543-.036 1.194-.395 1.917-1.078zM57.98 0v9.31c1.34-1.473 2.786-2.192 4.341-2.192 1.085 0 2.17.36 3.039 1.006 1.012.755 1.808 1.762 2.242 2.912.543 1.366.832 2.84.796 4.314a12.049 12.049 0 0 1-1.013 5.032 8.256 8.256 0 0 1-2.749 3.451c-1.157.791-2.532 1.223-3.906 1.187a6.112 6.112 0 0 1-2.279-.432 6.276 6.276 0 0 1-1.953-1.402l-2.64 1.834h-.58V3.487a7.4 7.4 0 0 0-.108-1.797c-.072-.288-.29-.576-.542-.755a2.812 2.812 0 0 0-1.23-.288V0h6.583zm0 10.928v7.513c-.035.97 0 1.941.11 2.912.072.647.361 1.258.795 1.725.868.827 2.206.9 3.11.144.399-.36.76-1.042 1.014-2.085.253-1.042.397-2.912.397-5.608 0-2.588-.289-4.35-.904-5.32a2.04 2.04 0 0 0-1.772-1.042c-.94 0-1.845.575-2.75 1.761zM75.885 7.62v3.811c1.049-1.761 1.953-2.911 2.749-3.487a3.801 3.801 0 0 1 2.279-.862c.578-.036 1.121.215 1.519.61.398.504.615 1.115.579 1.762a2.85 2.85 0 0 1-.543 1.87 1.649 1.649 0 0 1-1.338.683 2.29 2.29 0 0 1-1.556-.612c-.253-.251-.506-.467-.76-.683a.733.733 0 0 0-.397-.107c-.362.036-.687.18-.94.43a3.665 3.665 0 0 0-1.05 1.762 13.917 13.917 0 0 0-.542 3.847v3.882l.036 1.007c-.036.431 0 .898.109 1.33.108.287.325.539.579.719.434.18.868.287 1.338.287v.647h-8.5v-.647c.687-.072 1.157-.251 1.374-.61.217-.36.362-1.259.362-2.733V11.18c.036-.611 0-1.222-.145-1.834-.072-.287-.253-.539-.506-.754-.326-.18-.723-.324-1.121-.324v-.647h6.474zM91.62 22c-1.918 1.833-3.654 2.732-5.173 2.732-.832.036-1.664-.324-2.243-.935a3.264 3.264 0 0 1-.904-2.372c0-1.33.579-2.588 1.555-3.487 1.05-1.043 3.292-2.409 6.764-4.098v-1.69c0-1.258-.072-2.085-.18-2.408a1.873 1.873 0 0 0-.724-.863 2.14 2.14 0 0 0-1.23-.36 2.755 2.755 0 0 0-1.808.54c-.254.18-.434.431-.434.755.036.36.217.683.47.934.398.396.615.935.65 1.51 0 .575-.216 1.115-.614 1.51a2.076 2.076 0 0 1-1.592.611c-.65 0-1.302-.216-1.772-.683-.47-.395-.723-1.006-.723-1.618.036-.898.361-1.797.976-2.48.724-.827 1.628-1.474 2.677-1.797a10.174 10.174 0 0 1 3.58-.647c1.484 0 2.677.323 3.545 1.006.76.54 1.375 1.33 1.7 2.229.145.503.217 1.653.217 3.487v6.578c-.036.468 0 .97.073 1.438.036.18.108.324.253.432a.546.546 0 0 0 .398.143c.29 0 .579-.215.904-.683l.506.432c-.434.755-1.048 1.402-1.736 1.94a3.746 3.746 0 0 1-2.061.612c-.76.036-1.52-.18-2.098-.683A2.985 2.985 0 0 1 91.619 22zm0-1.33v-5.644c-1.194.683-2.207 1.654-3.04 2.768-.397.575-.65 1.258-.65 1.977 0 .54.18 1.079.542 1.474.29.324.724.503 1.158.503.579-.036 1.23-.395 1.99-1.078zM104.966 7.62v2.23c.651-.827 1.483-1.546 2.387-2.121a5.05 5.05 0 0 1 2.424-.611 4.2 4.2 0 0 1 2.532.755c.76.575 1.302 1.402 1.591 2.3a9.884 9.884 0 0 1 2.568-2.336 5.036 5.036 0 0 1 2.568-.72 4.209 4.209 0 0 1 2.604.791 4.079 4.079 0 0 1 1.339 2.05c.253.826.361 2.156.361 3.954v6.902c0 1.294.109 2.12.326 2.408.217.324.687.503 1.374.611v.647h-8.102v-.647a1.837 1.837 0 0 0 1.41-.79c.182-.324.29-1.079.29-2.23v-7.26c.036-.971 0-1.942-.18-2.877a1.461 1.461 0 0 0-.543-.898 1.478 1.478 0 0 0-.868-.288c-.543.036-1.05.216-1.447.575-.579.504-1.121 1.079-1.52 1.726v9.059c0 1.222.11 1.977.29 2.3.253.432.76.683 1.483.755v.647h-8.066v-.647c.362 0 .724-.144 1.05-.36a1.35 1.35 0 0 0 .506-.754c.108-.647.144-1.294.144-1.905v-7.334c.036-.97 0-1.94-.18-2.876-.11-.359-.29-.683-.58-.898a1.3 1.3 0 0 0-.867-.324 2.45 2.45 0 0 0-1.23.36 6.613 6.613 0 0 0-1.664 1.94v9.06c0 1.186.108 1.977.325 2.372.218.396.688.611 1.375.683v.647h-8.102v-.647c.542 0 1.049-.251 1.41-.683.181-.251.29-1.042.29-2.336v-9.562c0-1.259-.109-2.085-.326-2.373-.217-.323-.687-.503-1.374-.611V7.62h6.402zM8.717 31.239v10.065h.651c.868.036 1.7-.144 2.46-.503.687-.396 1.266-.935 1.627-1.654.507-.97.796-2.049.868-3.127h.58v12.294h-.58c-.217-2.337-.795-3.847-1.736-4.602a4.975 4.975 0 0 0-3.219-1.078h-.651v7.513c0 1.258.072 2.05.18 2.337.146.36.435.647.76.826.47.252.977.396 1.52.36h.76v.683H0v-.683h.76a2.767 2.767 0 0 0 1.591-.395c.326-.216.543-.504.687-.863.109-.288.181-1.043.181-2.265V34.042c0-1.258-.072-2.049-.18-2.336a1.697 1.697 0 0 0-.76-.827c-.47-.252-.977-.395-1.52-.36H0v-.682h19.243v7.045h-.688c-.144-1.653-.578-2.875-1.193-3.666a5.296 5.296 0 0 0-2.822-1.69c-.687-.18-1.917-.287-3.725-.287H8.717z"/>
        <path d="M24.596 37.458v3.846c1.049-1.762 1.953-2.912 2.749-3.487.65-.503 1.446-.827 2.278-.863a1.87 1.87 0 0 1 1.483.611c.398.504.615 1.115.58 1.762a2.85 2.85 0 0 1-.543 1.87c-.326.43-.796.646-1.339.682a2.29 2.29 0 0 1-1.555-.611 13.013 13.013 0 0 0-.76-.683.733.733 0 0 0-.398-.108c-.361 0-.687.144-.94.396a3.665 3.665 0 0 0-1.049 1.761 13.917 13.917 0 0 0-.542 3.846v4.889c-.037.432 0 .899.108 1.33.109.288.326.54.615.72.434.179.868.287 1.338.287v.647h-8.464v-.647c.688-.072 1.158-.252 1.375-.611.253-.324.362-1.258.362-2.732v-9.347c.036-.61 0-1.222-.145-1.833-.072-.288-.253-.54-.47-.755-.362-.18-.724-.323-1.122-.323v-.683l6.439.036zM44.345 45.294H35.7c.109 2.229.651 4.026 1.664 5.32.76 1.007 1.7 1.51 2.785 1.51a3.15 3.15 0 0 0 1.845-.61c.723-.612 1.338-1.331 1.772-2.194l.579.396c-.868 1.869-1.809 3.199-2.822 3.954a5.616 5.616 0 0 1-3.58 1.15c-2.315 0-4.088-.97-5.317-2.876-.977-1.545-1.447-3.486-1.447-5.787 0-2.804.723-5.069 2.134-6.722 1.41-1.654 3.074-2.517 4.991-2.517 1.592 0 2.966.683 4.16 2.121 1.193 1.438 1.772 3.487 1.88 6.255zm-4.16-1.222c0-1.941-.108-3.271-.29-3.99a3.728 3.728 0 0 0-.904-1.654 1.422 1.422 0 0 0-.94-.323c-.615 0-1.194.36-1.447.934-.65 1.079-1.013 2.553-1.013 4.422v.647h4.594v-.036zM57.909 45.294h-8.645c.108 2.229.65 4.026 1.664 5.32.76 1.007 1.7 1.51 2.785 1.51a3.15 3.15 0 0 0 1.844-.61 7.415 7.415 0 0 0 1.773-2.194l.579.396c-.869 1.869-1.809 3.199-2.822 3.954-1.013.79-2.278 1.186-3.58 1.15-2.352 0-4.088-.97-5.281-2.876-.977-1.545-1.447-3.486-1.447-5.787 0-2.804.723-5.069 2.134-6.722 1.41-1.654 3.074-2.517 4.991-2.517 1.592 0 2.966.683 4.16 2.121 1.193 1.438 1.772 3.487 1.845 6.255zm-4.124-1.222c0-1.941-.108-3.271-.29-3.99a3.728 3.728 0 0 0-.904-1.654c-.253-.216-.614-.323-.94-.323-.615 0-1.194.36-1.447.934-.65 1.079-.976 2.553-.976 4.422v.647h4.557v-.036zM73.209 43.245v6.794c0 1.33.072 2.157.217 2.517.18.359.47.647.795.826.398.216 1.085.324 2.134.324v.683h-11.61v-.683c1.049 0 1.772-.108 2.134-.324.361-.18.615-.467.795-.826.145-.324.217-1.187.217-2.48V34.15c0-1.33-.072-2.157-.217-2.516a1.614 1.614 0 0 0-.795-.827c-.398-.215-1.085-.323-2.134-.323v-.647h9.946c3.292 0 5.643.61 7.054 1.869 1.374 1.186 2.17 2.912 2.134 4.709a6.28 6.28 0 0 1-1.41 4.098 6.96 6.96 0 0 1-3.799 2.3c-1.049.288-2.893.432-5.461.432zm0-12.006v10.568c.361.036.65.036.831.036 1.375 0 2.424-.431 3.183-1.294.76-.863 1.122-2.229 1.122-4.062 0-1.833-.362-3.163-1.122-3.99-.723-.827-1.844-1.258-3.327-1.258h-.687zM90.932 37.458v3.846c1.049-1.762 1.953-2.912 2.749-3.487.65-.503 1.447-.827 2.279-.863.578-.036 1.12.216 1.519.611.398.504.615 1.115.578 1.762a2.85 2.85 0 0 1-.542 1.87c-.326.43-.796.646-1.338.682a2.29 2.29 0 0 1-1.556-.611 13.013 13.013 0 0 0-.76-.683.733.733 0 0 0-.397-.108c-.362 0-.687.144-.94.396a3.665 3.665 0 0 0-1.05 1.761 13.917 13.917 0 0 0-.542 3.846v4.889c-.036.432 0 .899.108 1.33.109.288.326.54.58.72.433.179.867.287 1.337.287v.647h-8.5v-.647c.688-.072 1.158-.252 1.411-.611.253-.36.362-1.258.362-2.732v-9.347c.036-.61 0-1.222-.145-1.833-.072-.288-.253-.54-.506-.755-.362-.18-.724-.323-1.122-.323v-.683l6.475.036zM110.68 45.294h-8.644c.109 2.229.651 4.026 1.664 5.32.76 1.007 1.7 1.51 2.785 1.51a3.15 3.15 0 0 0 1.845-.61c.723-.612 1.302-1.367 1.772-2.194l.579.396c-.868 1.869-1.809 3.199-2.821 3.954-1.013.79-2.28 1.186-3.581 1.15-2.351 0-4.088-.97-5.317-2.876-.977-1.545-1.447-3.486-1.447-5.787 0-2.804.723-5.069 2.134-6.722 1.41-1.654 3.074-2.517 4.991-2.517 1.592 0 2.966.683 4.16 2.121 1.157 1.402 1.772 3.487 1.88 6.255zm-4.159-1.222c0-1.941-.108-3.271-.29-3.99a3.728 3.728 0 0 0-.903-1.654c-.254-.216-.615-.323-.94-.323-.616 0-1.194.36-1.448.934-.65 1.079-.976 2.553-.976 4.422v.647h4.557v-.036zM122.183 36.99l.253 5.752h-.615c-.723-1.726-1.483-2.876-2.242-3.523a3.683 3.683 0 0 0-2.315-.935c-.47 0-.904.18-1.23.504a1.546 1.546 0 0 0-.506 1.15c0 .36.144.683.361.935.362.503 1.447 1.33 3.183 2.552 1.737 1.222 2.894 2.229 3.437 3.055.542.827.831 1.798.831 2.804 0 .97-.253 1.906-.687 2.768a5.175 5.175 0 0 1-1.953 2.085 5.735 5.735 0 0 1-2.785.72 9.802 9.802 0 0 1-3.183-.756 1.655 1.655 0 0 0-.723-.18c-.398 0-.724.288-.977.9h-.579l-.29-6.04h.616c.542 1.582 1.266 2.804 2.206 3.595.94.79 1.809 1.186 2.64 1.186a2.1 2.1 0 0 0 1.411-.54c.362-.323.543-.79.543-1.293 0-.54-.181-1.079-.543-1.51a13.52 13.52 0 0 0-2.387-1.905c-1.809-1.258-3.002-2.265-3.509-2.912a5.167 5.167 0 0 1-1.157-3.271c0-1.294.47-2.553 1.338-3.523.868-1.043 2.17-1.582 3.834-1.582.905 0 1.809.216 2.605.683.217.144.506.252.795.288.181 0 .362-.036.507-.144.253-.216.47-.467.615-.755l.506-.108zM134.517 36.99l.253 5.752h-.579c-.723-1.726-1.482-2.876-2.242-3.523a3.683 3.683 0 0 0-2.315-.935c-.47 0-.904.18-1.23.504a1.546 1.546 0 0 0-.506 1.15c0 .36.145.683.362.935.361.503 1.446 1.33 3.183 2.552 1.736 1.186 2.893 2.229 3.436 3.055.542.827.832 1.798.832 2.804 0 .97-.254 1.906-.688 2.768a5.175 5.175 0 0 1-1.953 2.085 5.84 5.84 0 0 1-2.785.72 9.802 9.802 0 0 1-3.183-.756 1.655 1.655 0 0 0-.723-.18c-.398 0-.724.288-.977.9h-.579l-.289-6.076h.615c.542 1.582 1.266 2.768 2.206 3.559.94.79 1.809 1.186 2.64 1.186.507.036 1.014-.18 1.411-.539.362-.324.543-.79.543-1.294 0-.54-.18-1.079-.543-1.51a13.52 13.52 0 0 0-2.387-1.905c-1.808-1.258-3.002-2.265-3.508-2.948a5.167 5.167 0 0 1-1.158-3.271c0-1.294.47-2.552 1.338-3.523.869-1.042 2.17-1.582 3.835-1.582.904 0 1.808.216 2.604.683.217.144.506.252.76.288.18 0 .361-.036.506-.144.253-.216.47-.467.615-.755h.506z"/>
    </g>
</svg>
