<?xml version="1.0" encoding="utf-8"?>
<!-- Generator: Adobe Illustrator 21.1.0, SVG Export Plug-In . SVG Version: 6.00 Build 0)  -->
<!DOCTYPE svg PUBLIC "-//W3C//DTD SVG 1.1//EN" "http://www.w3.org/Graphics/SVG/1.1/DTD/svg11.dtd">
<svg version="1.1" id="Layer_1" xmlns="http://www.w3.org/2000/svg" xmlns:xlink="http://www.w3.org/1999/xlink" x="0px" y="0px"
	 viewBox="0 0 387.8 206.5" style="enable-background:new 0 0 387.8 206.5;" xml:space="preserve">
<style type="text/css">
	.st0{fill:#FFFFFF;}
</style>
<path class="st0" d="M43.6,52.4l22.2,30c3.1,4.2,5.8,7.1,8.1,8.6c1.6,1.1,3.4,1.6,5.2,1.6v1.9H46.2v-1.9c2.1-0.2,3.4-0.5,4-1
	s0.9-1.1,0.9-1.9c0-1.4-1.4-4.1-4.3-7.9L32.4,62.1l-2.3,2.1v18.6c0,3.5,0.2,5.8,0.6,6.6c0.4,0.9,1.1,1.6,2.1,2.2
	c1.1,0.6,2.7,0.9,5.1,0.9v1.9H6v-1.9h2.1c1.8,0,3.3-0.3,4.4-1c0.8-0.5,1.4-1.3,1.9-2.4c0.3-0.8,0.5-2.9,0.5-6.3V37.9
	c0-3.5-0.2-5.7-0.5-6.5c-0.3-0.9-1-1.6-2.1-2.3c-1-0.7-2.5-1-4.2-1H6v-1.9h31.4v1.9c-2.1,0-3.8,0.3-4.9,1c-0.8,0.5-1.4,1.3-1.9,2.4
	c-0.4,0.8-0.6,3-0.6,6.4v21.2l23.4-20.5c3.3-2.8,4.9-5.1,4.9-6.8c0-1.3-0.7-2.3-2-3c-0.7-0.4-2.4-0.6-5.1-0.7v-1.9h24.6v1.9
	c-2.2,0.2-3.9,0.6-5.2,1.3c-1.3,0.7-4.1,3-8.7,7L43.6,52.4z"/>
<path class="st0" d="M86,96.3L72,61.5c-2.1-5.3-3.7-8.5-4.7-9.7s-2.2-2-3.7-2.5v-1.9h23.1v1.9c-1.5,0.1-2.6,0.4-3.2,1
	s-0.9,1.3-0.9,2.1c0,1.3,0.8,3.8,2.3,7.5l7.4,18.4L97.4,64c1.8-5.1,2.7-8.6,2.7-10.6c0-1.2-0.4-2.2-1.1-3c-0.8-0.7-2.1-1.1-4-1.2
	v-1.9h14.6v1.9c-1.4,0.2-2.6,0.8-3.5,1.8s-2.4,4.5-4.5,10.4L89.2,96.3c-3.1,8.7-5.5,14.1-7,16.1c-2.1,2.8-4.8,4.2-8,4.2
	c-2.6,0-4.7-0.8-6.3-2.4c-1.6-1.6-2.4-3.5-2.4-5.8c0-1.9,0.6-3.5,1.7-4.8s2.5-1.9,4.1-1.9s2.8,0.5,3.8,1.6c0.9,1.1,1.4,2.7,1.5,5
	c0,1.3,0.2,2.1,0.4,2.5c0.3,0.4,0.6,0.6,1.1,0.6c0.7,0,1.5-0.5,2.4-1.5c1.2-1.4,2.7-4.6,4.4-9.7L86,96.3z"/>
<path class="st0" d="M130.6,87.5c-5.3,5.1-10.1,7.6-14.3,7.6c-2.5,0-4.5-0.9-6.2-2.6c-1.6-1.8-2.5-4-2.5-6.6c0-3.6,1.4-6.8,4.3-9.7
	c2.9-2.9,9.1-6.7,18.7-11.4V60c0-3.6-0.2-5.8-0.5-6.7c-0.4-0.9-1-1.7-2-2.4s-2.1-1-3.4-1c-2,0-3.7,0.5-5,1.5
	c-0.8,0.6-1.2,1.3-1.2,2.1c0,0.7,0.4,1.6,1.3,2.6c1.2,1.4,1.8,2.8,1.8,4.2c0,1.6-0.6,3-1.7,4.2s-2.6,1.7-4.4,1.7
	c-2,0-3.6-0.6-4.9-1.9c-1.3-1.3-2-2.8-2-4.5c0-2.4,0.9-4.7,2.7-6.9c1.8-2.2,4.2-3.9,7.4-5c3.2-1.2,6.4-1.8,9.9-1.8
	c4.1,0,7.4,0.9,9.8,2.8c2.4,1.9,4,3.9,4.7,6.2c0.4,1.4,0.7,4.6,0.7,9.7V83c0,2.1,0.1,3.5,0.2,4c0.2,0.5,0.4,1,0.7,1.2
	c0.3,0.3,0.7,0.4,1.1,0.4c0.8,0,1.6-0.6,2.5-1.9l1.4,1.2c-1.6,2.5-3.2,4.3-4.8,5.4c-1.7,1.1-3.6,1.7-5.7,1.7c-2.5,0-4.4-0.6-5.8-1.9
	C131.8,91.9,130.9,90,130.6,87.5z M130.6,83.8V68.1c-3.8,2.4-6.5,4.9-8.4,7.6c-1.2,1.8-1.8,3.6-1.8,5.5c0,1.5,0.5,2.9,1.5,4.1
	c0.8,0.9,1.9,1.4,3.3,1.4C126.8,86.6,128.6,85.7,130.6,83.8z"/>
<path class="st0" d="M166.3,26.3v25.9c3.7-4.1,7.7-6.1,12-6.1c3,0,5.8,0.9,8.4,2.8c2.6,1.9,4.7,4.6,6.2,8.1
	c1.5,3.5,2.2,7.5,2.2,12.1c0,5.1-0.9,9.8-2.8,14c-1.9,4.2-4.4,7.4-7.6,9.6c-3.2,2.2-6.8,3.3-10.8,3.3c-2.4,0-4.5-0.4-6.3-1.2
	c-1.8-0.8-3.6-2.1-5.4-3.9L155,96h-1.6V36c0-2.7-0.1-4.4-0.3-5c-0.3-0.9-0.8-1.6-1.5-2.1s-1.8-0.7-3.4-0.8v-1.9L166.3,26.3
	L166.3,26.3z M166.3,56.6v20.9c0,4.3,0.1,7,0.3,8.1c0.3,2,1.1,3.6,2.2,4.8c1.2,1.2,2.7,1.8,4.5,1.8c1.6,0,2.9-0.5,4.1-1.5
	c1.1-1,2.1-2.9,2.8-5.8c0.8-2.9,1.1-8.1,1.1-15.6c0-7.2-0.8-12.1-2.5-14.8c-1.2-1.9-2.8-2.9-4.9-2.9
	C171.4,51.8,168.8,53.4,166.3,56.6z"/>
<path class="st0" d="M215.8,47.4v10.7c2.9-4.9,5.4-8.1,7.6-9.7c2.2-1.6,4.3-2.4,6.3-2.4c1.7,0,3.1,0.6,4.2,1.7
	c1,1.2,1.6,2.8,1.6,4.9c0,2.2-0.5,4-1.5,5.2s-2.2,1.9-3.7,1.9c-1.6,0-3.1-0.6-4.3-1.7c-1.2-1.1-1.9-1.8-2.1-1.9
	c-0.3-0.2-0.7-0.3-1.1-0.3c-0.9,0-1.7,0.4-2.6,1.1c-1.3,1.1-2.2,2.8-2.9,4.9c-1,3.2-1.5,6.8-1.5,10.8v10.8v2.8
	c0,1.9,0.1,3.1,0.3,3.7c0.4,0.9,0.9,1.6,1.6,2c0.7,0.4,2,0.7,3.7,0.8v1.8H198v-1.8c1.9-0.2,3.2-0.7,3.8-1.7c0.7-1,1-3.5,1-7.6v-26
	c0-2.7-0.1-4.4-0.4-5.1c-0.3-0.9-0.8-1.6-1.3-2.1c-0.6-0.4-1.6-0.7-3.1-0.9v-1.9L215.8,47.4L215.8,47.4z"/>
<path class="st0" d="M259.3,87.5c-5.3,5.1-10.1,7.6-14.3,7.6c-2.5,0-4.5-0.9-6.2-2.6c-1.6-1.8-2.5-4-2.5-6.6c0-3.6,1.4-6.8,4.3-9.7
	c2.9-2.9,9.1-6.7,18.7-11.4V60c0-3.6-0.2-5.8-0.5-6.7c-0.4-0.9-1-1.7-2-2.4s-2.1-1-3.3-1c-2,0-3.7,0.5-5,1.5
	c-0.8,0.6-1.2,1.3-1.2,2.1c0,0.7,0.4,1.6,1.3,2.6c1.2,1.4,1.8,2.8,1.8,4.2c0,1.6-0.6,3-1.7,4.2c-1.1,1.2-2.6,1.7-4.4,1.7
	c-2,0-3.6-0.6-4.9-1.9c-1.3-1.3-2-2.8-2-4.5c0-2.4,0.9-4.7,2.7-6.9s4.2-3.9,7.4-5c3.2-1.2,6.4-1.8,9.9-1.8c4.1,0,7.4,0.9,9.8,2.8
	c2.4,1.9,4,3.9,4.7,6.2c0.4,1.4,0.7,4.6,0.7,9.7V83c0,2.1,0.1,3.5,0.2,4c0.2,0.5,0.4,1,0.7,1.2c0.3,0.3,0.7,0.4,1.1,0.4
	c0.8,0,1.6-0.6,2.5-1.9l1.4,1.2c-1.6,2.5-3.2,4.3-4.8,5.4c-1.7,1.1-3.5,1.7-5.7,1.7c-2.5,0-4.4-0.6-5.8-1.9
	C260.4,91.9,259.6,90,259.3,87.5z M259.3,83.8V68.1c-3.8,2.4-6.6,4.9-8.4,7.6c-1.2,1.8-1.8,3.6-1.8,5.5c0,1.5,0.5,2.9,1.5,4.1
	c0.8,0.9,1.9,1.4,3.3,1.4C255.4,86.6,257.2,85.7,259.3,83.8z"/>
<path class="st0" d="M296.2,47.4v6.2c2.4-2.8,4.6-4.8,6.6-5.9c2-1.1,4.3-1.7,6.7-1.7c2.8,0,5.1,0.7,7,2.1c1.9,1.4,3.4,3.5,4.4,6.4
	c2.5-3,4.9-5.2,7.1-6.5c2.3-1.3,4.7-2,7.1-2c3,0,5.4,0.7,7.2,2.2c1.8,1.5,3,3.4,3.7,5.7s1,6,1,11v19.3c0,3.6,0.3,5.9,0.9,6.7
	c0.6,0.9,1.9,1.4,3.8,1.7v1.8h-22.5v-1.8c1.8-0.2,3.1-0.9,3.9-2.2c0.6-0.9,0.8-3,0.8-6.2V64c0-4.2-0.2-6.9-0.5-8s-0.8-2-1.5-2.5
	c-0.7-0.6-1.4-0.8-2.3-0.8c-1.3,0-2.7,0.5-4,1.6c-1.4,1.1-2.7,2.6-4.1,4.7v25.2c0,3.4,0.3,5.5,0.8,6.4c0.7,1.2,2.1,1.9,4.1,2.1v1.8
	H304v-1.8c1.2-0.1,2.2-0.4,2.9-1c0.7-0.6,1.2-1.3,1.4-2.1c0.2-0.8,0.3-2.6,0.3-5.3V64c0-4.3-0.2-6.9-0.5-8s-0.8-1.9-1.6-2.5
	c-0.7-0.6-1.5-0.9-2.3-0.9c-1.2,0-2.4,0.3-3.4,1.1c-1.5,1-3,2.8-4.7,5.3v25.2c0,3.3,0.3,5.5,0.9,6.6s1.9,1.7,3.8,1.9v1.8h-22.4v-1.8
	c1.8-0.2,3.1-0.8,3.9-1.9c0.5-0.7,0.8-2.9,0.8-6.5V57.6c0-3.5-0.3-5.8-0.9-6.6c-0.6-0.9-1.9-1.4-3.8-1.7v-1.9
	C278.4,47.4,296.2,47.4,296.2,47.4z"/>
<path class="st0" d="M30.1,113.2v28h1.8c2.8,0,5.1-0.4,6.8-1.4c1.8-0.9,3.3-2.4,4.5-4.6c1.2-2.1,2-5,2.4-8.7h1.6v34.2h-1.6
	c-0.6-6.5-2.2-10.7-4.8-12.8s-5.6-3.1-8.9-3.1h-1.8v20.9c0,3.5,0.2,5.7,0.5,6.5c0.4,0.9,1.1,1.6,2.1,2.3s2.4,1,4.2,1H39v1.9H6v-1.9
	h2.1c1.8,0,3.3-0.3,4.4-1.1c0.8-0.5,1.4-1.3,1.9-2.4c0.3-0.8,0.5-2.9,0.5-6.3V121c0-3.5-0.2-5.7-0.5-6.5c-0.3-0.9-1-1.6-2.1-2.3
	c-1-0.7-2.4-1-4.2-1H6v-1.9h53.2v19.5h-1.9c-0.4-4.6-1.5-8-3.3-10.2s-4.4-3.8-7.8-4.7c-1.9-0.5-5.3-0.8-10.3-0.8h-5.8V113.2z"/>
<path class="st0" d="M74,130.5v10.7c2.9-4.9,5.4-8.1,7.6-9.7c2.2-1.6,4.3-2.4,6.3-2.4c1.7,0,3.1,0.6,4.2,1.7c1,1.2,1.6,2.8,1.6,4.9
	c0,2.2-0.5,4-1.5,5.2s-2.2,1.9-3.7,1.9c-1.6,0-3.1-0.6-4.3-1.7c-1.2-1.1-1.9-1.8-2.1-1.9c-0.3-0.2-0.7-0.3-1.1-0.3
	c-0.9,0-1.8,0.4-2.6,1.1c-1.3,1.1-2.2,2.8-2.9,4.9c-1,3.2-1.5,6.8-1.5,10.8v10.8v2.8c0,1.9,0.1,3.1,0.3,3.7c0.4,0.9,0.9,1.6,1.7,2
	c0.7,0.4,2,0.7,3.7,0.8v1.8H56.2v-1.8c1.9-0.2,3.2-0.7,3.8-1.7c0.7-1,1-3.5,1-7.6v-26c0-2.7-0.1-4.4-0.4-5.1
	c-0.3-0.9-0.8-1.6-1.3-2.1c-0.6-0.4-1.6-0.7-3.1-0.9v-1.9H74z"/>
<path class="st0" d="M128.6,152.3h-23.9c0.3,6.2,1.8,11.2,4.6,14.8c2.1,2.8,4.7,4.2,7.7,4.2c1.9,0,3.6-0.6,5.1-1.7
	c1.5-1.1,3.1-3.1,4.9-6.1l1.6,1.1c-2.4,5.2-5,8.9-7.8,11c-2.9,2.2-6.2,3.2-9.9,3.2c-6.4,0-11.3-2.7-14.7-8c-2.7-4.3-4-9.7-4-16.1
	c0-7.8,2-14.1,5.9-18.7c3.9-4.6,8.5-7,13.8-7c4.4,0,8.2,1.9,11.5,5.9C126.6,138.8,128.3,144.6,128.6,152.3z M117.1,148.9
	c0-5.4-0.3-9.1-0.8-11.1s-1.4-3.5-2.5-4.6c-0.7-0.6-1.5-0.9-2.6-0.9c-1.6,0-2.9,0.9-4,2.6c-1.8,3-2.7,7.1-2.7,12.3v1.8h12.6V148.9z"
	/>
<path class="st0" d="M166.1,152.3h-23.9c0.3,6.2,1.8,11.2,4.6,14.8c2.1,2.8,4.7,4.2,7.7,4.2c1.9,0,3.6-0.6,5.1-1.7
	c1.5-1.1,3.2-3.1,4.9-6.1l1.6,1.1c-2.4,5.2-5,8.9-7.8,11c-2.9,2.2-6.2,3.2-9.9,3.2c-6.5,0-11.3-2.7-14.7-8c-2.7-4.3-4-9.7-4-16.1
	c0-7.8,2-14.1,5.9-18.7c3.9-4.6,8.5-7,13.8-7c4.4,0,8.2,1.9,11.5,5.9C164.1,138.8,165.9,144.6,166.1,152.3z M154.7,148.9
	c0-5.4-0.3-9.1-0.8-11.1s-1.4-3.5-2.5-4.6c-0.7-0.6-1.5-0.9-2.6-0.9c-1.6,0-2.9,0.9-4,2.6c-1.8,3-2.7,7.1-2.7,12.3v1.8h12.6V148.9z"
	/>
<path class="st0" d="M208.4,146.6v18.9c0,3.7,0.2,6,0.6,7c0.4,1,1.2,1.7,2.2,2.3c1.1,0.6,3,0.9,5.9,0.9v1.9H185v-1.9
	c2.9,0,4.9-0.3,5.9-0.9c1-0.6,1.8-1.3,2.2-2.3c0.4-0.9,0.6-3.3,0.6-6.9v-44.2c0-3.7-0.2-6-0.6-7c-0.4-1-1.2-1.7-2.2-2.3
	c-1-0.6-3-0.9-5.9-0.9v-1.9h27.5c9.1,0,15.6,1.7,19.5,5.2s5.9,7.8,5.9,13.1c0,4.4-1.3,8.2-3.8,11.4c-2.5,3.1-6,5.3-10.5,6.4
	C220.6,146.2,215.5,146.6,208.4,146.6z M208.4,113.2v29.4c1,0.1,1.8,0.1,2.3,0.1c3.8,0,6.7-1.2,8.8-3.6c2-2.4,3.1-6.2,3.1-11.3
	c0-5.1-1-8.8-3.1-11.1c-2-2.3-5.1-3.5-9.2-3.5C210.3,113.2,208.4,113.2,208.4,113.2z"/>
<path class="st0" d="M257.3,130.5v10.7c2.9-4.9,5.4-8.1,7.6-9.7c2.2-1.6,4.3-2.4,6.3-2.4c1.7,0,3.1,0.6,4.2,1.7
	c1,1.2,1.6,2.8,1.6,4.9c0,2.2-0.5,4-1.5,5.2s-2.2,1.9-3.7,1.9c-1.6,0-3.1-0.6-4.3-1.7c-1.2-1.1-1.9-1.8-2.1-1.9
	c-0.3-0.2-0.7-0.3-1.1-0.3c-0.9,0-1.8,0.4-2.6,1.1c-1.3,1.1-2.2,2.8-2.9,4.9c-1,3.2-1.5,6.8-1.5,10.8v10.8v2.8
	c0,1.9,0.1,3.1,0.3,3.7c0.4,0.9,0.9,1.6,1.7,2c0.7,0.4,2,0.7,3.7,0.8v1.8h-23.5v-1.8c1.9-0.2,3.2-0.7,3.8-1.7c0.7-1,1-3.5,1-7.6v-26
	c0-2.7-0.1-4.4-0.4-5.1c-0.3-0.9-0.8-1.6-1.4-2.1c-0.6-0.4-1.6-0.7-3.1-0.9v-1.9H257.3z"/>
<path class="st0" d="M312,152.3h-23.9c0.3,6.2,1.8,11.2,4.6,14.8c2.1,2.8,4.7,4.2,7.7,4.2c1.9,0,3.5-0.6,5.1-1.7
	c1.5-1.1,3.1-3.1,4.9-6.1l1.6,1.1c-2.4,5.2-5,8.9-7.8,11c-2.9,2.2-6.2,3.2-9.9,3.2c-6.5,0-11.3-2.7-14.7-8c-2.7-4.3-4-9.7-4-16.1
	c0-7.8,2-14.1,5.9-18.7c3.9-4.6,8.5-7,13.8-7c4.4,0,8.2,1.9,11.5,5.9C310,138.8,311.7,144.6,312,152.3z M300.5,148.9
	c0-5.4-0.3-9.1-0.8-11.1s-1.4-3.5-2.5-4.6c-0.7-0.6-1.5-0.9-2.6-0.9c-1.6,0-2.9,0.9-4,2.6c-1.8,3-2.7,7.1-2.7,12.3v1.8h12.6V148.9z"
	/>
<path class="st0" d="M343.8,129.2l0.7,16h-1.7c-2-4.8-4.1-8-6.2-9.7s-4.3-2.6-6.4-2.6c-1.3,0-2.5,0.5-3.4,1.4s-1.4,2-1.4,3.2
	c0,0.9,0.3,1.8,1,2.6c1,1.4,4,3.7,8.8,7.1c4.8,3.3,8,6.2,9.5,8.5s2.3,4.9,2.3,7.8c0,2.6-0.6,5.2-1.9,7.7s-3.1,4.4-5.4,5.8
	c-2.3,1.3-4.9,2-7.7,2c-2.2,0-5.1-0.7-8.8-2.1c-1-0.4-1.7-0.5-2-0.5c-1.1,0-2,0.8-2.7,2.5h-1.6l-0.8-16.9h1.7
	c1.5,4.4,3.5,7.7,6.1,10c2.6,2.2,5,3.3,7.3,3.3c1.6,0,2.9-0.5,3.9-1.5s1.5-2.2,1.5-3.6c0-1.6-0.5-3-1.5-4.2s-3.2-2.9-6.6-5.3
	c-5-3.6-8.2-6.3-9.7-8.1c-2.2-2.8-3.2-5.8-3.2-9.1c0-3.6,1.2-6.9,3.7-9.8c2.4-2.9,6-4.4,10.6-4.4c2.5,0,4.9,0.6,7.2,1.9
	c0.9,0.5,1.6,0.8,2.2,0.8s1.1-0.1,1.4-0.4c0.4-0.3,0.9-1,1.7-2.1h1.4V129.2z"/>
<path class="st0" d="M377.9,129.2l0.7,16H377c-2-4.8-4.1-8-6.2-9.7s-4.3-2.6-6.4-2.6c-1.3,0-2.5,0.5-3.4,1.4s-1.4,2-1.4,3.2
	c0,0.9,0.3,1.8,1,2.6c1.1,1.4,4,3.7,8.8,7.1c4.8,3.3,8,6.2,9.5,8.5s2.3,4.9,2.3,7.8c0,2.6-0.6,5.2-1.9,7.7s-3.1,4.4-5.4,5.8
	c-2.3,1.3-4.9,2-7.7,2c-2.2,0-5.1-0.7-8.8-2.1c-1-0.4-1.7-0.5-2-0.5c-1.1,0-2,0.8-2.7,2.5h-1.6l-0.8-16.9h1.7
	c1.5,4.4,3.5,7.7,6.1,10c2.6,2.2,5,3.3,7.3,3.3c1.6,0,2.9-0.5,3.9-1.5s1.5-2.2,1.5-3.6c0-1.6-0.5-3-1.5-4.2s-3.2-2.9-6.6-5.3
	c-5-3.6-8.3-6.3-9.7-8.1c-2.2-2.8-3.2-5.8-3.2-9.1c0-3.6,1.2-6.9,3.7-9.8c2.4-2.9,6-4.4,10.6-4.4c2.5,0,4.9,0.6,7.2,1.9
	c0.9,0.5,1.6,0.8,2.2,0.8s1.1-0.1,1.4-0.4c0.4-0.3,0.9-1,1.7-2.1h1.3V129.2z"/>
</svg>
