<?xml version="1.0" encoding="utf-8"?>
<!-- Generator: Adobe Illustrator 21.1.0, SVG Export Plug-In . SVG Version: 6.00 Build 0)  -->
<!DOCTYPE svg PUBLIC "-//W3C//DTD SVG 1.1//EN" "http://www.w3.org/Graphics/SVG/1.1/DTD/svg11.dtd">
<svg version="1.1" id="Layer_1" xmlns="http://www.w3.org/2000/svg" xmlns:xlink="http://www.w3.org/1999/xlink" x="0px" y="0px"
	 viewBox="0 0 387.8 206.5" style="enable-background:new 0 0 387.8 206.5;" xml:space="preserve">
<style type="text/css">
	.st0{fill:#FFFFFF;}
</style>
<g>
	<g>
		<path class="st0" d="M24.6,63.5L24.6,63.5c-1.4,0-6.2-0.6-6.2-8.6c0-9,8.5-14.6,16.4-14.6c3.7,0,7.3,1.5,11.1,3.1
			s7.7,3.2,11.8,3.2c7.8,0,12.1-2.8,12.1-2.8c0.3-0.2,0.8-0.2,1.1,0.1c0.3,0.3,0.4,0.7,0.2,1.1c-0.3,0.6-8.2,13.7-18.9,13.7
			c-5.6,0-9.3-2-12.8-3.9c-3.1-1.7-6-3.3-10.1-3.3c-3.5,0-5.3,1.3-5.3,3.7c0,1.6,1.4,3.8,4.1,3.8c2.3,0,2.6-4.3,2.6-4.4
			c0-0.5,0.4-0.6,0.9-0.6l0,0c0.5,0,0.8,0.2,0.9,0.7c0.2,7.9-7.2,8.9-7.2,8.9C25.2,63.6,25,63.5,24.6,63.5z M34.9,42.1
			c-7.1,0-14.7,4.9-14.7,12.8c0,6.2,3.1,6.8,4.4,6.8l0,0c0.2,0,0.4,0,0.4,0c0.1,0,1.4-0.2,2.7-1c-3.5-0.2-5.4-3.3-5.4-5.6
			c0-1.6,0.7-5.5,7-5.5c4.5,0,7.7,1.8,10.9,3.5c3.3,1.8,6.8,3.7,12,3.7c7,0,12.8-6.5,15.6-10.2c-2.2,0.8-5.6,1.7-10,1.7
			s-8.5-1.7-12.4-3.3C41.7,43.6,38.3,42.1,34.9,42.1z"/>
		<path class="st0" d="M21.2,53.9c0,0,2.2-10.1,13-10.1s12.2,6.1,23.4,6.1c3,0,6.9-1.2,6.9-1.2s-4.5,7.1-12.2,7.1
			c-7.8,0-16.4-7.9-22.7-7.9C23.4,48,21.2,53.9,21.2,53.9z"/>
		<path class="st0" d="M47.5,96.1c-1,0-6.1-0.1-11-2.5c-6.5-3.1-9.9-8.7-9.9-16.2c0-8,3.1-14,9.1-17.3c4.7-2.6,9.8-2.8,11.2-2.8
			c0.3,0,0.5,0,0.5,0c0.3,0,0.6,0.2,0.6,0.5c0.1,0.3,0,0.6-0.3,0.8c-0.1,0.1-8.7,6.1-8.7,16.2c0,11.4,7.5,13.8,13.8,13.8
			c7.7,0,14.7-5.7,14.8-5.8c0.3-0.2,0.6-0.2,0.9,0s0.3,0.6,0.2,0.9C62.2,94.8,48.2,96,47.5,96.1L47.5,96.1z M45.2,58.8
			c-5.1,0.4-17.3,2.6-17.3,18.3C28,93.9,45.5,94,47.5,94h0.1c0.1,0,10.9-0.6,17.5-8.2c-2.9,1.7-7.4,4-12.4,4
			c-9.8,0-15.2-5.3-15.2-15.1C37.6,66.6,42.5,61.2,45.2,58.8z"/>
		<path class="st0" d="M41.3,60.8c0,0-4.9,3.7-4.9,15.1s5.8,15.6,19,15.6c0,0-3.6,1.6-8.7,1.6c-5,0-17.1-3-17.1-16.4
			C29.6,63.3,41.3,60.8,41.3,60.8z"/>
		<line class="st0" x1="63.8" y1="52.5" x2="63.8" y2="86"/>
		<rect x="63.1" y="52.5" class="st0" width="1.4" height="33.6"/>
		<path class="st0" d="M49.6,89.6l-1.5-0.3l1-0.8c0.9-1,2.3-3.1,2.3-4.2V65.4c0-0.1,1-9.4,8.2-9.6h0.7v0.7c0,1,0.3,23.9,0,26.2
			C60,85.1,56.6,89.6,49.6,89.6z M52.8,65.5v18.8c0,1.2-0.9,2.8-1.7,3.8c5-0.6,7.5-3.8,7.8-5.6c0.2-1.7,0.1-16.8,0-25.2
			c-2.1,0.3-3.7,1.6-4.9,4C53.1,63.3,52.8,65.2,52.8,65.5z"/>
		<path class="st0" d="M57.7,59.2c-0.5,0.3-3.8,2.8-3.8,6c0,1.2,0.4,20.6-0.4,21.1c0,0,3.8-0.6,4.2-5.1V59.2z"/>
		<path class="st0" d="M73.9,50.4c-0.2,0,2.9,3.1,3,5.1v3.1c0,0-0.9-0.6-2.1-0.6s-4.2,2.7-4.2,2.7s6.2-1,6.2,2.7v22.9L75.2,88
			l5.4,5.5l4.2-4.5l-2.3-2.5V54.3c0,0,1.5-5.2,2.8-5.6c0,0-3.5-0.6-6.7,4.6C78.6,53.3,77,50.8,73.9,50.4z"/>
		<path class="st0" d="M88.9,46c0,0-0.8-0.2-2.1-0.2c-1.9,0-5.5,0.5-8.5,3.6c-0.9-0.8-3-2.3-6.2-2.3c-0.6,0-1.2,0.1-1.8,0.2L69,47.4
			l0.9,0.9c1.1,1.2,3.8,4.5,4.2,6.8c-1.8,0.6-7.1,3-7,9.2v1.3l1.1-0.7c0.7-0.4,2.8-1.6,4.1-1.6c1.1,0,1.6,1.3,1.7,1.7v20.2L71.8,88
			l-4.7,5l1,1l4.2-4.5l8,8.1l7.7-8.7l-3-3.7l0.1-30c0.8-2.7,2.5-7.2,3.9-7.9l1.6-0.9L88.9,46z M83.8,54.9l-0.1,30.8l2.5,3.2
			l-5.9,6.7l-7.1-7.2l2.1-2.7V64.9v-0.2c0-0.1-0.7-2.8-3.1-2.8c-1.2,0-2.7,0.6-3.7,1.2c0.7-5.3,6.2-6.7,6.4-6.7l0.6-0.1v-0.6
			c0-2.4-2.4-5.6-3.7-7.2c0.1,0,0.2,0,0.3,0c3.6,0,5.6,2.3,5.7,2.4l0.5,0.7l0.5-0.6c2.6-3,5.8-3.7,8-3.7c0.1,0,0.3,0,0.4,0
			C85.4,49.6,84,54.3,83.8,54.9z"/>
		<path class="st0" d="M96,67.5c0,0,0,23.4,0,29.7s-4.8,12.7-4.8,12.7c9.6-3.2,11.2-14.7,11.2-14.7V64.9l-7.1-6.6l-4,4.4L96,67.5z"
			/>
		<path class="st0" d="M95.1,54.2L84.2,65.5l1,1l2.7-2.8l4.6,4.7v29.5c-0.8,8.9-6.8,12.9-6.9,13l-0.9,0.6l1,0.6
			c0.1,0.1,1.3,0.8,4,0.8h0.1h0.1c13.7-2.3,15.5-18.4,15.5-18.6v-30L95.1,54.2z M104,94.1c-0.1,0.8-2,15.2-14.3,17.3
			c-0.9,0-1.6-0.1-2.1-0.2c1.9-1.7,5.8-5.9,6.4-13.3V67.8l-5.1-5.1l6.2-6.4l8.9,8.6V94.1z"/>
		<polygon class="st0" points="126.2,71.1 130.1,67.2 121.1,59 111.1,66.8 111.1,88.5 117.3,94.2 120.1,91.5 117.1,88.5 117.2,63.8 
					"/>
		<path class="st0" d="M121.1,59l-10,7.8v21.6l6.2,5.7l2.7-2.7l-2.9-3l0.1-24.7l9,7.3l3.9-3.9L121.1,59L121.1,59z"/>
		<polygon class="st0" points="109.7,89.1 109.7,66.2 121.2,57.2 132,67 132.5,66.5 133,67 133.5,67.5 126.4,74.6 126.4,74.6 
			134,67.1 121.3,55.6 108.5,65.5 108.5,89.6 109,90.2 109.9,89.3 		"/>
		<polygon class="st0" points="119.8,69.3 125.3,73.7 126.2,72.8 118.6,66.7 118.6,80.5 119.8,79.3 		"/>
		<polygon class="st0" points="118.5,82.5 118.5,87.9 122.1,91.5 117.4,96.1 110.9,90.2 110.1,91.1 117.4,97.8 123.8,91.5 
			119.8,87.4 119.8,81.3 		"/>
		<polygon class="st0" points="126.3,73 132.2,67.1 132,67 126.2,72.8 		"/>
		<polygon class="st0" points="119.8,79.3 119.8,80.3 125.8,74.2 125.3,73.7 		"/>
		<polygon class="st0" points="118.6,80.5 118.6,81.5 119.8,80.3 119.8,79.3 		"/>
		<polygon class="st0" points="126.3,73 126.2,72.8 125.3,73.7 125.8,74.2 133,67 132.5,66.5 132,67 132.2,67.1 		"/>
		<polygon class="st0" points="105.8,94.4 106.3,94.9 110.1,91.1 109.5,90.6 		"/>
		<polygon class="st0" points="110.4,89.8 109.5,90.6 110.1,91.1 110.9,90.2 		"/>
		<polygon class="st0" points="119.8,80.3 119.8,81.3 126.4,74.6 125.8,74.2 		"/>
		<polygon class="st0" points="133,67 125.8,74.2 126.4,74.6 133.5,67.5 		"/>
		<polygon class="st0" points="118.6,81.5 118.5,82.5 119.8,81.3 119.8,80.3 		"/>
		<polygon class="st0" points="109,90.2 105.3,93.9 105.8,94.4 109.5,90.6 		"/>
		<polygon class="st0" points="110.4,89.8 109.9,89.3 109,90.2 109.5,90.6 		"/>
		<line class="st0" x1="122.8" y1="91.5" x2="127.4" y2="86.8"/>
		
			<rect x="121.8" y="88.4" transform="matrix(0.7071 -0.7071 0.7071 0.7071 -26.3621 114.5633)" class="st0" width="6.6" height="1.4"/>
		<path class="st0" d="M153.4,60.1v9.3c0,0,0.4,0-1.8,0s-4.9,1.2-5.8,4.3c0,0,2.4-1.5,5.3-1.3c2,0.1,2.3,1.6,2.3,1.6v11.6
			c0,0,6.7-3.2,6.7-8.4V54.5L153.4,60.1z"/>
		<path class="st0" d="M162.7,76.9V54.7l-1.2-1.2v23.9c0,6-7.2,9.5-7.5,9.7l-2,1V74.4c-0.1-0.1-0.3-0.4-1-0.4
			c-2.4-0.1-4.5,1.1-4.5,1.1l-3.1,1.9l1-3.5c1.1-3.6,4.4-5.3,7.2-5.3h0.4v-8.6l8.5-7.1l-0.9-0.9l0,0l-8.9,7.4v8
			c-3,0.3-6.3,2.3-7.5,6.1l-1.9,6.5l5.8-3.6c0,0,1.6-1,3.6-1v13.6l3.8-0.6c0.3-0.1,7.1-3.4,8.1-9.3l-1.1,0.4L162.7,76.9z"/>
		<polygon class="st0" points="160.4,52.5 161.4,51.6 162.7,50.5 162.7,49 159.5,51.6 159.5,51.6 		"/>
		<path class="st0" d="M162.7,76.9l-1.2,2.2l1.1-0.4c0.1-0.5,0.1-1,0.1-1.5L162.7,76.9L162.7,76.9z"/>
		<polygon class="st0" points="161.4,53.5 162.7,54.7 162.7,52.8 161.4,51.6 		"/>
		<path class="st0" d="M163.5,51.8l5.9-5.5l9.8,9.3L179,70.5c0,0,3.2,1.5,4.6,0.4c0,0-0.3,0.6-0.7,1c-0.8,0.8-2.2,1.7-4.3,2V87
			l4.7,5.2l-3.6,3.6l-7.6-7.4V76.6c0,0-3.2-2.8-5-2.2c0.3-0.6,2.7-2.7,4.9-2.8V59.9L163.5,51.8z"/>
		<polygon class="st0" points="185.9,53.2 190.2,48.7 198,56 198,86.6 202,90.5 198,94.8 190.8,87.9 190.8,58 		"/>
		<path class="st0" d="M219,48.2c0,0-3.3-1-4.8-2.5c-2.3,2-5.9,4.8-5.9,4.8V62l4.3,2.8l1.7-1.9l-3.2-2.3L211,49.4l1.1-0.7
			C212.2,48.7,217.6,50.1,219,48.2z"/>
		<path class="st0" d="M237.6,62.7c0,0-5.5-0.4-5.5-5.9c0-1.8,1.8-5.2,8.9-5.2c7.1,0,6.3,3,13.8,3c7.5,0,8.3-7.1,8.3-7.1
			s-3.9,2.5-7.5,2.5s-12.8-4.9-16.2-4.9s-10.3,2.3-10.3,10.1c0,6.1,3.9,7.6,6.4,7.8C236.7,63.2,237.6,62.7,237.6,62.7z"/>
		<path class="st0" d="M252,60.4c0.4-0.8-0.6-0.1-1.8,1.3c-1.5,1.6-3.8,3.9-3.8,6.2c0,0-6.4,0.2-7,2c0,0,3,1,2.9,1.9
			c0,0-2.2,1.8-2.3,2.8c0,0,9.4,1.4,9.4,9.2c0,0,1.3-2.2,1.3-4.1c0-1.5-1-12.7,0.6-17.3C251.7,61.2,252.2,60,252,60.4z"/>
		<polygon class="st0" points="276.3,64.8 279.4,61.2 285.7,66 285.7,86.3 292.8,92.8 289.6,96.2 279.4,87.6 279.4,67.7 		"/>
		<polygon class="st0" points="291,64.6 293.9,61.2 300.3,66.4 300.3,84.8 295,90.3 295,68.7 		"/>
		<path class="st0" d="M321.2,59.8l-10.9,8.8v19.7l10.2,8l10.2-9.8V68.6L321.2,59.8z M326.2,90l-2.5,2.2l-8.1-5.1V65.4l2.3-1.9
			l8.2,7.2V90H326.2z"/>
		<polygon class="st0" points="341.7,65.1 346.4,60.3 352.5,66.1 352.5,87.1 356.8,91.4 353.5,95.6 346.8,89.1 346.8,69.5 		"/>
		<path class="st0" d="M360.2,57l-6.6,8.3l8.8,7.9l6.8-8L360.2,57z M362.4,71.4l-7-6.3l5-6.4l7.2,6.6L362.4,71.4z"/>
		<polygon class="st0" points="357.3,65 360.6,60.8 365.7,65.4 362.3,69.4 		"/>
		<g>
			<g>
				<path class="st0" d="M150.8,89.1c2.1,0,3.2,0.5,4.2,1c1.2,0.6,5.9,1.6,6.9,1.6s3-0.9,3-0.9s-0.4,1.4-1.9,3s-3.8,3.3-6.9,3.3
					c-1.5,0-2.5-0.4-3.5-0.8s-2-0.8-3.8-0.8c-3.2,0-4.4,0.6-4.9,0.9s-3.2,2.3-3.2,2.3s1-3.1,1.7-4.5
					C143.3,92.9,145.8,89.1,150.8,89.1 M147.9,92.8c0.3,0,0.6,0,0.9,0c2.3,0,3.7,0.5,4.8,1c0.8,0.3,1.5,0.6,2.5,0.6
					c0.5,0,1.1-0.2,1.7-0.4c-2-0.3-3.1-0.8-4-1.3c-0.9-0.4-1.5-0.7-2.9-0.7C149.8,91.9,148.8,92.2,147.9,92.8 M150.8,87.6
					c-5.6,0-8.5,4.1-9.5,5.9c-0.8,1.4-1.8,4.4-1.9,4.7l-1.3,4.2l3.5-2.7c1.2-0.9,2.6-2,2.9-2.1c0.4-0.2,1.4-0.7,4.3-0.7
					c1.5,0,2.3,0.3,3.3,0.7c1,0.4,2.2,0.9,4,0.9c3.7,0,6.4-2.1,7.9-3.8c1.6-1.8,2.2-3.4,2.2-3.6l0.9-3l-2.9,1.3
					c-0.8,0.4-2,0.8-2.4,0.8c-0.8,0-5.3-1-6.3-1.4C154.6,88.3,153.3,87.6,150.8,87.6L150.8,87.6z"/>
			</g>
		</g>
		<g>
			<path class="st0" d="M143.7,95c0,0,2.9-4.5,7.1-4.5c4.3,0,3,2.3,11.2,2.3c0,0-3.3,3-5.9,3c-2.6,0-3.5-1.5-7.3-1.5
				C145.1,94.2,143.7,95,143.7,95z"/>
		</g>
		<path class="st0" d="M219.8,45.7c-0.8-0.2-2.9-1-3.7-1.9l-1.7-1.7l-1.9,1.6c-2.2,1.9-5.7,4.6-5.7,4.7l-1,0.8v14l-1.6,1.8l1,0.9
			l1.6-1.8l6.5,4.2l5.2-5.7l0,0l1.6-1.8L219,60l-1.7,1.9l-3.5-2.6v-7.6c0.7,0.1,1.4,0.2,2.2,0.2l0,0c2.4,0,4.1-0.7,5.1-2l2.3-3
			L219.8,45.7z M220.1,49c-0.8,1-2.2,1.5-4.1,1.5l0,0c-1.3,0-2.7-0.2-3.4-0.4l0.1,9.7l3.9,2.9l-3.5,3.9l-6-3.9v-13l0.5-0.4
			c0,0,3.6-2.8,5.8-4.7l1-0.9l0.9,0.9c1.1,1.1,3.4,1.9,4.2,2.2l1.9,0.6L220.1,49z"/>
		<path class="st0" d="M266.3,54.4c-9.9,3.5-11,18.7-11,19.3v16.6c0,1.8-1.7,4.6-2.8,5.9l0,0l-0.7-0.8c-1.1-1.2-2.4-2.7-3.9-4.1
			l3.8-6.3c0.3-0.5,1.7-3,1.7-5.5c0-0.3,0-0.9-0.1-1.7c-0.2-3.1-0.6-11.4,0.5-14.7c0.2-0.6,0.4-1.1,0.6-1.5c0.1-0.1,0.1-0.3,0.2-0.5
			c0.3-0.9,1.2-2.9,1.8-4c6.6-0.8,9-6.3,9.4-9.4l0.6-5.5l-4.6,3c-0.8,0.5-3.7,2.1-6.1,2.1c-1.3,0-4.7-1.3-7.3-2.3
			c-3.6-1.4-6.7-2.6-8.9-2.6c-5,0-12.9,3.5-12.9,12.8c0,7.1,4.6,10.1,8.8,10.5c0.2,0,0.4,0,0.6,0c1.6,0,2.7-0.6,2.9-0.7l7.9-4.3
			l-9-0.7c-0.5,0-3-0.4-3-3.2c0-0.5,1.1-2.6,6.2-2.6c2.9,0,4.1,0.5,5.6,1.2c1.4,0.6,3,1.4,5.7,1.6c-1.3,0.6-3,1.6-4,2.7L248,60
			c-1.3,1.4-2.9,3.1-3.7,5.1c-4.2,0.4-6.7,1.6-7.4,3.6l-0.9,2.6l2.2,0.7c-0.4,0.6-0.7,1.3-0.8,1.8l-0.5,2.6l2.7,0.4
			c0.3,0,7.1,1.2,7.1,6.5v6.6c-3.8-3.8-8.1-7.3-10.9-7.3c-3.9,0-8.4,5.6-8.4,9.3c0,3,1.5,5.6,1.6,5.9l2.5,4.3l2.2-4.5
			c0.1-0.1,1.4-2.9,4.1-2.9c0.7,0,2.9,1.3,4.2,2c2.6,1.5,5.1,2.9,7.4,2.9l5.2,0.2c4.7,0.2,9.2-3.4,11.4-9.3c1.5-4,1.8-7.9,1.8-8.1
			V67.7c0-5.2,1.9-10.2,1.9-10.3l2-5.3L266.3,54.4z M247.1,54.4c-1.6-0.7-2.9-1.3-6.1-1.3c-5.9,0-7.5,2.5-7.5,3.8
			c0,4,3.7,4.4,4.2,4.5l4.7,0.4l-4.1,2.2c-0.1,0.1-1,0.5-2.3,0.5l0,0c-0.2,0-0.3,0-0.5,0c-1.8-0.2-7.7-1.4-7.7-9.2
			c0-8.4,7.2-11.5,11.7-11.5c2,0,5.1,1.2,8.4,2.5c2.9,1.1,6.2,2.4,7.8,2.4c3.1,0,6.7-2.2,6.7-2.2l2.5-1.6l-0.3,2.9
			c-0.3,2.9-2.8,8.4-9.7,8.4C250.7,56.1,248.8,55.2,247.1,54.4z M239.8,75.9l-1.4-0.2l0.2-1.4c0.2-0.8,0.9-1.8,1.7-2.6
			c-0.4-0.2-0.9-0.4-1.3-0.5l-1.4-0.5l0.5-1.4c0.7-2,4.4-2.7,7.1-2.9c0.6-2.1,2.3-4,3.7-5.5l0.3-0.3c1.9-2.1,4.7-3.4,4.7-3.4
			l0.2-0.1c0.2,0,0.5,0,0.8,0c0.1,0,0.1,0,0.1,0c-0.4,1-1.4,3.1-1.6,3.5c0,0.1-0.1,0.3-0.2,0.4c-0.1,0.4-0.4,1-0.6,1.5
			c-1.2,3.5-0.8,11.7-0.6,15.1c0,0.8,0.1,1.4,0.1,1.7c0,2.2-1.4,4.6-1.6,4.8l-2.6,4.3v-5C248,77.3,240.1,76,239.8,75.9z M268.5,57.4
			c0,0.1-2,5.3-2,10.7v14.5c0,0.2-0.2,3.9-1.7,7.8c-2,5.3-5.4,8.2-9.9,8.7c0,0-4.8-0.3-5.4-0.4c0,0-2.7-0.1-6.8-2.8
			c-1.6-1.1-3.8-2.2-4.8-2.2c-3.5,0-5.2,3.4-5.2,3.6l-1.2,2.4l-1.3-2.3c-0.1-0.1-1.5-2.6-1.5-5.3c0-3.1,4-8,7.2-8
			c2.6,0,7.4,4.3,10.9,7.9l0.4,0.4c1.5,1.6,2.8,3,3.6,3.9l1.6,1.9l0.8-1l0.2-0.3c0.9-1.1,3.1-4.3,3.1-6.7V73.7c0-0.6,1-15,10.2-18.2
			l2.9-1L268.5,57.4z"/>
		<g>
			<path class="st0" d="M235.8,85.6c-2.3,0-5.8,4.3-5.8,6.6c0,2.3,1.3,4.6,1.3,4.6s2.1-4.4,6.5-4.4c2.9,0,8.8,5.2,11.8,4.9
				C249.7,97.3,239.4,85.6,235.8,85.6z"/>
		</g>
		<g>
			<path class="st0" d="M257.9,73.9c0,0,0,13,0,16.4s-3.4,7.6-3.4,7.6c9.9-0.9,10.6-15.3,10.6-15.3V68.1c0-5.7,2.1-11.2,2.1-11.2
				C258.8,59.9,257.9,73.9,257.9,73.9z"/>
		</g>
		<path class="st0" d="M207.7,86.4l-2.9,3.1l-4.1-4V55.9l4.6-4.6l-1-1l-4.1,4.1l-10-9.4l-6.9,7.2l-1.8,1.8l-11.9-11.2l-10,8.8
			l3.1-2.6v1.5l6.8-6.1l11.2,10.7l-0.3,14.5c0.5,0.2,1.2,0.4,1.7,0.4c0.3,0,0.5-0.1,0.5-0.1l3.5-2.1l-1.4,3.8
			c-0.1,0.1-0.4,0.8-0.9,1.4c-0.6,0.6-1.9,1.7-3.9,2.2v11.4l5.2,5.8l-5.6,5.5l-9-8.7V77.3c-0.9-0.7-2.3-1.5-3-1.5
			c-0.1,0-0.1,0-0.1,0l-3.5,1.3l1.8-3.3c0.4-0.8,2.6-2.7,4.7-3.3v-10l-7.8-7.6v1.8l2.6,2.5v15.2l0,0c-0.3,0.3-0.5,0.5-0.6,0.8
			l-2,3.8v0.4c0,0.5,0,1-0.1,1.5l2.8-1v11.5h1.3v-12l1.1-0.4c0.4,0.1,1.1,0.4,1.7,0.9v11.5l-3.9,3.9l1,1l3.9-3.9l9.1,8.8l0.5,0.5
			l9.4-9.4l8.3,7.9l0.5,0.5l10.6-11.2L207.7,86.4z M184.4,89.4l-3.1-3.5V76c1.4-0.5,2.5-1.2,3.1-1.8V89.4z M169.2,69.6
			c-0.9,0.4-1.8,1-2.6,1.5V58.5l2.6,2.5V69.6z M184.5,67.3l-2.4,1.4c-0.1,0-0.3,0-0.5-0.1l0.2-13.4L183,54l1.4,1.4v11.9H184.5z
			 M186.2,91.4l-0.3-0.3V72.2c0-0.1,0.1-0.1,0.1-0.2l2.1-7l-2.3,1.4v-9.7l2.4,2.4V89l0.2,0.2L186.2,91.4z M198,96.7l-8.7-8.2V58.6
			l-5.4-5.4l6.2-6.5l9.2,8.7V86l4.5,4.4L198,96.7z"/>
		<path class="st0" d="M306.5,61.7l-1-1l-3.5,3.6l-8.5-6.8l-5.7,6.7l-8.2-6.2l-0.5-0.5l0,0l0,0l-4.9,5.6l-3.8,4.3l1.1,0.9l2.2-2.5
			l3.1,2.9V88l-3.6,3.8l1,1l3.3-3.5l12.3,10.5l13.2-14V65.4L306.5,61.7z M288.3,65.6l4,4.2v19l-4-3.7V65.6z M301.7,85.4l-12.1,12.8
			l-11.7-10V68.3l-3.5-3.3l5-5.6l7.7,5.8v20.4l5.3,4.9l1.4,1.1v-1.7l-0.2-20.6l-4.5-4.7l4.6-5.3l8,6.4L301.7,85.4L301.7,85.4z"/>
		<path class="st0" d="M317,66.1v20.1l6.6,4.2l1.2-1.1v-18l-6.9-6L317,66.1z M318.3,67.2l5.3,4.6v16.9l-0.1,0.1l-5.2-3.3L318.3,67.2
			L318.3,67.2z"/>
		<path class="st0" d="M336.9,63.7l-1-1l-3.6,3.8l-11-10.2l-13.7,11v21.9l-3.1,3.3l1,1l3-3.2l12.1,9.5l12.6-12.2V67.5L336.9,63.7z
			 M332.1,87.1l-11.5,11.1L308.9,89V67.9l12.4-9.9l10.8,10L332.1,87.1L332.1,87.1z"/>
		<path class="st0" d="M355.2,86V65l-8.3-7.9l-0.5-0.5l0,0h-0.1l-8.4,8.7l0,0l-2.4,2.5l1,1l2.5-2.5l5.2,4.5v19.6l9.6,9.3l6.6-8.4
			L355.2,86z M353.6,97.7l-8.2-7.9V70.1l-5.5-4.8l6.7-6.8l7.4,7.1v21l4.8,4.7L353.6,97.7z"/>
	</g>
	<g>
		<g>
			<path class="st0" d="M139.7,115c-11.3,0-12.6-6.1-23.4-6.1s-13,10.1-13,10.1s2.2-5.9,8.4-5.9c6.3,0,14.9,7.9,22.7,7.9
				s12.2-7.1,12.2-7.1S142.7,115,139.7,115z"/>
			<path class="st0" d="M118.5,141c0-11.4,4.9-15.1,4.9-15.1s-11.7,2.5-11.7,15.9c0,13.4,12.1,16.4,17.1,16.4s8.7-1.6,8.7-1.6
				C124.3,156.5,118.5,152.4,118.5,141z"/>
			<path class="st0" d="M153.2,110.1c0.2-0.4,0.1-0.8-0.2-1.1c-0.3-0.3-0.7-0.3-1.1-0.1c0,0-4.3,2.8-12.1,2.8c-4.1,0-8-1.6-11.8-3.2
				s-7.4-3.1-11.1-3.1c-7.9,0-16.4,5.6-16.4,14.6c0,8,4.7,8.6,6.2,8.6c0.4,0,0.6,0,0.6,0c0.1,0,7.5-1,7.2-9c0-0.5-0.4-0.8-0.9-0.8
				l0,0c-0.5,0-0.8,0.3-0.9,0.8c0,0-0.4,4.5-2.6,4.5c-2.6,0-4.1-2.3-4.1-3.8c0-2.5,1.8-3.7,5.3-3.7c4,0,7,1.6,10.1,3.3
				c1.7,1,3.5,1.9,5.5,2.7c-2.3,0.2-5.9,0.8-9.3,2.7c-5.9,3.3-9.1,9.3-9.1,17.3c0,7.5,3.5,13.1,9.9,16.2c4.9,2.3,10,2.5,11,2.5h0.2
				c0.6,0,14.6-1.3,20.9-12.4c0.2-0.3,0.1-0.7-0.2-0.9s-0.6-0.2-0.9,0c0,0-1.1,0.9-3,2v-31.8C150.5,114.5,153,110.4,153.2,110.1z
				 M147.1,151.2c-6.6,7.6-17.4,8.5-17.5,8.5h-0.1c-2,0-19.5-0.4-19.6-17.2c0-15.7,12.2-18.2,17.3-18.6c-2.7,2.4-7.6,7.9-7.6,16
				c0,9.8,5.4,15.2,15.2,15.2C139.7,155,144.2,152.9,147.1,151.2z M142.3,121.6v-0.3c1-0.6,2-1.3,2.9-2v31.4
				c-2.1,1.1-4.7,2.2-7.6,2.7c3-1.5,4.6-4,4.7-5.6C142.6,145.5,142.3,122.6,142.3,121.6z M140.9,147.7c-0.2,1.7-2.7,5-7.8,5.6
				c0.8-1.1,1.7-2.6,1.7-3.8v-18.8c0-0.3,0.3-2.2,1.2-4.2c1.1-2.4,2.8-3.7,4.9-4C141,130.8,141.1,145.9,140.9,147.7z M133.4,130.5
				v18.9c0,1-1.2,2.9-2.1,4c-5.3-0.9-10.3-4.2-10.3-13.5c0-10.1,8.6-16.1,8.7-16.2c0.1-0.1,0.2-0.2,0.3-0.3c1.3,0.3,2.7,0.4,4.3,0.4
				c0.7,0,1.3-0.1,2-0.1C133.9,126.5,133.5,130.5,133.4,130.5z M134.2,122c-5.2,0-8.7-1.9-12-3.7c-3.2-1.7-6.4-3.5-10.9-3.5
				c-6.3,0-7,3.8-7,5.5c0,2.3,1.9,5.3,5.4,5.6c-1.3,0.8-2.6,1-2.7,1c0,0-0.2,0-0.4,0c-1.3,0-4.4-0.7-4.4-6.8
				c0-7.9,7.6-12.8,14.7-12.8c3.4,0,6.8,1.4,10.5,2.9c4,1.6,8,3.3,12.4,3.3c4.5,0,7.8-0.8,10.1-1.7C147.1,115.6,141.2,122,134.2,122
				z"/>
			<path class="st0" d="M135.9,130.2c0,1.2,0.4,20.6-0.4,21.1c0,0,3.8-0.6,4.2-5.1v-22C139.2,124.6,135.9,127.1,135.9,130.2z"/>
		</g>
		<path class="st0" d="M158.4,128.2l6.8,4.8v21.7v0.3l0.2,0.2l3.1,2.8l-2,2l-5.8-4.5v-20.9v-0.3l-0.3-0.2l-4.4-3.4
			C156.6,130.1,157.6,129,158.4,128.2 M158.3,127.2c0,0-3.1,3.4-3.3,3.7l5,3.8V156l6.5,5.1l3-3l-3.6-3.3v-22.1L158.3,127.2
			L158.3,127.2z"/>
		<path class="st0" d="M155,130.9c0.2-0.3,3.3-3.7,3.3-3.7l7.6,5.4v22.1l3.6,3.3l-3,3l-6.5-5.1v-21.2L155,130.9z"/>
		<path class="st0" d="M180.4,128.2l6.8,4.8v21.7v0.3l0.2,0.2l3.1,2.8l-2,2l-5.8-4.5v-20.9v-0.3l-0.3-0.2l-4.4-3.4
			C178.7,130.1,179.7,129,180.4,128.2 M180.3,127.2c0,0-3.1,3.4-3.3,3.7l5,3.8V156l6.5,5.1l3-3l-3.6-3.3v-22.1L180.3,127.2
			L180.3,127.2z"/>
		<path class="st0" d="M177,130.9c0.2-0.3,3.3-3.7,3.3-3.7l7.6,5.4v22.1l3.6,3.3l-3,3l-6.5-5v-21.2L177,130.9z"/>
		<path class="st0" d="M205.8,153.6v-22.3l-10.6-7.6l-1.6,1.7c-0.5,0.6-3.1,3.4-3.3,3.7l-1.8,2.1l6.2,4.7v21.2l9.4,7.3l6.6-6.6
			L205.8,153.6z M203.9,162.9l-8.1-6.3v-21.2l-5.6-4.3l1-1.1c0.2-0.3,3-3.3,3.3-3.7l0.8-0.9l9.2,6.6v22.2l4.2,3.9L203.9,162.9z"/>
		<path class="st0" d="M195.7,128.2l6.8,4.8v21.7v0.3l0.2,0.2l3.1,2.8l-2,2l-5.8-4.5v-20.9v-0.3l-0.3-0.2l-4.4-3.4
			C194,130.1,195,129,195.7,128.2 M195.6,127.2c0,0-3.1,3.4-3.3,3.7l5,3.8V156l6.5,5.1l3-3l-3.6-3.3v-22.1L195.6,127.2L195.6,127.2z
			"/>
		<path class="st0" d="M192.3,130.9c0.2-0.3,3.3-3.7,3.3-3.7l7.6,5.4v22.1l3.6,3.3l-3,3l-6.5-5.1v-21.2L192.3,130.9z"/>
		<path class="st0" d="M210.9,128.2l6.8,4.8v21.7v0.3l0.2,0.2l3.1,2.8l-2,2l-5.8-4.5v-20.9v-0.3l-0.3-0.2l-4.4-3.4
			C209.1,130.1,210.1,129,210.9,128.2 M210.8,127.2c0,0-3.1,3.4-3.3,3.7l5,3.8V156l6.5,5.1l3-3l-3.6-3.3v-22.1L210.8,127.2
			L210.8,127.2z"/>
		<path class="st0" d="M207.5,130.9c0.2-0.3,3.3-3.7,3.3-3.7l7.6,5.4v22.1l3.6,3.3l-3,3l-6.5-5.1v-21.2L207.5,130.9z"/>
		<path class="st0" d="M283.2,119.9c0.4,0,0.8,0.3,0.8,0.8c0,0.3-0.2,0.5-0.4,0.7h-0.1h-0.1c-0.1,0-0.2,0-0.2,0
			c-0.4,0-0.8-0.3-0.8-0.8C282.4,120.3,282.8,119.9,283.2,119.9 M267.3,127.2c1,0.7,3.4,2.2,7.5,2.2c1.5,0,2.8-0.3,3.9-0.8
			c-2.4,1.7-5.2,2.5-7,2.5c-3.6,0-7.4-0.8-7.5-0.8l-0.8-0.2L267.3,127.2 M263.4,130.3v0.8v8.9v0.3l0.2,0.2l3.5,3l-2.6,3.5l-4.9-4.9
			v-8.9L263.4,130.3 M283.2,119.2c-0.8,0-1.5,0.7-1.5,1.5s0.7,1.5,1.5,1.5c0.2,0,0.3,0,0.4-0.1c-0.7,2.1-2.9,6.6-8.8,6.6
			c-5.2,0-7.5-2.4-7.5-2.4l-8.3,6.6v9.5l5.7,5.7l3.5-4.6l-4-3.5v-8.9c0,0,3.9,0.8,7.6,0.8c3.5,0,11.4-3.3,12.1-9.9
			c0.5-0.2,0.8-0.7,0.8-1.3C284.6,119.9,284,119.2,283.2,119.2L283.2,119.2z"/>
		<path class="st0" d="M284.6,120.7c0-0.8-0.7-1.5-1.5-1.5s-1.5,0.7-1.5,1.5s0.7,1.5,1.5,1.5c0.2,0,0.3,0,0.4-0.1
			c-0.7,2.1-2.9,6.6-8.8,6.6c-5.2,0-7.5-2.4-7.5-2.4l-8.3,6.6v9.5l5.7,5.7l3.5-4.6l-4-3.5v-8.9c0,0,3.9,0.8,7.6,0.8
			c3.5,0,11.4-3.3,12.1-9.9C284.3,121.8,284.6,121.3,284.6,120.7z"/>
		<path class="st0" d="M274.3,139.9l7.1,6v10l-5.9,5.8c-1.4-1.1-5.6-4.1-8.6-4.1c-1.8,0-4.3,0.5-6.3,1c2.2-1.2,4.9-2.4,7.1-2.4
			c3.5,0,8.2,2.9,8.3,2.9l1,0.6l0.1-1.2l0.5-11.2V147l-0.2-0.2l-4.5-4.7L274.3,139.9 M274.1,138.8l-2.3,3.3l4.9,5.1l-0.5,11.2
			c0,0-4.9-3-8.6-3s-8.9,3.1-10.6,4.8c0,0,6.5-1.9,9.9-1.9s8.7,4.3,8.7,4.3l6.6-6.5v-10.6L274.1,138.8L274.1,138.8z"/>
		<path class="st0" d="M270.9,141.3l5.8,6l-0.5,11.2c0,0-4.9-3-8.6-3s-8.9,3.1-10.6,4.8c0,0,6.5-1.9,9.9-1.9s8.7,4.3,8.7,4.3
			l6.6-6.5v-10.6l-8.8-7.6L270.9,141.3z"/>
		<path class="st0" d="M161.9,107.8l-6.5,9.1l9.1,6.5l6.5-9.1L161.9,107.8z M164.2,121.6l-7.1-5l5-7.1l7.1,5L164.2,121.6z"/>
		<path class="st0" d="M162.6,112.5l3.6,2.6l-2.6,3.6l-3.6-2.6L162.6,112.5 M162.5,111.5l-3.4,4.8l4.8,3.4l3.4-4.8L162.5,111.5
			L162.5,111.5z"/>
		
			<rect x="160.3" y="112.5" transform="matrix(0.5815 -0.8135 0.8135 0.5815 -25.6705 181.0919)" class="st0" width="5.8" height="5.9"/>
		<g>
			<polygon class="st0" points="247.3,137.5 251.2,133.6 242.2,125.4 232.2,133.2 232.2,154.8 238.4,160.5 241.2,157.9 238.2,154.8 
				238.3,130.1 			"/>
		</g>
		<path class="st0" d="M286.3,123.4c0.6-0.7,1-1.7,1-2.7c0-2.3-1.8-4.1-4.1-4.1s-4.1,1.8-4.1,4.1c0,1,0.4,2,1,2.7
			c-1,1.5-2.6,2.7-5.3,2.7c-3.9,0-5.6-1.6-5.6-1.6l-1.7-1.7l-11.2,8.8v11.9l6.1,6.1l-7.6,8.8c-0.1,0.1-0.2,0.2-0.2,0.2l-6.9,7.1
			l10-3c1.7-0.5,6.6-1.8,9.1-1.8c1.7,0,5.2,2.2,7,3.7l1.8,1.5l9-8.9v-13l-9.2-7.8l3.5-4.1l0,0c0.4-0.2,0.9-0.5,1.3-0.8
			C283.5,129.5,285.6,126.6,286.3,123.4z M269.5,143.5l4.4,4.8l-0.3,6c-1.9-0.8-4.1-1.5-6.2-1.5c-2.6,0-5.7,1.2-8.3,2.6L269.5,143.5
			z M283.5,144.9v11.9l-7.9,7.7l-1-0.8c-1.9-1.5-5.7-4-7.8-4c-3.2,0-9.4,1.9-9.5,1.9l-5.3,1.6l3-3l0.8-0.8l0.1-0.1
			c1.8-1.8,7.4-5.2,11.6-5.2c2.5,0,5.4,1.2,7.3,2.1l0.4-8.4l-5-5.1h-0.1l4.5-5.3L283.5,144.9z M269.6,141.2l-2.9-2.4v-4.6
			c1.5,0.2,3.2,0.4,5,0.4c1.3,0,2.8-0.3,4.4-0.8L269.6,141.2z M278,131.6L278,131.6L278,131.6c-2.3,1.2-4.6,1.8-6.3,1.8
			c-2.3,0-4.7-0.3-6.2-0.5v6.6l3.3,2.8l-5.6,6.5l-5.7-5.7v-10.8l9.9-7.8l0.9,0.9c0.1,0.1,2.1,2,6.5,2c3.8,0,5.8-2.2,6.9-4.2
			c-0.8-0.5-1.3-1.4-1.3-2.4c0-1.6,1.3-2.9,2.9-2.9s2.9,1.3,2.9,2.9c0,0.8-0.3,1.6-0.9,2.1C284.5,126.9,281.3,129.9,278,131.6z"/>
		<path class="st0" d="M175.7,153.8l-3.3,3.4l-3.9-3.6v-21.7l4.2-4.6l-1-1l-4,4.3l-9.3-6.6l-0.5-0.5l-9.4,10.6l1.1,0.9l2.7-3
			l5.1,3.9v20.5l-4.1,4.5l1,1l3.8-4.1l8.4,6.5l0.5,0.5l9.8-10L175.7,153.8z M153,131.2l5.1-5.8l9.1,6.5v22.2l4.2,3.9l-4.9,4.9
			l-8.1-6.3v-21.2L153,131.2z"/>
		<path class="st0" d="M195.3,158l-4.8-4.4v-22.3l-10.1-7.2l-0.5-0.5l-8.6,9.3l1,1l1.7-1.9l5.2,4v20.6l-3.3,3.6l1,1l3.1-3.3l8.6,6.7
			L195.3,158z M180.6,156.7v-21.2l-5.6-4.3l0.6-0.7l4.6-5l9.1,6.5v22.2l4.2,3.9l-4.9,4.9L180.6,156.7z"/>
		<path class="st0" d="M227.1,154.5l-2.3,2.5l-3.7-3.5v-22.3l2.8-3.7l-1.1-0.9l-2.8,3.7l-9.5-6.8l-1.6,1.7c-0.5,0.6-3.1,3.4-3.3,3.7
			l-1.8,2.1l6.2,4.7v21.2l9.4,7.3l0,0l0.3,0.3l8.6-9.3L227.1,154.5z M222.1,160l-2.9,2.9l-8.1-6.3v-21.2l-5.6-4.3l1-1.1
			c0.2-0.3,3-3.3,3.3-3.7l0.8-0.9l9.2,6.6v22.2l4.1,3.8L222.1,160z"/>
		<g>
			<polygon class="st0" points="230.8,155.5 230.8,132.5 242.3,123.5 253.1,133.3 253.6,132.9 254.1,133.3 254.6,133.8 247.5,141 
				247.5,141 255,133.5 242.3,121.9 229.5,131.9 229.5,156 230.1,156.5 231,155.7 			"/>
			<polygon class="st0" points="240.9,135.7 246.4,140.1 247.3,139.2 239.7,133.1 239.7,146.9 240.9,145.6 			"/>
			<polygon class="st0" points="239.6,148.9 239.6,154.3 243.2,157.9 238.5,162.5 232,156.6 231.2,157.5 238.5,164.2 244.9,157.9 
				240.9,153.8 240.9,147.7 			"/>
			<polygon class="st0" points="247.4,139.3 253.3,133.5 253.1,133.3 247.3,139.2 			"/>
			<polygon class="st0" points="240.9,145.6 240.9,146.7 246.9,140.5 246.4,140.1 			"/>
			<polygon class="st0" points="239.7,146.9 239.6,147.9 240.9,146.7 240.9,145.6 			"/>
			<polygon class="st0" points="247.4,139.3 247.3,139.2 246.4,140.1 246.9,140.5 254.1,133.3 253.6,132.9 253.1,133.3 253.3,133.5 
							"/>
			<polygon class="st0" points="226.9,160.7 227.4,161.2 231.2,157.5 230.6,157 			"/>
			<polygon class="st0" points="231.5,156.1 230.6,157 231.2,157.5 232,156.6 			"/>
			<polygon class="st0" points="240.9,146.7 240.9,147.7 247.5,141 246.9,140.5 			"/>
			<polygon class="st0" points="254.1,133.3 246.9,140.5 247.5,141 254.6,133.8 			"/>
			<polygon class="st0" points="239.6,147.9 239.6,148.9 240.9,147.7 240.9,146.7 			"/>
			<polygon class="st0" points="230.1,156.5 226.4,160.3 226.9,160.7 230.6,157 			"/>
			<polygon class="st0" points="231.5,156.1 231,155.7 230.1,156.5 230.6,157 			"/>
		</g>
		<g>
			<line class="st0" x1="243.7" y1="158" x2="248.3" y2="153.3"/>
			
				<rect x="242.7" y="154.9" transform="matrix(0.7078 -0.7064 0.7064 0.7078 -38.0431 219.2633)" class="st0" width="6.6" height="1.4"/>
		</g>
	</g>
</g>
</svg>
