<svg id="Layer_1" data-name="Layer 1" xmlns="http://www.w3.org/2000/svg" viewBox="0 0 553.53 72.43"><defs><style>.cls-1{fill:#fff;}.cls-2{fill:#231f20;}.cls-3{fill:none;}</style></defs><title>McIvorTimes_White</title><path class="cls-1" d="M6.16,23.15h0C4.71,23.15,0,22.53,0,14.57,0,5.57,8.53,0,16.43,0c3.74,0,7.34,1.48,11.14,3.06s7.71,3.19,11.76,3.19c7.81,0,12.07-2.79,12.11-2.81a.88.88,0,0,1,1.25,1.17c-.33.56-8.16,13.69-18.94,13.69-5.64,0-9.3-2-12.84-3.94-3.1-1.69-6-3.29-10.06-3.29-3.49,0-5.26,1.25-5.26,3.72a4.06,4.06,0,0,0,4.05,3.84c2.28,0,2.63-4.09,2.63-4.13,0-.46.42-.4.88-.4h0c.47,0,.85,0,.86.43.24,7.93-7.15,8.78-7.22,8.79A1.31,1.31,0,0,0,6.16,23.15ZM16.43,1.75c-7.06,0-14.68,4.9-14.68,12.82,0,6.16,3.08,6.83,4.41,6.83h0c.21,0,.36,0,.38,0a7.72,7.72,0,0,0,2.68-1,5.8,5.8,0,0,1-5.39-5.58c0-1.65.69-5.48,7-5.48,4.48,0,7.74,1.79,10.9,3.51,3.35,1.83,6.81,3.73,12,3.73,7,0,12.82-6.46,15.63-10.21A29.05,29.05,0,0,1,39.33,8c-4.4,0-8.48-1.69-12.43-3.32C23.26,3.17,19.83,1.75,16.43,1.75Z"/><path class="cls-1" d="M2.74,13.48S4.93,3.4,15.78,3.4,27.94,9.53,39.22,9.53a28,28,0,0,0,6.89-1.17s-4.46,7.08-12.24,7.08S17.43,7.59,11.18,7.59,2.74,13.48,2.74,13.48Z"/><path class="cls-1" d="M29,55.71a27.65,27.65,0,0,1-11-2.47C11.54,50.18,8.11,44.58,8.06,37c0-8,3.14-14,9.06-17.29a24.44,24.44,0,0,1,11.25-2.82h.48a.69.69,0,0,1,.64.51.7.7,0,0,1-.28.77c-.08.06-8.67,6.07-8.67,16.18,0,11.38,7.48,13.76,13.75,13.76,7.75,0,14.71-5.69,14.78-5.75a.7.7,0,0,1,.9,0,.71.71,0,0,1,.16.89C43.78,54.45,29.79,55.66,29.2,55.7ZM26.75,18.4c-5.08.4-17.28,2.87-17.28,18.53C9.57,53.71,27,54.1,29,54.1h.11c.09,0,10.92-.86,17.53-8.43-2.91,1.72-7.43,3.85-12.37,3.85-9.78,0-15.16-5.36-15.16-15.14C19.13,26.28,24.06,20.8,26.75,18.4Z"/><path class="cls-1" d="M22.9,20.38S18,24.1,18,35.5s5.8,15.55,19,15.55a22.76,22.76,0,0,1-8.65,1.65c-5,0-17.09-3-17.09-16.38S22.9,20.38,22.9,20.38Z"/><rect class="cls-1" x="44.71" y="12.08" width="1.4" height="33.58"/><path class="cls-1" d="M31.2,49.25l-1.52-.32,1-.84c.88-1,2.29-3.09,2.29-4.16V25c0-.1,1-9.38,8.16-9.57l.72,0v.72c0,1,.26,23.87,0,26.17S38.16,49.25,31.2,49.25Zm3.17-24.11V43.93a8,8,0,0,1-1.68,3.83c5-.56,7.55-3.84,7.75-5.59s.1-16.84,0-25.24c-2.1.29-3.73,1.65-4.87,4A14.41,14.41,0,0,0,34.37,25.14Z"/><path class="cls-1" d="M39.27,18.79c-.55.3-3.85,2.81-3.85,5.95,0,1.24.36,20.58-.35,21.15a5.41,5.41,0,0,0,4.2-5.07Z"/><path class="cls-1" d="M55.44,10.05c-.18,0,3,3.12,3,5.06v3.12a4,4,0,0,0-2.07-.6c-1.19,0-4.18,2.75-4.18,2.75s6.2-1,6.25,2.74V46l-1.72,1.59L62.13,53l4.22-4.49L64,46V14s1.54-5.24,2.82-5.59c0,0-3.48-.57-6.69,4.57A7,7,0,0,0,55.44,10.05Z"/><path class="cls-1" d="M70.46,5.61a9.71,9.71,0,0,0-2.09-.2A11.82,11.82,0,0,0,59.84,9a9.18,9.18,0,0,0-6.18-2.33,10.59,10.59,0,0,0-1.85.16l-1.27.23.88.94c1.08,1.18,3.77,4.53,4.19,6.84-1.81.62-7.09,3-7,9.15l0,1.26,1.07-.68A10.2,10.2,0,0,1,53.84,23c1.13,0,1.58,1.33,1.67,1.65v20.2l-2.18,2.81-4.67,5,1,1,4.19-4.53,8,8.13,7.72-8.67-3-3.75.09-30c.78-2.7,2.5-7.15,3.85-7.9L72.25,6ZM65.4,14.52l-.12,30.79,2.54,3.21-5.94,6.67L54.81,48l2.11-2.73V24.54l0-.16c0-.12-.68-2.81-3.06-2.81a9.06,9.06,0,0,0-3.74,1.17c.67-5.27,6.18-6.66,6.43-6.72l.55-.13v-.56c0-2.42-2.4-5.62-3.73-7.25h.32a7.55,7.55,0,0,1,5.65,2.39l.53.65.55-.64a10.29,10.29,0,0,1,8-3.66h.38C67,9.2,65.58,13.89,65.4,14.52Z"/><path class="cls-1" d="M77.61,27.08V56.73c0,6.29-4.79,12.71-4.79,12.71C82.45,66.27,84,54.7,84,54.7V24.48l-7.12-6.56-4.05,4.35Z"/><path class="cls-1" d="M76.68,13.85,65.8,25.09l1,1,2.7-2.79L74.14,28V57.5a18,18,0,0,1-6.86,13l-.93.62,1,.57a8.13,8.13,0,0,0,4,.76h.12C85.18,70.12,87,54,87,53.85v-30Zm8.9,39.89c-.09.78-2,15.17-14.32,17.29a10.83,10.83,0,0,1-2.13-.21,19.81,19.81,0,0,0,6.42-13.26V27.4l-5.06-5.13,6.22-6.43,8.87,8.63Z"/><polygon class="cls-1" points="107.79 30.7 111.69 26.8 102.69 18.63 92.66 26.46 92.66 48.09 98.91 53.78 101.64 51.1 98.69 48.09 98.78 23.38 107.79 30.7"/><path class="cls-1" d="M102.69,18.63l-10,7.83V48.09l6.25,5.69,2.73-2.68-3-3,.09-24.71,9,7.32,3.9-3.9-9-8.17Z"/><polygon class="cls-1" points="91.25 48.71 91.25 25.77 102.76 16.79 113.55 26.58 114.03 26.1 114.53 26.59 115.03 27.09 107.96 34.23 107.98 34.24 115.52 26.7 102.82 15.18 90.02 25.17 90.02 49.26 90.59 49.77 91.46 48.9 91.25 48.71"/><polygon class="cls-1" points="101.39 28.9 106.86 33.34 107.73 32.46 100.17 26.33 100.12 40.14 101.36 38.89 101.39 28.9"/><polygon class="cls-1" points="100.12 42.15 100.1 47.52 103.62 51.11 98.94 55.72 92.5 49.85 91.63 50.72 98.98 57.41 105.36 51.13 101.33 47.02 101.35 40.9 100.12 42.15"/><polygon class="cls-1" points="107.89 32.59 113.73 26.75 113.55 26.58 107.73 32.46 107.89 32.59"/><polygon class="cls-1" points="101.36 38.89 101.36 39.9 107.41 33.78 106.86 33.34 101.36 38.89"/><polygon class="cls-1" points="100.12 40.14 100.12 41.15 101.36 39.9 101.36 38.89 100.12 40.14"/><polygon class="cls-1" points="107.89 32.59 107.73 32.46 106.86 33.34 107.41 33.78 114.53 26.59 114.03 26.1 113.55 26.58 113.73 26.75 107.89 32.59"/><polygon class="cls-1" points="87.4 53.99 87.91 54.49 91.63 50.72 91.11 50.25 87.4 53.99"/><polygon class="cls-1" points="91.98 49.37 91.11 50.25 91.63 50.72 92.5 49.85 91.98 49.37"/><polygon class="cls-1" points="101.36 39.9 101.35 40.9 107.96 34.23 107.41 33.78 101.36 39.9"/><polygon class="cls-1" points="114.53 26.59 107.41 33.78 107.96 34.23 115.03 27.09 114.53 26.59"/><polygon class="cls-1" points="100.12 41.15 100.12 42.15 101.35 40.9 101.36 39.9 100.12 41.15"/><polygon class="cls-1" points="90.59 49.77 86.9 53.5 87.4 53.99 91.11 50.25 90.59 49.77"/><polygon class="cls-1" points="91.98 49.37 91.46 48.9 90.59 49.77 91.11 50.25 91.98 49.37"/><line class="cls-1" x1="104.32" y1="51.08" x2="109.01" y2="46.39"/><rect class="cls-1" x="103.35" y="48.03" width="6.64" height="1.41" transform="translate(-3.24 89.64) rotate(-44.97)"/><path class="cls-2" d="M141,15.6V36.79c0,3.53-3.53,6.12-5.32,7.2V33.51a3,3,0,0,0-2.93-2.23h-.51a10.13,10.13,0,0,0-3.36.61,5.52,5.52,0,0,1,4.33-2.12H135v-.71h.69v-9L141,15.6m.7-1.5L135,19.73v9.32h-1.76a6,6,0,0,0-5.81,4.29A10,10,0,0,1,132.27,32l.47,0A2.22,2.22,0,0,1,135,33.63V45.18s6.72-3.18,6.72-8.39V14.1Z"/><path class="cls-1" d="M135,19.73v9.32h-1.76a6,6,0,0,0-5.81,4.29A9.86,9.86,0,0,1,132.74,32,2.22,2.22,0,0,1,135,33.63V45.18s6.72-3.18,6.72-8.39V14.1Z"/><path class="cls-3" d="M152,20.09v10a10,10,0,0,0-4.69,3.3l-1.84,3.27L149,35.37a.24.24,0,0,1,.13,0,6.94,6.94,0,0,1,3,1.52V48.54l9,8.74,5.59-5.47-5.24-5.76V34.69a8.12,8.12,0,0,0,3.93-2.16,5.45,5.45,0,0,0,.93-1.36l1.35-3.83-3.51,2.14a1.08,1.08,0,0,1-.54.1,5.73,5.73,0,0,1-1.73-.35l.25-14.55L151,4l-6.78,6.13v2.32Zm7.41-4.22-.27,15.18.81.39c.1,0,.54.25,1.16.46a6.07,6.07,0,0,1-1.11.21l-1.26.14V47.14l4.15,4.56-1.69,1.66-6.21-6V35.56l-.48-.42a15.11,15.11,0,0,0-2.82-1.9,3.5,3.5,0,0,1,1.54-.56h0l1.58.2v-14l-7.69-7.42L151,7.88Z"/><path class="cls-3" d="M146.25,32.75a10.93,10.93,0,0,1,4.53-3.57V20.62l-6.54-6.34V36.55Z"/><path class="cls-3" d="M156.06,18.37v15.9l-.78-.09.05,0,.9.79V46.82L161,51.41l-3.45-3.8V31.15l.4,0,.26-14.71L151,9.57l-2.07,1.92Z"/><path class="cls-3" d="M133.45,19.23v8.58h-.36a7.48,7.48,0,0,0-7.16,5.3l-1,3.52L128,34.69a8.58,8.58,0,0,1,4.47-1.13c.67,0,.89.3,1,.42V47.57l2-1C135.79,46.48,143,43,143,37V13.09l-1-1Z"/><path class="cls-1" d="M144.24,36.55V14.28L143,13.09V37c0,6-7.22,9.53-7.53,9.67l-2,1V34c-.07-.12-.29-.38-1-.42A8.58,8.58,0,0,0,128,34.69l-3.12,1.94,1-3.52a7.48,7.48,0,0,1,7.16-5.3h.36V19.23L142,12.1l-.89-.86h0l-8.89,7.42v8a8.65,8.65,0,0,0-7.46,6.14l-1.87,6.52,5.8-3.55a7.51,7.51,0,0,1,3.56-1V48.37l3.77-.63c.31-.15,7.1-3.44,8.1-9.32l-1.05.37Z"/><polygon class="cls-1" points="141.99 12.1 143.01 11.25 144.24 10.14 144.24 8.62 141.1 11.24 141.1 11.24 141.99 12.1"/><path class="cls-1" d="M144.24,36.55l-1.18,2.24,1.05-.37a8.74,8.74,0,0,0,.13-1.47Z"/><polygon class="cls-1" points="143.01 13.09 144.24 14.28 144.24 12.46 143.01 11.25 143.01 13.09"/><path class="cls-2" d="M151,6.91l9.12,8.66-.26,14.59v.45l.41.19a9.72,9.72,0,0,0,3,.87,6.8,6.8,0,0,1-3.16,1.14l-.63.07v14l.18.2,4.24,4.66-2.67,2.61-6.91-6.7V35.88l-.25-.21a12,12,0,0,0-3.85-2.27,6,6,0,0,1,3-1.43h.15l.79.1V19.2l-.21-.21-7.8-7.52L151,6.91m0-1-5.92,5.52,8.33,8V31.28h-.24c-1.74,0-4.3,2.18-4.63,2.77a1.72,1.72,0,0,1,.6-.1c1.85,0,4.44,2.26,4.44,2.26V47.94l7.63,7.38,3.63-3.56-4.69-5.17V33.51a7.09,7.09,0,0,0,4.33-2,4.23,4.23,0,0,0,.66-1,2.25,2.25,0,0,1-1.42.41,8.75,8.75,0,0,1-3.16-.82l.27-14.9L151,5.94Z"/><path class="cls-1" d="M145.09,11.46,151,5.94l9.83,9.33-.27,14.9s3.17,1.53,4.58.41a4.23,4.23,0,0,1-.66,1,7.09,7.09,0,0,1-4.33,2V46.59l4.69,5.17-3.63,3.56-7.63-7.38V36.2s-3.22-2.8-5-2.16a7.56,7.56,0,0,1,4.87-2.76V19.49Z"/><path class="cls-2" d="M171.83,9.28l7.06,6.66V46.51l.21.21,3.51,3.39-3.05,3.29L173,47.23V17.37l-.21-.21-4.35-4.35,3.35-3.53m0-1-4.32,4.53,4.84,4.84V47.53l7.26,6.87,4-4.31-4-3.88V15.64l-7.78-7.35Z"/><polygon class="cls-1" points="167.5 12.82 171.81 8.29 179.59 15.64 179.59 46.21 183.6 50.09 179.59 54.4 172.33 47.53 172.33 17.66 167.5 12.82"/><path class="cls-2" d="M195.76,6.23A13.18,13.18,0,0,0,198.91,8a6.49,6.49,0,0,1-1.33.12,16.54,16.54,0,0,1-3.51-.45c.58-.47,1.16-.95,1.69-1.41M192,9.29l0,10.91v.35l.29.21,2.54,1.89-.78.86-3.51-2.29V10.4L192,9.29m3.75-4c-2.29,2-5.87,4.75-5.87,4.75V21.61l4.34,2.81,1.7-1.87-3.16-2.35L192.72,9l1.05-.7a17.44,17.44,0,0,0,3.81.51,3.75,3.75,0,0,0,3-1,13.93,13.93,0,0,1-4.81-2.52Z"/><path class="cls-1" d="M200.58,7.82a13.93,13.93,0,0,1-4.81-2.52c-2.29,2-5.87,4.75-5.87,4.75V21.61l4.34,2.81,1.7-1.87-3.16-2.35L192.72,9l1.05-.7S199.17,9.7,200.58,7.82Z"/><path class="cls-2" d="M221,5.45c1.57,0,4.66,1.19,7.66,2.34,3.38,1.3,6.57,2.52,8.53,2.52a15.37,15.37,0,0,0,6.42-1.77,7.1,7.1,0,0,1-7.21,5,13.69,13.69,0,0,1-6.8-1.46,14.42,14.42,0,0,0-7-1.53c-3.32,0-9.6,1.23-9.6,5.89a6.18,6.18,0,0,0,2.35,5.11c-1.92-.71-3.93-2.47-3.93-6.72A8.64,8.64,0,0,1,215,7.42a10.9,10.9,0,0,1,6-2m0-.71c-3.43,0-10.29,2.26-10.29,10.12,0,6.11,4,7.6,6.44,7.84l.36,0a3.74,3.74,0,0,0,1.64-.37s-5.45-.42-5.45-5.88c0-1.76,1.76-5.19,8.89-5.19s6.33,3,13.81,3,8.27-7.12,8.27-7.12-3.87,2.46-7.48,2.46S224.42,4.74,221,4.74Z"/><path class="cls-1" d="M219.14,22.35s-5.45-.42-5.45-5.88c0-1.76,1.76-5.19,8.89-5.19s6.33,3,13.81,3,8.27-7.12,8.27-7.12-3.87,2.46-7.48,2.46S224.42,4.74,221,4.74,210.7,7,210.7,14.86c0,6.11,4,7.6,6.44,7.84A3.8,3.8,0,0,0,219.14,22.35Z"/><path class="cls-2" d="M232.18,21.93c-1.24,4-.82,12.19-.64,15.73,0,.72.07,1.3.07,1.54a5.24,5.24,0,0,1-.29,1.59,9.37,9.37,0,0,0-4.7-5.57,16.22,16.22,0,0,0-4-1.56,12.14,12.14,0,0,1,1.75-1.78l.23-.19,0-.3c.06-.92-1.08-1.65-2.34-2.19a17.32,17.32,0,0,1,5.77-1l.67,0v-.68c0-1.81,1.91-3.87,3.3-5.38l.15-.16m1.46-2.22a6.12,6.12,0,0,0-1.85,1.6C230.28,23,228,25.25,228,27.47c0,0-6.39.24-7,2,0,0,3,1,2.93,1.87,0,0-2.17,1.82-2.34,2.82,0,0,9.38,1.41,9.38,9.15a9.75,9.75,0,0,0,1.35-4.11c0-1.53-.95-12.69.6-17.25.33-.95.76-2,.74-2l0,.08h0c.12-.24.12-.34,0-.34Z"/><path class="cls-1" d="M233.61,20.05c.4-.81-.56-.1-1.82,1.26C230.28,23,228,25.25,228,27.47c0,0-6.39.24-7,2,0,0,3,1,2.93,1.87,0,0-2.17,1.82-2.34,2.82,0,0,9.38,1.41,9.38,9.15a9.75,9.75,0,0,0,1.35-4.11c0-1.53-.95-12.69.6-17.25C233.29,20.85,233.81,19.65,233.61,20.05Z"/><path class="cls-2" d="M261.09,21.8l5.48,4.14V46.2l.23.21,6.54,6-2.25,2.45-9.45-8V27.05l-.22-.21-2.61-2.46,2.28-2.58m-.09-1-3.17,3.58,3.11,2.93V47.18l10.2,8.68,3.19-3.46-7.06-6.51V25.59L261,20.84Z"/><polygon class="cls-1" points="257.83 24.42 261 20.84 267.27 25.59 267.27 45.89 274.33 52.4 271.14 55.86 260.94 47.18 260.94 27.36 257.83 24.42"/><path class="cls-2" d="M275.52,21.82l5.66,4.52v17.8l-3.93,4V28.07l-.2-.2-3.55-3.71,2-2.34m-.09-1-2.88,3.35,4,4.16V49.88l5.34-5.46V26l-6.45-5.17Z"/><polygon class="cls-1" points="272.55 24.19 275.43 20.84 281.88 26 281.88 44.42 276.54 49.88 276.54 28.35 272.55 24.19"/><path class="cls-2" d="M302.77,20.36l8.76,8.13v17.3l-3,2.94V30l-.24-.21L300,22.57l2.75-2.21m-6.28,5V47l.33.2,8,5.07L302,55l-9.43-7.39v-19l3.91-3.13m6.31-5.95-10.92,8.75V47.91l10.18,8,10.18-9.81V28.19l-9.44-8.75Zm2.52,32.31L297.2,46.6V25l2.34-1.95,8.24,7.21V49.57l-2.46,2.18Z"/><path class="cls-1" d="M302.8,19.44l-10.92,8.75V47.91l10.18,8,10.18-9.81V28.19Zm5,30.13-2.46,2.18L297.2,46.6V25l2.34-1.95,8.24,7.21Z"/><path class="cls-2" d="M328,20.9l5.43,5.17v21l.21.21,3.83,3.78L335,54.17,329,48.47V28.79l-.24-.21-4.49-3.91L328,20.9m0-1-4.64,4.8,5,4.4V48.77L335,55.22,338.37,51l-4.28-4.22v-21l-6.16-5.86Z"/><polygon class="cls-1" points="323.29 24.71 327.93 19.91 334.09 25.77 334.09 46.77 338.37 50.99 335.02 55.22 328.34 48.77 328.34 29.11 323.29 24.71"/><path class="cls-1" d="M341.8,16.58l-6.57,8.33,8.85,7.92,6.82-8ZM344,31.07l-7-6.31,5-6.38,7.23,6.56Z"/><path class="cls-2" d="M342.21,21.46l4,3.67-2.49,2.92-4-3.54,2.41-3.05m-.09-1-3.28,4.17,5,4.46,3.41-4-5.11-4.64Z"/><polygon class="cls-1" points="338.84 24.6 342.12 20.43 347.23 25.07 343.82 29.06 338.84 24.6"/><path class="cls-1" d="M132.39,48.68a8.23,8.23,0,0,1,4.16,1,32.1,32.1,0,0,0,6.92,1.58,10.75,10.75,0,0,0,3-.91,10.26,10.26,0,0,1-8.8,6.38,8.8,8.8,0,0,1-3.46-.77,9.46,9.46,0,0,0-3.8-.77c-3.19,0-4.39.59-4.93.86s-3.15,2.27-3.15,2.27a33,33,0,0,1,1.74-4.46c.75-1.31,3.33-5.18,8.32-5.18m-2.89,3.71.91,0a12.14,12.14,0,0,1,4.81,1,6.33,6.33,0,0,0,2.45.57,4.51,4.51,0,0,0,1.67-.42,12.3,12.3,0,0,1-4-1.28,5.64,5.64,0,0,0-5.82.18m2.89-5.12c-5.58,0-8.53,4.12-9.54,5.9A32.38,32.38,0,0,0,121,57.89l-1.33,4.23,3.53-2.68c1.18-.9,2.64-2,2.95-2.14s1.38-.7,4.28-.7a8,8,0,0,1,3.3.68,10.17,10.17,0,0,0,4,.86,10.7,10.7,0,0,0,7.92-3.8,10.17,10.17,0,0,0,2.22-3.58l.92-3-2.85,1.3a9.19,9.19,0,0,1-2.41.78,32.35,32.35,0,0,1-6.3-1.44,9.68,9.68,0,0,0-4.78-1.14Z"/><path class="cls-2" d="M132.39,50.79a6.23,6.23,0,0,1,3.24.79,13.39,13.39,0,0,0,6,1.42,8,8,0,0,1-3.94,1.62A6.92,6.92,0,0,1,135,54a11.33,11.33,0,0,0-4.55-.91,20,20,0,0,0-3.17.23,7.53,7.53,0,0,1,5.15-2.52m0-.7c-4.27,0-7.13,4.53-7.13,4.53s1.41-.84,5.15-.84,4.62,1.54,7.26,1.54,5.94-3,5.94-3c-8.23,0-7-2.26-11.22-2.26Z"/><path class="cls-1" d="M125.26,54.62s2.86-4.53,7.13-4.53,3,2.26,11.22,2.26c0,0-3.3,3-5.94,3s-3.52-1.54-7.26-1.54S125.26,54.62,125.26,54.62Z"/><path class="cls-1" d="M201.33,5.29a11.2,11.2,0,0,1-3.7-1.86l-1.74-1.74L194,3.31c-2.2,1.92-5.7,4.62-5.74,4.65l-1,.79v14l-1.62,1.82,1,.88,1.57-1.77,6.49,4.21,5.17-5.7,0,0,1.59-1.79-.86-.76-1.66,1.87-3.5-2.6,0-7.58a16.88,16.88,0,0,0,2.21.16h0c2.38,0,4.1-.69,5.11-2l2.28-3Zm.37,3.38c-.76,1-2.15,1.53-4.12,1.53h0a18.32,18.32,0,0,1-3.45-.38l.05,9.67L198,22.34l-3.55,3.91-6-3.88v-13l.55-.42s3.57-2.76,5.8-4.7l1-.87.93.93A12.13,12.13,0,0,0,201,6.47l1.94.58Z"/><path class="cls-1" d="M247.84,14.06c-9.91,3.53-11,18.68-11,19.33V50c0,1.77-1.72,4.56-2.81,5.9l0,0-.67-.78c-1.11-1.22-2.45-2.68-3.9-4.15l3.82-6.31A12,12,0,0,0,235,39.2c0-.28,0-.89-.07-1.71-.16-3.12-.59-11.4.53-14.69.19-.56.42-1.14.56-1.49l.17-.46c.34-.92,1.24-2.93,1.79-4a10.59,10.59,0,0,0,9.35-9.38L247.89,2l-4.65,3A13.82,13.82,0,0,1,237.18,7c-1.34,0-4.66-1.28-7.33-2.3C226.27,3.29,223.18,2.1,221,2.1c-5,0-12.93,3.47-12.93,12.76,0,7.09,4.56,10.05,8.83,10.47l.61,0a6.46,6.46,0,0,0,2.9-.69l7.91-4.27-9-.69a3.09,3.09,0,0,1-3-3.24c0-.54,1.06-2.55,6.25-2.55a11.06,11.06,0,0,1,5.61,1.23,16.07,16.07,0,0,0,5.68,1.64,14.2,14.2,0,0,0-4,2.74l-.28.29A17.88,17.88,0,0,0,225.89,25c-4.17.41-6.65,1.62-7.38,3.59l-.93,2.55,2.23.74A4.74,4.74,0,0,0,219,33.7l-.46,2.65,2.66.42c.29,0,7.14,1.19,7.14,6.54v6.6c-3.8-3.75-8.12-7.32-10.91-7.32-3.92,0-8.45,5.61-8.45,9.26a13.15,13.15,0,0,0,1.64,5.9L213.1,62l2.17-4.45c.06-.12,1.45-2.9,4.12-2.9.72,0,2.9,1.28,4.2,2,2.61,1.5,5.08,2.91,7.38,2.92l5.17.18c4.74.18,9.17-3.41,11.41-9.26a29.16,29.16,0,0,0,1.76-8.11V27.75a33.79,33.79,0,0,1,1.88-10.28l2-5.33ZM228.7,14a12.22,12.22,0,0,0-6.12-1.34c-5.92,0-7.48,2.47-7.48,3.78a4.38,4.38,0,0,0,4.16,4.47l4.67.42-4.12,2.23a5.29,5.29,0,0,1-2.31.53h0a4.1,4.1,0,0,1-.49,0c-1.81-.18-7.72-1.36-7.72-9.24,0-8.4,7.18-11.53,11.7-11.53,2,0,5.09,1.21,8.42,2.49,2.91,1.11,6.21,2.38,7.77,2.38,3.14,0,6.69-2.22,6.73-2.24l2.47-1.57-.32,2.91a9.4,9.4,0,0,1-9.67,8.38A16,16,0,0,1,228.7,14Zm-7.33,21.52-1.43-.22.25-1.42a5.8,5.8,0,0,1,1.66-2.57,12.64,12.64,0,0,0-1.3-.54l-1.38-.46.5-1.36c.73-2,4.39-2.65,7.14-2.85.56-2.11,2.32-4,3.67-5.47l.28-.3A17.57,17.57,0,0,1,235.42,17l.2-.07h.92c-.45.95-1.39,3.07-1.56,3.52,0,.14-.1.28-.15.42-.15.37-.39,1-.58,1.55-1.2,3.52-.78,11.67-.6,15.15,0,.79.07,1.38.07,1.65A10.86,10.86,0,0,1,232.17,44l-2.61,4.32v-5C229.56,36.89,221.7,35.6,221.37,35.55ZM250.05,17a34.85,34.85,0,0,0-2,10.71V42.29a27.23,27.23,0,0,1-1.68,7.8c-2,5.27-5.45,8.18-9.93,8.69L231,58.42s-2.68-.09-6.82-2.8c-1.64-1.07-3.81-2.18-4.8-2.18-3.48,0-5.17,3.44-5.24,3.59L213,59.44l-1.34-2.3a12,12,0,0,1-1.48-5.29c0-3.05,4-8,7.22-8,2.63,0,7.35,4.25,10.91,7.9l.4.4c1.54,1.6,2.84,3.05,3.59,3.91l1.62,1.88.8-1,.24-.26c.86-1.06,3.08-4.31,3.08-6.68V33.46c0-.61,1-15,10.2-18.24l2.85-1Z"/><path class="cls-2" d="M217.41,45.93c2.11,0,8,5.6,11.94,10a31.4,31.4,0,0,1-4.1-2.1c-2.21-1.27-4.3-2.46-5.85-2.46A7.9,7.9,0,0,0,213,54.94a8.65,8.65,0,0,1-.67-3.09c0-1.93,3.15-5.92,5.11-5.92m0-.7c-2.35,0-5.81,4.28-5.81,6.62a10.49,10.49,0,0,0,1.29,4.58s2.05-4.4,6.51-4.4C222.2,52,227.88,57,231,57h.26S221,45.23,217.41,45.23Z"/><path class="cls-2" d="M247.55,17.86A35.85,35.85,0,0,0,246,27.75V42.26c0,.13-.68,12.08-8.31,14.28,1.05-1.59,2.51-4.2,2.51-6.56V33.58c0-.56,1-12,7.38-15.72m1.18-1.32c-8.39,3-9.27,17-9.27,17V50c0,3.4-3.4,7.57-3.4,7.57,9.91-.89,10.62-15.26,10.62-15.26V27.75a36.31,36.31,0,0,1,2-11.21Z"/><path class="cls-1" d="M217.41,45.23c-2.35,0-5.81,4.28-5.81,6.62a10.49,10.49,0,0,0,1.29,4.58s2.05-4.4,6.51-4.4c2.87,0,8.8,5.22,11.85,4.93C231.25,57,221,45.23,217.41,45.23Z"/><path class="cls-1" d="M239.46,33.55V50c0,3.4-3.4,7.57-3.4,7.57,9.91-.89,10.62-15.26,10.62-15.26V27.75a36.31,36.31,0,0,1,2-11.21C240.34,19.53,239.46,33.55,239.46,33.55Z"/><path class="cls-1" d="M189.3,46l-2.92,3.1-4.15-4V15.48l4.61-4.61-1-1L181.71,14l-10-9.44-6.9,7.24L163,13.65,151.12,2.41l-10,8.83,3.14-2.62v1.52L151,4l11.23,10.67L162,29.23a5.73,5.73,0,0,0,1.73.35,1.08,1.08,0,0,0,.54-.1l3.51-2.14-1.35,3.83a5.45,5.45,0,0,1-.93,1.36,8.12,8.12,0,0,1-3.93,2.16V46.05l5.24,5.76-5.59,5.47-9-8.74V36.87a6.94,6.94,0,0,0-3-1.52.24.24,0,0,0-.13,0l-3.54,1.25,1.84-3.27a10,10,0,0,1,4.69-3.3v-10l-7.77-7.63v1.82l2.56,2.49V32h0a4,4,0,0,0-.58.76l-2,3.8V37a8.74,8.74,0,0,1-.13,1.47l2.77-1V48.9h1.26V37l1.09-.39a6.08,6.08,0,0,1,1.72.9V49L147,52.93l1,1L151.93,50l9,8.76.48.49,9.44-9.44,8.34,7.89.5.49L190.3,47ZM166,49l-3.15-3.46v-10A9.29,9.29,0,0,0,166,33.8ZM150.78,29.18a11.79,11.79,0,0,0-2.57,1.55V18.13l2.57,2.49Zm15.29-2.27-2.36,1.44a2.08,2.08,0,0,1-.46-.06l.23-13.44,1.16-1.15,1.43,1.43ZM167.73,51l-.27-.29V31.86c0-.07.07-.13.08-.17l2.09-7-2.3,1.4V16.39l2.36,2.36V48.67l.19.17Zm11.85,5.33-8.65-8.18V18.24l-5.4-5.39,6.22-6.55L181,15V45.62L185.54,50Z"/><path class="cls-1" d="M288.08,21.33l-1-1L283.59,24l-8.5-6.8-5.72,6.65-8.19-6.19-.52-.47,0,0h0l-4.93,5.57-3.82,4.28,1.05.94,2.23-2.51,3.13,3V47.72l-3.62,3.79,1,1L259,49l12.33,10.48,13.19-14V25.05ZM269.87,25.2l4,4.21v19l-4-3.72ZM283.29,45,271.22,57.75l-11.73-10V27.9L256,24.57l5-5.57,7.72,5.84V45.22l5.26,4.85,1.42,1.07.05-1.67-.24-20.55-4.48-4.68,4.6-5.34,8,6.43Z"/><path class="cls-1" d="M298.61,25.7V45.83L305.18,50l1.19-1.05v-18l-6.85-6Zm1.23,1.16,5.3,4.64V48.38l-.08.08-5.22-3.31Z"/><path class="cls-1" d="M318.49,23.33l-1-1-3.58,3.75L302.93,16l-13.69,11V48.85l-3.15,3.28,1,1,3.05-3.19,12.08,9.47,12.64-12.18V27.11Zm-4.84,23.35-11.5,11.08L290.47,48.6V27.51l12.4-9.93,10.78,10Z"/><path class="cls-1" d="M336.73,45.67v-21l-8.32-7.92-.51-.49h0l0-.05-8.38,8.7h0l-2.42,2.49,1,1,2.47-2.54,5.17,4.5V49.89l9.59,9.25,6.62-8.36Zm-1.56,11.64-8.24-8V29.75l-5.54-4.82,6.67-6.84,7.43,7.08v21l4.77,4.7Z"/><path class="cls-1" d="M406,9.53c-11.29,0-12.6-6.13-23.45-6.13s-13,10.08-13,10.08,2.18-5.89,8.43-5.89,14.92,7.85,22.7,7.85,12.23-7.08,12.23-7.08A28,28,0,0,1,406,9.53Z"/><path class="cls-1" d="M384.7,35.5c0-11.4,4.93-15.12,4.93-15.12s-11.72,2.52-11.72,15.94S390,52.7,395,52.7a22.84,22.84,0,0,0,8.66-1.65C390.51,51.05,384.7,46.9,384.7,35.5Z"/><path class="cls-1" d="M419.42,4.61a.87.87,0,0,0-.15-1.08.88.88,0,0,0-1.09-.09s-4.3,2.81-12.11,2.81c-4.05,0-8-1.63-11.76-3.19S386.91,0,383.17,0c-7.9,0-16.43,5.57-16.43,14.57,0,8,4.71,8.58,6.15,8.58h.64c.08,0,7.47-1,7.23-9a.81.81,0,0,0-.86-.78h0a.82.82,0,0,0-.87.76s-.35,4.48-2.63,4.48a4.07,4.07,0,0,1-4.06-3.84c0-2.47,1.77-3.72,5.26-3.72,4,0,7,1.6,10.06,3.29A40.72,40.72,0,0,0,393.19,17a23.87,23.87,0,0,0-9.33,2.73C377.93,23.05,374.8,29,374.8,37c0,7.54,3.48,13.14,9.94,16.2a27.65,27.65,0,0,0,11,2.47h.18c.59,0,14.57-1.25,20.93-12.4a.71.71,0,0,0-.16-.89.7.7,0,0,0-.9,0,28.64,28.64,0,0,1-3,2V12.65A38.23,38.23,0,0,0,419.42,4.61Zm-6,41.12c-6.61,7.58-17.45,8.49-17.53,8.49h-.11c-2,0-19.45-.45-19.55-17.22,0-15.67,12.2-18.2,17.27-18.6-2.68,2.4-7.62,7.9-7.62,16,0,9.78,5.39,15.16,15.17,15.16A25.07,25.07,0,0,0,413.4,45.73Zm-4.82-29.57v-.29a24.82,24.82,0,0,0,2.86-2V45.23a25.13,25.13,0,0,1-7.61,2.69c3-1.51,4.57-4,4.75-5.59C408.84,40,408.59,17.13,408.58,16.16Zm-1.4,26c-.2,1.75-2.74,5-7.75,5.59a8,8,0,0,0,1.67-3.83V25.14A14.57,14.57,0,0,1,402.32,21c1.13-2.39,2.77-3.75,4.86-4C407.27,25.33,407.38,40.45,407.18,42.17ZM399.7,25v18.9c0,1-1.25,2.87-2.14,4-5.26-.89-10.29-4.17-10.29-13.49,0-10.11,8.59-16.12,8.68-16.18a.67.67,0,0,0,.26-.34,21.61,21.61,0,0,0,4.27.42,12.78,12.78,0,0,0,2-.15A14.69,14.69,0,0,0,399.7,25Zm.78-8.48c-5.19,0-8.65-1.9-12-3.73-3.15-1.72-6.41-3.51-10.9-3.51-6.33,0-7,3.83-7,5.48A5.8,5.8,0,0,0,376,20.37a7.64,7.64,0,0,1-2.67,1s-.17,0-.39,0c-1.32,0-4.4-.67-4.4-6.83,0-7.92,7.62-12.82,14.68-12.82,3.39,0,6.83,1.42,10.47,2.93,3.95,1.63,8,3.32,12.43,3.32a29.05,29.05,0,0,0,10.05-1.66C413.31,10.09,407.46,16.55,400.48,16.55Z"/><path class="cls-1" d="M402.16,24.74c0,1.24.35,20.58-.35,21.15A5.39,5.39,0,0,0,406,40.82v-22C405.46,19.09,402.16,21.6,402.16,24.74Z"/><path class="cls-1" d="M424.61,22.69l6.76,4.84v22l.23.21,3.07,2.85-2,2-5.78-4.48V28.88l-.27-.21-4.37-3.36c.6-.66,1.6-1.78,2.37-2.62m-.1-.94-3.3,3.65,5,3.83V50.48l6.53,5.08,3-3-3.6-3.34V27.16l-7.57-5.41Z"/><path class="cls-1" d="M421.21,25.4l3.3-3.65,7.57,5.41V49.25l3.6,3.34-3,3-6.53-5.08V29.23Z"/><path class="cls-1" d="M446.68,22.69l6.77,4.84v22l.22.21,3.07,2.85-2,2L449,50.14V28.88l-.28-.21-4.37-3.36,2.37-2.62m-.1-.94-3.3,3.65,5,3.83V50.48l6.54,5.08,3-3-3.61-3.34V27.16l-7.57-5.41Z"/><path class="cls-1" d="M443.28,25.4l3.3-3.65,7.57,5.41V49.25l3.61,3.34-3,3-6.54-5.08V29.23Z"/><path class="cls-1" d="M472.08,48.09V25.81L461.5,18.24,459.92,20c-.52.57-3.11,3.42-3.34,3.7l-1.83,2.11,6.16,4.74V51.77l9.39,7.31,6.55-6.56Zm-1.88,9.35-8.06-6.27V29.92l-5.6-4.31,1-1.13,3.32-3.67.84-.93,9.18,6.56V48.63l4.23,3.92Z"/><path class="cls-1" d="M462,22.69l6.76,4.84v22l.22.21L472,52.61l-2,2-5.77-4.48V28.88l-.27-.21-4.37-3.36c.59-.66,1.6-1.78,2.37-2.62m-.11-.94s-3.07,3.39-3.29,3.65l5,3.83V50.48l6.53,5.08,3-3-3.61-3.34V27.16l-7.57-5.41Z"/><path class="cls-1" d="M458.58,25.4c.22-.26,3.29-3.65,3.29-3.65l7.57,5.41V49.25l3.61,3.34-3,3-6.53-5.08V29.23Z"/><path class="cls-1" d="M477.15,22.69l6.77,4.84v22l.22.21,3.07,2.85-2,2-5.77-4.48V28.88l-.28-.21-4.37-3.36,2.37-2.62m-.1-.94-3.3,3.65,5,3.83V50.48l6.54,5.08,3-3-3.61-3.34V27.16l-7.57-5.41Z"/><path class="cls-1" d="M473.75,25.4l3.3-3.65,7.57,5.41V49.25l3.61,3.34-3,3-6.54-5.08V29.23Z"/><path class="cls-1" d="M549.42,14.45a.76.76,0,0,1,.34,1.44l0,0-.07,0-.22,0a.76.76,0,1,1,0-1.52m-15.91,7.3A12.28,12.28,0,0,0,541,24,10,10,0,0,0,545,23.2a13.55,13.55,0,0,1-7,2.51,44.22,44.22,0,0,1-7.49-.8l-.78-.17,3.79-3m-3.85,3V34.84l.24.21,3.55,3-2.63,3.46-4.92-4.92V27.75l3.76-3m19.76-11a1.47,1.47,0,0,0,0,2.93,1.49,1.49,0,0,0,.43-.07A9.1,9.1,0,0,1,541,23.25c-5.17,0-7.51-2.41-7.51-2.41l-8.33,6.57v9.51l5.69,5.69L534.41,38l-4-3.46V25.59a42.83,42.83,0,0,0,7.63.83c3.53,0,11.43-3.29,12.09-9.9a1.46,1.46,0,0,0-.66-2.77Z"/><path class="cls-1" d="M550.89,15.21a1.47,1.47,0,1,0-1.47,1.47,1.49,1.49,0,0,0,.43-.07A9.1,9.1,0,0,1,541,23.25c-5.17,0-7.51-2.41-7.51-2.41l-8.33,6.57v9.51l5.69,5.69L534.41,38l-4-3.46V25.59a42.83,42.83,0,0,0,7.63.83c3.53,0,11.43-3.29,12.09-9.9A1.46,1.46,0,0,0,550.89,15.21Z"/><path class="cls-1" d="M540.53,34.37l7.08,6v10l-5.92,5.81c-1.44-1.09-5.62-4-8.63-4a31.4,31.4,0,0,0-6.35,1c2.17-1.25,4.92-2.39,7-2.39,3.45,0,8.22,2.89,8.27,2.91l1,.62.06-1.18.52-11.23v-.3l-.21-.22L539,36.61l1.58-2.24m-.14-1L538,36.68l4.87,5.11L542.39,53s-4.93-3-8.63-3-8.94,3.14-10.56,4.75c0,0,6.46-1.94,9.86-1.94s8.68,4.28,8.68,4.28l6.57-6.45V40l-7.92-6.69Z"/><path class="cls-1" d="M537.15,35.79l5.76,6L542.39,53s-4.93-3-8.63-3-8.94,3.14-10.56,4.75c0,0,6.46-1.94,9.86-1.94s8.68,4.28,8.68,4.28l6.57-6.45V40l-8.81-7.58Z"/><path class="cls-1" d="M428.12,2.31l-6.47,9,9.06,6.48,6.47-9.06Zm2.3,13.81-7.05-5,5-7,7,5Z"/><path class="cls-1" d="M428.9,7l3.61,2.59-2.58,3.61-3.61-2.58L428.9,7m-.16-1-3.41,4.76,4.76,3.4,3.41-4.76L428.74,6Z"/><rect class="cls-1" x="426.49" y="7.15" width="5.85" height="5.85" transform="translate(171.53 353.58) rotate(-54.45)"/><polygon class="cls-1" points="513.58 31.96 517.48 28.06 508.47 19.89 498.44 27.72 498.44 49.35 504.69 55.04 507.42 52.36 504.47 49.35 504.56 24.64 513.58 31.96"/><path class="cls-1" d="M552.54,17.89a4.11,4.11,0,1,0-6.22,0A6,6,0,0,1,541,20.61c-3.86,0-5.59-1.58-5.62-1.61l-1.66-1.7-11.2,8.83V38l6.09,6.09-7.6,8.82-.24.23-6.88,7.14,10-3c1.69-.51,6.62-1.83,9.1-1.83,1.67,0,5.17,2.21,7,3.69l1.83,1.49,9-8.88v-13L541.78,31,545.3,27l0,0c.44-.25.88-.5,1.3-.78A13.2,13.2,0,0,0,552.54,17.89ZM535.78,38l4.44,4.79-.28,6a17,17,0,0,0-6.18-1.47c-2.56,0-5.67,1.18-8.27,2.57Zm13.94,1.37V51.23L541.83,59l-1-.79c-1.89-1.54-5.68-4-7.79-4-3.16,0-9.39,1.86-9.45,1.88l-5.35,1.6,3-3,.8-.8.13-.13c1.8-1.8,7.36-5.16,11.55-5.16a18.44,18.44,0,0,1,7.33,2.12l.39-8.39-5-5.11-.07,0L541,32Zm-13.85-3.64L533,33.3V28.7a39.35,39.35,0,0,0,5,.36,13.69,13.69,0,0,0,4.37-.85Zm8.39-9.66,0,0-.06.08a14.56,14.56,0,0,1-6.18,1.7,42,42,0,0,1-6.22-.54v6.58l3.3,2.81-5.61,6.5-5.67-5.67V26.73L533.65,19l.89.91c.07.07,2.07,2,6.5,2a7.34,7.34,0,0,0,6.85-4.2,2.88,2.88,0,1,1,3.5-.34C550.71,21.42,547.58,24.36,544.26,26.07Z"/><path class="cls-1" d="M441.91,48.33l-3.29,3.39-3.9-3.63V26.44L439,21.85l-1-1-4,4.34-9.3-6.65-.53-.46-9.4,10.59,1.05.93,2.7-3,5.1,3.93V51l-4.14,4.48,1,1,3.81-4.12,8.41,6.55.51.49,9.76-10ZM419.26,25.68l5.11-5.76,9.11,6.52V48.63l4.23,3.92-4.88,4.89-8.06-6.27V29.92Z"/><path class="cls-1" d="M461.56,52.52l-4.77-4.43V25.81l-10.1-7.23-.52-.47-8.55,9.33,1,1,1.74-1.9,5.22,4V51.16l-3.34,3.62,1,.95,3.09-3.35,8.61,6.7Zm-14.71-1.35V29.92l-5.61-4.31.61-.71,4.58-5,9.13,6.53V48.63l4.23,3.92-4.89,4.89Z"/><path class="cls-1" d="M493.31,49.05,491,51.56l-3.74-3.47V25.83L490,22.18l-1.13-.85L486.13,25l-9.45-6.76L475.1,20c-.52.57-3.11,3.42-3.34,3.7l-1.83,2.11,6.15,4.74V51.77l9.4,7.31v0l.3.28L494.34,50Zm-5,5.45-2.94,2.94-8.05-6.27V29.92l-5.61-4.31,1-1.13c.23-.26,3-3.33,3.32-3.67l.84-.93L486,26.44V48.63l4.14,3.84Z"/><polygon class="cls-1" points="497.03 49.98 497.03 27.04 508.54 18.05 519.33 27.84 519.81 27.36 520.31 27.86 520.81 28.35 513.74 35.49 513.76 35.51 521.3 27.97 508.6 16.44 495.8 26.43 495.8 50.52 496.37 51.04 497.24 50.16 497.03 49.98"/><polygon class="cls-1" points="507.18 30.17 512.64 34.6 513.51 33.72 505.95 27.59 505.9 41.41 507.14 40.16 507.18 30.17"/><polygon class="cls-1" points="505.9 43.41 505.88 48.78 509.41 52.38 504.73 56.98 498.28 51.11 497.41 51.99 504.76 58.68 511.15 52.39 507.11 48.28 507.13 42.16 505.9 43.41"/><polygon class="cls-1" points="513.67 33.85 519.52 28.01 519.33 27.84 513.51 33.72 513.67 33.85"/><polygon class="cls-1" points="507.14 40.16 507.14 41.16 513.19 35.05 512.64 34.6 507.14 40.16"/><polygon class="cls-1" points="505.9 41.41 505.9 42.41 507.14 41.16 507.14 40.16 505.9 41.41"/><polygon class="cls-1" points="513.67 33.85 513.51 33.72 512.64 34.6 513.19 35.05 520.31 27.86 519.81 27.36 519.33 27.84 519.52 28.01 513.67 33.85"/><polygon class="cls-1" points="493.19 55.26 493.69 55.75 497.41 51.99 496.89 51.51 493.19 55.26"/><polygon class="cls-1" points="497.76 50.64 496.89 51.51 497.41 51.99 498.28 51.11 497.76 50.64"/><polygon class="cls-1" points="507.14 41.16 507.13 42.16 513.74 35.49 513.19 35.05 507.14 41.16"/><polygon class="cls-1" points="520.31 27.86 513.19 35.05 513.74 35.49 520.81 28.35 520.31 27.86"/><polygon class="cls-1" points="505.9 42.41 505.9 43.41 507.13 42.16 507.14 41.16 505.9 42.41"/><polygon class="cls-1" points="496.37 51.04 492.69 54.76 493.19 55.26 496.89 51.51 496.37 51.04"/><polygon class="cls-1" points="497.76 50.64 497.24 50.16 496.37 51.04 496.89 51.51 497.76 50.64"/><line class="cls-1" x1="509.9" y1="52.51" x2="514.6" y2="47.81"/><rect class="cls-1" x="508.93" y="49.46" width="6.64" height="1.41" transform="translate(114.4 376.71) rotate(-44.97)"/></svg>