<svg xmlns="http://www.w3.org/2000/svg" width="161" height="58" viewBox="0 0 161 58">
    <g fill="#FFF" fill-rule="nonzero">
        <path d="M2.826 10.656C2.16 10.656 0 10.371 0 6.706 0 2.565 3.913 0 7.536 0c1.716 0 3.367.681 5.11 1.409 1.743.727 3.537 1.468 5.394 1.468 3.583 0 5.537-1.284 5.555-1.294a.403.403 0 0 1 .499.043.406.406 0 0 1 .074.496c-.151.258-3.743 6.302-8.687 6.302-2.587 0-4.266-.92-5.89-1.814C8.17 5.832 6.84 5.096 4.977 5.096c-1.601 0-2.413.575-2.413 1.712.054.99.87 1.767 1.858 1.768 1.046 0 1.206-1.989 1.206-2.007 0-.212.193-.29.404-.29.215 0 .39.087.394.304.11 3.65-3.28 4.092-3.311 4.096a2.71 2.71 0 0 0-.29-.023zm4.71-9.85C4.298.806.803 3.06.803 6.706c0 2.836 1.412 3.145 2.023 3.145H3a3.533 3.533 0 0 0 1.23-.46 2.67 2.67 0 0 1-2.473-2.57c0-.759.316-2.522 3.21-2.522 2.056 0 3.55.824 5 1.616 1.532.842 3.124 1.712 5.505 1.712 3.21 0 5.88-2.969 7.169-4.695-1.478.52-3.035.774-4.6.75-2.019 0-3.89-.777-5.702-1.528C10.669 1.46 9.096.806 7.536.806z"/>
        <path d="M1.257 6.205s1.004-4.64 5.981-4.64 5.578 2.822 10.752 2.822a12.802 12.802 0 0 0 3.16-.539s-2.046 3.26-5.614 3.26c-3.569 0-7.541-3.614-10.412-3.614-2.872 0-3.867 2.711-3.867 2.711zM13.302 25.64a12.609 12.609 0 0 1-5.046-1.133C5.293 23.1 3.72 20.521 3.697 17.032c0-3.683 1.44-6.445 4.156-7.96a11.179 11.179 0 0 1 5.16-1.297h.22c.139.005.258.1.294.235a.323.323 0 0 1-.129.354c-.041.028-3.977 2.794-3.977 7.448 0 5.238 3.431 6.334 6.307 6.334 3.555 0 6.748-2.62 6.78-2.647.12-.1.293-.1.413 0 .119.101.15.273.073.41-2.913 5.155-9.33 5.712-9.6 5.73h-.092zM12.27 8.47c-2.33.18-7.926 1.197-7.926 8.424.046 7.724 8.04 7.797 8.958 7.797h.05c.042 0 5.01-.29 8.041-3.779-1.335.797-3.408 1.841-5.674 1.841-4.486 0-6.953-2.444-6.953-6.946.009-3.733 2.27-6.232 3.504-7.337z"/>
        <path d="M10.504 9.381s-2.248 1.713-2.248 6.96c0 5.248 2.66 7.158 8.716 7.158-1.261.51-2.609.768-3.968.76-2.294 0-7.844-1.381-7.844-7.54 0-6.16 5.344-7.338 5.344-7.338zM20.508 5.561h1v15.457h-1z"/>
        <path d="M14.311 22.67l-.702-.147.459-.386c.404-.46 1.05-1.423 1.05-1.915v-8.714c0-.046.46-4.318 3.743-4.405h.33v.331c0 .46.12 10.988 0 12.047-.119 1.058-1.687 3.19-4.88 3.19zm1.454-11.102v8.654a3.689 3.689 0 0 1-.77 1.763c2.293-.258 3.463-1.768 3.554-2.573.092-.806.046-7.752 0-11.619-.963.134-1.71.76-2.233 1.841a6.674 6.674 0 0 0-.55 1.934z"/>
        <path d="M18.013 8.65c-.253.137-1.766 1.293-1.766 2.738 0 .571.165 9.474-.16 9.736a2.488 2.488 0 0 0 1.926-2.334V8.65zM25.43 4.626c-.083 0 1.376 1.436 1.376 2.33v1.436a1.83 1.83 0 0 0-.95-.277c-.546 0-1.917 1.266-1.917 1.266s2.844-.46 2.867 1.262v10.532l-.79.732 2.482 2.49 1.936-2.067-1.078-1.155V6.445s.707-2.408 1.289-2.57c0 0-1.592-.262-3.064 2.105a3.21 3.21 0 0 0-2.151-1.354z"/>
        <path d="M32.32 2.582a4.439 4.439 0 0 0-.96-.092 5.412 5.412 0 0 0-3.912 1.653 4.207 4.207 0 0 0-2.84-1.073c-.282 0-.565.025-.843.074l-.583.106.404.433c.495.543 1.73 2.085 1.922 3.148-.83.28-3.252 1.381-3.211 4.212v.58l.49-.313a4.669 4.669 0 0 1 1.909-.723c.518 0 .725.613.766.76v9.298l-1 1.294-2.142 2.301.459.46 1.921-2.085 3.67 3.743 3.546-3.991-1.376-1.726.04-13.81c.359-1.243 1.148-3.291 1.767-3.636l.793-.433-.82-.18zm-2.322 4.102l-.055 14.173 1.165 1.478-2.724 3.07-3.243-3.31.968-1.256v-9.616c0-.056-.312-1.294-1.404-1.294a4.186 4.186 0 0 0-1.72.539c.312-2.426 2.84-3.066 2.954-3.094l.252-.06v-.257c0-1.114-1.1-2.587-1.71-3.338h.141a3.462 3.462 0 0 1 2.597 1.1l.243.3.252-.295a4.713 4.713 0 0 1 3.67-1.685h.17c-.822 1.096-1.473 3.255-1.556 3.545zM35.599 12.465v13.649c0 2.895-2.197 5.85-2.197 5.85 4.417-1.459 5.128-6.785 5.128-6.785V11.27l-3.266-3.02-1.858 2.007 2.193 2.21z"/>
        <path d="M35.168 6.375l-4.986 5.174.458.46 1.239-1.284 2.128 2.164v13.58a8.294 8.294 0 0 1-3.146 5.983l-.427.286.459.262c.572.271 1.203.391 1.834.35h.056c6.288-1.073 7.123-8.493 7.123-8.562v-13.81l-4.738-4.603zm4.087 18.362c-.046.36-.918 6.983-6.569 7.96a4.95 4.95 0 0 1-.977-.097 9.131 9.131 0 0 0 2.945-6.104V12.613l-2.321-2.362 2.853-2.96 4.069 3.973v13.473zM49.442 14.132l1.789-1.795-4.128-3.761-4.6 3.604v9.957l2.866 2.619 1.252-1.234-1.353-1.385.041-11.375z"/>
        <path d="M47.103 8.576l-4.587 3.604v9.957l2.867 2.619 1.247-1.234-1.348-1.38.041-11.375 4.128 3.37 1.79-1.796-4.129-3.76z"/>
        <path d="M41.855 22.422v-10.56l5.28-4.133 4.95 4.506.215-.22.234.225.229.23-3.243 3.287.01.004 3.458-3.47-5.826-5.303-5.87 4.598v11.09l.26.234.395-.4z"/>
        <path d="M46.507 13.303l2.509 2.044.399-.405-3.468-2.822-.023 6.357.569-.575zM45.924 19.402l-.01 2.472 1.615 1.653-2.146 2.122-2.954-2.702-.4.4 3.372 3.08 2.927-2.891-1.849-1.892.01-2.817z"/>
        <path d="M49.488 15.002l2.679-2.689-.083-.078-2.67 2.707zM46.493 17.902v.465l2.775-2.817-.252-.203zM45.924 18.477v.465l.569-.575v-.465z"/>
        <path d="M49.488 15.002l-.073-.06-.4.405.253.203 3.266-3.31-.234-.226-.216.221.083.078zM40.09 24.853l.229.23 1.71-1.736-.238-.216z"/>
        <path d="M42.19 22.726l-.399.405.239.216.399-.4zM46.493 18.367l-.005.46 3.032-3.07-.252-.207zM52.534 12.24l-3.266 3.31.252.207 3.243-3.287z"/>
        <path d="M45.924 18.942v.46l.564-.575.005-.46zM41.553 22.91l-1.693 1.717.23.226 1.701-1.722zM42.19 22.726l-.243-.216-.394.4.238.221zM47.85 23.513l2.152-2.159M47.621 23.28l2.154-2.154.707.707-2.154 2.154zM61.923 9.082v4.29h-.807a2.753 2.753 0 0 0-2.665 1.975 4.496 4.496 0 0 1 2.435-.617c.479-.026.91.287 1.037.75v5.317s3.082-1.464 3.082-3.862V6.49l-3.082 2.592z"/>
        <path d="M66.161 16.825V6.573l-.568-.547v11.006c0 2.762-3.312 4.387-3.454 4.451l-.918.46v-6.292c-.032-.055-.133-.175-.458-.194a3.925 3.925 0 0 0-2.05.511l-1.432.893.459-1.62a3.428 3.428 0 0 1 3.284-2.44h.165v-3.95l3.945-3.281-.408-.396-4.078 3.416v3.682a3.971 3.971 0 0 0-3.422 2.826l-.858 3.002 2.66-1.634a3.436 3.436 0 0 1 1.634-.46v6.26l1.729-.29c.142-.07 3.257-1.584 3.715-4.29l-.481.17.536-1.031z"/>
        <path d="M65.13 5.57l.467-.391.564-.511v-.7l-1.44 1.206zM66.161 16.825l-.54 1.03.48-.17c.04-.223.06-.45.06-.676v-.184z"/>
        <path d="M65.597 6.026l.564.547v-.837l-.564-.557zM66.551 5.275l2.711-2.54 4.509 4.294-.124 6.859s1.454.704 2.101.189c-.079.167-.18.322-.303.46a3.247 3.247 0 0 1-1.986.92v5.99l2.151 2.379-1.665 1.639-3.5-3.397v-5.405s-1.476-1.288-2.293-.994a3.442 3.442 0 0 1 2.234-1.266V8.972L66.55 5.275zM76.826 5.901l1.981-2.085 3.569 3.383v14.072l1.84 1.786-1.84 1.984-3.33-3.162V8.129zM92.004 3.6a6.382 6.382 0 0 1-2.206-1.16c-1.05.92-2.693 2.186-2.693 2.186v5.321l1.99 1.294.78-.865-1.449-1.078-.027-5.155.481-.322s2.477.644 3.124-.221zM100.517 10.288s-2.5-.193-2.5-2.707c0-.81.808-2.389 4.078-2.389 3.27 0 2.904 1.381 6.335 1.381 3.43 0 3.793-3.277 3.793-3.277s-1.775 1.132-3.431 1.132c-1.656 0-5.853-2.246-7.422-2.246-1.568 0-4.724 1.04-4.724 4.658 0 2.813 1.835 3.499 2.954 3.61.315.03.632-.026.917-.162zM107.154 9.23c.184-.373-.261-.047-.834.58-.693.777-1.739 1.813-1.739 2.835 0 0-2.93.11-3.21.92 0 0 1.375.46 1.343.861 0 0-.995.838-1.073 1.298 0 0 4.303.65 4.303 4.212a4.5 4.5 0 0 0 .619-1.892c0-.704-.436-5.841.275-7.94.17-.506.408-1.059.316-.875zM118.264 11.241l1.454-1.648 2.876 2.187v9.344l3.238 2.997-1.463 1.592-4.679-3.995v-9.124zM125.016 11.135l1.32-1.542 2.96 2.38v8.474l-2.45 2.514V13.05zM138.891 8.949l-5.009 4.027v9.078l4.67 3.682 4.67-4.52v-8.24l-4.33-4.027zm2.294 13.869l-1.129 1.003-3.733-2.37v-9.943l1.073-.898 3.78 3.32.009 8.888zM148.29 11.374l2.128-2.21 2.826 2.698v9.667l1.963 1.943-1.537 1.947-3.064-2.97V13.4zM156.78 7.632l-3.014 3.835 4.06 3.645 3.124-3.682-4.17-3.798zm1.01 6.67l-3.212-2.905 2.294-2.936 3.316 3.02-2.399 2.821z"/>
        <path d="M155.422 11.324l1.505-1.92 2.344 2.136-1.564 1.837zM60.726 22.408a3.764 3.764 0 0 1 1.908.46 14.68 14.68 0 0 0 3.174.728c.477-.07.94-.212 1.376-.419-.199.513-.497.983-.876 1.38a4.274 4.274 0 0 1-3.156 1.534 4.024 4.024 0 0 1-1.587-.355 4.344 4.344 0 0 0-1.743-.354c-1.463 0-2.013.271-2.261.396-.248.124-1.445 1.045-1.445 1.045.216-.703.483-1.39.798-2.053.344-.603 1.528-2.385 3.816-2.385l-.004.023zm-1.321 1.685h.417c.758.003 1.506.16 2.202.46.354.166.738.256 1.128.267.266-.014.526-.08.766-.193a5.591 5.591 0 0 1-1.834-.59 2.58 2.58 0 0 0-2.67.084l-.01-.028zm1.335-2.33c-2.56 0-3.913 1.897-4.376 2.717a14.936 14.936 0 0 0-.863 2.168l-.61 1.947 1.62-1.234c.54-.414 1.21-.92 1.353-.985.142-.064.633-.322 1.963-.322a3.658 3.658 0 0 1 1.514.313 4.65 4.65 0 0 0 1.834.396 4.901 4.901 0 0 0 3.633-1.75 4.684 4.684 0 0 0 1.018-1.647l.422-1.381-1.307.598c-.35.17-.722.291-1.105.36a14.794 14.794 0 0 1-2.89-.664 4.427 4.427 0 0 0-2.193-.524l-.013.009z"/>
        <path d="M57.455 25.143s1.312-2.09 3.27-2.09c1.96 0 1.377 1.045 5.147 1.045 0 0-1.513 1.38-2.724 1.38-1.211 0-1.615-.708-3.33-.708-1.716 0-2.363.373-2.363.373zM92.348 2.435a5.13 5.13 0 0 1-1.697-.856l-.798-.801-.867.746c-1.01.883-2.615 2.126-2.633 2.14l-.459.364v6.444l-.743.838.459.405.72-.815 2.977 1.938 2.371-2.624.73-.824-.395-.35-.761.861-1.606-1.196v-3.49c.335.047.672.072 1.01.074 1.091 0 1.88-.318 2.343-.92l1.042-1.382-1.693-.552zm.17 1.556c-.349.46-.987.704-1.89.704a7.954 7.954 0 0 1-1.578-.18l.023 4.457 1.748 1.311-1.629 1.8-2.752-1.786V4.313l.252-.193s1.638-1.27 2.66-2.164l.46-.396.426.424c.58.459 1.246.797 1.959.994l.89.267-.57.746zM113.682 6.467c-4.546 1.63-5.046 8.604-5.046 8.903v7.646c0 .815-.789 2.099-1.289 2.716l-.307-.36a64.72 64.72 0 0 0-1.79-1.91l1.753-2.904a5.538 5.538 0 0 0 .789-2.514c0-.128 0-.41-.032-.787-.073-1.436-.27-5.247.243-6.762.087-.258.193-.525.257-.686l.078-.211c.156-.424.569-1.35.82-1.842a4.866 4.866 0 0 0 4.29-4.317l.257-2.518-2.133 1.38a6.324 6.324 0 0 1-2.78.921c-.615 0-2.138-.589-3.362-1.059-1.642-.649-3.06-1.196-4.06-1.196-2.293 0-5.93 1.597-5.93 5.873 0 3.264 2.091 4.627 4.05 4.82h.28c.462 0 .917-.11 1.33-.318l3.628-1.965-4.128-.318a1.415 1.415 0 0 1-1-.455 1.425 1.425 0 0 1-.376-1.036c0-.249.486-1.174 2.867-1.174a5.058 5.058 0 0 1 2.573.566 7.351 7.351 0 0 0 2.605.755c-.679.312-1.3.738-1.835 1.261l-.128.134a8.23 8.23 0 0 0-1.693 2.398c-1.917.189-3.05.746-3.385 1.652l-.426 1.174 1.023.34c-.182.25-.309.536-.372.839l-.211 1.22 1.22.193c.133 0 3.275.548 3.275 3.01v3.038c-1.743-1.726-3.724-3.37-5.009-3.37-1.793 0-3.871 2.583-3.871 4.263a6.07 6.07 0 0 0 .752 2.716l1.138 1.957.995-2.049c.028-.055.665-1.335 1.89-1.335.33 0 1.33.59 1.926.921 1.198.69 2.33 1.34 3.38 1.344l2.377.083c2.174.083 4.206-1.57 5.234-4.263.445-1.199.716-2.456.807-3.733v-6.734c.041-1.613.332-3.21.862-4.732l.918-2.454-2.454.88zm-8.78-.023a5.589 5.589 0 0 0-2.807-.616c-2.715 0-3.43 1.137-3.43 1.74a2.013 2.013 0 0 0 1.907 2.057l2.142.194-1.89 1.021c-.328.166-.691.251-1.059.249-.075.005-.15.005-.225 0-.83-.083-3.54-.626-3.54-4.253 0-3.867 3.293-5.308 5.366-5.308.917 0 2.335.557 3.862 1.146 1.335.511 2.848 1.096 3.564 1.096 1.44 0 3.069-1.022 3.087-1.031l1.133-.723-.147 1.34a4.317 4.317 0 0 1-4.435 3.857 7.317 7.317 0 0 1-3.528-.769zm-3.362 9.906l-.656-.1.115-.654c.143-.457.406-.865.761-1.183a4.921 4.921 0 0 0-.596-.249l-.633-.212.23-.626c.334-.92 2.013-1.22 3.274-1.312.257-.971 1.065-1.841 1.684-2.518l.128-.138a8.06 8.06 0 0 1 2.138-1.533l.091-.032h.422a42.149 42.149 0 0 0-.715 1.62c0 .065-.046.13-.069.194-.069.17-.179.46-.266.713-.55 1.62-.358 5.372-.275 6.974 0 .364.032.635.032.76a5.011 5.011 0 0 1-.711 2.2l-1.197 1.989V19.94c0-2.96-3.606-3.554-3.757-3.577v-.014zm13.155-8.525a16.093 16.093 0 0 0-.917 4.93v6.712a12.753 12.753 0 0 1-.77 3.59c-.918 2.426-2.5 3.766-4.56 4l-2.49-.165s-1.23-.042-3.129-1.29c-.752-.492-1.752-1.003-2.202-1.003-1.596 0-2.371 1.584-2.403 1.653l-.523 1.11-.615-1.06a5.539 5.539 0 0 1-.679-2.435c0-1.404 1.835-3.682 3.308-3.682 1.21 0 3.375 1.956 5.008 3.636l.184.185a56.956 56.956 0 0 1 1.647 1.8l.743.865.362-.46.115-.12c.394-.488 1.412-1.984 1.412-3.075v-7.614c0-.28.46-6.905 4.68-8.396l1.306-.46-.477 1.28z"/>
        <path d="M99.72 20.82c-1.074 0-2.661 1.97-2.661 3.047.033.74.236 1.46.591 2.109 0 0 .94-2.026 2.986-2.026 1.317 0 4.037 2.403 5.436 2.27 0 .018-4.702-5.4-6.353-5.4zM109.838 15.444v7.572c0 1.565-1.56 3.48-1.56 3.48 4.546-.405 4.872-7.02 4.872-7.02v-6.702c.033-1.758.343-3.5.917-5.16-3.826 1.376-4.23 7.83-4.23 7.83zM86.83 21.175l-1.34 1.427-1.903-1.842V7.126l2.115-2.122-.46-.46-1.894 1.9L78.762 2.1l-3.165 3.333-.83.851-5.45-5.174-4.587 4.065 1.44-1.206v.7l3.092-2.827 5.151 4.912-.105 6.702c.254.095.522.149.793.161a.457.457 0 0 0 .248-.046l1.61-.985-.62 1.763c-.11.23-.253.44-.426.626a3.72 3.72 0 0 1-1.803.994v5.23l2.404 2.651-2.564 2.518-4.128-4.023v-5.367a3.147 3.147 0 0 0-1.376-.705.11.11 0 0 0-.06 0l-1.624.576.844-1.506a4.643 4.643 0 0 1 2.115-1.532V9.248l-3.564-3.512v.837L67.33 7.72v7.01a2.02 2.02 0 0 0-.261.35l-.918 1.75v.202c0 .227-.02.453-.06.676l1.271-.46v5.262h.573v-5.478l.505-.18c.283.095.55.235.789.415v5.289l-1.803 1.809.459.46 1.803-1.81 4.128 4.033.22.226 4.33-4.346 3.826 3.632.229.226 4.867-5.151-.46-.46zm-10.688 1.38l-1.444-1.592V16.36a4.335 4.335 0 0 0 1.444-.801v6.997zm-6.98-9.123a5.404 5.404 0 0 0-1.18.714v-5.8l1.18 1.146v3.94zm7.013-1.045l-1.083.663a.95.95 0 0 1-.21-.028l.105-6.186.532-.53.656.659v5.422zm.761 11.09l-.124-.134v-8.677c0-.033.032-.06.037-.079l.958-3.222-1.054.645V7.545l1.082 1.086v13.773l.087.078-.986.994zm5.435 2.453l-3.967-3.766V8.396l-2.477-2.48L78.78 2.9l4.243 4.005V21l2.082 2.016-2.734 2.914zM132.14 9.819l-.46-.46-1.6 1.689-3.9-3.13-2.623 3.06-3.756-2.853-.244-.212-2.26 2.568-1.753 1.97.481.433 1.023-1.155 1.436 1.38v8.857l-1.66 1.745.458.46 1.519-1.615 5.655 4.824 6.05-6.445v-9.404l1.633-1.712zm-8.353 1.781l1.834 1.938v8.746l-1.834-1.712V11.6zm6.155 9.114l-5.536 5.87-5.38-4.604v-9.137l-1.601-1.533 2.293-2.564 3.541 2.688v9.382l2.413 2.232.651.493.023-.77-.11-9.459-2.055-2.154 2.11-2.458 3.67 2.96-.019 9.054zM136.97 11.83v9.266l3.013 1.92.546-.483v-8.286l-3.142-2.762-.418.345zm.563.534l2.432 2.136v7.77l-.037.032-2.395-1.519v-8.419z"/>
        <path d="M146.088 10.74l-.459-.461-1.646 1.726-5.032-4.64-6.28 5.064v10.058l-1.445 1.51.46.46 1.398-1.469 5.541 4.36 5.798-5.607v-9.262l1.665-1.74zm-2.225 10.748l-5.27 5.1-5.357-4.217v-9.708l5.687-4.57 4.94 4.603v8.792z"/>
        <path d="M154.455 21.023v-9.667l-3.817-3.646-.234-.225v-.023l-3.844 4.005-1.11 1.146.46.46 1.132-1.17 2.372 2.072v8.99l4.398 4.258 3.037-3.848-2.394-2.352zm-.72 5.358l-3.776-3.683v-9.004l-2.54-2.218 3.059-3.149 3.408 3.26v9.666l2.188 2.163-2.34 2.965zM55.625 34.363c-5.174 0-5.78-2.827-10.751-2.827-4.973 0-5.963 4.64-5.963 4.64s.995-2.71 3.853-2.71c2.857 0 6.839 3.617 10.407 3.617 3.569 0 5.615-3.263 5.615-3.263a12.94 12.94 0 0 1-3.16.543zM45.869 46.313c0-5.243 2.293-6.96 2.293-6.96s-5.398 1.155-5.398 7.337c0 6.182 5.504 7.54 7.839 7.54a10.462 10.462 0 0 0 3.967-.755c-6.031 0-8.701-1.92-8.701-7.162z"/>
        <path d="M61.804 32.093a.402.402 0 0 0-.074-.497.407.407 0 0 0-.5-.041s-1.967 1.293-5.554 1.293c-1.835 0-3.67-.745-5.394-1.468-1.725-.723-3.395-1.409-5.11-1.409-3.624 0-7.537 2.569-7.537 6.712 0 3.682 2.16 3.95 2.826 3.95h.294c.032 0 3.421-.461 3.311-4.144a.373.373 0 0 0-.394-.359.381.381 0 0 0-.404.346s-.16 2.062-1.206 2.062a1.865 1.865 0 0 1-1.835-1.763c0-1.142.812-1.717 2.413-1.717 1.835 0 3.21.736 4.614 1.514.814.476 1.664.887 2.541 1.23a10.806 10.806 0 0 0-4.275 1.251c-2.72 1.524-4.16 4.277-4.16 7.96 0 3.47 1.6 6.048 4.56 7.461a12.695 12.695 0 0 0 5.045 1.132h.083c.27 0 6.687-.58 9.6-5.712a.314.314 0 0 0-.073-.405.325.325 0 0 0-.413 0c-.439.336-.898.643-1.376.92V35.794a17.801 17.801 0 0 0 3.018-3.7zm-2.752 18.929c-3.032 3.489-8 3.908-8.041 3.908h-.05c-.918 0-8.922-.203-8.968-7.927 0-7.209 5.596-8.378 7.926-8.557-1.23 1.1-3.495 3.632-3.495 7.365 0 4.502 2.468 6.978 6.958 6.978 2.248-.004 4.321-.971 5.656-1.767h.014zm-2.22-13.612v-.124c.46-.274.9-.582 1.316-.92V50.81a11.44 11.44 0 0 1-3.49 1.243c1.376-.7 2.091-1.842 2.174-2.573.119-1.082.004-11.619 0-12.07zm-.647 11.968c-.092.806-1.257 2.302-3.555 2.569.41-.507.677-1.117.77-1.763v-8.64a6.73 6.73 0 0 1 .556-1.92c.523-1.1 1.27-1.721 2.233-1.841.042 3.853.088 10.813-.004 11.604v-.009zm-3.436-7.885v8.682c0 .46-.573 1.325-.977 1.84-2.417-.404-4.72-1.914-4.72-6.204 0-4.659 3.94-7.42 3.977-7.453a.299.299 0 0 0 .124-.156c.645.13 1.301.194 1.959.193.307 0 .613-.022.917-.064a6.812 6.812 0 0 0-1.28 3.162zm.363-3.903c-2.38 0-3.968-.87-5.505-1.717-1.45-.792-2.944-1.612-5-1.612-2.903 0-3.21 1.763-3.21 2.523a2.66 2.66 0 0 0 2.472 2.564 3.433 3.433 0 0 1-1.23.46h-.173c-.61 0-2.023-.304-2.023-3.14 0-3.645 3.495-5.9 6.733-5.9 1.56 0 3.133.653 4.803 1.344 1.835.75 3.67 1.528 5.701 1.528 1.571.02 3.133-.24 4.615-.764-1.298 1.74-3.982 4.714-7.179 4.714h-.004z"/>
        <path d="M53.882 41.364c0 .566.165 9.469-.16 9.736a2.493 2.493 0 0 0 1.926-2.339V38.634c-.252.13-1.766 1.285-1.766 2.73zM64.18 40.416l3.105 2.228V52.77l.101.096 1.408 1.312-.917.921-2.647-2.067V43.27l-.128-.097-2.005-1.551 1.087-1.206h-.004zm-.041-.428s-1.409 1.556-1.514 1.68l2.293 1.763v9.777l2.996 2.343 1.376-1.38-1.656-1.543v-10.15l-3.473-2.49h-.022z"/>
        <path d="M62.62 41.668c.106-.124 1.514-1.68 1.514-1.68l3.472 2.49v10.164l1.656 1.542-1.376 1.38-2.995-2.342V43.43l-2.27-1.763zM74.308 40.416l3.1 2.228V52.77l.101.096 1.413 1.312-.917.921-2.647-2.067V43.27l-.124-.097-2.004-1.551 1.078-1.206zm-.046-.428s-1.413 1.556-1.514 1.68l2.294 1.763v9.777l2.995 2.343 1.376-1.38-1.656-1.543v-10.15l-3.468-2.49h-.027z"/>
        <path d="M72.748 41.668a206.9 206.9 0 0 1 1.514-1.68l3.468 2.49v10.164l1.655 1.542-1.376 1.38-2.995-2.342V43.43l-2.266-1.763zM85.958 52.113v-10.26l-4.857-3.486-.725.801-1.532 1.704-.835.975 2.821 2.182v9.778l4.307 3.36 3.01-3.02-2.189-2.034zm-.867 4.299l-3.697-2.886V43.73l-2.568-1.984.458-.52 1.528-1.694.376-.405 4.206 3.02v10.219l1.94 1.804-2.243 2.242z"/>
        <path d="M81.321 40.416l3.1 2.228V52.77l.106.096 1.408 1.312-.917.921-2.651-2.067V43.27l-.124-.097-2.004-1.551 1.087-1.206h-.005zm-.041-.428s-1.408 1.556-1.514 1.68l2.294 1.763v9.777l2.995 2.343 1.376-1.38-1.651-1.543v-10.15l-3.473-2.49h-.027z"/>
        <path d="M79.762 41.668c.105-.124 1.513-1.68 1.513-1.68l3.472 2.49v10.164l1.652 1.542-1.376 1.38-2.996-2.342V43.43l-2.265-1.763zM88.284 40.416l3.1 2.228V52.77l.106.096 1.408 1.312-.917.921-2.647-2.067V43.27l-.123-.097-2.005-1.551 1.087-1.206h-.009zm-.037-.428s-1.412 1.556-1.513 1.68l2.293 1.763v9.777l2.995 2.343 1.376-1.38-1.656-1.543v-10.15l-3.467-2.49h-.028z"/>
        <path d="M86.724 41.668c.101-.124 1.514-1.68 1.514-1.68l3.468 2.49v10.164l1.656 1.542-1.376 1.38-3-2.356v-9.777l-2.262-1.763zM121.433 36.623c.194.002.35.16.35.354-.002.131-.076.251-.194.309h-.068a.315.315 0 0 1-.101 0 .35.35 0 0 1-.349-.35c0-.194.155-.352.349-.355l.013.042zm-7.311 3.323a5.614 5.614 0 0 0 3.45 1.013 4.573 4.573 0 0 0 1.807-.35 6.215 6.215 0 0 1-3.211 1.16 19.387 19.387 0 0 1-3.431-.373l-.358-.073 1.738-1.381.005.004zm-1.775 1.377v4.603l.114.097 1.624 1.38-1.206 1.593-2.257-2.26V42.75l1.725-1.381v-.046zm9.068-5.018a.679.679 0 1 0 0 1.349.709.709 0 0 0 .197-.032c-.32.948-1.334 3.056-4.045 3.056-2.367 0-3.445-1.105-3.445-1.105l-3.82 3.025v4.354l2.609 2.62 1.615-2.132-1.858-1.592v-4.093c1.153.23 2.324.356 3.5.378 1.623 0 5.243-1.51 5.545-4.557a.673.673 0 0 0-.298-1.275v.004z"/>
        <path d="M122.108 36.977a.673.673 0 1 0-1.15-.485.678.678 0 0 0 .475 1.157.709.709 0 0 0 .198-.032c-.321.948-1.335 3.057-4.046 3.057-2.367 0-3.445-1.105-3.445-1.105l-3.82 3.024v4.36l2.61 2.619 1.614-2.132-1.858-1.592v-4.093c1.153.23 2.325.356 3.5.378 1.624 0 5.243-1.51 5.546-4.557a.672.672 0 0 0 .376-.599zM117.351 45.797l3.248 2.762v4.603l-2.716 2.665c-.656-.501-2.578-1.869-3.958-1.869-.983.054-1.957.208-2.908.46.99-.57 2.256-1.095 3.233-1.095 1.583 0 3.766 1.326 3.79 1.34l.458.285.023-.548.238-5.169v-.138l-.091-.101-2.05-2.155.72-1.03.013-.01zm-.073-.451l-1.078 1.542 2.234 2.348-.239 5.169s-2.266-1.381-3.958-1.381c-1.693 0-4.129 1.445-4.844 2.186 0 0 2.958-.888 4.518-.888 1.56 0 3.981 1.97 3.981 1.97l3.014-2.969v-4.925l-3.628-3.08v.028z"/>
        <path d="M115.805 46.45l2.642 2.763-.238 5.169S115.943 53 114.25 53c-1.692 0-4.128 1.445-4.843 2.186 0 0 2.958-.888 4.518-.888 1.56 0 3.981 1.97 3.981 1.97l3.014-2.969v-4.902l-4.041-3.49-1.074 1.543zM65.794 31.035l-2.954 4.17 4.129 3.001 2.967-4.143-4.142-3.028zm1.05 6.357l-3.21-2.302 2.293-3.222 3.239 2.301-2.321 3.223z"/>
        <path d="M66.148 33.184l1.66 1.188-1.188 1.666-1.656-1.192 1.184-1.662zm-.074-.46l-1.56 2.191 2.184 1.565 1.56-2.191-2.184-1.565z"/>
        <path d="M64.51 34.924l1.56-2.183 2.191 1.566-1.56 2.183zM104.99 44.683l1.788-1.795-4.128-3.756-4.6 3.604v9.957l2.862 2.619 1.252-1.239-1.353-1.38.041-11.375zM122.86 38.206a1.897 1.897 0 0 0-.126-2.606 1.88 1.88 0 0 0-2.6 0 1.897 1.897 0 0 0-.127 2.606 2.75 2.75 0 0 1-2.422 1.248c-1.766 0-2.564-.727-2.578-.741l-.761-.783-5.138 4.07v5.463l2.798 2.808-3.49 4.046-.11.102-3.151 3.286 4.586-1.38c.776-.235 3.037-.838 4.17-.838.766 0 2.376 1.012 3.21 1.698l.84.682 4.128-4.088v-5.984l-4.206-3.568 1.615-1.878c.206-.11.408-.23.6-.359a6.038 6.038 0 0 0 2.762-3.784zm-7.688 9.257l2.042 2.21-.129 2.762a7.775 7.775 0 0 0-2.835-.682c-1.178 0-2.605.548-3.798 1.188l4.72-5.478zm6.38.636v5.459l-3.618 3.563-.459-.364c-.872-.704-2.61-1.841-3.578-1.841-1.45 0-4.307.856-4.334.865l-2.454.741 1.376-1.38.367-.369.06-.06c.825-.828 3.375-2.38 5.302-2.38 1.175.087 2.32.421 3.357.981l.18-3.862-2.294-2.357h-.032l2.077-2.417 4.05 3.42zm-6.348-1.676l-1.32-1.123v-2.118c.76.104 1.526.16 2.293.166a6.347 6.347 0 0 0 2.004-.387l-2.977 3.462zm3.849-4.451l-.028.032a6.674 6.674 0 0 1-2.834.787 18.627 18.627 0 0 1-2.853-.253v3.033l1.513 1.29-2.573 2.991-2.6-2.61V42.28l4.536-3.581.408.414c.032.032.95.92 2.981.92a3.352 3.352 0 0 0 3.142-1.933 1.323 1.323 0 0 1 .585-2.429 1.316 1.316 0 0 1 1.323.772c.231.514.112 1.119-.298 1.506-.344 1.882-1.77 3.24-3.288 4.023h-.014zM72.12 52.223l-1.51 1.556-1.807-1.666v-9.97l1.959-2.095-.459-.438-1.834 1.998-4.266-3.061-.239-.216-4.334 4.856.481.428 1.239-1.38 2.344 1.808v9.4l-1.904 2.062.459.46 1.743-1.892 3.894 3.006.23.226 4.48-4.603-.476-.479zm-10.394-10.43l2.348-2.666 4.179 2.997v10.219l1.94 1.804-2.243 2.246-3.67-2.886V43.73l-2.554-1.938z"/>
        <path d="M81.128 54.147l-2.188-2.034v-10.26l-4.632-3.324-.234-.221-3.927 4.299.46.46.793-.87 2.399 1.842v9.491l-1.532 1.667.458.46 1.418-1.542 3.949 3.08 3.036-3.048zm-6.747-.621V43.73l-2.569-1.984.28-.327 2.096-2.301 4.188 3.001v10.22l1.94 1.804-2.238 2.246-3.697-2.863zM95.692 52.55l-1.06 1.16-1.715-1.597V41.889l1.275-1.685-.514-.391-1.28 1.69-4.33-3.136-.724.801-1.532 1.704-.84.975 2.826 2.182v9.778l4.307 3.36.137.124 3.927-4.295-.477-.446zm-2.294 2.509l-1.348 1.353-3.697-2.886V43.73l-2.578-1.965.459-.52c.105-.125 1.376-1.533 1.522-1.695l.39-.428 4.207 3.02v10.22l1.899 1.767-.854.93zM97.403 52.978v-10.56l5.275-4.133 4.953 4.506.216-.225.23.23.229.225-3.243 3.292.009.004 3.463-3.47-5.83-5.304-5.866 4.6V53.23l.256.235.4-.4z"/>
        <path d="M102.054 43.859l2.509 2.04.399-.406-3.468-2.822-.023 6.362.57-.575zM101.467 49.958l-.01 2.468 1.62 1.657-2.147 2.122-2.959-2.707-.394.405 3.367 3.08 2.93-2.891-1.848-1.897.01-2.812z"/>
        <path d="M105.035 45.558l2.679-2.693-.083-.074-2.67 2.702zM102.04 48.458l-.005.46 2.776-2.813-.248-.207zM101.471 49.033v.46l.564-.575.005-.46z"/>
        <path d="M105.035 45.558l-.073-.065-.4.405.249.207 3.265-3.31-.229-.23-.216.226.083.074zM95.637 55.408l.23.226 1.71-1.73-.239-.217zM97.733 53.282l-.395.405.239.216.394-.405zM102.035 48.918v.465l3.028-3.07-.252-.208z"/>
        <path d="M108.076 42.796l-3.265 3.31.252.207 3.243-3.292zM101.471 49.493l-.004.465.568-.575v-.465zM97.095 53.466l-1.688 1.717.23.225 1.701-1.721zM97.733 53.282l-.239-.217-.399.4.243.222zM103.306 54.143l2.151-2.16M103.07 53.901l2.156-2.152.707.708-2.156 2.152z"/>
    </g>
</svg>
