<svg id="Layer_1" data-name="Layer 1" xmlns="http://www.w3.org/2000/svg" xmlns:xlink="http://www.w3.org/1999/xlink" viewBox="0 0 737.01 113.39"><defs><style>.cls-1{fill:none;}.cls-2,.cls-3{fill:#fff;}.cls-3{font-size:86.05px;font-family:TimesNewRomanPS-Bold, Times New Roman PS;font-weight:700;}.cls-4{clip-path:url(#clip-path);}</style><clipPath id="clip-path"><rect class="cls-1" width="737.01" height="113.39"/></clipPath></defs><title>Riv Masthead LOGO (white)</title><path class="cls-2" d="M50.45,76.27c0,7.48,0,9.88,8.09,9.88v1.66H29.1V86.15c8.09,0,8.09-2.4,8.09-9.88v-38c0-7.48,0-9.88-8.09-9.88V26.69H60.6c12.91,0,21.34,5.35,21.34,17.17,0,7.94-5.85,13.57-12.9,15l14.71,22c2.24,3.42,3.44,5.27,6.8,5.27v1.66H72.65L54.32,59.93H50.45Zm0-19.48h4.13c10.15,0,13.25-5.36,13.25-12.84,0-9.69-4-13.76-11.88-13.76h-5.5Z"/><path class="cls-2" d="M105.61,78.11c0,5.08,0,8,4.64,8v1.66H89.08V86.15c4.74,0,4.74-3,4.74-8V55.59c0-4.9,0-8.22-4.74-8.22V45.71h16.53ZM99.67,25.3a6.75,6.75,0,0,1,6.45,6.93,6.47,6.47,0,1,1-12.91,0A6.76,6.76,0,0,1,99.67,25.3Z"/><path class="cls-2" d="M115,54.2c-2.23-5.45-4-6.83-5.76-6.83V45.71h20.91v1.66c-2.32,0-3.7.92-3.7,3.14,0,1.94,1.55,5.35,2.32,7.2l6,14.86,4.73-12.64c1-2.5,2.67-6.75,2.67-9.42,0-2.5-2.15-3.14-4.3-3.14V45.71H150.7v1.66c-1.38,0-3.62,1.2-5.25,5.45L131.08,89.1h-2Z"/><path class="cls-2" d="M161.28,65.37c0,6.74,3.45,16.81,11.28,16.81,4.21,0,6.8-3.42,8.86-6.93l1.38,1c-3.44,7.48-7.75,12.83-16.1,12.83-11.79,0-16.78-10.62-16.78-22.34s6.63-22.35,18.42-22.35c9.47,0,14.63,11.08,14.46,21Zm11.19-3.14c0-4.71,0-14.68-5.34-14.68-5,0-6.11,7.94-6.11,14.68Z"/><path class="cls-2" d="M202.16,55.22h.17c2.58-4.62,6.71-10.81,12.31-10.81,3.35,0,5.25,2.4,5.25,5.82,0,3.05-1.38,6.46-4.65,6.46-4,0-4.73-3.51-6.8-3.51-1.89,0-6.28,2.5-6.28,16.16v8.77c0,5.08,0,8,5.25,8v1.66H185.63V86.15c4.74,0,4.74-3,4.74-8V55.59c0-4.9,0-8.22-4.74-8.22V45.71h16.53Z"/><path class="cls-2" d="M237.27,78.11c0,5.08,0,8,4.64,8v1.66H220.74V86.15c4.74,0,4.74-3,4.74-8V55.59c0-4.9,0-8.22-4.74-8.22V45.71h16.53ZM231.33,25.3a6.75,6.75,0,0,1,6.45,6.93,6.47,6.47,0,1,1-12.91,0A6.76,6.76,0,0,1,231.33,25.3Z"/><path class="cls-2" d="M260.07,51.06c2.93-3.51,6.71-6.65,11.36-6.65,8.69,0,10.76,7,10.76,16.81V78.11c0,4.16,0,8,4.3,8v1.66h-20V86.15c3.87,0,3.87-3.88,3.87-8V60.94c0-6.19,0-10.43-3.79-10.43-2.67,0-5.16,3-6.54,5.54V78.11c0,4.16,0,8,3.87,8v1.66H244V86.15c4.3,0,4.3-3.88,4.3-8V55.59c0-4.9,0-8.22-4.73-8.22V45.71h16.52Z"/><path class="cls-2" d="M301,65.37c0,6.74,3.45,16.81,11.28,16.81,4.21,0,6.8-3.42,8.86-6.93l1.38,1c-3.44,7.48-7.75,12.83-16.1,12.83-11.79,0-16.78-10.62-16.78-22.34s6.63-22.35,18.42-22.35c9.47,0,14.63,11.08,14.46,21Zm11.19-3.14c0-4.71,0-14.68-5.34-14.68-5,0-6.11,7.94-6.11,14.68Z"/><text class="cls-3" transform="translate(343.75 87.81) scale(1 1.07)"> </text><path class="cls-2" d="M486.57,76.27c0,7.48,0,9.88,8.09,9.88v1.66H464.8V86.15c8.09,0,8.09-2.4,8.09-9.88v-38c0-7.48,0-9.88-8.09-9.88V26.69h29.86v1.66c-8.09,0-8.09,2.4-8.09,9.88V54.48h20V38.23c0-7.48,0-9.88-8.09-9.88V26.69h29.86v1.66c-8.09,0-8.09,2.4-8.09,9.88v38c0,7.48,0,9.88,8.09,9.88v1.66H498.45V86.15c8.09,0,8.09-2.4,8.09-9.88V58.45h-20Z"/><path class="cls-2" d="M542.33,65.37c0,6.74,3.45,16.81,11.28,16.81,4.21,0,6.8-3.42,8.86-6.93l1.38,1c-3.44,7.48-7.75,12.83-16.1,12.83C536,89.1,531,78.48,531,66.76s6.63-22.35,18.42-22.35c9.47,0,14.63,11.08,14.46,21Zm11.19-3.14c0-4.71,0-14.68-5.33-14.68-5,0-6.11,7.94-6.11,14.68Z"/><path class="cls-2" d="M583.21,55.22h.17c2.58-4.62,6.71-10.81,12.31-10.81,3.35,0,5.25,2.4,5.25,5.82,0,3.05-1.38,6.46-4.65,6.46-4,0-4.73-3.51-6.8-3.51-1.89,0-6.28,2.5-6.28,16.16v8.77c0,5.08,0,8,5.25,8v1.66H566.68V86.15c4.74,0,4.74-3,4.74-8V55.59c0-4.9,0-8.22-4.74-8.22V45.71h16.53Z"/><path class="cls-2" d="M623.83,53.65c0-4.44-3.1-5.73-5.34-5.73-1.81,0-5.51.74-5.51,3.23,0,1.76,2.76,2.87,2.76,5.82,0,3.51-2.59,5.45-5.68,5.45A6,6,0,0,1,604,56.6c0-8.49,10.93-12.19,17.38-12.19,9.81,0,14.29,5.17,14.29,14.22v20.5c0,2.22,0,4.25,1.8,4.25,1,0,1.64-.83,2.24-1.66l1.2,1c-2.15,3.69-5.16,6.37-9.38,6.37s-7.31-2.12-7.65-6.74c-3.36,3.32-8,6.74-12.83,6.74-4.47,0-7.83-3.42-7.83-8.68,0-7.57,4.73-11.26,20.66-19.29Zm0,11.26c-3.71,2.22-9.3,6.74-9.3,11.73a4.55,4.55,0,0,0,4.56,4.89c2,0,3.27-1.2,4.74-2.49Z"/><path class="cls-2" d="M658.33,78.11c0,5.08,0,8,4.65,8v1.66H641.81V86.15c4.73,0,4.73-3,4.73-8V36.57c0-4.9,0-8.22-4.73-8.22V26.69h16.52Z"/><path class="cls-2" d="M703.34,77.65c0,3.23,0,6.28,4.73,6.28v1.66l-15,3.51h-1.55V82.64l-.17.18c-2.58,3.23-5.51,6.28-10.24,6.28-10.93,0-15.58-11.36-15.58-21.6,0-15,7.66-23.09,16.18-23.09,4.3,0,7.06,1.85,9.81,5.27V36.57c0-4.9,0-8.22-5.68-8.22V26.69h17.47ZM691.55,55.31c-1.55-3.33-4.22-6.47-7.83-6.47-5.77,0-5.85,12.38-5.85,16.72,0,5,.17,18.09,6.8,18.09,3.09,0,5.59-3.5,6.88-6.18Z"/><g class="cls-4"><path class="cls-2" d="M316.47,15.8c.3.17-.55,1.74-1.3,3-.51.83-1.16,2.27-1.72,1.29s.09-2.6.56-3.25,1.87-1.32,2.46-1"/><path class="cls-2" d="M460.42,17.73c1.45-.74.88,3.81.71,4.17s-1.46.12-1.46.55,1.11,1.27,1,1.7c0,0-.11.4-.43.47s-3.1-.57-3.39-.37c-.64.43,3.16,1.51,3.19,1.89a1.06,1.06,0,0,1-1.2,1c-.64,0-4.35-1.6-4.81-1.29s5.11,2.35,5.11,2.83-.74.81-1.46.65c-1.13-.23-5.82-2.22-6.54-1.82s6.43,2.94,6.67,3.36-.55.81-1.51.71c-.61-.06-7.81-2.74-8.15-2.5-.84.58,7.87,3.33,8.13,4,.14.36-.5.83-1.66.71-.88-.1-9-3.33-9.34-3.16-1,.56,8.77,4,9,4.4s-.26.88-1.66.68S442.9,31.87,442,32.35c-.28.17.17.38.9.76,2.42,1.26,8.75,3.42,9,3.71s.24,1.17-1.38.81-11-4-11.57-3.69c-.83.41,10.6,4.35,10.83,5s-.37.81-1.91.51c-1-.21-11.12-4.13-11.76-3.79-1.13.6,10.93,4.49,11.33,5.1.25.38-.15.87-1.71.58S434.24,36.9,433,37.28s11.84,5,12.14,5.5-.29,1-1.71.69S431,38.39,430,38.94s12.68,5,13.25,5.89c.25.39-.2.71-1.86.38s-13.6-5.07-14.38-4.67c-1.18.6,13.68,5.45,14.45,6.39.37.45-.05.83-1.66.45-1.87-.44-15-5.65-15.81-5.18-1.09.61,15,6,15.72,6.8.35.4.2,1.13-1.49.8s-16.18-6.54-17.25-6c-1.34.7,16.6,6.59,17.19,7.47.23.35,0,.64-1.53.46-2.05-.23-17.75-6.82-18.48-6.39-.54.37.95.93,2.67,1.63,5.68,2.29,15.14,6,15.41,6.33.51.58-.28.93-1.83.58-1.36-.31-18.35-7.35-19.18-6.87-.58.35.8.87,2.86,1.68,5.66,2.22,15.76,6.2,16,6.6.28.56-.39.52-1.73.33-1.75-.25-19.29-7.66-20.38-6.85-.37.28.54.66,1.75,1.19,4.73,2.06,16.79,6.49,17.16,6.9s.35,1-1.29.58c-1.35-.31-19.75-7.55-20.48-7.15-.48.36.35.66,1.46,1.14,4.64,2,16.08,6.1,16.6,6.69.37.43.28.73-1.53.35S407.39,51.42,406.34,52c-.64.36.44.62,1.36,1,4.4,1.74,15.31,6,15.54,6.51s-.33.65-1.68.3-17.21-6.75-18.28-6.21c-.7.35.37.57,1.52,1,4.48,1.85,13.89,5.45,14.29,5.9.57.66-.09.71-1.4.48s-16.46-6.48-17.49-5.88c-.48.28.61.6,1.89,1.15,4.2,1.79,12.87,5.23,13.11,5.59s0,.73-1.34.51c-1.07-.18-15.56-6.12-16.61-5.53-.51.27.3.54,2.11,1.23,4.3,1.64,12.12,5,12.36,5.33.39.53-.31.66-1.75.33-1.19-.27-14.75-5.78-15.63-5.35-.53.25.37.69,2,1.33,4.26,1.75,12.12,5,12.33,5.33.28.53,0,.66-1.14.46s-15-6-16.05-5.46c-.55.3.78.72,2.05,1.24,4.35,1.79,12.24,5.07,12.23,5.51s-.49.53-1.82.22c-.85-.19-14.81-5.73-15.61-5.38s1.09.94,2.33,1.45c4.13,1.72,11.7,4.85,12,5.2s.1.76-1.36.43c-1.62-.37-15.12-5.85-15.9-5.38-.56.22.05.66,1.28,1.16,4.44,1.82,13.7,5.2,13.77,5.78s-.51.51-1.67.25c-.86-.18-15.91-5.9-16.46-5.58s.45.64,1.89,1.2c4.9,1.89,13.7,5.63,13.83,5.87s-.06.79-1.24.53-16.33-6.56-17.5-5.93c-.47.23.44.91,2.17,1.56,5.69,2.15,14,5.39,14.21,6,.11.23-.61.37-1.59.17s-16.52-6.61-17.76-6.06c-.5.27.41.89,2.07,1.57,5.31,2.17,13.73,5.33,14,5.63.35.45,0,.58-1.25.35-1.51-.27-16.65-6.45-17.49-6-.6.35.09.8,1.64,1.41,4.48,1.75,12.53,4.9,12.88,5.38.24.33-.68.58-1.75.23-.55-.18-15-5.9-15.63-5.56s-.21.73,1.83,1.51a75.21,75.21,0,0,1,10.15,4.53c.13.33-.74.4-1.53.3-1.64-.2-12.33-5.11-13.56-4.55-.57.23.09.65,1.67,1.29a73.58,73.58,0,0,1,8.63,4c.06.33-.37.35-1.05.22s-11.28-4.37-12.16-3.93c-.5.2.45.94,1.64,1.41,3.19,1.27,7.75,3.52,8,3.66s-.37.33-1.26.18-10.28-4.09-11.64-3.54c-.56.21.43.85,1.58,1.27a49,49,0,0,1,7.41,3.48c.07.25-.9.13-1.51,0s-9.24-3.67-10-3.39c-.59.16-.25.74.77,1.18,2.34,1,5,2.41,5,2.86,0,.23-1.16,0-1.53-.07s-6.5-2.8-7.47-2.3c-.88.34,3,1.9,3.3,2.45-.14.51-1.06.48-1.82.3-.54-.12-3.8-1.49-4.63-1-.67.34,1.64,1.2,1.31,2.06-.41.32-.94.08-1.62-.07s-1.9-.81-2.43-.5-.59,1.74-.59,1.74a8.41,8.41,0,0,0-2.31.15c-.29.23-.59,1.44-1.84,1.84a3.54,3.54,0,0,0-2,1.37c-.7.73-7.57,9-8.36,9.7s-3.45-.38-4.61-.68a30.46,30.46,0,0,0-7.5-.56,27.44,27.44,0,0,0-4.74.63c-.27,0-.11-.55,1.24-1.31S460.42,17.73,460.42,17.73"/><path class="cls-2" d="M374.82,54.7C363.22,47.91,338.4,34,338.4,34s-.28-.08.18-.79.65-.58.65-.58l43.7,25.75L387.49,56c-24.32-14.41-45.71-27.16-45.85-27.64-.33-1.1,4.49-6.16,4.67-6.88s.07-5-.45-5.26-1.91.2-2.68.48-2.31.61-3.14,3.54c-1,3.5-1.88,5.72-2.88,5.76s-5.83-1.76-9.76-3.85a44.79,44.79,0,0,1-7.28-4.87c-.79-.6-1.16-1-1.65-.92-.74.08-1.09,1.1-1.73,2.18-.48.81-.89,1.77-1.07,2-.47.68-.47,1.49-.13,1.73.54.37,2-1.57,2.15-1.24s-.14,1.86.32,2.12c.26.1,1.66-1.34,1.77-1.16.24.39,0,2,.39,2.29.21.12,1.74-1.33,1.8-1.09s-.15,1.77.35,2.09c.25.15,1.67-1.14,1.69-.89s0,1.95.47,2.23c.2.12,1.54-1.25,1.57-1s0,1.8.52,2.11c.21.13,1.43-1.3,1.46-1s-.12,2.19.45,2.58c.22.16,1.58-1.58,1.62-1.41s-.32,2.46.25,2.86,1.58-1.78,1.7-1.43-.41,2.5.28,3c.48.24,1.85-1.93,2.05-1.76s-.06,1-.94,3.24c-1,2.47-4.36,6.45-4.79,6.87s-.57,4.58.35,5.53c.7.72,3.08-.73,3.89-1.19A2.51,2.51,0,0,0,334.33,43c0-.84,2.71-8.22,3.23-8.13.3.06,23.55,13.25,43.5,24.54l1-.52c-2.42-1.36-4.88-2.76-7.25-4.14"/><path class="cls-2" d="M456.85,97.46c-.28-.5-23.53-14.28-49.07-29.41L402,71.16c4,2.26,6.72,3.75,7.25,4,3.27,1.53,48.48,23.85,47.62,22.3"/></g></svg>