<?xml version="1.0" encoding="utf-8"?>
<!-- Generator: Adobe Illustrator 21.1.0, SVG Export Plug-In . SVG Version: 6.00 Build 0)  -->
<!DOCTYPE svg PUBLIC "-//W3C//DTD SVG 1.1//EN" "http://www.w3.org/Graphics/SVG/1.1/DTD/svg11.dtd">
<svg version="1.1" id="Layer_1" xmlns="http://www.w3.org/2000/svg" xmlns:xlink="http://www.w3.org/1999/xlink" x="0px" y="0px"
	 viewBox="0 0 387.8 206.5" style="enable-background:new 0 0 387.8 206.5;" xml:space="preserve">
<style type="text/css">
	.st0{fill:#ED3A4B;}
</style>
<g>
	<path class="st0" d="M28,80.6c-5.7,0-5.7-1.2-5.7-5v-8.3H25l13,14.1h8.8h3.8H68v-0.8c-5.7,0-5.7-1.2-5.7-5V56.3c0-3.6,0-4.9,5-5
		c2.7,0.2,3.5,1.5,4,2.5l14.8,28.3H87l13.2-24.2c2.5-4.5,3.7-6.3,6.7-6.7c4.7,0.2,4.7,1.5,4.7,5v19.3c0,3.8,0,5-5.9,5v0.8h35.6
		l1.9-9.8h-1.1c-3.1,8.1-10.5,8.1-16.3,8.1c-4.3,0-4.3-0.8-4.3-4.8v-8.3c7.2,0,7.8,3.1,8.8,7.4h1.1V57.5h-1.1
		c-1,4.3-1.6,7.4-8.8,7.4V52.2h3.4c8.2,0,12.4,0.5,14.2,7.4h1.1v-9.2H107h-1.3h-11v0.8c2,0,4.9,0.3,4.9,2.3c0,0.9-0.5,2.1-1.3,3.7
		l-8,14.9l-8.6-16.5c-0.3-0.7-1.1-2.1-1.1-2.8c0-1.6,2.3-1.6,4.6-1.6v-0.8H68h-0.9H46.8v0.8c5.7,0,5.7,1.2,5.7,5v19.3
		c0,3.1,0,4.5-3.2,4.9c-1.5-0.3-2.2-1.2-3.5-2.5L35.4,66.8c5-0.7,9.1-3.6,9.1-7.6c0-6-6-8.7-15.1-8.7H7.1v0.8c5.7,0,5.7,1.2,5.7,5
		v19.2c0,3.8,0,5-5.7,5v0.8H28V80.6z M22.2,52.3h3.9c5.6,0,8.4,2.1,8.4,7c0,3.8-2.2,6.5-9.4,6.5h-2.9V52.3z"/>
	<path class="st0" d="M164.1,80.6c-5.7,0-5.7-1.2-5.7-5v-8.3h2.7L174,81.4h9.4h3.2h18v-0.8c-5.7,0-5.7-1.2-5.7-5V56.3
		c0-3.8,0-5,5.7-5v-0.8h-21.2v0.8c5.7,0,5.7,1.2,5.7,5v19.3c0,3.3,0,4.6-3.6,4.9c-1.6-0.3-2.4-1.1-3.7-2.6l-10.4-11.1
		c5-0.7,9.1-3.6,9.1-7.6c0-6-6-8.7-15.1-8.7h-22.2v0.8c5.7,0,5.7,1.2,5.7,5v19.2c0,3.8,0,5-5.7,5v0.8H164v-0.7H164.1z M158.4,52.3
		h3.9c5.6,0,8.4,2.1,8.4,7c0,3.8-2.2,6.5-9.3,6.5h-2.9L158.4,52.3L158.4,52.3z"/>
	<path class="st0" d="M210.9,76.6c0,2.6-1.6,3.8-5.6,3.8v0.8h13.5v-0.8c-4,0-5.6-1.3-5.6-3.8V56.4h0.1L239.9,82h1V55.1
		c0-2.5,1.6-3.8,5.5-3.8c5.7,0,5.8,1.2,5.8,5v19.3c0,3.8,0,5-5.9,5v0.8h35.6l1.9-9.8h-1.1c-3.1,8.1-10.5,8.1-16.3,8.1
		c-4.3,0-4.3-0.8-4.3-4.8v-8.3c7.2,0,7.8,3.1,8.8,7.4h1.1V57.5h-1.1c-1,4.3-1.6,7.4-8.8,7.4V52.2h3.4c8.2,0,12.4,0.5,14.2,7.4h1.1
		v-9.2h-34.3h-0.3H233v0.8c4,0,5.6,1.3,5.6,3.8v14.3h-0.1l-19.4-19h-14v0.8c2.9,0,3.8,0.9,5.8,2.8L210.9,76.6L210.9,76.6z"/>
	<path class="st0" d="M44.6,91.3c9.2,0,9.2,2.6,9.2,10.8v17.7H31v-17.7c0-8.1,0-10.8,9.2-10.8v-1.8h-34v1.8c9.2,0,9.2,2.6,9.2,10.8
		v41.4c0,8.1,0,10.8-9.2,10.8v1.8h34.1v-1.8c-9.2,0-9.2-2.6-9.2-10.8v-19.4h22.8v19.4c0,8.1,0,10.8-9.2,10.8v1.8h34.1v-1.8
		c-9.2,0-9.2-2.6-9.2-10.8v-41.4c0-8.1,0-10.8,9.2-10.8v-1.8H44.6V91.3z"/>
	<path class="st0" d="M346.5,89.5h-30.8v1.8c9.3,0,9.3,2.6,9.3,10.8v41.4c0,7.8,0,10.5-8.2,10.7l2.3-21.5h-2
		c-5.7,17.3-9.7,19.5-22.8,19.5c-10.5,0-11.2,0-11.2-10.2v-40c0-8.1,0-10.8,10.1-10.8v-1.8h-35.5v1.8c9.4,0,9.4,2.6,9.4,10.8v41.4
		c0,4.2,0,7-1.3,8.6c-2.5-2.2-4-5.7-5.3-8.4L234.2,88h-1.1l-25,52.1c-1.6,3.3-3.4,7.6-6.2,10.6c-0.5-0.7-1-1.4-1.6-2.3l-16.7-23.9
		c8-1.6,14.7-7.7,14.7-16.4c0-12.9-9.6-18.7-24.3-18.7h-35.8v1.8c9.2,0,9.2,2.6,9.2,10.8v41.4c0,7.7,0,10.5-7.7,10.7l2.8-19.3h-1.8
		c-5.1,17.3-17,17.3-26.6,17.3c-7,0-7-1.8-7-10.3v-17.9c11.7,0,12.7,6.6,14.3,15.8h1.8v-35.2h-1.8c-1.6,9.2-2.6,15.8-14.3,15.8v-27
		h5.6c13.3,0,20.2,1,23.1,15.9h1.8V89.5H81.5v1.8c9.5,0,9.5,2.6,9.5,10.8v41.4c0,8.1,0,10.8-9.5,10.8v1.8h56.8l0,0h33.4v-1.8
		c-9.2,0-9.2-2.6-9.2-10.8v-17.8h4.4l20.8,30.4H208l0,0h11v-1.8c-5.4-0.3-9.5-0.7-9.5-5.5c0-1.9,1-3.9,2.1-6.3l2.5-5.3h25.1
		l4.8,10.1c0.6,1.5,1.1,2.2,1.1,3.9c0,3.2-5.4,3.2-8.4,3.2v1.8h21.1h13.5h44.5h0.9h29c27.7,0,36.1-17.3,36.1-33.3
		C381.6,110.6,375.8,89.5,346.5,89.5z M167.2,122.3h-4.7v-29h6.3c9,0,13.5,4.4,13.5,15C182.3,116.5,178.8,122.3,167.2,122.3z
		 M215.8,133.5l10.9-22.8l10.7,22.8H215.8z M345.9,152.3c-3.5,0-5.2-0.9-5.2-4.6V93.3h4.1c9.7,0,19.5,6.6,19.5,30
		C364.2,136,361.6,152.3,345.9,152.3z"/>
</g>
</svg>
