<svg xmlns="http://www.w3.org/2000/svg" width="132" height="58" viewBox="0 0 132 58">
    <g fill="#FFF" fill-rule="nonzero">
        <path d="M6.767 17.491c0 2.278 0 3.006 2.458 3.006v.517H.303v-.517c2.458 0 2.458-.728 2.458-3.006V5.951c0-2.277 0-3.005-2.458-3.005v-.517h9.56c3.914 0 6.463 1.64 6.463 5.223 0 2.4-1.76 4.13-3.915 4.586l4.46 6.68c.668 1.033 1.032 1.61 2.064 1.61v.516h-5.432L7.95 12.541H6.767v4.95zm0-5.921H8.01c3.095 0 4.006-1.61 4.006-3.887 0-2.946-1.214-4.19-3.611-4.19h-1.67v8.077h.03z"/>
        <path d="M23.517 18.068c0 1.549 0 2.43 1.426 2.43v.516H18.51v-.486c1.427 0 1.427-.911 1.427-2.43v-6.862c0-1.488 0-2.49-1.427-2.49v-.517h5.007v9.84zm-1.79-16.033a2.029 2.029 0 0 1 1.942 2.095c.06 1.093-.728 2.034-1.82 2.095-1.093.06-2.034-.729-2.095-1.822V4.13a2.035 2.035 0 0 1 1.973-2.095zM26.37 10.81c-.668-1.67-1.214-2.064-1.76-2.064v-.517h6.342v.517c-.698 0-1.123.273-1.123.94 0 .578.455 1.64.698 2.187l1.82 4.525 1.457-3.826c.273-.76.82-2.035.82-2.855 0-.759-.668-.941-1.305-.941V8.26h3.884v.516c-.425 0-1.093.364-1.578 1.67l-4.37 10.962h-.607L26.37 10.81zM40.42 14.181c0 2.035 1.031 5.102 3.428 5.102 1.275 0 2.064-1.033 2.701-2.096l.425.304c-1.032 2.278-2.337 3.887-4.886 3.887-3.58 0-5.098-3.219-5.098-6.772 0-3.553 2.003-6.771 5.584-6.771 2.883 0 4.43 3.37 4.4 6.377l-6.555-.03zm3.398-.941c0-1.427 0-4.464-1.608-4.464-1.518 0-1.851 2.399-1.851 4.464h3.459zM52.8 11.114h.06c.79-1.397 2.034-3.28 3.733-3.28 1.032 0 1.578.73 1.578 1.762 0 .91-.425 1.974-1.396 1.974-1.214 0-1.426-1.063-2.063-1.063-.577 0-1.912.759-1.912 4.92v2.671c0 1.55 0 2.43 1.578 2.43v.516h-6.585v-.486c1.426 0 1.426-.91 1.426-2.43v-6.892c0-1.488 0-2.49-1.426-2.49v-.517H52.8v2.885zM63.451 18.068c0 1.549 0 2.43 1.396 2.43v.516h-6.433v-.486c1.426 0 1.426-.911 1.426-2.43v-6.862c0-1.488 0-2.49-1.426-2.49v-.517h5.007l.03 9.84zm-1.79-16.033c1.122.06 2.002.971 1.972 2.095.06 1.093-.728 2.034-1.82 2.095-1.093.06-2.034-.729-2.094-1.822V4.13c-.03-1.124.819-2.065 1.942-2.095zM70.4 9.839c.88-1.063 2.033-2.035 3.46-2.035 2.64 0 3.277 2.126 3.277 5.102v5.132c0 1.275 0 2.429 1.304 2.429v.516h-6.069v-.486c1.184 0 1.184-1.184 1.184-2.429v-5.223c0-1.883 0-3.158-1.153-3.158-.82 0-1.578.941-1.973 1.67v6.711c0 1.275 0 2.43 1.184 2.43v.516h-6.07v-.486c1.306 0 1.306-1.185 1.306-2.43v-6.862c0-1.488 0-2.49-1.427-2.49v-.517H70.4v1.61zM82.811 14.181c0 2.035 1.032 5.102 3.429 5.102 1.274 0 2.063-1.033 2.7-2.096l.426.304c-1.032 2.278-2.337 3.887-4.886 3.887-3.58 0-5.098-3.219-5.098-6.772 0-3.553 2.003-6.771 5.584-6.771 2.882 0 4.43 3.37 4.4 6.377l-6.555-.03zm3.399-.941c0-1.427 0-4.464-1.609-4.464-1.517 0-1.85 2.399-1.85 4.464h3.459zM11.804 50.985c0 4.07 0 5.375 4.4 5.375v.911H0v-.91c4.4 0 4.4-1.307 4.4-5.376V30.336c0-4.069 0-5.375-4.4-5.375v-.91h16.204v.91c-4.4 0-4.4 1.306-4.4 5.375v8.837h10.833v-8.837c0-4.069 0-5.375-4.4-5.375v-.91h16.204v.91c-4.4 0-4.4 1.306-4.4 5.375v20.65c0 4.068 0 5.374 4.4 5.374v.911H18.268v-.91c4.4 0 4.4-1.307 4.4-5.376V41.33H11.804v9.656zM42.058 45.064c0 3.644 1.881 9.11 6.13 9.11 2.306 0 3.702-1.853 4.824-3.766l.759.547c-1.881 4.07-4.218 6.954-8.74 6.954-6.402 0-9.103-5.77-9.103-12.147 0-6.407 3.611-12.116 9.984-12.116 5.128 0 7.95 6.013 7.859 11.388l-11.713.03zm6.069-1.7c0-2.551 0-7.957-2.883-7.957-2.7 0-3.307 4.312-3.307 7.956h6.19zM64.27 39.568h.091c1.396-2.49 3.642-5.861 6.676-5.861 1.82 0 2.853 1.306 2.853 3.158 0 1.64-.759 3.522-2.519 3.522-2.154 0-2.58-1.913-3.702-1.913-1.032 0-3.399 1.367-3.399 8.776v4.768c0 2.763 0 4.373 2.853 4.373v.91H55.319v-.91c2.579 0 2.579-1.61 2.579-4.373V39.78c0-2.672 0-4.464-2.58-4.464v-.91h8.983v5.162h-.03zM86.3 38.717c0-2.399-1.668-3.097-2.882-3.097-.971 0-3.004.395-3.004 1.761 0 .942 1.487 1.549 1.487 3.158 0 1.913-1.396 2.946-3.095 2.946-1.64 0-3.308-1.245-3.308-3.158 0-4.616 5.917-6.62 9.437-6.62 5.31 0 7.738 2.794 7.738 7.713v11.114c0 1.215 0 2.308.971 2.308.546 0 .88-.456 1.214-.911l.637.546c-1.153 2.005-2.792 3.462-5.098 3.462-2.245 0-3.975-1.154-4.157-3.644-1.82 1.792-4.34 3.644-6.949 3.644-2.428 0-4.248-1.852-4.248-4.707 0-4.099 2.58-6.103 11.197-10.476l.06-4.039zm0 6.104c-2.002 1.215-5.037 3.674-5.037 6.377 0 1.549 1.032 2.672 2.489 2.672 1.062 0 1.79-.638 2.579-1.366V44.82h-.03zM105.023 51.987c0 2.764 0 4.373 2.52 4.373v.911H96.04v-.91c2.58 0 2.58-1.61 2.58-4.374V29.425c0-2.672 0-4.464-2.58-4.464v-.91h8.952v27.936h.03zM129.39 51.745c0 1.76 0 3.4 2.58 3.4v.912l-8.133 1.913h-.85v-3.523l-.09.091c-1.396 1.761-3.005 3.401-5.554 3.401-5.917 0-8.466-6.164-8.466-11.721 0-8.138 4.157-12.542 8.77-12.542 2.336 0 3.823 1.003 5.31 2.855v-7.106c0-2.672 0-4.464-3.095-4.464v-.91h9.468v27.694h.06zm-6.402-12.147c-.85-1.792-2.276-3.523-4.249-3.523-3.125 0-3.186 6.711-3.186 9.08 0 2.703.091 9.839 3.702 9.839 1.67 0 3.035-1.913 3.733-3.371V39.598zM91.945.03c.09.03-.152.456-.334.79-.152.212-.303.607-.455.334-.152-.273.03-.699.152-.85.121-.152.485-.365.637-.274M130.119.516c.394-.182.242 1.002.182 1.093-.061.092-.395.03-.395.152s.304.334.273.456c0 0-.03.09-.121.121-.091.03-.82-.152-.91-.09-.182.12.85.394.85.515 0 .152-.152.274-.304.274h-.03c-.152 0-1.154-.425-1.275-.334-.121.09 1.365.637 1.365.759 0 .121-.182.212-.394.182-.303-.06-1.548-.577-1.73-.486-.182.091 1.7.79 1.76.88.061.092-.151.213-.394.183-.152-.03-2.064-.729-2.155-.668-.212.152 2.094.88 2.155 1.063.03.09-.122.212-.455.182-.243-.03-2.398-.88-2.489-.85-.273.151 2.337 1.062 2.398 1.154.06.09-.061.243-.456.182-.394-.061-2.579-1.002-2.791-.88-.06.03.03.09.243.212.637.334 2.306.91 2.397.971.09.061.06.304-.364.213-.425-.091-2.913-1.063-3.065-.972-.213.122 2.822 1.154 2.883 1.336.06.183-.091.213-.516.122-.273-.06-2.944-1.093-3.126-1.002-.303.152 2.883 1.184 3.004 1.366.061.091-.03.243-.455.152-.425-.091-3.065-1.184-3.398-1.093-.334.091 3.155 1.336 3.216 1.457.06.122-.06.243-.455.183-.395-.061-3.277-1.336-3.55-1.215-.274.121 3.368 1.336 3.52 1.549.06.09-.061.182-.486.09-.425-.09-3.611-1.335-3.823-1.244-.304.152 3.641 1.457 3.823 1.7.091.122 0 .213-.455.122-.486-.122-3.975-1.488-4.188-1.367-.303.152 3.975 1.58 4.158 1.792.09.121.06.304-.395.212-.455-.09-4.279-1.73-4.582-1.579-.364.183 4.4 1.762 4.552 1.974.06.091 0 .152-.395.122-.546-.061-4.703-1.822-4.885-1.7-.152.09.242.242.698.424 1.517.608 4.005 1.61 4.096 1.67.122.152-.06.243-.485.152-.364-.09-4.856-1.943-5.098-1.822-.152.091.212.243.758.456 1.518.577 4.188 1.64 4.249 1.761.06.122-.091.152-.456.091-.455-.06-5.128-2.034-5.4-1.822-.092.06.15.182.454.304 1.244.546 4.46 1.73 4.552 1.822.091.09.091.243-.334.152-.364-.091-5.25-2.005-5.432-1.883-.12.091.091.182.395.304 1.214.516 4.248 1.609 4.4 1.791.152.182.06.182-.395.091-.455-.09-4.855-1.882-5.128-1.73-.182.09.122.151.364.273 1.153.455 4.067 1.579 4.127 1.73.06.152-.09.183-.455.092-.364-.091-4.552-1.792-4.855-1.64-.182.091.09.152.394.273 1.184.486 3.672 1.458 3.793 1.58.152.181-.03.181-.364.12-.333-.06-4.339-1.67-4.612-1.518-.121.061.152.152.516.304 1.123.486 3.398 1.397 3.49 1.488.09.091 0 .182-.365.122-.273-.061-4.127-1.61-4.4-1.458-.121.06.091.152.577.334 1.153.425 3.216 1.336 3.277 1.427.091.152-.091.182-.455.091-.304-.06-3.915-1.518-4.157-1.427-.152.06.09.182.516.364 1.122.456 3.216 1.306 3.277 1.428.06.121 0 .182-.304.121-.303-.06-3.975-1.579-4.248-1.457-.152.09.212.182.546.334 1.153.485 3.247 1.336 3.247 1.457 0 .122-.121.152-.485.06-.243-.06-3.945-1.517-4.127-1.426-.182.09.303.243.607.394 1.092.456 3.095 1.276 3.186 1.367.09.091.03.213-.364.121-.395-.09-4.006-1.548-4.218-1.427-.152.06 0 .182.334.304 1.183.486 3.64 1.366 3.64 1.518 0 .152-.12.122-.454.06-.243-.06-4.218-1.578-4.37-1.487-.152.091.121.182.486.304 1.304.516 3.641 1.488 3.671 1.548.03.061-.03.213-.333.152-.304-.06-4.31-1.7-4.613-1.549-.121.061.122.243.577.426 1.517.577 3.702 1.427 3.762 1.579.03.06-.151.09-.424.06s-4.37-1.76-4.704-1.609c-.121.06.122.243.546.425 1.396.577 3.642 1.427 3.702 1.488.061.06 0 .152-.333.091-.395-.06-4.43-1.7-4.643-1.579-.152.091.03.213.425.364 1.183.456 3.338 1.306 3.429 1.428.09.121-.182.152-.455.06-.152-.06-3.976-1.579-4.158-1.488-.182.092-.06.183.486.395.94.334 1.82.729 2.7 1.215.03.091-.182.091-.394.091-.425-.06-3.277-1.366-3.611-1.215-.152.061.03.183.455.334.79.304 1.548.668 2.276 1.063.03.091-.091.091-.273.06-.182-.03-3.004-1.153-3.217-1.032-.121.061.122.243.425.365.85.334 2.064.941 2.124.972.061.03-.09.09-.333.06-.243-.03-2.732-1.093-3.096-.941-.151.06.122.213.425.334.668.243 1.335.547 1.973.911.03.06-.243.03-.395 0-.152-.03-2.458-.972-2.67-.911-.152.06-.06.213.212.304.607.273 1.335.637 1.335.759 0 .06-.303 0-.394-.03-.091-.03-1.73-.76-1.973-.608-.242.152.79.516.88.638-.03.152-.273.121-.485.09-.152-.03-1.001-.394-1.214-.272-.212.121.425.334.334.577-.121.09-.243.03-.425-.03-.182-.062-.516-.213-.637-.153-.122.061-.152.456-.152.456-.212 0-.394 0-.607.03-.06.061-.151.395-.485.486-.213.06-.425.182-.546.365-.183.182-2.003 2.398-2.216 2.58-.212.183-.91-.09-1.213-.182a8.91 8.91 0 0 0-2.003-.151c-.425.03-.85.06-1.244.182-.061 0-.03-.152.333-.365C93.068 20.953 130.12.547 130.12.516M107.42 10.355c-3.094-1.822-9.68-5.496-9.68-5.496s-.06-.03.061-.213c.122-.182.182-.152.182-.152l11.592 6.833 1.214-.638c-6.433-3.826-12.138-7.197-12.168-7.349-.091-.303 1.183-1.64 1.244-1.822.06-.182.03-1.305-.122-1.397-.151-.09-.515.061-.697.122-.183.06-.607.152-.85.941-.273.942-.486 1.519-.759 1.519s-1.547-.456-2.61-1.033A11.906 11.906 0 0 1 92.887.395c-.213-.152-.304-.274-.425-.243-.182.03-.304.303-.455.577a4.436 4.436 0 0 0-.274.546c-.121.183-.121.395-.03.456.152.091.546-.425.577-.334.03.091-.03.486.09.546.061.03.456-.364.456-.303.06.09 0 .546.09.607.062.03.456-.364.486-.304.03.061-.03.456.091.547.061.03.456-.304.456-.243 0 .06 0 .516.121.607.06.03.425-.334.425-.273 0 .06 0 .486.152.577.06.03.394-.334.394-.273 0 .06-.03.577.121.668.061.03.425-.425.425-.365 0 .061-.09.638.06.76.153.121.426-.486.456-.395.03.091-.121.668.06.79.122.06.486-.517.547-.456.06.06 0 .273-.243.85a7.572 7.572 0 0 1-1.274 1.822c-.122.122-.152 1.215.09 1.458.183.182.82-.182 1.032-.304a.644.644 0 0 0 .365-.577c0-.212.728-2.186.85-2.156.09 0 6.25 3.523 11.53 6.529l.273-.152a16.403 16.403 0 0 1-1.911-1.002"/>
        <path d="M129.178 21.682c-.06-.122-6.251-3.766-13.018-7.805l-1.548.82a66.514 66.514 0 0 0 1.912 1.063c.88.425 12.866 6.347 12.654 5.922"/>
    </g>
</svg>
