<?xml version="1.0" encoding="utf-8"?>
<!-- Generator: Adobe Illustrator 21.1.0, SVG Export Plug-In . SVG Version: 6.00 Build 0)  -->
<!DOCTYPE svg PUBLIC "-//W3C//DTD SVG 1.1//EN" "http://www.w3.org/Graphics/SVG/1.1/DTD/svg11.dtd">
<svg version="1.1" id="Layer_1" xmlns="http://www.w3.org/2000/svg" xmlns:xlink="http://www.w3.org/1999/xlink" x="0px" y="0px"
	 viewBox="0 0 387.8 206.5" style="enable-background:new 0 0 387.8 206.5;" xml:space="preserve">
<style type="text/css">
	.st0{fill:#ED3A4B;}
	.st1{fill:#FFFFFF;}
</style>
<g>
	<path class="st0" d="M6,69.1h63.4L70,82.7h-2.7c-1.3-4.3-3-7-5-8.3s-6.3-1.9-12.8-1.9h-6.2v40.9c0,3.1,0.7,5,2,5.7
		c1.4,0.7,4.3,1.2,8.9,1.5v1.5H21.5v-1.5c4.7-0.3,7.7-0.8,8.9-1.7c1.2-0.9,1.8-3,1.8-6.4V72.4h-6.3c-6.2,0-10.4,0.6-12.7,1.9
		c-2.2,1.3-3.9,4.1-5.1,8.3H5.3L6,69.1z"/>
	<path class="st0" d="M88.2,89.2c3.9,2.5,5.8,6.1,5.8,10.8H59.2c0.4,6,2.3,10.4,5.8,13.2c3.5,2.7,7.6,4.1,12.3,4.1
		c3.8,0,7.1-0.7,9.7-2.1s5.1-3.5,7.3-6.1l1.9,0.5c-1.5,3.3-4.3,6.4-8.4,9.2c-4.1,2.8-9.1,4.2-15.1,4.2c-6.9,0-12.2-1.8-15.9-5.5
		s-5.6-7.9-5.6-12.8c0-5.2,2.2-9.7,6.5-13.5s10-5.7,17-5.7C79.8,85.4,84.3,86.6,88.2,89.2z M61.9,92.1c-1.2,1.4-2,3.2-2.5,5.3h23.1
		c-0.4-2.6-1.1-4.5-2.1-5.8c-1.8-2.3-4.8-3.4-9-3.4C67.3,88.2,64.1,89.5,61.9,92.1z"/>
	<path class="st0" d="M92,120.8c3.4-0.2,5.7-0.7,6.9-1.5c1.2-0.7,1.8-2.2,1.8-4.3V76.9c0-1.7-0.2-2.9-0.6-3.5
		c-0.7-1.1-2.2-1.6-4.4-1.6c-0.5,0-1.1,0-1.7,0.1s-1.4,0.2-2.3,0.4V71c4.9-0.9,10.9-2.2,17.8-3.7c0.3,0,0.4,0.1,0.5,0.2
		c0.1,0.2,0.1,0.5,0.1,1v46.8c0,2.3,0.5,3.7,1.6,4.4c1.1,0.7,3.4,1.1,6.8,1.3v1.1H92V120.8z"/>
	<path class="st0" d="M152.8,89.2c3.9,2.5,5.8,6.1,5.8,10.8h-34.8c0.4,6,2.3,10.4,5.8,13.2c3.5,2.7,7.6,4.1,12.3,4.1
		c3.8,0,7.1-0.7,9.7-2.1c2.6-1.4,5.1-3.5,7.3-6.1l1.9,0.5c-1.5,3.3-4.3,6.4-8.4,9.2c-4.1,2.8-9.1,4.2-15.1,4.2
		c-6.9,0-12.2-1.8-15.9-5.5c-3.7-3.7-5.6-7.9-5.6-12.8c0-5.2,2.2-9.7,6.5-13.5s10-5.7,17-5.7C144.4,85.4,148.9,86.6,152.8,89.2z
		 M126.5,92.1c-1.2,1.4-2,3.2-2.5,5.3h23.1c-0.4-2.6-1.1-4.5-2.1-5.8c-1.8-2.3-4.8-3.4-9-3.4C131.9,88.2,128.7,89.5,126.5,92.1z"/>
	<path class="st0" d="M164.7,104.7c-1.8-2-2.8-4.2-2.8-6.7c0-3,1.7-5.9,5.1-8.7c3.4-2.7,8.2-4.1,14.4-4.1c2.7,0,5.6,0.4,8.8,1.3
		s6.3,1.3,9.3,1.3c0.8,0,1.9,0,3.5-0.1c1.6,0,2.7-0.1,3.4-0.1h0.7v3.2h-9.5c0.7,1.1,1.2,2,1.5,2.8c0.6,1.5,0.9,2.9,0.9,4.3
		c0,3-1.7,5.7-5.2,8.2s-8.1,3.7-13.9,3.7c-0.9,0-2.6-0.1-4.9-0.3c-1.1,0-2.5,0.6-4.2,1.9c-1.8,1.3-2.6,2.3-2.6,3.1
		c0,0.8,1.3,1.4,3.8,1.8c1.7,0.3,3.5,0.4,5.6,0.4c9.4,0,15.8,0.4,19.2,1.1c5.5,1.2,8.3,3.8,8.3,7.9c0,4.1-3.2,7.4-9.7,9.8
		c-6.4,2.4-13,3.7-19.5,3.7c-6,0-10.7-0.9-14.2-2.6c-3.5-1.7-5.3-3.5-5.3-5.4c0-0.9,0.5-1.9,1.4-2.7c0.9-0.9,2.8-2.2,5.5-4l3.6-2.3
		l0.7-0.5c-1.7-0.5-2.9-0.9-3.8-1.4c-1.5-0.8-2.2-1.7-2.2-2.8c0-1,0.6-2,1.9-3.2c1.3-1.2,4-3,8.1-5.6
		C169.1,108,166.5,106.7,164.7,104.7z M170.5,133.7c3.5,0.8,7.4,1.2,11.9,1.2c6.1,0,11-0.7,14.8-2.2s5.7-3.3,5.7-5.5
		c0-1.7-1.5-2.9-4.6-3.5c-1.9-0.3-5.5-0.5-10.8-0.6c-1.4,0-2.8-0.1-4.3-0.1s-2.9-0.1-4.1-0.1c-0.8,0-2.1-0.1-3.9-0.3
		c-1.8-0.2-3.1-0.3-4-0.5c-0.4,0-1.5,0.8-3.2,2.5s-2.6,3.2-2.6,4.6C165.3,131.3,167,132.8,170.5,133.7z M187.9,106.9
		c2.2-1.2,3.3-3.4,3.3-6.5c0-2.5-0.9-5.2-2.7-8.3c-1.8-3.1-4.7-4.6-8.8-4.6c-3.6,0-6,1.2-7.4,3.6c-0.7,1.3-1,2.8-1,4.7
		c0,3.2,1.1,6,3.2,8.5c2.2,2.5,5,3.8,8.4,3.8C184.8,108,186.5,107.7,187.9,106.9z"/>
	<path class="st0" d="M205.4,120.6c3.4-0.2,5.6-0.6,6.7-1.3c1.1-0.6,1.6-2,1.6-4.1V97.7c0-2.6-0.3-4.4-1-5.5s-1.9-1.7-3.7-1.7
		c-0.4,0-0.8,0-1.5,0.1c-0.6,0.1-1.2,0.1-1.9,0.3v-1.3c2.1-0.5,4.2-1.1,6.4-1.6s3.7-0.9,4.5-1.2c1.8-0.5,3.7-1.1,5.6-1.7
		c0.3,0,0.4,0.1,0.5,0.2s0.1,0.4,0.1,0.8v6.4c2.3-2.3,4.6-4.1,6.8-5.4s4.4-2,6.8-2c1.9,0,3.4,0.4,4.6,1.2c1.2,0.8,1.8,1.8,1.8,3
		c0,1.1-0.4,2-1.3,2.7c-0.9,0.7-2,1.1-3.4,1.1s-2.8-0.5-4.2-1.4s-2.5-1.4-3.3-1.4c-1.3,0-2.8,0.7-4.7,2.2s-2.8,3-2.8,4.5v17.6
		c0,2.2,0.7,3.8,2.2,4.7c1.5,0.9,3.9,1.3,7.3,1.2v1.3h-27v-1.2H205.4z"/>
	<path class="st0" d="M246.8,104.7c3.4-1.6,10.1-3.7,20.1-6.4V95c0-2.7-0.4-4.5-1.1-5.5c-1.2-1.7-3.8-2.6-7.7-2.6
		c-1.9,0-3.6,0.3-5.3,1s-2.5,1.7-2.5,2.9c0,0.3,0.1,0.8,0.3,1.6c0.2,0.7,0.3,1.2,0.3,1.4c0,1.5-0.7,2.5-2,3
		c-0.8,0.3-1.7,0.5-2.7,0.5c-1.6,0-2.9-0.4-3.8-1.1c-0.9-0.8-1.3-1.6-1.3-2.6c0-1.8,1.6-3.7,4.7-5.7c3.2-2,7.8-3,13.9-3
		c7.1,0,11.9,1.6,14.4,4.9c1.3,1.8,2,4.4,2,7.8v15.6c0,1.5,0.1,2.5,0.4,3.1c0.5,1,1.5,1.5,3,1.5c0.8,0,1.5-0.1,2.1-0.3
		c0.5-0.2,1.5-0.6,2.8-1.3v2c-1.2,1-2.4,1.8-3.8,2.5c-2,1-4.1,1.5-6.2,1.5c-2.5,0-4.3-0.6-5.4-1.7s-1.7-2.5-1.8-4.1
		c-2.8,1.7-5.2,3-7.1,3.8c-3.3,1.4-6.5,2.1-9.5,2.1c-3.1,0-5.9-0.8-8.2-2.4s-3.5-3.6-3.5-6C238.8,110.4,241.5,107.3,246.8,104.7z
		 M266.9,100.3c-4.2,1-7.7,2.1-10.4,3.3c-5.3,2.3-7.9,4.9-7.9,7.9c0,2.4,1.1,4.1,3.3,5.2c1.4,0.7,3,1.1,4.8,1.1
		c2.4,0,4.7-0.5,6.9-1.4c2.2-1,3.3-2.2,3.3-3.7V100.3z"/>
	<path class="st0" d="M278.9,138c3.4-0.2,5.6-0.7,6.5-1.6c0.9-0.9,1.4-2.3,1.4-4.2V94.9c0-2-0.3-3.2-1-3.8c-0.7-0.6-1.9-0.8-3.8-0.8
		c-0.4,0-0.8,0-1.1,0c-0.3,0-0.8,0.1-1.5,0.2v-1.3l5.2-1.2c0.2,0,3.9-0.9,11-2.7c0.2,0,0.3,0.1,0.4,0.2s0.1,0.3,0.1,0.4v5.3
		c2.4-1.7,4.5-3,6.4-3.8c3.3-1.5,6.7-2.2,10.1-2.2c5,0,9.4,1.5,13,4.6s5.5,7.2,5.5,12.5c0,5.2-2.2,9.9-6.5,14.1
		c-4.4,4.2-9.9,6.3-16.5,6.3c-2,0-3.8-0.2-5.3-0.5c-2.3-0.5-4.5-1.5-6.5-3V132c0,2.6,0.6,4.2,1.8,4.8c1.2,0.6,3.8,1,7.9,1.2v1.4
		h-27.1V138z M300.5,118.7c1.9,0.9,4.1,1.3,6.7,1.3c3.9,0,7.3-1.4,10.1-4.2c2.8-2.8,4.2-6.7,4.2-11.7c0-4.8-1.5-8.3-4.4-10.7
		c-2.9-2.4-6.3-3.5-10.1-3.5c-2.7,0-5.2,0.6-7.4,1.8c-2.2,1.2-3.3,2.3-3.3,3.5v19.6C297.2,116.5,298.6,117.8,300.5,118.7z"/>
	<path class="st0" d="M328.8,120.8c3-0.3,5-0.8,5.9-1.6c0.9-0.8,1.4-2.6,1.4-5.4V76.4c0-1.5-0.3-2.5-0.8-3.2s-1.8-1-3.9-1
		c-0.4,0-0.8,0-1.2,0.1c-0.4,0-0.8,0.1-1.3,0.1V71c1.6-0.3,3.6-0.7,5.9-1.2c2.4-0.5,4-0.8,4.9-1l5.3-1.2l0.1,0.3v23.9
		c2.3-1.9,4.3-3.3,6.1-4.1c3.2-1.6,6.7-2.3,10.4-2.3c5.9,0,10,1.8,12.1,5.3c1.2,1.9,1.8,4.3,1.8,7.4V114c0,2.8,0.4,4.6,1.3,5.4
		s2.7,1.4,5.5,1.6v1.1h-23.7V121c3.2-0.3,5.2-0.8,6.1-1.6c0.9-0.8,1.4-2.6,1.4-5.4V98c0-2.5-0.6-4.6-1.8-6.1
		c-1.2-1.6-3.4-2.3-6.7-2.3c-2.8,0-5.6,0.7-8.3,2.2c-2.7,1.5-4,2.4-4,2.8v19.2c0,2.9,0.5,4.7,1.4,5.5c0.9,0.7,3,1.2,6.1,1.6v1.1
		h-24.2v-1.2H328.8z"/>
</g>
<g>
	<path class="st1" d="M163.6,67.8h11.9v2.8H175c-0.2-1-0.7-1.7-1.6-2.1c-0.5-0.2-1.2-0.3-2.2-0.3v7.4c0,0.5,0.1,0.9,0.4,1
		c0.3,0.2,0.8,0.3,1.6,0.3v0.4h-7V77c0.8,0,1.3-0.1,1.5-0.3c0.3-0.2,0.4-0.5,0.4-1v-7.4c-1,0-1.7,0.1-2.2,0.3
		c-0.9,0.4-1.5,1.1-1.6,2.1h-0.6L163.6,67.8z"/>
	<path class="st1" d="M176.2,77c0.5,0,0.9-0.1,1.1-0.2c0.4-0.1,0.5-0.4,0.5-0.8v-6.8c0-0.4-0.2-0.7-0.5-0.8
		c-0.2-0.1-0.6-0.1-1.2-0.2v-0.4h6.7v0.4c-0.6,0-1,0.1-1.2,0.2c-0.4,0.1-0.6,0.4-0.6,0.8v2.9h4.7v-2.9c0-0.4-0.2-0.7-0.5-0.8
		c-0.2-0.1-0.6-0.1-1.2-0.2v-0.4h6.7v0.4c-0.6,0-1,0.1-1.2,0.2c-0.4,0.1-0.5,0.4-0.5,0.8V76c0,0.4,0.2,0.7,0.6,0.8
		c0.2,0.1,0.6,0.1,1.1,0.2v0.4H184V77c0.6,0,1-0.1,1.2-0.2c0.4-0.1,0.5-0.4,0.5-0.8v-3.3H181V76c0,0.4,0.2,0.7,0.6,0.8
		c0.2,0.1,0.6,0.1,1.2,0.1v0.4h-6.7L176.2,77L176.2,77z"/>
	<path class="st1" d="M191.2,77.4V77c0.6,0,1-0.1,1.2-0.2c0.4-0.1,0.5-0.4,0.5-0.8v-6.8c0-0.4-0.2-0.7-0.6-0.8
		c-0.2-0.1-0.6-0.1-1.2-0.2v-0.4h11.3v2.8H202c-0.2-0.9-0.7-1.5-1.3-1.9c-0.6-0.3-1.7-0.5-3.3-0.5c-0.6,0-1,0-1.1,0.1
		c-0.2,0.1-0.2,0.3-0.2,0.5v3.3c1.1,0,1.9-0.1,2.3-0.4c0.4-0.3,0.7-0.9,0.9-1.7h0.5v4.8h-0.5c-0.1-0.8-0.4-1.4-0.9-1.7
		c-0.4-0.3-1.2-0.5-2.3-0.5V76c0,0.3,0.1,0.5,0.3,0.6s0.7,0.2,1.3,0.2c1.3,0,2.3-0.2,3.1-0.5s1.5-1,2.1-2h0.5l-0.8,2.9h-11.4V77.4z"
		/>
</g>
</svg>
