<svg xmlns="http://www.w3.org/2000/svg" width="171" height="33" viewBox="0 0 171 33">
    <g fill="#FFF" fill-rule="nonzero">
        <path d="M.304 1.008H29.12l.274 6.173h-1.218c-.608-1.925-1.369-3.209-2.282-3.79-.912-.58-2.86-.885-5.811-.885h-2.83v18.577c0 1.406.304 2.261.913 2.598.608.336 1.947.55 4.016.672v.672H7.333v-.672c2.16-.122 3.499-.367 4.016-.764.548-.397.791-1.375.791-2.933V2.506H9.28c-2.799 0-4.746.305-5.75.886-1.005.58-1.796 1.833-2.313 3.789H0l.304-6.173z"/>
        <path d="M37.577 10.144a5.52 5.52 0 0 1 2.648 4.89H24.433c.152 2.719 1.034 4.735 2.617 5.988a8.606 8.606 0 0 0 5.598 1.864c1.735 0 3.225-.336 4.412-.978a12.468 12.468 0 0 0 3.317-2.75l.882.214c-.67 1.497-1.947 2.903-3.834 4.186-1.856 1.284-4.138 1.925-6.846 1.925-3.103 0-5.538-.825-7.241-2.505-1.704-1.68-2.556-3.606-2.556-5.806 0-2.383.973-4.43 2.951-6.141 1.978-1.712 4.534-2.598 7.698-2.598 2.19-.06 4.32.52 6.146 1.711zM25.68 11.49c-.578.703-.943 1.528-1.156 2.414h10.498c-.183-1.192-.487-2.047-.944-2.628-.821-1.039-2.16-1.558-4.077-1.558-1.917 0-3.347.58-4.32 1.772z"/>
        <path d="M39.281 24.536c1.552-.092 2.587-.336 3.134-.672.548-.336.822-1.008.822-1.986V4.583c0-.794-.091-1.314-.274-1.62-.335-.488-1.004-.763-2.008-.763-.244 0-.517.03-.76.061-.275.03-.61.092-1.035.153v-.55c2.22-.428 4.929-.978 8.093-1.711.122 0 .183.03.213.122.03.153.061.306.03.458V21.97c0 1.04.244 1.681.73 1.987.488.305 1.522.488 3.074.58v.489H39.25v-.489h.031z"/>
        <path d="M66.848 10.144a5.52 5.52 0 0 1 2.647 4.89H53.704c.182 2.719 1.034 4.735 2.616 5.988a8.606 8.606 0 0 0 5.599 1.864 8.887 8.887 0 0 0 4.412-.978c1.278-.702 2.373-1.65 3.317-2.75l.882.214c-.67 1.497-1.947 2.903-3.834 4.186-1.856 1.284-4.138 1.925-6.846 1.925-3.104 0-5.538-.825-7.242-2.505-1.704-1.68-2.556-3.606-2.556-5.806 0-2.383.974-4.43 2.952-6.141 1.978-1.712 4.534-2.598 7.728-2.598 2.13-.091 4.29.52 6.116 1.711zM54.921 11.49a6.338 6.338 0 0 0-1.156 2.414h10.497c-.183-1.192-.487-2.047-.943-2.628-.822-1.039-2.16-1.558-4.078-1.558-1.886 0-3.347.58-4.32 1.772z"/>
        <path d="M72.203 17.172a4.441 4.441 0 0 1-1.247-3.055c0-1.375.76-2.69 2.312-3.942 1.552-1.253 3.712-1.864 6.542-1.864 1.37.03 2.708.214 4.017.611a15.01 15.01 0 0 0 4.198.611c.335 0 .883 0 1.583-.03s1.217-.03 1.521-.03h.304v1.435h-4.29c.243.428.487.856.7 1.284.274.61.395 1.283.426 1.955 0 1.345-.791 2.597-2.343 3.697-1.582 1.131-3.682 1.681-6.329 1.681-.426 0-1.156-.061-2.251-.153-.487 0-1.126.275-1.917.856-.791.58-1.187 1.039-1.187 1.405 0 .367.578.642 1.734.825.852.123 1.704.184 2.556.184 4.26 0 7.15.183 8.702.52 2.495.55 3.773 1.74 3.773 3.574 0 1.864-1.46 3.361-4.381 4.461a24.464 24.464 0 0 1-8.854 1.65c-2.708 0-4.869-.397-6.481-1.16-1.583-.795-2.404-1.62-2.404-2.476.03-.489.243-.947.639-1.253a17.847 17.847 0 0 1 2.495-1.802l1.643-1.04.304-.213a11.33 11.33 0 0 1-1.704-.611c-.67-.367-.973-.795-.973-1.253 0-.428.273-.917.852-1.436.578-.52 1.795-1.375 3.681-2.567-1.612-.305-2.8-.947-3.62-1.864zm2.648 13.2c1.764.397 3.59.58 5.385.58 2.739 0 4.99-.335 6.724-1.008 1.735-.672 2.587-1.527 2.587-2.505 0-.795-.7-1.314-2.1-1.589-.852-.153-2.495-.244-4.898-.275l-1.948-.061c-.67-.03-1.308-.03-1.856-.061-.365 0-.943-.061-1.765-.153-.821-.092-1.43-.153-1.825-.214-.213 0-.7.367-1.46 1.13-.761.765-1.157 1.437-1.187 2.078-.03 1.009.76 1.681 2.343 2.078zm7.91-12.16c1.005-.581 1.491-1.56 1.491-2.965 0-1.13-.395-2.383-1.217-3.789-.821-1.405-2.16-2.108-4.016-2.108-1.613 0-2.738.55-3.347 1.65a4.782 4.782 0 0 0-.487 2.139c0 1.436.517 2.811 1.46 3.88a4.8 4.8 0 0 0 3.804 1.712c.791 0 1.582-.153 2.313-.52z"/>
        <path d="M90.642 24.444c1.522-.091 2.526-.275 3.043-.58.517-.306.76-.917.76-1.864v-7.975c0-1.161-.152-2.017-.456-2.506-.304-.488-.882-.763-1.673-.763-.152 0-.396 0-.67.03s-.547.061-.852.122v-.58l2.89-.734c1.005-.244 1.674-.427 2.07-.519.821-.214 1.673-.489 2.556-.764.121 0 .182.03.213.092.03.122.06.244.03.366v2.903a16.08 16.08 0 0 1 3.073-2.475 5.718 5.718 0 0 1 3.073-.886c.73-.03 1.461.153 2.07.55.486.275.79.795.79 1.345 0 .488-.212.947-.608 1.222-.426.336-.974.52-1.521.489-.67 0-1.34-.214-1.917-.611-.64-.398-1.156-.612-1.522-.612-.578 0-1.277.337-2.13 1.009-.851.672-1.277 1.344-1.277 2.078v7.975c0 1.008.334 1.71 1.004 2.108.67.397 1.764.58 3.316.55v.58H90.612v-.55h.03z"/>
        <path d="M109.385 17.203c1.522-.703 4.564-1.68 9.128-2.903v-1.467c0-1.191-.152-2.047-.486-2.505-.579-.795-1.735-1.192-3.5-1.192-.821 0-1.643.153-2.403.458-.761.306-1.157.764-1.157 1.314.03.245.061.49.122.703.061.214.091.428.122.642a1.386 1.386 0 0 1-.913 1.375 3.487 3.487 0 0 1-1.247.244 2.708 2.708 0 0 1-1.735-.52 1.573 1.573 0 0 1-.608-1.16c0-.825.73-1.68 2.16-2.598 1.43-.916 3.53-1.344 6.298-1.344 3.226 0 5.416.733 6.542 2.23.609.826.913 2.017.913 3.576v7.119c-.03.489.03.978.213 1.406.213.458.67.702 1.339.702.334 0 .639-.03.943-.122.456-.183.882-.367 1.278-.611v.917a7.874 7.874 0 0 1-1.704 1.13 6.53 6.53 0 0 1-2.83.672c-1.125 0-1.947-.244-2.464-.794a2.839 2.839 0 0 1-.822-1.864 21.918 21.918 0 0 1-3.225 1.742c-1.37.61-2.83.916-4.29.947a6.327 6.327 0 0 1-3.682-1.07c-1.034-.702-1.582-1.619-1.552-2.719-.03-1.711 1.156-3.147 3.56-4.308zm9.128-1.986a28.223 28.223 0 0 0-4.716 1.497c-2.373 1.07-3.59 2.261-3.59 3.575a2.507 2.507 0 0 0 1.49 2.383 4.4 4.4 0 0 0 2.161.49c1.095 0 2.16-.215 3.134-.643 1.004-.427 1.521-.977 1.521-1.65v-5.652z"/>
        <path d="M123.93 32.358c1.551-.06 2.525-.305 2.95-.702.427-.398.64-1.04.64-1.895v-17.02c0-.885-.152-1.466-.457-1.741-.304-.275-.882-.367-1.734-.367-.183 0-.365 0-.517.03-.152 0-.396.031-.67.062v-.58l2.374-.55c.09 0 1.734-.428 4.99-1.223.06 0 .152.03.182.092.03.061.061.122.061.183V11a18.634 18.634 0 0 1 2.89-1.742 11.387 11.387 0 0 1 4.595-.977c2.16-.062 4.26.702 5.903 2.077 1.643 1.375 2.465 3.27 2.465 5.684 0 2.352-1.004 4.491-2.982 6.416-1.978 1.925-4.443 2.903-7.455 2.903-.821 0-1.613-.061-2.404-.244a7.362 7.362 0 0 1-2.92-1.375v5.805c0 1.192.273 1.925.82 2.2.549.275 1.735.459 3.591.55v.611H123.96v-.55h-.03zm9.797-8.8a6.8 6.8 0 0 0 3.012.58c1.734.031 3.378-.671 4.595-1.894 1.278-1.283 1.917-3.025 1.917-5.286 0-2.17-.67-3.789-1.978-4.858a7.368 7.368 0 0 0-7.942-.794c-1.004.55-1.521 1.069-1.521 1.588v8.923a4.261 4.261 0 0 0 1.917 1.741z"/>
        <path d="M146.537 24.536c1.369-.122 2.251-.367 2.677-.703.426-.336.64-1.16.64-2.475V4.338a2.458 2.458 0 0 0-.366-1.466c-.243-.305-.821-.458-1.765-.458-.182 0-.365 0-.547.03l-.578.062v-.642l2.708-.55c1.064-.214 1.795-.367 2.22-.458l2.374-.52.06.122v10.848c.853-.734 1.796-1.345 2.8-1.895a10.976 10.976 0 0 1 4.716-1.07c2.678 0 4.504.795 5.508 2.415.547.855.79 1.955.79 3.36v7.212c0 1.253.214 2.078.61 2.444.395.367 1.247.611 2.494.734v.488h-10.77v-.488c1.46-.153 2.372-.398 2.798-.734.426-.336.609-1.16.609-2.475v-7.12c.06-.977-.243-1.955-.822-2.78-.547-.703-1.551-1.07-3.042-1.07a7.603 7.603 0 0 0-3.743.979c-1.217.672-1.825 1.1-1.825 1.283v8.739c0 1.314.213 2.139.639 2.475.426.336 1.369.55 2.768.703v.488h-10.953v-.458zM71.9.458h5.385v1.284h-.244a1.182 1.182 0 0 0-.73-.948 2.868 2.868 0 0 0-1.004-.152v3.391c-.03.184.03.367.183.459.212.091.486.152.73.122v.153h-3.195v-.153c.243.03.487-.03.7-.122a.675.675 0 0 0 .182-.459V.673c-.334 0-.67.03-1.004.152-.395.153-.7.52-.73.947h-.274V.458zM77.62 4.614c.182 0 .334-.03.517-.061.152-.061.273-.214.243-.367V1.07c0-.152-.06-.305-.213-.366A1.681 1.681 0 0 0 77.65.61V.458h3.012v.153c-.182 0-.365.03-.548.061-.152.061-.273.214-.243.367v1.344h2.13V1.07a.397.397 0 0 0-.244-.366A2.06 2.06 0 0 0 81.18.61V.458h3.043v.153c-.182 0-.365.03-.548.092a.397.397 0 0 0-.243.366v3.117c0 .183.091.336.274.367.152.06.335.06.517.06v.154H81.18v-.153c.183 0 .365-.03.548-.061.152-.061.274-.214.243-.367V2.69h-2.13v1.467c0 .183.092.336.274.397.183.06.366.06.518.06v.154h-3.013v-.153zM84.374 4.797v-.153c.183 0 .365-.03.548-.06.152-.062.274-.215.243-.367V1.069c0-.183-.091-.336-.274-.366-.182-.061-.365-.092-.547-.061V.458h5.142v1.284h-.213a1.291 1.291 0 0 0-.578-.856c-.487-.183-.974-.275-1.491-.214-.183 0-.365 0-.517.061a.278.278 0 0 0-.122.245v1.466c.365.031.73-.03 1.034-.183a1.47 1.47 0 0 0 .426-.764h.244v2.17h-.244a1.17 1.17 0 0 0-.395-.764 1.864 1.864 0 0 0-1.065-.214v1.558c0 .122.03.214.152.275.183.061.396.092.609.061.486.03.943-.06 1.4-.244.395-.183.73-.52.973-.886h.243l-.365 1.344h-5.203z"/>
    </g>
</svg>
