<svg id="Layer_1" data-name="Layer 1" xmlns="http://www.w3.org/2000/svg" viewBox="0 0 566.2 149.53"><defs><style>.cls-1{fill:#fff;}.cls-2{fill:none;}</style></defs><title>Artboard 2</title><path class="cls-1" d="M3.27,20.09H98l.89,20.18h-4q-2.94-9.51-7.48-12.38T68.27,25H59V85.8c0,4.57,1,7.41,3,8.5s6.43,1.82,13.24,2.17v2.2H26.41v-2.2Q37,95.89,39.66,94t2.61-9.58V25h-9.4Q19,25,13.94,27.86T6.38,40.27H2.29Z"/><path class="cls-1" d="M125.83,49.93a18.05,18.05,0,0,1,8.67,16H82.58q.81,13.42,8.59,19.56a28.76,28.76,0,0,0,18.39,6.13q8.59,0,14.48-3.18a38.4,38.4,0,0,0,10.87-9l2.86.7q-3.35,7.38-12.55,13.65t-22.53,6.27q-15.36,0-23.75-8.23t-8.38-19q0-11.65,9.73-20.12t25.35-8.46A36.09,36.09,0,0,1,125.83,49.93ZM86.67,54.37a18.86,18.86,0,0,0-3.76,7.88h34.5q-.9-5.79-3.1-8.64-4-5.1-13.41-5.1T86.67,54.37Z"/><path class="cls-1" d="M131.4,97.05q7.59-.52,10.3-2.18t2.7-6.46V31.75q0-3.83-.9-5.28Q141.87,24,136.87,24a18.83,18.83,0,0,0-2.49.17c-.9.12-2,.29-3.39.52V22.82q11-2.09,26.57-5.57c.38,0,.61.12.69.35a5.22,5.22,0,0,1,.13,1.51V88.64c0,3.36.82,5.54,2.45,6.52s5,1.62,10.14,1.89v1.62H131.4Z"/><path class="cls-1" d="M222,49.93a18.06,18.06,0,0,1,8.66,16H178.72q.83,13.42,8.59,19.56a28.79,28.79,0,0,0,18.4,6.13,30.14,30.14,0,0,0,14.47-3.18,38.26,38.26,0,0,0,10.87-9l2.87.7q-3.36,7.38-12.56,13.65t-22.52,6.27q-15.37,0-23.76-8.23t-8.38-19q0-11.65,9.73-20.12t25.35-8.46A36.13,36.13,0,0,1,222,49.93Zm-39.17,4.44a19,19,0,0,0-3.76,7.88h34.51q-.9-5.79-3.11-8.64-4-5.1-13.41-5.1T182.81,54.37Z"/><path class="cls-1" d="M239.58,73a14.42,14.42,0,0,1-4.13-10q0-6.8,7.61-12.88T264.56,44a49.16,49.16,0,0,1,13.16,2,51.76,51.76,0,0,0,13.82,2q1.72,0,5.19-.09c2.32-.06,4-.09,5-.09h1v4.7H288.6a43,43,0,0,1,2.29,4.23,16.88,16.88,0,0,1,1.39,6.38q0,6.62-7.73,12.15t-20.81,5.54c-1.36,0-3.81-.18-7.36-.52q-2.37,0-6.29,2.84t-3.93,4.64c0,1.24,1.91,2.14,5.73,2.72a54.86,54.86,0,0,0,8.36.58q21,0,28.58,1.68,12.36,2.73,12.36,11.72,0,9.16-14.43,14.61a81.8,81.8,0,0,1-29.15,5.45q-13.41,0-21.26-3.85t-7.85-8.09a5.74,5.74,0,0,1,2.08-4.09,60.56,60.56,0,0,1,8.18-5.94l5.38-3.43,1-.69a30.27,30.27,0,0,1-5.61-2q-3.24-1.8-3.24-4.12c0-1.43.94-3,2.82-4.73s5.9-4.51,12.06-8.37Q243.71,77.45,239.58,73Zm8.67,43.14A76,76,0,0,0,266,118q13.57,0,22.08-3.33t8.5-8.21q0-3.89-6.88-5.16-4.26-.75-16.14-.87l-6.39-.15q-3.36-.08-6.15-.2-1.8-.06-5.81-.46c-2.68-.27-4.67-.51-6-.7q-1,0-4.77,3.66t-3.88,6.84Q240.52,114.28,248.25,116.12Zm26-39.83q4.91-2.79,4.9-9.69,0-5.5-4-12.41t-13.21-6.9q-8,0-11,5.39a14.46,14.46,0,0,0-1.56,7,19,19,0,0,0,4.83,12.7A15.7,15.7,0,0,0,266.69,78,14.91,14.91,0,0,0,274.21,76.29Z"/><path class="cls-1" d="M300.18,96.76c5-.31,8.34-.94,10-1.89s2.45-3,2.45-6.06V62.66c0-3.83-.5-6.56-1.51-8.21S308.24,52,305.57,52c-.54,0-1.26,0-2.16.14s-1.84.23-2.83.38V50.6l9.54-2.38Q315,47,316.89,46.48c2.71-.73,5.51-1.57,8.39-2.49.38,0,.61.09.69.29a3.74,3.74,0,0,1,.13,1.21V55a54.46,54.46,0,0,1,10.12-8.06A19.59,19.59,0,0,1,346.35,44a11.92,11.92,0,0,1,6.8,1.77,5.23,5.23,0,0,1,2.63,4.44,5,5,0,0,1-2,4,7.72,7.72,0,0,1-5,1.62,11.43,11.43,0,0,1-6.26-2q-3.15-2-4.95-2c-1.91,0-4.25,1.1-7,3.28s-4.17,4.44-4.17,6.76V88c0,3.33,1.09,5.63,3.27,6.93s5.81,1.9,10.88,1.83v1.91H300.18Z"/><path class="cls-1" d="M361.8,73.1q7.53-3.48,30-9.46V58.71q0-5.91-1.64-8.23-2.78-3.88-11.53-3.89a21.22,21.22,0,0,0-7.93,1.51c-2.5,1-3.76,2.48-3.76,4.29a11.53,11.53,0,0,0,.41,2.35,12.42,12.42,0,0,1,.41,2.12,4.55,4.55,0,0,1-3,4.52,10.11,10.11,0,0,1-4.08.76A8.35,8.35,0,0,1,355,60.43a5,5,0,0,1-2-3.8q0-4.07,7.07-8.5t20.73-4.43q15.87,0,21.51,7.3,3,4,3,11.66V85.91a11.21,11.21,0,0,0,.66,4.64c.7,1.51,2.18,2.26,4.41,2.26a10.09,10.09,0,0,0,3.11-.4,35.83,35.83,0,0,0,4.25-2v3a25.1,25.1,0,0,1-5.64,3.71,21.27,21.27,0,0,1-9.32,2.21c-3.71,0-6.39-.85-8.06-2.56a9.42,9.42,0,0,1-2.74-6.08,80.67,80.67,0,0,1-10.63,5.68,36.42,36.42,0,0,1-14.14,3.13A21.08,21.08,0,0,1,355.1,96q-5.16-3.51-5.15-8.9Q350,78.72,361.8,73.1Zm30-6.56a93.61,93.61,0,0,0-15.54,4.87Q364.5,76.59,364.5,83.13a8.18,8.18,0,0,0,4.91,7.77,15.44,15.44,0,0,0,7.11,1.62,25.71,25.71,0,0,0,10.34-2.14q5-2.14,4.95-5.45Z"/><path class="cls-1" d="M409.58,122.62q7.64-.34,9.7-2.32t2.07-6.21V58.42c0-2.93-.5-4.82-1.51-5.65s-2.9-1.25-5.68-1.25q-.9,0-1.68.06c-.52,0-1.27.12-2.25.23V49.9L418,48.1q.4-.06,16.43-4a.75.75,0,0,1,.62.26,1,1,0,0,1,.2.61V52.8a59,59,0,0,1,9.49-5.68,37,37,0,0,1,15.12-3.25,29.26,29.26,0,0,1,19.42,6.81q8.14,6.8,8.14,18.62,0,11.6-9.77,21t-24.57,9.44a34,34,0,0,1-7.93-.81,26.14,26.14,0,0,1-9.65-4.46v19q0,5.85,2.7,7.19T450,122.5v2H409.58Zm32.25-28.79a23.63,23.63,0,0,0,9.94,1.94,20.56,20.56,0,0,0,15.08-6.23q6.25-6.23,6.26-17.34,0-10.65-6.5-15.93a24.31,24.31,0,0,0-26.13-2.63q-5,2.63-5,5.18V88A13.27,13.27,0,0,0,441.83,93.83Z"/><path class="cls-1" d="M483.94,97.05q6.71-.64,8.79-2.35t2.09-8.09V30.94a7.85,7.85,0,0,0-1.19-4.79q-1.19-1.53-5.76-1.53c-.61,0-1.19,0-1.76.08l-1.92.21V22.82L493.06,21q5.26-1.06,7.32-1.53l7.84-1.74.17.4V53.73a50.58,50.58,0,0,1,9.16-6.15,35.16,35.16,0,0,1,15.53-3.48q13.24,0,18.07,7.89,2.63,4.17,2.62,11V86.61c0,4.1.67,6.76,2,8s4.08,2,8.22,2.44v1.62H528.58V97.05q7.13-.7,9.16-2.38c1.36-1.12,2-3.81,2-8.06V63.12a14.6,14.6,0,0,0-2.66-9.1q-2.65-3.48-10-3.48a25.42,25.42,0,0,0-12.34,3.25q-6,3.24-6,4.23V86.61c0,4.33.7,7,2.12,8.12s4.45,1.85,9.08,2.32v1.62H483.94Z"/><polygon class="cls-2" points="237.83 15.75 237.83 34.17 412.45 34.17 412.45 15.75 237.83 15.75 237.83 15.75"/><path class="cls-1" d="M238.6,18.23h17.7l0,4.23h-.84a3.83,3.83,0,0,0-2.39-3.07,9.55,9.55,0,0,0-3.3-.48V30a1.75,1.75,0,0,0,.57,1.54,4.83,4.83,0,0,0,2.36.38v.53H242.25v-.53a4.5,4.5,0,0,0,2.29-.39,1.73,1.73,0,0,0,.57-1.53V18.91a9.87,9.87,0,0,0-3.31.48,3.54,3.54,0,0,0-2.38,3.07h-.85Z"/><path class="cls-1" d="M257.38,31.89a5.58,5.58,0,0,0,1.67-.24,1.22,1.22,0,0,0,.81-1.24V20.24a1.18,1.18,0,0,0-.73-1.2,6.25,6.25,0,0,0-1.75-.28v-.53h9.95v.53a6.59,6.59,0,0,0-1.8.25,1.21,1.21,0,0,0-.83,1.23V24.6h7V20.24a1.2,1.2,0,0,0-.79-1.22,6.49,6.49,0,0,0-1.83-.26v-.53h10v.53a6.37,6.37,0,0,0-1.77.27,1.19,1.19,0,0,0-.79,1.21V30.41a1.24,1.24,0,0,0,.88,1.25,5.52,5.52,0,0,0,1.68.23v.53h-10v-.53a5.68,5.68,0,0,0,1.8-.25,1.23,1.23,0,0,0,.82-1.23V25.57h-7v4.84a1.25,1.25,0,0,0,.89,1.26,6.33,6.33,0,0,0,1.74.22v.53h-9.95Z"/><path class="cls-1" d="M279.6,32.42v-.53a5.73,5.73,0,0,0,1.8-.25,1.23,1.23,0,0,0,.82-1.23V20.24a1.21,1.21,0,0,0-.85-1.23,6.26,6.26,0,0,0-1.77-.25v-.53h16.94v4.23h-.71a4.31,4.31,0,0,0-1.91-2.78,11.16,11.16,0,0,0-4.88-.74,4.33,4.33,0,0,0-1.72.2.82.82,0,0,0-.37.79v4.86a6,6,0,0,0,3.41-.65,4.46,4.46,0,0,0,1.36-2.46h.75v7.1h-.75a3.85,3.85,0,0,0-1.29-2.53,6,6,0,0,0-3.48-.73V30.6a.92.92,0,0,0,.48.91,5.23,5.23,0,0,0,2,.24A11.52,11.52,0,0,0,294,31a7.37,7.37,0,0,0,3.16-2.92H298l-1.19,4.37Z"/></svg>