<?xml version="1.0" encoding="utf-8"?>
<!-- Generator: Adobe Illustrator 18.1.1, SVG Export Plug-In . SVG Version: 6.00 Build 0)  -->
<!DOCTYPE svg PUBLIC "-//W3C//DTD SVG 1.1//EN" "http://www.w3.org/Graphics/SVG/1.1/DTD/svg11.dtd">
<svg version="1.1" id="Layer_1" xmlns="http://www.w3.org/2000/svg" xmlns:xlink="http://www.w3.org/1999/xlink" x="0px" y="0px"
	 viewBox="0 0 300 300" enable-background="new 0 0 300 300" xml:space="preserve">
<g>
	<g>
		<path fill="#FFFFFF" d="M89.4,122.2c-3.6,0-5.1,1.9-5.1,5.5v58.8H64.1l-36.7-52.4v37.8c0,3.7,1.5,5.6,5.1,5.6h7v9H4.8v-9h6
			c3.6,0,5.1-1.9,5.1-5.6v-43.6c0-3.7-1.5-6.1-5.1-6.1h-6v-8.9h31.8l36,51.9v-37.4c0-3.6-1.4-5.5-5-5.5h-7v-9h34.9v9L89.4,122.2
			L89.4,122.2z"/>
		<path fill="#FFFFFF" d="M111.1,162.1c0,0,0,2.2,0.1,3.5c0.5,7.4,4.6,12.9,12.6,12.9c8.2,0,12.2-5.1,12.5-11.4h11.9
			c-0.6,11.3-9.1,20.6-26.7,20.6c-16.7,0-29.6-10.2-29.6-27.6c0-15.8,12.3-27.8,29.4-27.8c16.7,0,26.8,11.1,27.1,25.5
			c0,1.9,0.1,3,0.1,4.4H111.1L111.1,162.1z M130.6,152.6c-0.2-5.9-2.6-11.2-9.4-11.2c-6.4,0-9.4,4.8-9.8,11.1c0,0.6-0.1,1.8-0.1,1.8
			h19.3C130.6,154.3,130.6,153.2,130.6,152.6z"/>
		<path fill="#FFFFFF" d="M241.9,143c-2.9,0-4,2-5.3,5.3l-14.3,38.1H205l-9.5-25.1l-8.8,25.1h-17.9L154.6,147c-1.1-3.1-2.2-4-4.2-4
			h-2.5v-8.3h30.8v8.2l-2.8,0.1c-2.8,0.1-3.5,1.2-2.6,3.7l9.4,27.1l8.1-24.3c0.2-0.5-0.1-3.1-0.1-3.7c-0.5-1.8-1.9-2.9-3.6-2.9h-2.6
			v-8.2h30.2v8.1l-3.2,0.1c-2.6,0.1-3.4,1.2-2.6,3.7l9.4,27.2l9-26.2c0.3-0.9,0.5-2.2,0.5-2.9c0-1.1-1.1-1.8-2.5-1.8h-4v-8.2h22.3
			v8.4L241.9,143L241.9,143z"/>
		<path fill="#FFFFFF" d="M272.2,187.5c-8,0-13.5-2.3-15.9-3.7c-1.8-0.5-3.1,1.2-3.4,2.8h-7.6v-20h8.7c0,0,0.1,1.8,0.3,2.5
			c0.5,6,6.5,9.8,14.1,9.8c6.2,0,9.3-2.2,9.3-5.4c0-2.8-1.6-4.7-8.1-6.1l-9.2-2c-10.4-2.3-15.2-7.3-15.2-15.5
			c0-10.4,8.7-17.7,22-17.7c8.1,0,12.7,2.8,14.5,3.5c1.2,0.3,2.2-0.5,2.6-2.5h7v18.3h-8.4c0,0-0.2-1.6-0.3-2.2
			c-0.5-4.8-5.1-8.4-11.8-8.4c-6.3,0-9.5,1.8-9.5,5c0,2.6,1.5,3.9,7,5.1l12.8,2.8c9.8,2.2,14.3,7.3,14.3,15.5
			C295.2,181,285.9,187.5,272.2,187.5z"/>
	</g>
	<g>
		<path fill="#FFFFFF" d="M111.2,123.5l0.5-2.7c0.5,0.2,4.4,0.8,7.1,0.8c3.9,0,4.3-0.2,4.3-1c0-0.9-0.5-0.9-4.4-0.9
			c-5.6-0.1-7.7-0.5-7.7-3.6s1.9-3.6,7.8-3.6c3.2,0,6.8,0.5,7.7,0.8l-0.6,2.6c-1.4-0.2-4.7-0.7-7-0.7c-3.4,0-3.9,0.1-3.9,0.9
			c0,0.8,0.4,0.9,4.2,0.9c6.3,0.1,7.9,0.6,7.9,3.7s-1.5,3.6-8.3,3.6C115,124.3,112.1,123.8,111.2,123.5z"/>
		<path fill="#FFFFFF" d="M130.1,112.7h3.7v4.2h8.6v-4.2h3.7V124h-3.7v-4.4h-8.6v4.4h-3.7V112.7z"/>
		<path fill="#FFFFFF" d="M149.5,112.7h14v2.9h-10.1v1.5h6.1v2.6h-6.1v1.7h10.1v2.7h-14V112.7z"/>
		<path fill="#FFFFFF" d="M166.2,112.7h10c3.1,0,5.3,0.7,5.3,4.3c0,3.5-2.2,4.3-5.3,4.3c-1.1,0-5.6,0-6.2,0v2.7h-3.8L166.2,112.7
			L166.2,112.7z M175.9,118.7c1.4,0,1.8-0.4,1.8-1.6c0-1.2-0.4-1.6-1.8-1.6c-1.1,0-5.9,0-5.9,0v3.2
			C170.7,118.7,175.1,118.7,175.9,118.7z"/>
		<path fill="#FFFFFF" d="M183.9,112.7h10c3.1,0,5.3,0.7,5.3,4.3c0,3.5-2.2,4.3-5.3,4.3c-1.1,0-5.6,0-6.2,0v2.7h-3.8L183.9,112.7
			L183.9,112.7z M193.6,118.7c1.4,0,1.8-0.4,1.8-1.6c0-1.2-0.4-1.6-1.8-1.6c-1.1,0-5.9,0-5.9,0v3.2
			C188.4,118.7,192.8,118.7,193.6,118.7z"/>
		<path fill="#FFFFFF" d="M202,124H198l7.1-11.4h4.5l7.1,11.4h-4.3l-1.1-1.7h-8.5L202,124z M207.3,115.5l-2.6,4.2h5.1L207.3,115.5z"
			/>
		<path fill="#FFFFFF" d="M235.3,124h-4.6l-4-3.3c-1.5,0-4,0-4.2,0v3.3h-3.7v-11.4h10c3.1,0,5.3,0.8,5.3,4c0,2-1.3,3.1-3.4,3.5
			L235.3,124z M228.4,118.2c1.4,0,1.8-0.2,1.8-1.4s-0.4-1.4-1.8-1.4c-1.1,0-6,0-6,0v2.7C223.2,118.2,228.1,118.2,228.4,118.2z"/>
		<path fill="#FFFFFF" d="M242.5,115.5h-6.4v-2.9h16.6v2.9h-6.4v8.5h-3.8L242.5,115.5L242.5,115.5z"/>
		<path fill="#FFFFFF" d="M254,118.3c0-5,2.9-6,9.4-6c6.5,0,9.4,1,9.4,6s-2.9,6-9.4,6S254,123.3,254,118.3z M268.7,118.3
			c0-2.9-1.2-3.1-5.3-3.1c-4,0-5.2,0.2-5.2,3.1s1.2,3.2,5.3,3.2C267.5,121.5,268.7,121.3,268.7,118.3z"/>
		<path fill="#FFFFFF" d="M275.3,112.7h3.9l8.5,6.7v-6.7h3.6V124h-3.3l-9.1-7.2v7.2h-3.6L275.3,112.7L275.3,112.7z"/>
	</g>
</g>
</svg>
