<svg xmlns="http://www.w3.org/2000/svg" xmlns:xlink="http://www.w3.org/1999/xlink" width="295" height="78" viewBox="0 0 295 78">
    <defs>
        <path id="hgmizqhw7a" d="M0.158 0.394L19.143 0.394 19.143 12.606 0.158 12.606z"/>
    </defs>
    <g fill="none" fill-rule="evenodd">
        <g>
            <g>
                <path fill="#ED3A4B" d="M85.754 10.479c-3.688 0-5.178 1.97-5.178 5.594v59.88H60.098L22.91 22.611v38.527c0 3.783 1.569 5.753 5.178 5.753h7.06v9.138H0v-9.138h6.041c3.688 0 5.178-1.97 5.178-5.753V16.703c0-3.782-1.569-6.224-5.178-6.224H0V1.418h32.246l36.483 52.867V16.151c0-3.703-1.413-5.594-5.1-5.594h-7.14V1.418h35.385v9.14h-6.12v-.08zM127.572 41.442c-.236-5.988-2.668-11.424-9.494-11.424-6.512 0-9.493 4.885-9.964 11.267 0 .63-.078 1.812-.078 1.812h19.536v-1.655zM107.8 51.134s0 2.206.079 3.545c.47 7.563 4.629 13.157 12.788 13.157 8.317 0 12.397-5.2 12.632-11.581h12.082c-.627 11.502-9.179 20.957-27.067 20.957-16.947 0-30.05-10.4-30.05-28.127 0-16.073 12.475-28.364 29.814-28.364 16.947 0 27.147 11.267 27.46 25.922 0 1.97.079 3.072.079 4.49H107.8zM240.472 31.673c-2.903 0-4.08 2.048-5.413 5.436l-14.515 38.843h-17.496l-9.65-25.606-8.944 25.606H166.25L151.894 35.77c-1.099-3.152-2.197-4.097-4.237-4.097h-2.51v-8.43h31.225v8.351l-2.824.079c-2.824.079-3.53 1.182-2.668 3.782l9.493 27.575 8.238-24.739c.236-.551-.078-3.151-.078-3.782-.549-1.812-1.961-2.915-3.687-2.915h-2.668v-8.351h30.677v8.272l-3.217.08c-2.667.078-3.452 1.18-2.59 3.78l9.495 27.655 9.1-26.709c.315-.866.55-2.206.55-2.915 0-1.103-1.1-1.812-2.51-1.812h-4.081v-8.351h22.596v8.509h-1.726v-.08zM271.149 76.976c-8.081 0-13.651-2.364-16.084-3.782-1.805-.551-3.138 1.182-3.451 2.836h-7.69V55.703h8.787s.08 1.812.314 2.521c.55 6.066 6.59 10.006 14.28 10.006 6.277 0 9.415-2.284 9.415-5.515 0-2.836-1.648-4.806-8.238-6.224l-9.337-2.05c-10.592-2.363-15.377-7.404-15.377-15.757 0-10.635 8.865-18.041 22.281-18.041 8.238 0 12.867 2.836 14.672 3.545 1.176.315 2.276-.551 2.589-2.521h7.14V40.34h-8.553s-.235-1.656-.313-2.285c-.549-4.885-5.179-8.51-12.004-8.51-6.355 0-9.65 1.813-9.65 5.122 0 2.679 1.49 4.017 7.06 5.199l12.946 2.837c9.964 2.206 14.515 7.485 14.515 15.758.078 11.897-9.337 18.515-23.302 18.515M107.88 11.818l.548-2.757c.55.157 4.472.787 7.218.787 4.002 0 4.394-.157 4.394-1.024 0-.866-.55-.866-4.472-.945-5.727-.079-7.767-.473-7.767-3.703s1.961-3.703 7.924-3.703c3.295 0 6.904.551 7.767.788l-.627 2.678c-1.413-.236-4.786-.709-7.14-.709-3.452 0-4.001.08-4.001.867 0 .788.392.867 4.236.945 6.434.08 8.003.63 8.003 3.782s-1.57 3.703-8.395 3.703c-3.844.08-6.747-.394-7.689-.709M127.101.788L130.867.788 130.867 5.042 139.576 5.042 139.576.788 143.342.788 143.342 12.37 139.576 12.37 139.576 7.879 130.867 7.879 130.867 12.37 127.101 12.37zM146.716.788L160.916.788 160.916 3.703 150.638 3.703 150.638 5.2 156.836 5.2 156.836 7.879 150.638 7.879 150.638 9.612 160.916 9.612 160.916 12.37 146.716 12.37zM173.548 6.933c1.412 0 1.805-.394 1.805-1.654 0-1.261-.393-1.655-1.805-1.655h-5.963v3.23c.627.08 5.1.08 5.963.08zM163.662.788h10.122c3.138 0 5.335.709 5.335 4.412 0 3.545-2.276 4.412-5.415 4.412h-6.276v2.758h-3.844V.788h.078zM191.514 6.933c1.413 0 1.805-.394 1.805-1.654 0-1.261-.392-1.655-1.805-1.655h-5.962v3.23c.627.08 5.1.08 5.962.08zM181.63.788h10.12c3.14 0 5.337.709 5.337 4.412 0 3.545-2.276 4.412-5.415 4.412h-6.276v2.758h-3.845V.788h.079zM205.402 3.624l-2.59 4.255h5.179l-2.59-4.255zm-5.414 8.746h-4.001L203.205.71h4.55l7.218 11.66h-4.315l-1.098-1.734h-8.63l-.942 1.734zM226.82 6.46c1.413 0 1.805-.236 1.805-1.417 0-1.182-.392-1.419-1.805-1.419h-6.04v2.758c.705.079 5.648.079 6.04.079zm6.905 5.91h-4.708l-4.079-3.388h-4.237v3.388h-3.766V.788h10.12c3.139 0 5.337.788 5.337 4.097 0 2.048-1.335 3.152-3.453 3.545l4.786 3.94zM241.1 3.703L234.588 3.703 234.588.788 251.456.788 251.456 3.703 244.944 3.703 244.944 12.37 241.1 12.37z" transform="translate(-500) translate(500)"/>
                <g transform="translate(-500) translate(500) translate(252.633)">
                    <mask id="jj9g34ci1b" fill="#fff">
                        <use xlink:href="#hgmizqhw7a"/>
                    </mask>
                    <path fill="#ED3A4B" d="M14.985 6.54c0-2.995-1.255-3.152-5.413-3.152-4.08 0-5.257.157-5.257 3.151 0 2.994 1.177 3.23 5.335 3.23 4.158 0 5.335-.157 5.335-3.23m-14.827 0C.158 1.418 3.06.394 9.65.394c6.591 0 9.493 1.024 9.493 6.145 0 5.121-2.98 6.067-9.57 6.067-6.592 0-9.415-.946-9.415-6.067" mask="url(#jj9g34ci1b)"/>
                </g>
                <path fill="#ED3A4B" d="M274.366 0.788L278.367 0.788 286.998 7.642 286.998 0.788 290.685 0.788 290.685 12.37 287.311 12.37 278.132 5.042 278.132 12.37 274.444 12.37 274.444 0.788z" transform="translate(-500) translate(500)"/>
            </g>
        </g>
    </g>
</svg>
