<?xml version="1.0" encoding="utf-8"?>
<!-- Generator: Adobe Illustrator 21.1.0, SVG Export Plug-In . SVG Version: 6.00 Build 0)  -->
<!DOCTYPE svg PUBLIC "-//W3C//DTD SVG 1.1//EN" "http://www.w3.org/Graphics/SVG/1.1/DTD/svg11.dtd">
<svg version="1.1" id="Layer_1" xmlns="http://www.w3.org/2000/svg" xmlns:xlink="http://www.w3.org/1999/xlink" x="0px" y="0px"
	 viewBox="0 0 387.8 206.5" style="enable-background:new 0 0 387.8 206.5;" xml:space="preserve">
<style type="text/css">
	.st0{fill:#ED3A4B;}
</style>
<g>
	<g>
		<path class="st0" d="M17.8,56.4l0.9,0.7c3.1,2.3,7,4.3,11.6,4.3c2,0,5.2-0.7,5.6-2.8c0.4-2.1-2.2-2.3-3.9-2.6l-3.9-0.6
			c-7.5-1.2-13.3-5.1-11.9-12.3c2-11,15-17.2,26.8-17.2c6.2,0,11.7,1.3,16.5,4.1l-7.6,11.9c-3-2-6.6-3.5-10.8-3.5
			c-1.7,0-4.4,0.6-4.7,2.5c-0.3,1.7,2.1,2,3.5,2.3l4.3,0.9c8.1,1.6,13.4,5.4,12,13.3C54.1,68.5,41.3,74,29.5,74
			c-6.9,0-14.5-1.6-20.2-4.3L17.8,56.4z"/>
		<path class="st0" d="M106.9,57.1c-2,10.9-14.4,16.7-26.4,16.7s-22.2-5.9-20.2-16.7c2.1-11.5,13.9-17.5,26.5-17.5
			C99.5,39.6,109,45.6,106.9,57.1z M78.5,56.8c-0.5,2.6,1.5,4.5,4.4,4.5s5.6-1.9,6-4.5c0.5-2.7-1.2-4.8-4.3-4.8
			C81.5,52,79,54.2,78.5,56.8z"/>
		<path class="st0" d="M134.6,40.3l-3.1,16.9c-0.4,1.9-0.6,4,2.4,4s3.6-2,3.9-4l3.1-16.9h18.5L156,58.8c-1.9,10.4-13.3,15-24.4,15
			s-20.8-4.6-18.9-15l3.4-18.5C116.1,40.3,134.6,40.3,134.6,40.3z"/>
		<path class="st0" d="M187.6,40.7l6.3-0.2L191.6,53l-6.2-0.3l-3.8,20.4h-18.8l3.8-20.4L162,53l2.3-12.5l4.5,0.2l2-11h18.8
			L187.6,40.7z"/>
		<path class="st0" d="M200.9,23h18.6L217,36.8l-2.5,9.1h0.3c4.1-3.5,8.2-6.4,13.5-6.4c9.5,0,11.8,6.2,10.4,13.4L235,73.1h-18.2
			l3.1-16.9c0.3-1.7,0.4-3.9-2.2-3.9c-2.9,0-3.9,1.9-4.3,3.9l-3.1,16.9h-18.6L200.9,23z"/>
		<path class="st0" d="M262,59.4c-0.5,2.7-0.5,5.6,3.4,5.6c1.9,0,3.6-1.2,4.3-2.7h18.1c-3.9,7.9-14.9,11.5-23.7,11.5
			c-12.1,0-22.1-5.3-20-16.6c2-10.9,13.1-17.7,25.3-17.7c13.6,0,23,7.5,19.8,19.8L262,59.4L262,59.4z M271.9,52.6
			c0.4-2.2-1.1-4.3-3.8-4.3c-2.8,0-4.6,2-5,4.3H271.9z"/>
		<path class="st0" d="M327.3,55.7c-1.8-1-3-1.8-5.4-1.8c-4.8,0-7.8,2.5-8.5,6.5L311.1,73h-18.6l6.1-32.8h18.6l-1.2,4.4h0.4
			c4.1-4.3,7.7-5.2,13.9-5.1L327.3,55.7z"/>
		<path class="st0" d="M350.9,45.5h0.4c4.3-3.6,7.5-6,13.5-6c9.5,0,12.2,6.1,10.8,13.3L371.9,73h-18.6l3-16c0.4-1.9,0.9-4.6-2.3-4.6
			c-3.1,0-3.6,2.7-4,4.6l-3,16h-18.6l6.1-32.8h18.2L350.9,45.5z"/>
	</g>
	<g>
		<path class="st0" d="M38.7,81.4h23.9c12.3,0,21.9,4.4,19.7,16.2c-1.3,7-5,10-12.8,12.1l-0.1,0.4c0.9,0.7,2,1.4,2.8,2.8l9,15.1
			H58.5l-5.9-15h-0.4l-2.8,14.9H30.1L38.7,81.4z M54.2,102h1.4c3.3,0,6.6-0.4,7.2-3.9c0.7-3.6-2.2-4-5.6-4h-1.5L54.2,102z"/>
		<path class="st0" d="M91.2,95.1h18.6l-6.1,32.8H85.1L91.2,95.1z M112.6,85c-1,5.4-6.3,7.7-11.7,7.7c-5.3,0-9.8-2.3-8.8-7.7
			c0.9-4.8,5.8-7.7,11.7-7.7C109.6,77.4,113.5,80.2,112.6,85z"/>
		<path class="st0" d="M134.2,95.1l2.1,15.5h0.5l1.7-4l6.1-11.5h20l-22.8,32.8H125l-10.8-32.8C114.2,95.1,134.2,95.1,134.2,95.1z"/>
		<path class="st0" d="M181.5,114.2c-0.5,2.7-0.5,5.6,3.4,5.6c1.9,0,3.6-1.2,4.3-2.7h18.1c-3.9,7.9-14.9,11.5-23.7,11.5
			c-12.1,0-22.1-5.3-20-16.6c2-10.9,13.1-17.7,25.3-17.7c13.6,0,23,7.5,19.8,19.8L181.5,114.2L181.5,114.2z M191.5,107.4
			c0.4-2.2-1.1-4.3-3.8-4.3c-2.8,0-4.6,2-5,4.3H191.5z"/>
		<path class="st0" d="M246.9,110.6c-1.8-1-3-1.8-5.4-1.8c-4.8,0-7.8,2.5-8.5,6.5l-2.3,12.6h-18.6l6.1-32.8h18.6l-1.2,4.4h0.4
			c4.1-4.3,7.7-5.2,13.9-5.1L246.9,110.6z"/>
		<path class="st0" d="M255.2,95.1h18.6l-6.1,32.8h-18.6L255.2,95.1z M276.6,85c-1,5.4-6.3,7.7-11.7,7.7c-5.3,0-9.8-2.3-8.8-7.7
			c0.9-4.8,5.8-7.7,11.7-7.7C273.6,77.4,277.5,80.2,276.6,85z"/>
		<path class="st0" d="M298.8,100.4h0.4c4.3-3.6,7.5-6,13.5-6c9.5,0,12.2,6.1,10.8,13.3l-3.7,20.2h-18.6l3-16
			c0.4-1.9,0.9-4.6-2.3-4.6c-3.1,0-3.6,2.7-4,4.6l-3,16h-18.6l6.1-32.8h18.2L298.8,100.4z"/>
		<path class="st0" d="M354.8,123.6h-0.4c-4,3.1-7.4,5.1-12.6,5.1c-10.4,0-14.5-9-13-17c1.5-8.3,9.1-17.3,19.9-17.3
			c4.6,0,8.2,1.4,10.3,4.6h0.4l0.1-3.9h18.3l-6.1,32.8h-18.3L354.8,123.6z M351.2,116.2c3.5,0,5.4-2.4,5.9-4.9s-1.2-4.4-4.2-4.4
			s-5.2,2.1-5.7,4.5C346.7,114,347.8,116.2,351.2,116.2z"/>
	</g>
	<g>
		<path class="st0" d="M167.7,136.2h19l13,25.8h0.6c-0.1-3.9-0.2-7.9,0.5-11.9l2.6-14h18.9l-8.6,46.6h-18.9l-12.9-24.4h-0.6
			c0.1,3.2,0.1,6.2-0.5,9.3l-2.8,15.1h-18.9L167.7,136.2z"/>
		<path class="st0" d="M241.3,169c-0.5,2.7-0.5,5.6,3.4,5.6c2,0,3.6-1.2,4.3-2.7h18.1c-3.9,7.9-14.9,11.5-23.7,11.5
			c-12.1,0-22.1-5.3-20-16.6c2-10.9,13.1-17.7,25.3-17.7c13.7,0,23,7.5,19.8,19.8L241.3,169L241.3,169z M251.3,162.3
			c0.4-2.2-1.1-4.3-3.8-4.3c-2.8,0-4.6,2-5,4.3H251.3z"/>
		<path class="st0" d="M293,150l1,18.2h0.6l1.9-5.4l6.1-12.8h12.2l1.6,18.2h0.4l1.9-5.4l5.7-12.8H344l-21.8,32.8h-15l-1.5-14.6h-0.5
			l-1.6,3.5l-5.6,11.1h-15.2l-9.5-32.8H293z"/>
		<path class="st0" d="M344.6,170l1,0.6c2.3,1.4,5.8,3,9,3c1.2,0,2.8-0.6,3.1-1.8c0.3-1.8-1.9-1.9-3.4-2c-6.1-0.7-11.5-2.9-10.3-9.1
			c1.5-8.2,11.8-11.5,20-11.5c4.8,0,10.5,0.8,14.4,2.8l-6.2,9.1c-2.1-1.5-5.1-2.7-8.1-2.7c-1.2,0-2.7,0.3-2.9,1.5
			c-0.3,1.6,1.7,1.7,4.2,2.1c6.5,0.9,11.5,2.9,10.3,9.5c-1.6,8.5-12.1,12-20.8,12c-6.1,0-11.7-1.6-16.9-3.6L344.6,170z"/>
	</g>
</g>
</svg>
