<svg xmlns="http://www.w3.org/2000/svg" width="134" height="58" viewBox="0 0 134 58">
    <g fill="#FFF" fill-rule="nonzero">
        <path d="M3.078 12.032l.326.252a6.926 6.926 0 0 0 4.201 1.55c.725 0 1.884-.253 2.029-1.01.144-.756-.797-.828-1.45-.936l-1.412-.216c-2.716-.432-4.816-1.837-4.31-4.467.725-3.963 5.433-6.196 9.707-6.196 2.1-.036 4.165.468 5.975 1.477l-2.716 4.287c-1.159-.793-2.535-1.261-3.911-1.261-.616 0-1.594.216-1.702.9-.11.613.76.72 1.267.829l1.557.324c2.934.577 4.853 1.946 4.346 4.792-.76 3.962-5.396 5.944-9.67 5.944-2.498 0-4.997-.54-7.315-1.55l3.078-4.719zM35.347 12.284c-.724 3.927-5.215 6.017-9.561 6.017s-8.04-2.09-7.28-6.017c.761-4.142 5.035-6.304 9.598-6.304 4.563 0 8.004 2.162 7.243 6.304zm-10.285-.108c-.181.937.543 1.622 1.593 1.622 1.05 0 2.028-.685 2.173-1.622.145-.936-.434-1.729-1.593-1.729-1.05-.036-1.956.72-2.173 1.73zM45.343 6.232L44.22 12.32c-.145.685-.217 1.441.87 1.441 1.086 0 1.303-.72 1.412-1.44l1.122-6.089h6.7l-1.231 6.665c-.688 3.746-4.817 5.404-8.837 5.404s-7.533-1.658-6.845-5.404l1.232-6.665h6.7zM64.574 6.376l2.281-.072-.87 4.503-2.244-.108-1.377 7.35h-6.808l1.376-7.35-1.666.108.833-4.503 1.63.072.724-3.962h6.809zM69.39 0h6.736l-.941 4.971-.906 3.279h.11c1.484-1.261 2.969-2.306 4.888-2.306 3.44 0 4.274 2.234 3.767 4.827l-1.34 7.241h-6.592l1.123-6.088c.109-.612.145-1.405-.797-1.405-1.05 0-1.412.685-1.52 1.405l-1.123 6.124h-6.737L69.39 0zM91.482 13.113c-.18.937-.18 2.017 1.232 2.017.651 0 1.267-.36 1.557-.972h6.555c-1.412 2.846-5.396 4.143-8.583 4.143-4.382 0-8.004-1.91-7.244-5.98.725-3.927 4.745-6.34 9.163-6.34 4.926 0 8.33 2.701 7.171 7.132h-9.85zm3.622-2.45A1.273 1.273 0 0 0 94.09 9.15c-.109-.036-.254-.036-.362-.036-.906 0-1.666.649-1.811 1.55h3.187zM115.168 11.78c-.652-.36-1.087-.648-1.956-.648-1.738 0-2.825.9-3.078 2.341l-.833 4.54h-6.737l2.21-11.817h6.736l-.435 1.585h.145c1.485-1.549 2.789-1.873 5.07-1.837l-1.122 5.836zM123.715 8.106h.144c1.558-1.297 2.717-2.162 4.89-2.162 3.44 0 4.418 2.198 3.911 4.791l-1.34 7.277h-6.736l1.086-5.764c.145-.684.326-1.657-.833-1.657s-1.303.973-1.448 1.657l-1.087 5.764h-6.772l2.209-11.816h6.591l-.615 1.91zM10.648 21.039h8.655c4.455 0 7.895 1.585 7.135 5.836-.471 2.521-1.811 3.602-4.636 4.359l-.036.108c.398.252.76.612 1.014 1.008l3.26 5.44h-8.258l-2.137-5.368h-.144l-1.015 5.368H7.533l3.115-16.751zm5.613 7.42h.507c1.159 0 2.39-.143 2.608-1.404.217-1.261-.797-1.441-2.028-1.441h-.544l-.543 2.846zM29.625 25.974h6.736l-2.21 11.816h-6.7l2.174-11.816zm7.786-3.639c-.362 1.946-2.281 2.774-4.237 2.774s-3.55-.828-3.187-2.774c.326-1.729 2.1-2.774 4.237-2.774s3.513 1.045 3.187 2.774zM45.234 25.974l.76 5.584h.182l.615-1.441 2.21-4.143h7.243L47.986 37.79h-6.12L37.99 25.974zM62.364 32.855c-.18.972-.18 2.017 1.232 2.017.652 0 1.267-.36 1.557-.973h6.555c-1.449 2.846-5.432 4.18-8.62 4.18-4.382 0-8.003-1.91-7.243-5.98.725-3.928 4.745-6.377 9.163-6.377 4.926 0 8.33 2.702 7.17 7.133h-9.814zm3.622-2.45a1.273 1.273 0 0 0-1.014-1.513c-.109-.036-.254-.036-.362-.036-.906 0-1.666.648-1.811 1.549h3.187zM86.05 31.558c-.652-.36-1.087-.649-1.956-.649-1.738 0-2.825.9-3.078 2.342l-.833 4.54h-6.737l2.21-11.817h6.736l-.435 1.585h.145c1.485-1.55 2.789-1.873 5.07-1.837l-1.122 5.836zM89.056 25.974h6.736l-2.21 11.816h-6.736l2.21-11.816zm7.75-3.639c-.362 1.946-2.282 2.774-4.237 2.774-1.956 0-3.55-.828-3.187-2.774.326-1.729 2.1-2.774 4.237-2.774 2.1 0 3.513 1.045 3.187 2.774zM104.846 27.883h.145c1.557-1.297 2.716-2.161 4.889-2.161 3.44 0 4.418 2.197 3.911 4.791l-1.376 7.277h-6.736l1.086-5.764c.145-.684.326-1.657-.833-1.657-1.158 0-1.303.973-1.448 1.657l-1.087 5.764h-6.736l2.21-11.816h6.59l-.615 1.91zM125.127 36.241h-.181c-1.449 1.117-2.68 1.837-4.563 1.837-3.767 0-5.252-3.242-4.708-6.124.543-2.99 3.26-6.232 7.207-6.232 1.666 0 2.97.504 3.73 1.657h.145l.036-1.405h6.628l-2.21 11.816h-6.627l.543-1.549zm-1.34-2.666c1.05.036 1.992-.72 2.137-1.765.18-.9-.435-1.585-1.521-1.585-.978 0-1.847.648-2.065 1.621-.144.937.218 1.73 1.449 1.73zM57.366 40.78h6.882l4.708 9.295h.217c-.072-1.441 0-2.846.181-4.251l.942-5.044h6.845l-3.115 16.752H67.18l-4.672-8.79h-.217a14.87 14.87 0 0 1-.181 3.35l-1.014 5.44h-6.845l3.114-16.752zM84.022 52.596c-.181.973-.181 2.018 1.231 2.018.652 0 1.268-.36 1.557-.973h6.555c-1.412 2.846-5.396 4.179-8.583 4.179-4.346 0-8.004-1.91-7.243-5.98.724-3.927 4.744-6.377 9.163-6.377 4.925 0 8.33 2.702 7.17 7.133h-9.85zm3.621-2.45a1.273 1.273 0 0 0-1.014-1.512c-.108-.036-.253-.036-.362-.036-.905 0-1.666.648-1.81 1.549h3.186zM102.71 45.752l.361 6.556h.218l.688-1.945 2.209-4.611h4.418l.58 6.556h.145l.724-1.945 2.064-4.611h7.099l-7.895 11.816h-5.433l-.543-5.26h-.181l-.58 1.225-2.028 3.999h-5.54l-3.405-11.78zM121.433 52.957l.362.216c.87.504 2.1 1.08 3.26 1.08.434 0 1.014-.216 1.122-.648.109-.648-.688-.685-1.231-.72-2.21-.253-4.165-1.045-3.73-3.279.543-2.954 4.273-4.143 7.243-4.143 1.738 0 3.803.289 5.215 1.009l-2.245 3.278a5.384 5.384 0 0 0-2.934-.972c-.434 0-.978.108-1.086.54-.109.576.615.612 1.52.757 2.355.324 4.166 1.044 3.731 3.422-.58 3.062-4.382 4.323-7.533 4.323-2.1-.036-4.165-.504-6.12-1.297l2.426-3.566z"/>
    </g>
</svg>
