<svg id="Layer_1" data-name="Layer 1" xmlns="http://www.w3.org/2000/svg" viewBox="0 0 369.12 160.49"><defs><style>.cls-1{fill:#fff;}</style></defs><title>SouthernRiverinaNews_White</title><path class="cls-1" d="M8.5,33.4l.89.68A19.24,19.24,0,0,0,21,38.34c1.95,0,5.18-.68,5.57-2.78S24.34,33.28,22.6,33l-3.86-.62C11.23,31.18,5.45,27.29,6.8,20c2-11,15-17.22,26.8-17.22A32.46,32.46,0,0,1,50.11,6.85L42.56,18.77a19.51,19.51,0,0,0-10.84-3.52c-1.73,0-4.36.55-4.71,2.47-.32,1.73,2.09,2,3.55,2.28l4.31.87c8.09,1.6,13.44,5.43,12,13.33-2.06,11.12-14.92,16.61-26.7,16.61A50.24,50.24,0,0,1,0,46.55Z"/><path class="cls-1" d="M97.57,34.08C95.55,45,83.2,50.81,71.21,50.81S49.05,45,51.06,34.08c2.12-11.48,13.86-17.53,26.5-17.53S99.69,22.6,97.57,34.08Zm-28.41-.25c-.48,2.59,1.47,4.51,4.36,4.51s5.56-1.92,6-4.51S78.36,29,75.25,29A6.12,6.12,0,0,0,69.16,33.83Z"/><path class="cls-1" d="M125.23,17.29,122.1,34.2c-.36,1.92-.59,3.95,2.44,3.95s3.56-2,3.91-3.95l3.14-16.91h18.49l-3.44,18.52c-1.92,10.37-13.32,15-24.44,15s-20.81-4.63-18.89-15l3.43-18.52Z"/><path class="cls-1" d="M178.3,17.72l6.26-.25L182.24,30l-6.16-.3-3.77,20.37H153.53l3.78-20.37-4.61.3L155,17.47l4.51.25,2-11h18.78Z"/><path class="cls-1" d="M191.62,0h18.64l-2.57,13.83-2.54,9.07h.28c4.12-3.51,8.19-6.35,13.53-6.35,9.54,0,11.79,6.17,10.45,13.39l-3.73,20.13h-18.2l3.13-16.92c.32-1.72.44-3.89-2.24-3.89-2.89,0-3.88,1.85-4.25,3.89L201,50.07H182.35Z"/><path class="cls-1" d="M252.63,36.36C252.14,39,252.09,42,256,42a4.62,4.62,0,0,0,4.26-2.72h18.13c-3.92,7.91-14.92,11.55-23.73,11.55-12.06,0-22.13-5.31-20-16.61,2-10.86,13.1-17.65,25.3-17.65,13.65,0,23,7.53,19.8,19.81Zm10-6.79a3.55,3.55,0,0,0-3.76-4.26,5,5,0,0,0-5,4.26Z"/><path class="cls-1" d="M318,32.72c-1.77-1-3-1.79-5.37-1.79-4.84,0-7.76,2.47-8.51,6.55L301.8,50.07H283.16l6.08-32.78h18.63l-1.25,4.38h.44c4.12-4.32,7.69-5.25,13.95-5.12Z"/><path class="cls-1" d="M341.56,22.54H342c4.27-3.59,7.46-6,13.45-6,9.54,0,12.16,6.11,10.82,13.33l-3.74,20.19H343.9l3-16c.36-1.92.86-4.63-2.32-4.63s-3.61,2.71-4,4.63l-3,16H319l6.08-32.78h18.2Z"/><path class="cls-1" d="M29.38,58.36h23.9c12.28,0,21.85,4.44,19.68,16.17-1.3,7-5,10-12.79,12.1l-.06.37a10,10,0,0,1,2.8,2.78l9,15.13H49.13L43.23,90h-.36l-2.76,14.94H20.75ZM44.91,79h1.37c3.25,0,6.58-.44,7.22-3.89s-2.22-4-5.61-4H46.37Z"/><path class="cls-1" d="M81.85,72.12h18.64l-6.08,32.79H75.78ZM103.3,62c-1,5.37-6.34,7.72-11.68,7.72S81.8,67.37,82.79,62c.88-4.76,5.83-7.66,11.67-7.66S104.18,57.24,103.3,62Z"/><path class="cls-1" d="M124.9,72.12,127,87.62h.5l1.69-4,6.09-11.49h20l-22.75,32.79h-16.9L104.89,72.12Z"/><path class="cls-1" d="M172.2,91.2c-.49,2.66-.53,5.62,3.37,5.62a4.62,4.62,0,0,0,4.26-2.72H198C194,102,183,105.65,174.22,105.65c-12.06,0-22.13-5.31-20-16.61,2-10.87,13.09-17.66,25.3-17.66,13.64,0,23,7.54,19.8,19.82Zm10-6.79a3.55,3.55,0,0,0-3.76-4.26,5,5,0,0,0-5,4.26Z"/><path class="cls-1" d="M237.58,87.56c-1.76-1-3-1.79-5.37-1.79-4.84,0-7.75,2.47-8.5,6.54l-2.34,12.6H202.74l6.07-32.79h18.64l-1.25,4.39h.43c4.13-4.32,7.69-5.25,14-5.13Z"/><path class="cls-1" d="M245.86,72.12H264.5l-6.08,32.79H239.79ZM267.31,62c-1,5.37-6.34,7.72-11.69,7.72S245.8,67.37,246.8,62c.88-4.76,5.82-7.66,11.67-7.66S268.19,57.24,267.31,62Z"/><path class="cls-1" d="M289.45,77.37h.43c4.27-3.58,7.46-6,13.46-6,9.53,0,12.16,6.12,10.82,13.34l-3.75,20.19H291.79l3-16c.35-1.92.85-4.63-2.32-4.63s-3.61,2.71-4,4.63l-3,16H266.87L273,72.12h18.19Z"/><path class="cls-1" d="M345.45,100.59H345c-4,3.08-7.36,5.06-12.63,5.06-10.4,0-14.51-9-13-17,1.53-8.27,9-17.29,19.88-17.29,4.62,0,8.19,1.42,10.34,4.63H350l.14-3.89h18.27l-6.07,32.79H344.07Zm-3.61-7.41a5.74,5.74,0,0,0,5.89-4.94c.48-2.53-1.21-4.39-4.17-4.39a5.71,5.71,0,0,0-5.67,4.51C337.41,91,338.44,93.18,341.84,93.18Z"/><path class="cls-1" d="M158.43,113.2h19l13,25.8H191a59,59,0,0,1,.54-11.85l2.58-14H213l-8.62,46.55H185.48L172.6,135.3H172a45.81,45.81,0,0,1-.49,9.32l-2.81,15.13H149.8Z"/><path class="cls-1" d="M232,146c-.5,2.66-.54,5.62,3.36,5.62a4.62,4.62,0,0,0,4.26-2.72h18.13c-3.92,7.9-14.92,11.55-23.74,11.55-12,0-22.12-5.31-20-16.61,2-10.87,13.09-17.66,25.3-17.66,13.65,0,23,7.53,19.8,19.82Zm10-6.79a3.55,3.55,0,0,0-3.76-4.26,5,5,0,0,0-5,4.26Z"/><path class="cls-1" d="M283.63,127l1,18.22h.58l1.94-5.44L293.23,127h12.21l1.61,18.22h.43l1.95-5.44L315.12,127h19.57l-21.82,32.79h-15l-1.49-14.57h-.51l-1.57,3.45-5.6,11.12H273.44L264,127Z"/><path class="cls-1" d="M335.32,147l1,.61c2.35,1.36,5.8,3,9,3,1.22,0,2.84-.56,3.07-1.79.33-1.79-1.89-1.85-3.37-2-6.08-.74-11.45-2.9-10.31-9.07,1.52-8.22,11.8-11.49,20-11.49,4.76,0,10.53.8,14.36,2.78l-6.23,9.08a14.62,14.62,0,0,0-8.09-2.72c-1.16,0-2.73.31-2.95,1.48-.3,1.61,1.7,1.73,4.23,2.1,6.48.93,11.53,2.9,10.3,9.51-1.58,8.52-12.12,12-20.79,12a46,46,0,0,1-16.87-3.65Z"/></svg>