<svg xmlns="http://www.w3.org/2000/svg" width="174" height="36" viewBox="0 0 174 36">
    <g fill="#FFF" fill-rule="nonzero">
        <path stroke="#FFF" d="M13.528 19.271h19.324v.633c0 8.391-7.432 14.97-15.714 14.97-8.494 0-15.926-6.494-15.926-15.308 0-8.686 7.432-15.35 15.799-15.35 7.432 0 12.868 5.019 14.354 9.236h-6.54a9.458 9.458 0 0 0-7.942-4.133c-6.71 0-10.192 5.65-10.192 10.247 0 4.512 3.397 10.205 10.447 10.205 3.738 0 7.135-2.066 8.791-5.398h-12.4v-5.102zM54.384 12.187v22.096H49.5v-2.235h-.085C48.523 33.228 47.079 35 43.68 35c-4.034 0-6.327-1.982-7.432-3.5-1.656-2.361-1.656-5.946-1.656-7.759V12.187h5.309v11.259c0 1.77 0 6.662 4.629 6.662 3.355 0 4.502-3.162 4.502-6.662v-11.26h5.35zM79.993 34.241h-4.884V31.5c-1.7 1.982-4.97 3.458-7.772 3.458-5.734 0-10.83-4.554-10.83-11.892 0-6.747 4.969-11.638 11.127-11.638 4.544 0 7.22 3.205 7.39 3.542h.085v-2.783h4.884V34.24zM68.44 16.277c-4.374 0-6.625 3.753-6.625 7.042 0 3.753 2.803 6.79 6.625 6.79 3.695 0 6.498-2.868 6.498-6.958 0-4.555-3.355-6.874-6.498-6.874zM83.178 12.187h4.884v1.94h.085c1.019-1.434 1.996-2.7 4.756-2.7h.425v5.145c-4.842.169-4.842 3.964-4.842 5.271v12.398h-5.308V12.187zM116.813 34.241h-4.884v-2.699h-.085c-1.019 1.603-3.312 3.416-7.092 3.416-5.648 0-11.34-4.597-11.34-11.723 0-7.422 5.989-11.807 11.34-11.807 3.228 0 5.181 1.054 6.71 2.699v-9.32h5.309l.042 29.434zm-11.509-4.133c3.992 0 6.583-3.584 6.583-6.915 0-3.627-2.803-6.916-6.583-6.916-3.95 0-6.583 3.669-6.583 6.747 0 4.09 3.1 7.084 6.583 7.084zM119.404 4.807h5.309v4.85h-5.309v-4.85zm0 7.38h5.309v22.096h-5.309V12.187zM150.279 34.241h-4.884V31.5c-1.699 1.982-4.969 3.458-7.772 3.458-5.733 0-10.83-4.554-10.83-11.892 0-6.747 4.97-11.638 11.127-11.638 4.545 0 7.22 3.205 7.39 3.542h.085v-2.783h4.884V34.24zm-11.552-17.964c-4.374 0-6.625 3.753-6.625 7.042 0 3.753 2.803 6.79 6.625 6.79 3.695 0 6.498-2.868 6.498-6.958 0-4.555-3.355-6.874-6.498-6.874zM153.082 12.187h4.926v1.897c.892-.843 2.718-2.656 6.073-2.656 1.912 0 4.842.843 6.71 3.078 2.04 2.446 2.04 6.114 2.04 7.843v11.934h-5.31V23.361c0-1.813 0-7.084-4.501-7.084-1.444.042-2.803.76-3.61 1.94-.977 1.35-.977 3.669-.977 5.524v10.5h-5.351V12.187z"/>
        <path d="M34.38.886v-.76h5.437v.76h-2.209V7.97H36.59V.886zM47.334 2.15v5.82H46.4V6.958c-.383.38-.85.632-1.317.843-.51.211-1.062.295-1.614.295a3.906 3.906 0 0 1-2.633-.885c-.68-.506-1.104-1.307-1.104-2.15 0-.844.425-1.645 1.104-2.151a4.47 4.47 0 0 1 4.29-.59c.467.21.934.505 1.274.927V2.151h.934zm-3.78.591c-.51 0-.977.084-1.444.295a2.314 2.314 0 0 0-1.062.844 2.015 2.015 0 0 0 0 2.361c.255.38.637.675 1.062.886.467.21.934.295 1.444.295.51 0 1.02-.085 1.444-.295a2.314 2.314 0 0 0 1.062-.844c.255-.38.382-.801.382-1.223 0-.674-.297-1.307-.85-1.687a3.17 3.17 0 0 0-2.038-.632zM49.924 0h.935v2.15h1.486v.633H50.86v5.145h-.935V2.825H48.65v-.674h1.274zM53.28 2.15h.934v2.7c-.043.463 0 .927.127 1.349.128.38.425.674.765.843.85.422 1.826.422 2.675 0 .34-.169.595-.464.765-.801.127-.464.17-.928.127-1.434V2.151h.977v2.867a3.744 3.744 0 0 1-.34 1.813 2.601 2.601 0 0 1-1.062.97 3.649 3.649 0 0 1-1.783.338c-.595 0-1.232-.085-1.784-.338a2.601 2.601 0 0 1-1.062-.97 4.01 4.01 0 0 1-.34-1.855V2.15zM61.094 2.15h.977v.844c.254-.295.552-.548.891-.76a2.029 2.029 0 0 1 1.02-.252c.297 0 .594.084.85.21l-.468.633a2.146 2.146 0 0 0-.51-.084c-.34 0-.637.126-.892.295-.297.253-.552.59-.679.97a6.539 6.539 0 0 0-.17 2.024v1.982h-.977l-.042-5.861zM72.518 2.15v5.82h-.934V6.958c-.383.38-.85.632-1.317.843-.51.211-1.062.295-1.614.295a3.906 3.906 0 0 1-2.633-.885c-.68-.506-1.104-1.307-1.104-2.15 0-.844.425-1.645 1.104-2.151a4.47 4.47 0 0 1 4.29-.59c.467.21.934.505 1.274.927V2.151h.934zm-3.737.591c-.51 0-.977.084-1.444.295-.425.169-.765.464-1.062.844a1.963 1.963 0 0 0-.382 1.18c0 .422.127.844.382 1.181.255.38.637.675 1.062.886.467.21.934.295 1.444.295.51 0 1.019-.085 1.444-.295a2.314 2.314 0 0 0 1.061-.844c.255-.337.383-.759.383-1.18 0-.675-.298-1.308-.85-1.687-.594-.464-1.316-.717-2.038-.675z"/>
    </g>
</svg>
