<svg id="Layer_1" data-name="Layer 1" xmlns="http://www.w3.org/2000/svg" viewBox="0 0 405.15 83.43"><defs><style>.cls-1,.cls-2{fill:#fff;}.cls-1{stroke:#fff;stroke-miterlimit:10;}</style></defs><title>TaturaGuardian_White</title><path class="cls-1" d="M29.46,45.67H75v1.51c0,19.9-17.45,35.47-37,35.47C18.05,82.65.5,67.27.5,46.33.5,25.76,18,10,37.67,10,55.21,10,68,21.89,71.53,31.89H56.06a22.28,22.28,0,0,0-18.68-9.81c-15.75,0-24,13.4-24,24.34,0,10.66,8,24.15,24.62,24.15A23,23,0,0,0,58.71,57.74H29.46Z"/><path class="cls-1" d="M125.68,28.88V81.23h-11.5V76H114c-2.08,2.83-5.47,7-13.49,7-9.53,0-14.91-4.72-17.55-8.3-3.87-5.57-3.87-14.06-3.87-18.4V28.88H91.63V55.57c0,4.25,0,15.85,10.94,15.85,7.93,0,10.57-7.45,10.57-15.75V28.88Z"/><path class="cls-1" d="M186,81.23H174.46V74.72c-4,4.72-11.7,8.21-18.3,8.21-13.49,0-25.47-10.76-25.47-28.21,0-16,11.69-27.64,26.22-27.64,10.66,0,17,7.64,17.36,8.4h.19v-6.6H186ZM158.8,38.59c-10.29,0-15.57,8.87-15.57,16.7,0,8.87,6.61,16.13,15.57,16.13,8.68,0,15.28-6.79,15.28-16.51C174.08,44.06,166.25,38.59,158.8,38.59Z"/><path class="cls-1" d="M193.51,28.88H205V33.5h.19c2.36-3.4,4.72-6.42,11.23-6.42h1V39.25c-11.41.47-11.41,9.43-11.41,12.55V81.23H193.51Z"/><path class="cls-1" d="M272.67,81.23h-11.5V74.81H261c-2.36,3.78-7.83,8.12-16.7,8.12-13.3,0-26.7-10.94-26.7-27.83,0-17.64,14.15-28,26.7-28,7.64,0,12.17,2.55,15.85,6.42V11.42h12.54ZM245.6,71.42c9.43,0,15.47-8.49,15.47-16.41,0-8.59-6.6-16.42-15.47-16.42-9.34,0-15.47,8.68-15.47,16C230.13,64.35,237.39,71.42,245.6,71.42Z"/><path class="cls-1" d="M278.81,11.42h12.54V22.93H278.81Zm0,17.46h12.54V81.23H278.81Z"/><path class="cls-1" d="M351.45,81.23H339.94V74.72c-4,4.72-11.7,8.21-18.31,8.21-13.48,0-25.46-10.76-25.46-28.21,0-16,11.69-27.64,26.22-27.64,10.66,0,17,7.64,17.36,8.4h.19v-6.6h11.51ZM324.28,38.59c-10.29,0-15.57,8.87-15.57,16.7,0,8.87,6.61,16.13,15.57,16.13,8.68,0,15.28-6.79,15.28-16.51C339.56,44.06,331.73,38.59,324.28,38.59Z"/><path class="cls-1" d="M358.14,28.88h11.61V33.4c2.07-2,6.41-6.32,14.34-6.32,4.52,0,11.41,2,15.75,7.27,4.81,5.75,4.81,14.52,4.81,18.58v28.3H392.1V55.38c0-4.34,0-16.79-10.56-16.79A10.76,10.76,0,0,0,373,43.21c-2.26,3.21-2.26,8.68-2.26,13.12v24.9H358.14Z"/><path class="cls-2" d="M78.64,2.09V.27H91.41V2.09h-5.2V18.9H83.84V2.09Z"/><path class="cls-2" d="M109.07,5.12V18.9h-2.18V16.53a9.35,9.35,0,0,1-3.13,2,10.17,10.17,0,0,1-3.79.68,9.52,9.52,0,0,1-6.25-2.12A6.46,6.46,0,0,1,91.13,12a6.35,6.35,0,0,1,2.62-5.09,10.4,10.4,0,0,1,10.12-1.39,8.41,8.41,0,0,1,3,2.16V5.12Zm-8.86,1.35a8.05,8.05,0,0,0-3.41.73,6.13,6.13,0,0,0-2.49,2,4.64,4.64,0,0,0,0,5.57,6.23,6.23,0,0,0,2.51,2.07,7.91,7.91,0,0,0,3.38.74,8.32,8.32,0,0,0,3.45-.73,5.92,5.92,0,0,0,2.5-2,4.77,4.77,0,0,0,.88-2.82,5,5,0,0,0-2-4A7.43,7.43,0,0,0,100.21,6.47Z"/><path class="cls-2" d="M115.18,0h2.22V5.12h3.51V6.65H117.4V18.9h-2.22V6.65h-3V5.12h3Z"/><path class="cls-2" d="M123.14,5.12h2.22v6.43a10.85,10.85,0,0,0,.32,3.25,3.77,3.77,0,0,0,1.81,2,7.36,7.36,0,0,0,6.35,0,3.93,3.93,0,0,0,1.78-1.88,10.88,10.88,0,0,0,.33-3.39V5.12h2.27v6.76a8.89,8.89,0,0,1-.83,4.3,5.72,5.72,0,0,1-2.51,2.26,9.55,9.55,0,0,1-4.18.81,9.72,9.72,0,0,1-4.21-.81A5.73,5.73,0,0,1,124,16.16a9.2,9.2,0,0,1-.83-4.4Z"/><path class="cls-2" d="M141.49,5.12h2.27v2a7.22,7.22,0,0,1,2.13-1.78,5,5,0,0,1,2.35-.59,4.86,4.86,0,0,1,2,.47l-1.15,1.5a3.79,3.79,0,0,0-1.18-.24,3.64,3.64,0,0,0-2.13.72,4.49,4.49,0,0,0-1.57,2.26,17.34,17.34,0,0,0-.41,4.77V18.9h-2.27Z"/><path class="cls-2" d="M168.44,5.12V18.9h-2.19V16.53a9.41,9.41,0,0,1-3.12,2,10.19,10.19,0,0,1-3.8.68,9.49,9.49,0,0,1-6.24-2.12A6.43,6.43,0,0,1,150.5,12a6.36,6.36,0,0,1,2.61-5.09,10.42,10.42,0,0,1,10.13-1.39,8.37,8.37,0,0,1,3,2.16V5.12Zm-8.86,1.35a8.13,8.13,0,0,0-3.42.73,6.27,6.27,0,0,0-2.49,2,4.82,4.82,0,0,0-.92,2.79,4.76,4.76,0,0,0,.93,2.78,6.17,6.17,0,0,0,2.51,2.07,7.86,7.86,0,0,0,3.37.74,8.25,8.25,0,0,0,3.45-.73,6,6,0,0,0,2.51-2,4.84,4.84,0,0,0,.88-2.82,5,5,0,0,0-2-4A7.44,7.44,0,0,0,159.58,6.47Z"/></svg>