<?xml version="1.0" encoding="utf-8"?>
<!-- Generator: Adobe Illustrator 21.1.0, SVG Export Plug-In . SVG Version: 6.00 Build 0)  -->
<!DOCTYPE svg PUBLIC "-//W3C//DTD SVG 1.1//EN" "http://www.w3.org/Graphics/SVG/1.1/DTD/svg11.dtd">
<svg version="1.1" id="Layer_1" xmlns="http://www.w3.org/2000/svg" xmlns:xlink="http://www.w3.org/1999/xlink" x="0px" y="0px"
	 viewBox="0 0 387.8 206.5" style="enable-background:new 0 0 387.8 206.5;" xml:space="preserve">
<style type="text/css">
	.st0{fill:#ED3A4B;}
	.st1{fill:#FFFFFF;}
</style>
<g>
	<path class="st0" d="M35.8,118.3h26.3c-3.6,6.6-10.5,10.7-18,10.7c-9.1,0-21.9-6.7-21.9-21.5c0-14.9,12.5-21.7,21.3-21.7
		c8,0,13.8,4.5,16.6,8.7l0.1,0.2h15L75,94.1c-3.5-9.8-15.7-20.3-31.3-20.3c-18.9,0-34.3,15.1-34.3,33.6C9.4,125.9,25,141,44.1,141
		c18.5,0,34.2-15,34.2-32.8v-1.9H35.8V118.3z"/>
	<path class="st0" d="M112,115.9c0,5.2-1.2,13.9-9.1,13.9c-9.5,0-9.5-10.1-9.5-13.9V91.1H81v25.4c0,4.1,0,11.8,3.6,17
		c2.1,2.9,7.1,7.8,16.4,7.8c6.8,0,10.2-3.3,12-5.6v4.1h11.5V91.1H112V115.9z"/>
	<path class="st0" d="M167.8,96.3c-1.9-2.2-7.4-6.9-15.5-6.9c-13.9,0-24.4,11-24.4,25.7c0,7.7,2.5,14.3,7.1,19.1
		c4.4,4.5,10.2,7,16.6,7c5.7,0,12.3-2.8,16.2-6.7v5.2h11.5V91.1h-11.5V96.3z M154,129.8c-7.7,0-13.7-6.2-13.7-14.2
		c0-7.1,4.8-14.7,13.7-14.7c6.7,0,13.4,4.9,13.4,14.4C167.4,123.7,161.8,129.8,154,129.8z"/>
	<path class="st0" d="M207.9,101.5v-12h-1.4c-5.4,0-7.7,2.1-9.9,5v-3.4h-11.5v48.6h12.4v-27.3c0-2.9,0-10.5,9.9-10.9L207.9,101.5z"
		/>
	<path class="st0" d="M245.8,94.6c-3.8-3.6-8.1-5.2-13.9-5.2c-11.9,0-24.8,9.9-24.8,26c0,7.3,2.8,13.9,7.8,18.8c4.6,4.5,10.8,7,17,7
		c8.6,0,13.1-4.2,14.9-6.6v5h11.5V75.2h-12.4L245.8,94.6L245.8,94.6z M233.1,129.8c-7.5,0-13.6-6.6-13.6-14.8
		c0-6.7,5.6-14.1,13.6-14.1c7.5,0,13.6,6.5,13.6,14.5C246.7,124.3,239.6,129.8,233.1,129.8z"/>
	<rect x="262.8" y="91.1" class="st0" width="12.4" height="48.6"/>
	<rect x="262.8" y="75.2" class="st0" width="12.4" height="11.5"/>
	<path class="st0" d="M318.5,96.3c-1.9-2.2-7.4-6.9-15.5-6.9c-13.9,0-24.4,11-24.4,25.7c0,7.7,2.5,14.3,7.1,19.1
		c4.4,4.5,10.2,7,16.6,7c5.7,0,12.3-2.8,16.2-6.7v5.2H330V91.1h-11.5L318.5,96.3L318.5,96.3z M304.7,129.8
		c-7.7,0-13.7-6.2-13.7-14.2c0-7.1,4.8-14.7,13.7-14.7c6.7,0,13.4,4.9,13.4,14.4C318.1,123.7,312.5,129.8,304.7,129.8z"/>
	<path class="st0" d="M373.9,96.2c-4.1-5-10.5-6.8-14.7-6.8c-6.5,0-10.4,3.1-12.6,5.1V91H335v48.6h12.4v-23.2c0-3.9,0-8.9,2-11.7
		c2-3.2,5.7-4,7.4-4c8.2,0,9.1,8.4,9.1,14.8v24h12.4v-26.3C378.4,109.6,378.4,101.6,373.9,96.2z"/>
</g>
<g>
	<path class="st1" d="M81,67.5v-2h14v2h-5.7v18.4h-2.6V67.5H81z"/>
	<path class="st1" d="M114.3,70.8v15.1h-2.4v-2.6c-1,1-2.2,1.7-3.4,2.2c-1.3,0.5-2.6,0.7-4.1,0.7c-2.7,0-4.9-0.8-6.8-2.3
		s-2.8-3.4-2.8-5.6s1-4,2.9-5.6c1.9-1.5,4.2-2.3,6.9-2.3c1.5,0,2.9,0.3,4.2,0.8c1.3,0.5,2.4,1.3,3.3,2.4v-2.8
		C112.1,70.8,114.3,70.8,114.3,70.8z M104.6,72.3c-1.3,0-2.6,0.3-3.7,0.8s-2.1,1.3-2.7,2.2c-0.7,1-1,2-1,3c0,1.1,0.3,2.1,1,3
		c0.7,1,1.6,1.7,2.7,2.3c1.1,0.5,2.4,0.8,3.7,0.8c1.3,0,2.6-0.3,3.8-0.8c1.2-0.5,2.1-1.3,2.7-2.2c0.6-0.9,1-1.9,1-3.1
		c0-1.7-0.7-3.2-2.2-4.4C108.5,72.9,106.7,72.3,104.6,72.3z"/>
	<path class="st1" d="M121,65.3h2.4v5.6h3.8v1.7h-3.8V86H121V72.5h-3.3v-1.7h3.3V65.3z"/>
	<path class="st1" d="M129.7,70.8h2.4v7c0,1.7,0.1,2.9,0.3,3.5c0.3,0.9,1,1.7,2,2.2s2.1,0.8,3.5,0.8s2.5-0.3,3.4-0.8s1.6-1.2,2-2.1
		c0.2-0.6,0.4-1.8,0.4-3.7v-7h2.5v7.4c0,2.1-0.3,3.6-0.9,4.7c-0.6,1.1-1.5,1.9-2.7,2.5s-2.7,0.9-4.6,0.9c-1.8,0-3.4-0.3-4.6-0.9
		c-1.2-0.6-2.1-1.4-2.8-2.5c-0.6-1.1-0.9-2.7-0.9-4.8L129.7,70.8L129.7,70.8z"/>
	<path class="st1" d="M149.8,70.8h2.5V73c0.7-0.9,1.5-1.5,2.3-1.9s1.7-0.6,2.6-0.6c0.7,0,1.4,0.2,2.1,0.5l-1.3,1.6
		c-0.5-0.2-0.9-0.3-1.3-0.3c-0.8,0-1.6,0.3-2.3,0.8c-0.8,0.5-1.3,1.4-1.7,2.5c-0.3,0.9-0.4,2.6-0.4,5.2v5.1h-2.5L149.8,70.8
		L149.8,70.8z"/>
	<path class="st1" d="M179.2,70.8v15.1h-2.4v-2.6c-1,1-2.2,1.7-3.4,2.2c-1.3,0.5-2.6,0.7-4.1,0.7c-2.7,0-4.9-0.8-6.8-2.3
		c-1.9-1.5-2.8-3.4-2.8-5.6s1-4,2.9-5.6c1.9-1.5,4.2-2.3,6.9-2.3c1.5,0,2.9,0.3,4.2,0.8s2.4,1.3,3.3,2.4v-2.8
		C177,70.8,179.2,70.8,179.2,70.8z M169.6,72.3c-1.3,0-2.6,0.3-3.7,0.8c-1.1,0.5-2.1,1.3-2.7,2.2c-0.7,1-1,2-1,3c0,1.1,0.3,2.1,1,3
		c0.7,1,1.6,1.7,2.7,2.3c1.1,0.5,2.4,0.8,3.7,0.8s2.6-0.3,3.8-0.8s2.1-1.3,2.7-2.2c0.6-0.9,1-1.9,1-3.1c0-1.7-0.7-3.2-2.2-4.4
		C173.4,72.9,171.7,72.3,169.6,72.3z"/>
</g>
</svg>
