<svg id="Layer_1" data-name="Layer 1" xmlns="http://www.w3.org/2000/svg" xmlns:xlink="http://www.w3.org/1999/xlink" viewBox="0 0 375.41 130.3"><defs><style>.cls-1{fill:#fff;}.cls-2,.cls-3{fill:none;}.cls-2{stroke:#fff;stroke-miterlimit:10;stroke-width:1.11px;}.cls-4{clip-path:url(#clip-path);}</style><clipPath id="clip-path"><path class="cls-1" d="M336.13,112.23c-11.24,0-17.68-6.63-17.68-18.18,0-19.66,13.33-24.9,21.21-24.9,8.38,0,17.41,5.64,17.41,18a29.05,29.05,0,0,1-.68,7.06l-.09.38H331.77c.11,4.51,1.76,6.8,4.89,6.8a4.91,4.91,0,0,0,4.74-2.57l.14-.28h13.65l-.3,1C353.9,102.66,350.9,112.23,336.13,112.23Zm3.53-42.08c-7.51,0-20.21,5-20.21,23.9,0,10.91,6.08,17.18,16.68,17.18,13.53,0,16.65-8.4,17.69-11.66H342.15a6,6,0,0,1-5.49,2.85c-2.69,0-5.89-1.44-5.89-8.3v-.5h24.74a29.58,29.58,0,0,0,.56-6.44C356.07,75.41,347.83,70.15,339.66,70.15Zm-61.4,42.08c-16.32,0-18.08-13.15-18.08-18.8,0-14.75,8.38-24.28,21.34-24.28,5.45,0,9.9,1.59,12.86,4.6s4.25,7,4.16,12.12v.49H284.87l0-.51c.06-1.83-.19-2.93-.8-3.58s-1.48-1-3-1c-5.51,0-6.76,8.89-6.76,12,0,4.72,1.25,6.83,4,6.83,3.15,0,4.55-3.15,5.32-5.52l.11-.35h13.63l-.12.6C295,106.38,288.63,112.23,278.26,112.23Zm3.26-42.08c-12.35,0-20.34,9.14-20.34,23.28,0,15.48,10.7,17.8,17.08,17.8,9.64,0,15.68-5.38,18-16H284.55c-.9,2.62-2.52,5.87-6.16,5.87-4.5,0-5-4.47-5-7.83s1.43-13,7.76-13c1.82,0,3,.43,3.73,1.35.71.75,1,1.93,1,3.74h11.65c0-4.62-1.31-8.29-3.87-10.9C290.9,71.64,286.7,70.15,281.52,70.15ZM175.13,112.23c-11.28,0-17.75-7-17.75-19.26a30.57,30.57,0,0,1,1.19-8.71l0,0a12.5,12.5,0,0,0-4.86-1c-5.52,0-8,2.82-9.43,10.78l-3.07,17.16H127l7.3-41.06h13.8l-.84,4.65c2.49-3.37,6.16-5.66,9.3-5.66a12.88,12.88,0,0,1,4.84.65l.39.15-2.06,11.26c3.39-7.57,10.32-12.06,19.5-12.06,11.15,0,17.28,6.4,17.28,18C196.47,96.48,192,112.23,175.13,112.23Zm4.06-42.08c-12.64,0-20.81,9-20.81,22.82,0,11.6,6.11,18.26,16.75,18.26,7,0,12.36-2.76,16-8.2a29.34,29.34,0,0,0,4.37-15.85C195.47,76,189.84,70.15,179.19,70.15Zm-51,40.07h12.17l2.92-16.34c1.54-8.46,4.36-11.6,10.42-11.6a13.29,13.29,0,0,1,4.67.81l2.28-12.49a12.87,12.87,0,0,0-4.09-.45c-3.29,0-7.43,3-9.62,7l-.14.26h-1l1.13-6.25H135.1Zm-81.46,1c-19.51,0-31.16-14.26-31.16-38.14,0-29.14,16.1-49.48,39.15-49.48,26.48,0,30.77,20.84,31,33.26v.51H63.86V56.9c.11-4.21-.79-7.33-2.68-9.27a8.83,8.83,0,0,0-6.6-2.38C49,45.25,38.5,51,38.5,72.66c0,7.75,1.91,17,11,17,8.12,0,10.81-7.73,11.7-12.34l.07-.4H83.84l-.09.57A46.38,46.38,0,0,1,76,97.55C69.43,106.65,59.57,111.26,46.69,111.26Zm8-86.62c-22.46,0-38.15,19.93-38.15,48.48,0,23.6,11,37.14,30.16,37.14,11.51,0,31.4-4.22,36-32.35H62.09c-1.67,8.1-6.25,12.74-12.6,12.74-7.84,0-12-6.22-12-18,0-13.68,5.35-28.41,17.09-28.41a9.76,9.76,0,0,1,7.31,2.68c2,2.06,3,5.25,3,9.48H84.64C84,30.17,68,24.64,54.68,24.64Zm256.46,86.58h-14.2L307,55.1h14.2Zm-13-1H310.3L320,56.1H307.81Zm-45.26,1h-14.2L246,70.16h14.2Zm-13-1H252l7-39.06H246.88Zm-6.68,1H219l3.51-19c.11-.69.26-1.41.4-2.13a27.73,27.73,0,0,0,.65-4.42,3,3,0,0,0-3.23-3.36c-4,0-5.18,3.48-5.9,7.24l-3.93,21.63h-14.2l7.37-41.06h13.74L216.63,74a13.53,13.53,0,0,1,10-4.88c7.47,0,11.75,4.12,11.75,11.31a51.88,51.88,0,0,1-.94,7.73Zm-13-1h12.17L236.47,88a48.17,48.17,0,0,0,.92-7.55c0-9-6.73-10.31-10.75-10.31A12.88,12.88,0,0,0,216.33,76l-.15.21h-1l1-5.09h-11.7l-7,39.06h12.17l3.79-20.82c.76-4,2.18-8.05,6.88-8.05a4,4,0,0,1,4.23,4.36,27.38,27.38,0,0,1-.67,4.62c-.14.71-.28,1.42-.4,2.1Zm-98.38,1H107.6l3.5-19c.12-.68.26-1.41.41-2.12a28,28,0,0,0,.65-4.43,3,3,0,0,0-3.23-3.36c-4,0-5.18,3.48-5.9,7.24L99.1,111.22H84.9l10-56.12h14.2l-3.35,18.8a12.74,12.74,0,0,1,9.55-4.75c7.47,0,11.75,4.12,11.75,11.31a52.89,52.89,0,0,1-.94,7.73Zm-13-1H121L125.09,88a49.15,49.15,0,0,0,.92-7.55c0-9-6.73-10.31-10.75-10.31A12.07,12.07,0,0,0,105.43,76l-.14.24h-1l3.6-20.15H95.7l-9.61,54.12H98.26l3.79-20.82c.76-4,2.18-8.05,6.88-8.05a4,4,0,0,1,4.23,4.36,28.3,28.3,0,0,1-.67,4.62c-.14.71-.28,1.42-.4,2.1Zm66.93-9.11c-2.36,0-5.16-1.21-5.16-7,0-4.34,1.92-13.85,7.62-13.85,4.49,0,5.1,4,5.1,8C183.29,91.69,181.5,101.11,175.73,101.11Zm2.46-19.84c-4.68,0-6.62,8.37-6.62,12.85,0,4,1.4,6,4.16,6,4.67,0,6.56-8.37,6.56-11.85C182.29,83.29,181.1,81.27,178.19,81.27Zm166.35,5.4H331.77l.14-.61C333,81.48,335.6,79,339.26,79c3.34,0,5.49,2.32,5.49,5.91a10.22,10.22,0,0,1-.14,1.4Zm-11.5-1h10.65c0-.28.06-.58.06-.81,0-2.37-1.18-4.91-4.49-4.91C335.5,80,333.81,82.93,333,85.67ZM260.79,66.83h-14.2L248.7,55.1h14.2Zm-13-1H260l1.75-9.73H249.54Z"/></clipPath></defs><title>Yarrawonga</title><polygon class="cls-2" points="96.75 46.6 104.14 46.6 107.84 37.74 122.73 22.63 114.07 22.63 106.33 31.56 105.95 22.63 98.53 22.63 100.44 37.8 96.75 46.6"/><path class="cls-2" d="M113,46.6h7.53l2.57-3.42h7.82l-.32,3.42h7.25l1.37-24H132Zm19.13-15.75h.07L131.48,38h-4.6Z"/><path class="cls-2" d="M156,28.34h4c1.91,0,2.24,1.14,2,2.08-.31,1.44-1.72,2.68-4.17,2.68H154ZM141,46.6h7.25l3.52-8.36H155c2.05,0,2.79.94,2.53,2.18s-.94,2.69-1.19,3.83a5.7,5.7,0,0,0-.19,2.35h7c-.31-1.41.48-3.86,1-6.11s.61-4.3-1.44-4.9v-.07a8.38,8.38,0,0,0,7-6.61c1.07-5.07-2.06-6.28-6.49-6.28H151.07Z"/><path class="cls-2" d="M182.36,28.34h4c1.91,0,2.24,1.14,2,2.08-.31,1.44-1.71,2.68-4.17,2.68h-3.89Zm-15,18.26h7.25l3.52-8.36h3.19c2,0,2.79.94,2.53,2.18s-.94,2.69-1.19,3.83a5.7,5.7,0,0,0-.19,2.35h7.05c-.31-1.41.48-3.86,1-6.11s.61-4.3-1.44-4.9v-.07a8.38,8.38,0,0,0,7-6.61c1.07-5.07-2.06-6.28-6.49-6.28H177.46Z"/><path class="cls-2" d="M191.54,46.6h7.52l2.57-3.42h7.83l-.33,3.42h7.26l1.36-24H210.5Zm19.13-15.75h.06L210,38h-4.6Z"/><polygon class="cls-2" points="260.06 22.63 252.54 22.63 243.9 36.56 243.84 36.56 246.8 22.63 240.35 22.63 231.65 36.56 231.58 36.56 234.54 22.63 227.29 22.63 223.94 46.6 231.06 46.6 238.9 34.18 238.97 34.18 236.33 46.6 243.45 46.6 260.06 22.63"/><path class="cls-2" d="M264.46,36.83c.76-3.56,3.31-8.8,7.75-8.8,2.89,0,3.26,2.18,2.8,4.37-.76,3.56-3.32,8.8-7.75,8.8C264.37,41.2,264,39,264.46,36.83Zm-7.35-.17c-1.47,6.92,1.9,10.51,8.68,10.51,8.16,0,14.85-6.55,16.57-14.6,1.55-7.32-1.9-10.51-8.68-10.51C265.52,22.06,258.82,28.6,257.11,36.66Z"/><polygon class="cls-2" points="281.56 46.6 288.57 46.6 294.21 33.17 294.28 33.17 295.83 46.6 303.08 46.6 313.21 22.63 306.19 22.63 300.72 35.72 300.66 35.72 298.94 22.63 291.62 22.63 281.56 46.6"/><path class="cls-2" d="M326.31,46.6H331l5.56-13.19h-9.81l-2.16,5.13h3.36a5.42,5.42,0,0,1-5,2.66c-3,0-3.79-1.88-3.19-4.71.87-4.12,3.61-8.46,7.67-8.46,1.88,0,3,.78,2.75,3h7c1.26-6.24-2.66-9-8-9-9.41,0-15.3,7.48-16.89,15-.64,3-.81,10.1,7.59,10.1a9.6,9.6,0,0,0,7.1-3l.06.06Z"/><path class="cls-2" d="M332,46.6h7.52l2.58-3.42h7.82l-.32,3.42h7.25l1.37-24H351Zm19.13-15.75h.07L350.48,38h-4.6Z"/><path class="cls-3" d="M175,98.68a12.4,12.4,0,0,0,.18,2.22,4.93,4.93,0,0,0,.55,0c5.56,0,7.38-9.3,7.38-12.67a21,21,0,0,0-.17-2.87,5.32,5.32,0,0,0-.81-.06C176.87,85.33,175,94.51,175,98.68Z"/><path class="cls-3" d="M338.2,86.5h6.19l.05-.27a9,9,0,0,0,.13-1.37c0-.23,0-.46,0-.68a5.73,5.73,0,0,0-1.35-.17A6,6,0,0,0,338.2,86.5Z"/><path class="cls-3" d="M288.39,86.49a2.88,2.88,0,0,0-1.56-.95h-1.11c0-.06,0-.11,0-.18-.21,0-.42,0-.65,0-5.73,0-7.26,8.72-7.26,12.5a17.92,17.92,0,0,0,.23,3.08l.36,0c3.73,0,5.28-3.64,6-5.86h12a33.62,33.62,0,0,1-1.18,4.23h4.64l1.59-8.88H289.32C289.38,88.49,289.12,87.26,288.39,86.49Z"/><path class="cls-1" d="M146.66,77.23l.09-.17a15,15,0,0,1,1.2-1.85h-1.64l-.37,2Z"/><path class="cls-1" d="M216.09,76.07l.09-.13c.18-.26.38-.49.57-.73h-1.19l-.17.86Z"/><path class="cls-1" d="M175,98.68c0-4.17,1.87-13.35,7.13-13.35a5.32,5.32,0,0,1,.81.06c-.43-3.09-1.74-4.94-4.75-4.94-5.63,0-7.44,9.62-7.44,13.67,0,3.09.85,6.47,4.43,6.78A12.4,12.4,0,0,1,175,98.68Z"/><path class="cls-1" d="M343.19,84a5.73,5.73,0,0,1,1.35.17c-.24-2.82-2-5.05-5.28-5.05-3.74,0-6.16,2.64-7.18,7l-.09.4h6.21A6,6,0,0,1,343.19,84Z"/><path class="cls-1" d="M359.84,98.68a28.59,28.59,0,0,0,.66-6.94c0-7.11-2.94-11.77-6.89-14.49a18.13,18.13,0,0,1,2.64,9.93c0,1.07,0,2.18-.11,3.33a29.12,29.12,0,0,1-.49,3.29H330.94v.32c0,3.88,1.07,7.43,4.63,8a14.6,14.6,0,0,1-.37-3.47Z"/><path class="cls-1" d="M285.06,85.33c.23,0,.44,0,.65,0a5.08,5.08,0,0,0-1-3.65c-.77-1-2-1.26-3.58-1.26-6.09,0-7.58,9.14-7.58,12.83s.68,7.4,4.49,7.63a17.92,17.92,0,0,1-.23-3.08C277.8,94.05,279.33,85.33,285.06,85.33Z"/><path class="cls-1" d="M286.83,85.54a2.88,2.88,0,0,1,1.56.95c.73.77,1,2,.93,3.93h12.17l.41-2.26c-.42-5.36-2.73-9.07-6.23-11.31a16.9,16.9,0,0,1,2.05,8.69Z"/><path class="cls-1" d="M67.88,56.59a19.88,19.88,0,0,1,.43,4.88H89.09c-.22-13.2-4.34-21.64-10.55-26.64,3.73,5,6.08,12.06,6.28,21.76Z"/><path class="cls-1" d="M105.18,76.07l.1-.15a12.69,12.69,0,0,1,5.15-4.72l2-11h-5.08l-2.83,15.91Z"/><path class="cls-1" d="M352.25,103.62c-2.14,3.63-6.55,7.78-16.12,7.78-4.95,0-8.66-1.32-11.33-3.53,2.43,5,7.28,8.41,15.26,8.41,14.92,0,17.51-10,18.38-12.66Z"/><path class="cls-1" d="M82,82c-2.52,10.5-10.23,28.47-35.34,28.47-8.91,0-15.83-2.92-20.79-8,5,8.09,13.21,12.91,24.73,12.91,29.66,0,35.26-24.9,36.56-33.35Z"/><path class="cls-1" d="M160.45,74.21l-.32,0-1.66,9.1a13.31,13.31,0,0,0-4.81-.88c-5.82,0-8.7,3-10.25,11.46l-2.94,16.49h-8.12l-.87,4.88h13.19l3-16.75c1.53-8.42,4.32-11.2,9.92-11.2.36,0,.73,0,1.11.06a21.83,21.83,0,0,1,6.37-12.33l0-.23A12.37,12.37,0,0,0,160.45,74.21Z"/><polygon class="cls-1" points="261.16 60.16 260.11 66.01 252 66.01 251.12 70.89 264.31 70.89 266.24 60.16 261.16 60.16"/><polygon class="cls-1" points="319.43 60.16 310.45 110.4 302.34 110.4 301.47 115.28 314.65 115.28 324.51 60.16 319.43 60.16"/><path class="cls-1" d="M112.87,86.41H113c0-.24,0-.47,0-.71a3.84,3.84,0,0,0-4.06-4.18c-4.47,0-5.91,3.75-6.71,7.9l-3.81,21H90.29l-.86,4.88h13.18l3.86-21.23C107.27,89.88,108.67,86.41,112.87,86.41Z"/><path class="cls-1" d="M193.24,76.8a20.25,20.25,0,0,1,2.41,10.38c0,10.22-4.89,24.22-20.52,24.22a17.18,17.18,0,0,1-11.26-3.64c2.91,6,8.62,8.52,15.19,8.52,15.92,0,20.85-14.28,20.85-24.54C199.91,84.37,197.44,79.5,193.24,76.8Z"/><path class="cls-1" d="M295.26,99.3c-2.9,8.16-8.64,12.1-17,12.1-5.28,0-9-1.42-11.61-3.59,2.28,4.66,6.84,8.47,15.54,8.47,7.84,0,13.4-3.43,16.54-10.41l1.17-6.57Z"/><polygon class="cls-1" points="258.5 75.21 252.18 110.4 244.07 110.4 243.2 115.28 256.38 115.28 263.58 75.21 258.5 75.21"/><path class="cls-1" d="M224.25,86.41h.09c0-.24,0-.47,0-.71a3.84,3.84,0,0,0-4.06-4.18c-4.47,0-5.91,3.75-6.71,7.9l-3.81,21h-8.11l-.87,4.88H214l3.86-21.23C218.65,89.88,220.05,86.41,224.25,86.41Z"/><path class="cls-1" d="M336.13,112.23c-11.24,0-17.68-6.63-17.68-18.18,0-19.66,13.33-24.9,21.21-24.9,8.38,0,17.41,5.64,17.41,18a29.05,29.05,0,0,1-.68,7.06l-.09.38H331.77c.11,4.51,1.76,6.8,4.89,6.8a4.91,4.91,0,0,0,4.74-2.57l.14-.28h13.65l-.3,1C353.9,102.66,350.9,112.23,336.13,112.23Zm3.53-42.08c-7.51,0-20.21,5-20.21,23.9,0,10.91,6.08,17.18,16.68,17.18,13.53,0,16.65-8.4,17.69-11.66H342.15a6,6,0,0,1-5.49,2.85c-2.69,0-5.89-1.44-5.89-8.3v-.5h24.74a29.58,29.58,0,0,0,.56-6.44C356.07,75.41,347.83,70.15,339.66,70.15Zm-61.4,42.08c-16.32,0-18.08-13.15-18.08-18.8,0-14.75,8.38-24.28,21.34-24.28,5.45,0,9.9,1.59,12.86,4.6s4.25,7,4.16,12.12v.49H284.87l0-.51c.06-1.83-.19-2.93-.8-3.58s-1.48-1-3-1c-5.51,0-6.76,8.89-6.76,12,0,4.72,1.25,6.83,4,6.83,3.15,0,4.55-3.15,5.32-5.52l.11-.35h13.63l-.12.6C295,106.38,288.63,112.23,278.26,112.23Zm3.26-42.08c-12.35,0-20.34,9.14-20.34,23.28,0,15.48,10.7,17.8,17.08,17.8,9.64,0,15.68-5.38,18-16H284.55c-.9,2.62-2.52,5.87-6.16,5.87-4.5,0-5-4.47-5-7.83s1.43-13,7.76-13c1.82,0,3,.43,3.73,1.35.71.75,1,1.93,1,3.74h11.65c0-4.62-1.31-8.29-3.87-10.9C290.9,71.64,286.7,70.15,281.52,70.15ZM175.13,112.23c-11.28,0-17.75-7-17.75-19.26a30.57,30.57,0,0,1,1.19-8.71l0,0a12.5,12.5,0,0,0-4.86-1c-5.52,0-8,2.82-9.43,10.78l-3.07,17.16H127l7.3-41.06h13.8l-.84,4.65c2.49-3.37,6.16-5.66,9.3-5.66a12.88,12.88,0,0,1,4.84.65l.39.15-2.06,11.26c3.39-7.57,10.32-12.06,19.5-12.06,11.15,0,17.28,6.4,17.28,18C196.47,96.48,192,112.23,175.13,112.23Zm4.06-42.08c-12.64,0-20.81,9-20.81,22.82,0,11.6,6.11,18.26,16.75,18.26,7,0,12.36-2.76,16-8.2a29.34,29.34,0,0,0,4.37-15.85C195.47,76,189.84,70.15,179.19,70.15Zm-51,40.07h12.17l2.92-16.34c1.54-8.46,4.36-11.6,10.42-11.6a13.29,13.29,0,0,1,4.67.81l2.28-12.49a12.87,12.87,0,0,0-4.09-.45c-3.29,0-7.43,3-9.62,7l-.14.26h-1l1.13-6.25H135.1Zm-81.46,1c-19.51,0-31.16-14.26-31.16-38.14,0-29.14,16.1-49.48,39.15-49.48,26.48,0,30.77,20.84,31,33.26v.51H63.86V56.9c.11-4.21-.79-7.33-2.68-9.27a8.83,8.83,0,0,0-6.6-2.38C49,45.25,38.5,51,38.5,72.66c0,7.75,1.91,17,11,17,8.12,0,10.81-7.73,11.7-12.34l.07-.4H83.84l-.09.57A46.38,46.38,0,0,1,76,97.55C69.43,106.65,59.57,111.26,46.69,111.26Zm8-86.62c-22.46,0-38.15,19.93-38.15,48.48,0,23.6,11,37.14,30.16,37.14,11.51,0,31.4-4.22,36-32.35H62.09c-1.67,8.1-6.25,12.74-12.6,12.74-7.84,0-12-6.22-12-18,0-13.68,5.35-28.41,17.09-28.41a9.76,9.76,0,0,1,7.31,2.68c2,2.06,3,5.25,3,9.48H84.64C84,30.17,68,24.64,54.68,24.64Zm256.46,86.58h-14.2L307,55.1h14.2Zm-13-1H310.3L320,56.1H307.81Zm-45.26,1h-14.2L246,70.16h14.2Zm-13-1H252l7-39.06H246.88Zm-6.68,1H219l3.51-19c.11-.69.26-1.41.4-2.13a27.73,27.73,0,0,0,.65-4.42,3,3,0,0,0-3.23-3.36c-4,0-5.18,3.48-5.9,7.24l-3.93,21.63h-14.2l7.37-41.06h13.74L216.63,74a13.53,13.53,0,0,1,10-4.88c7.47,0,11.75,4.12,11.75,11.31a51.88,51.88,0,0,1-.94,7.73Zm-13-1h12.17L236.47,88a48.17,48.17,0,0,0,.92-7.55c0-9-6.73-10.31-10.75-10.31A12.88,12.88,0,0,0,216.33,76l-.15.21h-1l1-5.09h-11.7l-7,39.06h12.17l3.79-20.82c.76-4,2.18-8.05,6.88-8.05a4,4,0,0,1,4.23,4.36,27.38,27.38,0,0,1-.67,4.62c-.14.71-.28,1.42-.4,2.1Zm-98.38,1H107.6l3.5-19c.12-.68.26-1.41.41-2.12a28,28,0,0,0,.65-4.43,3,3,0,0,0-3.23-3.36c-4,0-5.18,3.48-5.9,7.24L99.1,111.22H84.9l10-56.12h14.2l-3.35,18.8a12.74,12.74,0,0,1,9.55-4.75c7.47,0,11.75,4.12,11.75,11.31a52.89,52.89,0,0,1-.94,7.73Zm-13-1H121L125.09,88a49.15,49.15,0,0,0,.92-7.55c0-9-6.73-10.31-10.75-10.31A12.07,12.07,0,0,0,105.43,76l-.14.24h-1l3.6-20.15H95.7l-9.61,54.12H98.26l3.79-20.82c.76-4,2.18-8.05,6.88-8.05a4,4,0,0,1,4.23,4.36,28.3,28.3,0,0,1-.67,4.62c-.14.71-.28,1.42-.4,2.1Zm66.93-9.11c-2.36,0-5.16-1.21-5.16-7,0-4.34,1.92-13.85,7.62-13.85,4.49,0,5.1,4,5.1,8C183.29,91.69,181.5,101.11,175.73,101.11Zm2.46-19.84c-4.68,0-6.62,8.37-6.62,12.85,0,4,1.4,6,4.16,6,4.67,0,6.56-8.37,6.56-11.85C182.29,83.29,181.1,81.27,178.19,81.27Zm166.35,5.4H331.77l.14-.61C333,81.48,335.6,79,339.26,79c3.34,0,5.49,2.32,5.49,5.91a10.22,10.22,0,0,1-.14,1.4Zm-11.5-1h10.65c0-.28.06-.58.06-.81,0-2.37-1.18-4.91-4.49-4.91C335.5,80,333.81,82.93,333,85.67ZM260.79,66.83h-14.2L248.7,55.1h14.2Zm-13-1H260l1.75-9.73H249.54Z"/><g class="cls-4"><path class="cls-1" d="M336.13,112.37c-11.33,0-17.83-6.68-17.83-18.32,0-19.77,13.42-25,21.36-25,8.45,0,17.56,5.69,17.56,18.18a29.46,29.46,0,0,1-.69,7.1l-.12.49H331.92c.14,4.32,1.74,6.5,4.74,6.5,3.17,0,4.33-1.9,4.61-2.48l.18-.37h13.94L355,99.56C354,102.73,351,112.37,336.13,112.37Zm3.53-42.07c-7.46,0-20.07,5-20.07,23.75,0,10.82,6,17,16.54,17,13.16,0,16.4-8,17.49-11.37H342.24a6.14,6.14,0,0,1-5.58,2.86c-2.76,0-6-1.47-6-8.45v-.64h24.77a29.41,29.41,0,0,0,.53-6.3C355.92,80.91,352.5,70.3,339.66,70.3Zm-61.4,42.07c-16.45,0-18.23-13.25-18.23-18.94C260,78.82,268.67,69,281.52,69c5.49,0,10,1.61,13,4.65s4.3,7,4.2,12.22v.64H284.72l0-.67c.06-1.78-.17-2.85-.76-3.47s-1.42-1-2.86-1c-5.39,0-6.61,8.79-6.61,11.87,0,4.68,1.16,6.68,3.88,6.68,3.06,0,4.42-3.09,5.18-5.42l.15-.45h13.91l-.16.78C295.17,106.48,288.71,112.37,278.26,112.37Zm3.26-42.07c-12.27,0-20.19,9.08-20.19,23.13,0,6.59,2.2,17.65,16.93,17.65,9.51,0,15.49-5.28,17.78-15.69H284.65c-.63,1.86-2.27,5.87-6.26,5.87-5.17,0-5.17-6-5.17-8,0-5.09,2.14-13.16,7.9-13.16,1.87,0,3.09.45,3.84,1.41A5.15,5.15,0,0,1,286,85.22h11.35c0-4.52-1.32-8.11-3.83-10.66C290.82,71.77,286.66,70.3,281.52,70.3ZM175.13,112.37c-5.38,0-17.89-1.89-17.89-19.4a30.85,30.85,0,0,1,1.15-8.63,12.38,12.38,0,0,0-4.73-.92c-4.66,0-7.67,1.75-9.29,10.66l-3.09,17.29h-14.5L134.14,70h14.1l-.77,4.23c2.51-3.14,6-5.24,9.05-5.24a12.9,12.9,0,0,1,4.89.66l.5.2L160,80.14c3.56-7,10.32-11.14,19.15-11.14,11.24,0,17.43,6.46,17.43,18.18C196.62,96.53,192.09,112.37,175.13,112.37Zm4.06-42.07c-12.55,0-20.66,8.9-20.66,22.67,0,11.51,6.05,18.11,16.6,18.11,9.32,0,20.2-6.26,20.2-23.9C195.33,76.13,189.75,70.3,179.19,70.3Zm-50.87,39.78H140.2l2.9-16.23c1.53-8.43,4.49-11.72,10.56-11.72a13.68,13.68,0,0,1,4.56.76l2.22-12.19a13.42,13.42,0,0,0-3.92-.4c-3.24,0-7.32,3-9.49,6.92l-.18.33h-1.29l1.13-6.25H135.22Zm-81.63,1.33c-19.6,0-31.31-14.32-31.31-38.29,0-29.22,16.16-49.63,39.3-49.63,26.61,0,30.92,20.93,31.12,33.41v.66H63.71l0-.67c.1-4.16-.78-7.24-2.65-9.16a8.69,8.69,0,0,0-6.49-2.33C42,45.4,38.65,63.23,38.65,72.66c0,11.17,3.65,16.84,10.84,16.84,8,0,10.68-7.65,11.55-12.22l.1-.52H84l-.12.75a46.44,46.44,0,0,1-7.75,20.12C69.52,106.77,59.62,111.41,46.69,111.41Zm8-86.63c-22.38,0-38,19.88-38,48.34,0,23.51,11,37,30,37,26.33,0,33.75-19.74,35.81-32.06H62.21c-1.71,8.11-6.32,12.74-12.72,12.74-7.94,0-12.13-6.27-12.13-18.13,0-13.75,5.39-28.56,17.23-28.56A9.94,9.94,0,0,1,62,46.83c2,2.06,3,5.24,3,9.43H84.49C83.81,30.27,67.94,24.78,54.68,24.78Zm256.58,86.59h-14.5L306.85,55h14.5Zm-12.95-1.29h11.87l9.62-53.83H307.93ZM253,111.37h-14.5L245.92,70h14.5Zm-13-1.29h11.87l7-38.78H247Zm-6.73,1.29H218.8l3.54-19.14c.12-.68.26-1.41.4-2.13a27.76,27.76,0,0,0,.66-4.39,2.9,2.9,0,0,0-3.09-3.21c-3.12,0-4.79,2.06-5.75,7.11l-4,21.76H196.1L203.52,70h14l-.69,3.53A13.5,13.5,0,0,1,226.64,69c7.56,0,11.9,4.18,11.9,11.46a53.65,53.65,0,0,1-.94,7.76Zm-12.95-1.29h11.87l4.1-22.1a49,49,0,0,0,.92-7.52c0-8.84-6.65-10.16-10.61-10.16a12.73,12.73,0,0,0-10.19,5.82l-.19.28H215l1-5.1H204.61l-7,38.78h11.87l3.77-20.7c.77-4,2.21-8.18,7-8.18a4.17,4.17,0,0,1,4.38,4.51,27.59,27.59,0,0,1-.68,4.64c-.14.71-.28,1.43-.4,2.11Zm-98.44,1.29h-14.5L111,92.23c.12-.68.26-1.4.4-2.12a27.86,27.86,0,0,0,.66-4.4,2.9,2.9,0,0,0-3.09-3.21c-3.12,0-4.79,2.06-5.76,7.11l-4,21.76H84.72L94.74,55h14.5L106,73.4a12.82,12.82,0,0,1,9.31-4.4c7.56,0,11.9,4.18,11.9,11.46a53.31,53.31,0,0,1-.94,7.76ZM109,110.08h11.87L124.94,88a48.75,48.75,0,0,0,.93-7.52c0-8.84-6.65-10.16-10.61-10.16a11.9,11.9,0,0,0-9.7,5.79l-.19.31H104.1l3.59-20.15H95.82l-9.56,53.83H98.14l3.76-20.7c.78-4,2.22-8.18,7-8.18a4.17,4.17,0,0,1,4.38,4.51,27.68,27.68,0,0,1-.68,4.65c-.14.71-.28,1.42-.4,2.1Zm66.75-8.82c-2.42,0-5.31-1.24-5.31-7.14,0-4.38,2-14,7.77-14,4.65,0,5.24,4.35,5.24,8.14C183.43,91.73,181.61,101.26,175.73,101.26Zm2.46-19.85c-4.52,0-6.48,8.42-6.48,12.71,0,5.84,3,5.84,4,5.84,4.57,0,6.41-8.26,6.41-11.7C182.14,82.58,180.56,81.41,178.19,81.41Zm166.47,5.41H331.58l.19-.8c1.09-4.65,3.75-7.21,7.49-7.21,3.42,0,5.64,2.37,5.64,6a10.41,10.41,0,0,1-.14,1.42Zm-11.42-1.29h10.32a5.56,5.56,0,0,0,0-.67c0-2.3-1.14-4.76-4.34-4.76C335.68,80.1,334,82.89,333.24,85.53ZM260.92,67h-14.5l2.16-12h14.5Zm-13-1.3h11.87l1.7-9.43H249.66Z"/></g><path class="cls-1" d="M220.31,81.53c-4.47,0-5.91,3.75-6.71,7.9l-3.81,21h-8.11l-.87,4.88H214l3.86-21.23c.8-4.17,2.2-7.64,6.4-7.64h.09c0-.24,0-.47,0-.71A3.84,3.84,0,0,0,220.31,81.53Z"/><path class="cls-1" d="M236.64,75.48a12.29,12.29,0,0,1,.93,5c0,.93-.15,2.42-.26,3.34l-.67,4.25L232.5,110.4h-8.08l-.91,4.88H236.7l4.19-22.62a49.46,49.46,0,0,0,.94-7.64C241.83,80,239.73,77,236.64,75.48Z"/><path class="cls-1" d="M125.26,75.48a12.46,12.46,0,0,1,.93,5c0,.93-.15,2.42-.26,3.34l-.67,4.25-4.14,22.35H113l-.91,4.88h13.19l4.19-22.62a49.46,49.46,0,0,0,.94-7.64C130.45,80,128.34,77,125.26,75.48Z"/></svg>