<svg xmlns="http://www.w3.org/2000/svg" width="177" height="48" viewBox="0 0 177 48">
    <g fill="none" fill-rule="evenodd">
        <path fill="#FFF" fill-rule="nonzero" d="M41.944 12.57h3.765l1.887-4.48 7.6-7.635h-4.422l-3.948 4.517-.194-4.517h-3.785l.975 7.67zM50.233 12.57h3.836l1.311-1.732h3.994l-.168 1.733h3.698L63.603.445h-3.698L50.233 12.57zm9.753-7.957h.036l-.342 3.633h-2.346l2.652-3.633zM72.147 3.34h2.04c.974 0 1.143.576 1.02 1.05-.158.733-.872 1.36-2.122 1.36h-1.99l1.052-2.41zm-7.652 9.23h3.698l1.801-4.223h1.627c1.02 0 1.418.475 1.286 1.101-.133.627-.48 1.36-.602 1.936-.12.384-.155.788-.102 1.187h3.57c-.153-.712.25-1.95.51-3.087.26-1.137.312-2.173-.734-2.481v-.03a4.257 4.257 0 0 0 3.57-3.345C79.67 1.066 78.07.455 75.81.455h-6.157L64.495 12.57zM85.608 3.34h2.04c.974 0 1.143.576 1.02 1.05-.158.733-.872 1.36-2.122 1.36h-1.989l1.05-2.41zm-7.651 9.23h3.698l1.8-4.223h1.627c1.02 0 1.418.475 1.286 1.101-.133.627-.48 1.36-.602 1.936-.12.384-.154.788-.102 1.187h3.601c-.153-.712.25-1.95.51-3.087.26-1.137.311-2.173-.734-2.481v-.03a4.252 4.252 0 0 0 3.57-3.345c.551-2.562-1.05-3.173-3.31-3.173h-6.188L77.957 12.57zM90.285 12.57h3.836l1.316-1.732h3.99l-.17 1.733h3.704L103.66.445h-3.683L90.285 12.57zm9.758-7.957h.036l-.372 3.633h-2.342l2.678-3.633zM125.242.455h-3.836l-4.407 7.043h-.031l1.51-7.043h-3.29l-4.438 7.043h-.036l1.51-7.043h-3.698l-1.709 12.116h3.632l4.004-6.28h.03l-1.346 6.28h3.632zM127.486 7.635c.388-1.8 1.693-4.447 3.953-4.447 1.474 0 1.663 1.102 1.428 2.203-.387 1.799-1.688 4.446-3.953 4.446-1.469 0-1.663-1.101-1.428-2.202zm-3.75-.086c-.75 3.496.97 5.31 4.428 5.31 4.163 0 7.58-3.31 8.452-7.382.796-3.698-.969-5.31-4.427-5.31-4.157 0-7.575 3.31-8.452 7.382zM136.208 12.57h3.581l2.877-6.785h.03l.791 6.786h3.698L152.353.455h-3.576l-2.79 6.619h-.036l-.872-6.62h-3.74zM159.035 12.57h2.382l2.83-6.669h-4.998L158.127 8.5h1.714a2.761 2.761 0 0 1-2.55 1.338c-1.531 0-1.94-.95-1.633-2.374.444-2.087 1.841-4.275 3.912-4.275.96 0 1.53.39 1.408 1.516h3.57c.643-3.158-1.356-4.547-4.08-4.547-4.795 0-7.8 3.784-8.615 7.579-.327 1.515-.413 5.108 3.871 5.108a4.925 4.925 0 0 0 3.627-1.516l.026.035-.342 1.208zM162.962 12.57h3.836l1.311-1.732h3.99l-.164 1.733h3.698l.699-12.126h-3.698l-9.672 12.126zm9.753-7.957h.036l-.342 3.633h-2.346l2.652-3.633z"/>
        <path d="M81.854 38.905c0 .376.03.751.091 1.122h.28c2.837 0 3.765-4.699 3.765-6.407.005-.485-.024-.969-.086-1.45a3.522 3.522 0 0 0-.414-.03c-2.683-.005-3.636 4.638-3.636 6.765zM165.1 32.726h3.157l.026-.137c.044-.226.067-.456.071-.687v-.343a2.913 2.913 0 0 0-.689-.086 3.07 3.07 0 0 0-2.565 1.253zM139.692 32.72a1.446 1.446 0 0 0-.795-.474h-.567v-.091H138c-2.923 0-3.703 4.41-3.703 6.32a8.97 8.97 0 0 0 .117 1.557h.189c1.902 0 2.688-1.84 3.06-2.966h6.121a15.909 15.909 0 0 1-.607 2.142h2.372l.847-4.496h-6.228c.035-.976-.102-1.602-.475-1.991z"/>
        <path fill="#FFF" fill-rule="nonzero" d="M67.398 28.047l.046-.086a7.82 7.82 0 0 1 .617-.934h-.842l-.183 1.01.362.01zM102.813 27.461l.051-.07c.087-.127.189-.243.286-.364h-.623l-.081.434h.367zM81.854 38.905c0-2.107.953-6.75 3.636-6.75.139.002.277.012.414.03-.22-1.556-.888-2.496-2.418-2.496-2.872 0-3.8 4.86-3.8 6.912 0 1.562.438 3.264 2.26 3.426a6.793 6.793 0 0 1-.092-1.122zM167.645 31.473c.232 0 .463.03.689.086-.123-1.43-1.02-2.552-2.694-2.552-1.907 0-3.142 1.334-3.657 3.537l-.051.202h3.168a3.07 3.07 0 0 1 2.545-1.273z"/>
        <path fill="#FFF" fill-rule="nonzero" d="M176.138 38.905c.263-1.16.381-2.348.352-3.537 0-3.587-1.53-5.941-3.52-7.316a9.08 9.08 0 0 1 1.347 5.012c0 .541 0 1.107-.056 1.683-.051.56-.135 1.117-.25 1.667h-12.6v.162c0 1.96.541 3.75 2.357 4.042a7.27 7.27 0 0 1-.188-1.748l12.558.035zM137.994 32.135h.331a2.54 2.54 0 0 0-.51-1.844c-.388-.506-1.02-.642-1.82-.642-3.112 0-3.867 4.623-3.867 6.482 0 1.86.341 3.744 2.285 3.86a8.97 8.97 0 0 1-.117-1.556c-.006-1.89.775-6.3 3.698-6.3zM138.897 32.246c.31.067.59.234.795.475.373.389.51 1.01.475 1.99h6.228l.209-1.146c-.214-2.709-1.387-4.583-3.173-5.715a8.523 8.523 0 0 1 1.02 4.396h-5.554zM27.213 17.613c.178.812.252 1.642.22 2.471h10.599c-.112-6.674-2.214-10.934-5.386-13.46 1.902 2.526 3.1 6.093 3.203 10.99h-8.636zM46.244 27.461l.046-.08A6.466 6.466 0 0 1 48.917 25l1.02-5.558h-2.601l-1.428 8.018h.336zM172.271 41.381c-1.096 1.834-3.34 3.931-8.227 3.931-2.52 0-4.412-.672-5.78-1.789 1.24 2.527 3.72 4.255 7.784 4.255 7.61 0 8.937-5.053 9.376-6.397h-3.153zM34.43 30.437c-1.274 5.31-5.217 14.385-18.02 14.385-4.55 0-8.075-1.47-10.605-4.042 2.55 4.087 6.733 6.528 12.61 6.528 15.133 0 17.985-12.581 18.648-16.856l-2.632-.015zM74.432 26.521h-.163l-.847 4.598a6.934 6.934 0 0 0-2.454-.44c-2.968 0-4.437 1.516-5.223 5.79l-1.53 8.333h-4.137l-.398 2.47h6.723l1.53-8.463c.78-4.254 2.209-5.659 5.06-5.659h.567a10.995 10.995 0 0 1 3.249-6.225l.025-.12a6.413 6.413 0 0 0-2.402-.284zM125.803 19.422l-.536 2.951h-4.137l-.449 2.47h6.728l.985-5.42zM155.525 19.422l-4.58 25.385h-4.137l-.444 2.465h6.723l5.03-27.85zM50.162 32.68h.046v-.353a1.93 1.93 0 0 0-.534-1.519 1.968 1.968 0 0 0-1.507-.598c-2.285 0-3.02 1.9-3.427 3.996l-1.944 10.61H38.65l-.444 2.467h6.723l2-10.737c.383-2.107 1.092-3.866 3.234-3.866zM91.158 27.83a10.123 10.123 0 0 1 1.229 5.24c0 5.163-2.494 12.242-10.467 12.242a8.793 8.793 0 0 1-5.744-1.86c1.485 3.032 4.397 4.31 7.754 4.31 8.115 0 10.63-7.215 10.63-12.404 0-3.703-1.26-6.164-3.402-7.528zM143.197 39.198c-1.48 4.118-4.408 6.114-8.672 6.114-2.693 0-4.59-.723-5.917-1.814 1.158 2.355 3.49 4.28 7.927 4.28 3.994 0 6.835-1.733 8.432-5.265l.601-3.315h-2.371zM124.446 27.027l-3.224 17.78h-4.132l-.449 2.465h6.729l3.667-20.245zM106.975 32.68h.046v-.353a1.93 1.93 0 0 0-.542-1.529 1.969 1.969 0 0 0-1.524-.588c-2.285 0-3.02 1.9-3.422 3.996l-1.949 10.61h-4.132l-.448 2.467h6.723l1.974-10.727c.423-2.117 1.132-3.876 3.274-3.876z"/>
        <path fill="#FFF" fill-rule="nonzero" d="M164.044 45.726c-5.734 0-9.019-3.345-9.019-9.185 0-9.929 6.8-12.576 10.82-12.576 4.279 0 8.88 2.85 8.88 9.094.032 1.2-.084 2.4-.347 3.573l-.046.192H161.82c.061 2.278.898 3.435 2.494 3.435a2.52 2.52 0 0 0 2.423-1.298l.066-.147h6.963l-.153.506c-.505 1.576-2.035 6.406-9.57 6.406zm1.8-21.256c-3.83 0-10.308 2.526-10.308 12.07 0 5.518 3.1 8.681 8.508 8.681 6.901 0 8.493-4.24 9.028-5.891h-5.952a3.069 3.069 0 0 1-2.806 1.445c-1.372 0-3.004-.728-3.004-4.194v-.253h12.63c.217-1.072.313-2.165.285-3.259-.01-5.941-4.213-8.6-8.38-8.6zm-31.319 21.256c-8.325 0-9.222-6.639-9.222-9.499 0-7.427 4.259-12.262 10.89-12.262 2.78 0 5.045.803 6.555 2.324 1.51 1.52 2.168 3.537 2.122 6.124v.247h-6.973v-.263c.03-.92-.092-1.48-.408-1.803-.317-.324-.755-.506-1.53-.506-2.816 0-3.449 4.497-3.449 6.064 0 2.39.633 3.456 2.04 3.456 1.607 0 2.316-1.597 2.71-2.795l.06-.171h6.948l-.061.303c-1.123 5.826-4.392 8.781-9.682 8.781zm1.668-21.256c-6.305 0-10.38 4.613-10.38 11.757 0 7.827 5.458 8.994 8.712 8.994 4.917 0 8.003-2.713 9.182-8.084h-5.984c-.459 1.319-1.285 2.966-3.137 2.966-2.3 0-2.55-2.264-2.55-3.962 0-1.697.724-6.568 3.958-6.568.923 0 1.53.217 1.898.682.367.384.535.975.535 1.895h5.927c0-2.34-.668-4.194-1.974-5.513-1.407-1.414-3.55-2.167-6.187-2.167zM81.92 45.726c-5.754 0-9.049-3.537-9.049-9.731a15.28 15.28 0 0 1 .602-4.396 6.413 6.413 0 0 0-2.48-.505c-2.815 0-4.08 1.425-4.81 5.447l-1.59 8.68h-7.244l3.724-20.751h7.039l-.429 2.35c1.276-1.698 3.143-2.855 4.744-2.855a6.525 6.525 0 0 1 2.469.328l.199.076-1.046 5.684c1.73-3.825 5.264-6.063 9.947-6.063 5.682 0 8.814 3.234 8.814 9.095.026 4.688-2.295 12.641-10.89 12.641zm2.076-21.256c-6.453 0-10.615 4.547-10.615 11.525 0 5.866 3.112 9.226 8.539 9.226 3.57 0 6.305-1.394 8.161-4.143a14.734 14.734 0 0 0 2.245-8.009c0-5.628-2.898-8.6-8.33-8.6zM57.982 44.716h6.207l1.49-8.256c.785-4.275 2.229-5.866 5.315-5.866a6.981 6.981 0 0 1 2.387.409l1.158-6.31a6.81 6.81 0 0 0-2.086-.223c-1.679 0-3.79 1.516-4.907 3.537l-.072.131h-.51l.582-3.158H61.5l-3.52 19.736zm-41.547.505C6.453 45.241.51 38.036.51 25.971.51 11.247 8.722.965 20.485.965c13.502 0 15.69 10.53 15.813 16.81v.258H25.163v-.263c.056-2.122-.409-3.698-1.373-4.679a4.53 4.53 0 0 0-3.366-1.202c-2.826 0-8.182 2.89-8.182 13.85 0 3.915.97 8.589 5.611 8.589 4.142 0 5.52-3.901 5.968-6.23l.04-.207h11.493l-.046.293a23.258 23.258 0 0 1-3.943 10.135c-3.356 4.588-8.411 6.922-14.956 6.922l.026-.02zm4.08-43.77C9.024 1.47 1.02 11.544 1.02 25.97c0 11.924 5.611 18.765 15.39 18.765 5.865 0 16.011-2.132 18.363-16.35H24.26c-.852 4.097-3.188 6.437-6.407 6.437-4 0-6.121-3.143-6.121-9.095 0-6.917 2.724-14.355 8.712-14.355 1.38-.079 2.732.411 3.734 1.355 1.02 1.04 1.53 2.647 1.53 4.79h10.054C35.446 4.263 27.29 1.47 20.485 1.47l.03-.02zm130.782 43.77h-7.243l5.1-28.355h7.244l-5.101 28.355zm-6.631-.505h6.207l4.938-27.345h-6.213l-4.932 27.345zm-23.087.505h-7.243l3.76-20.751h7.242L121.58 45.22zm-6.631-.505h6.208l3.57-19.74h-6.207l-3.571 19.74zm-3.407.505h-7.254l1.79-9.6c.062-.344.133-.707.205-1.071.167-.728.276-1.468.326-2.213a1.507 1.507 0 0 0-.415-1.238 1.538 1.538 0 0 0-1.233-.46c-2.04 0-2.647 1.753-3.009 3.653l-1.974 10.93h-7.243l3.76-20.752h7.008l-.383 1.955a6.91 6.91 0 0 1 5.1-2.46c3.811 0 6 2.081 6 5.714a26.653 26.653 0 0 1-.48 3.906l-2.198 11.636zm-6.632-.505h6.208l2.102-11.222a24.27 24.27 0 0 0 .474-3.815c0-4.547-3.438-5.21-5.488-5.21a6.598 6.598 0 0 0-5.26 2.972l-.076.111h-.51l.51-2.577h-5.953l-3.57 19.74h6.208l1.933-10.519c.393-2.02 1.112-4.067 3.514-4.067a2.05 2.05 0 0 1 1.565.627c.406.424.607 1 .552 1.58a13.667 13.667 0 0 1-.347 2.33 54.77 54.77 0 0 0-.204 1.066l-1.658 8.984zm-50.182.505h-7.253l1.79-9.6c.056-.344.133-.707.204-1.071.17-.728.28-1.468.332-2.213a1.507 1.507 0 0 0-.414-1.236 1.538 1.538 0 0 0-1.229-.462c-2.04 0-2.647 1.753-3.014 3.653l-2.005 10.93h-7.243l5.1-28.356h7.244l-1.714 9.499a6.52 6.52 0 0 1 4.871-2.4c3.81 0 5.999 2.081 5.999 5.714a25.887 25.887 0 0 1-.485 3.906L54.727 45.22zm-6.63-.505h6.207l2.101-11.222c.26-1.257.418-2.533.475-3.815 0-4.547-3.438-5.21-5.489-5.21a6.182 6.182 0 0 0-5.014 2.962l-.071.121h-.51l1.83-10.181h-6.222l-4.902 27.345h6.208l1.933-10.52c.387-2.02 1.112-4.067 3.514-4.067a2.05 2.05 0 0 1 1.59.613 2.01 2.01 0 0 1 .563 1.595c-.04.784-.148 1.563-.322 2.33-.07.358-.142.717-.204 1.06l-1.688 8.989zm34.14-4.603c-1.2 0-2.633-.617-2.633-3.537 0-2.193.98-7.003 3.892-7.003 2.29 0 2.596 2.021 2.596 4.042-.01 1.753-.908 6.498-3.866 6.498h.01zm1.26-10.03c-2.393 0-3.413 4.234-3.413 6.498 0 2.021.714 3.032 2.122 3.032 2.382 0 3.346-4.23 3.346-5.993.02-2.51-.587-3.537-2.066-3.537h.01zm84.832 2.76h-6.51l.072-.314c.551-2.314 1.882-3.588 3.75-3.588 1.703 0 2.8 1.173 2.8 2.987-.005.235-.029.47-.072.702l-.04.212zm-5.861-.506h5.427c.02-.136.03-.272.03-.41 0-1.197-.601-2.48-2.29-2.48-1.897-.026-2.775 1.48-3.162 2.89h-.005zm-36.849-9.545h-7.243l1.076-5.926h7.243l-1.076 5.926zm-6.631-.505h6.208l.892-4.916h-6.218l-.882 4.916z"/>
        <path fill="#FFF" fill-rule="nonzero" d="M164.044 45.802c-5.78 0-9.095-3.375-9.095-9.261 0-9.99 6.85-12.632 10.895-12.632 4.316 0 8.958 2.875 8.958 9.18a14.474 14.474 0 0 1-.352 3.588l-.062.253h-12.487c.072 2.177.883 3.284 2.413 3.284 1.617 0 2.209-.96 2.352-1.258l.091-.182h7.111l-.184.576c-.505 1.576-2.05 6.452-9.64 6.452zm1.8-21.261c-3.8 0-10.237 2.526-10.237 12 0 5.472 3.06 8.59 8.437 8.59 6.718 0 8.365-4.043 8.926-5.746h-5.81a3.136 3.136 0 0 1-2.846 1.44c-1.403 0-3.06-.737-3.06-4.264v-.329h12.634c.208-1.048.3-2.115.276-3.183-.02-3.148-1.755-8.508-8.32-8.508zm-31.319 21.261c-8.39 0-9.294-6.695-9.294-9.6 0-7.377 4.402-12.338 10.962-12.338 2.8 0 5.1.813 6.631 2.35 1.53 1.535 2.188 3.536 2.143 6.173v.324h-7.147v-.339c.03-.904-.086-1.445-.382-1.753-.296-.308-.73-.505-1.46-.505-2.754 0-3.376 4.436-3.376 5.992 0 2.37.592 3.38 1.984 3.38 1.556 0 2.25-1.566 2.637-2.738l.077-.228h7.105l-.081.39c-1.173 5.916-4.468 8.892-9.799 8.892zm1.668-21.261c-6.259 0-10.304 4.587-10.304 11.686 0 3.335 1.123 8.923 8.636 8.923 4.851 0 7.901-2.667 9.075-7.932h-5.81c-.327.945-1.163 2.966-3.193 2.966-2.643 0-2.643-3.032-2.643-4.043 0-2.566 1.097-6.644 4.035-6.644.949 0 1.571.223 1.959.708.415.53.61 1.196.546 1.864h5.794c0-2.284-.678-4.093-1.959-5.386-1.392-1.395-3.52-2.142-6.136-2.142zM81.92 45.802c-2.744 0-9.126-.955-9.126-9.807-.01-1.472.187-2.938.587-4.355a6.368 6.368 0 0 0-2.413-.465c-2.372 0-3.907.879-4.738 5.386l-1.577 8.73h-7.396L61.011 24.4h7.193l-.393 2.137c1.28-1.586 3.06-2.647 4.616-2.647a6.69 6.69 0 0 1 2.5.333l.25.096-.954 5.2c1.816-3.537 5.264-5.63 9.773-5.63 5.728 0 8.886 3.26 8.886 9.181 0 4.73-2.306 12.733-10.962 12.733zm2.076-21.261c-6.407 0-10.544 4.496-10.544 11.454 0 5.816 3.086 9.155 8.468 9.155 4.754 0 10.304-3.163 10.304-12.08 0-5.579-2.847-8.53-8.228-8.53zM58.048 44.64h6.055l1.479-8.195c.785-4.265 2.295-5.922 5.386-5.922a7.018 7.018 0 0 1 2.326.384l1.138-6.15a6.944 6.944 0 0 0-2.005-.201c-1.653 0-3.734 1.516-4.84 3.501l-.092.167h-.674l.577-3.158h-5.836L58.048 44.64zm-41.639.672C6.407 45.312.434 38.082.434 25.971.434 11.207 8.67.894 20.485.894c13.568 0 15.767 10.575 15.869 16.881v.329H25.086v-.334c.056-2.107-.398-3.663-1.347-4.628a4.473 4.473 0 0 0-3.315-1.182c-6.432 0-8.13 9.013-8.13 13.778 0 5.644 1.86 8.509 5.528 8.509 4.081 0 5.448-3.87 5.897-6.175l.051-.262h11.67l-.055.374a23.334 23.334 0 0 1-3.959 10.17C28.055 42.974 23 45.313 16.41 45.313zM20.49 1.546c-11.416 0-19.383 10.045-19.383 24.425 0 11.878 5.58 18.694 15.302 18.694 13.431 0 17.21-9.974 18.262-16.198H24.32c-.857 4.092-3.224 6.432-6.468 6.432-4.045 0-6.187-3.168-6.187-9.16 0-6.953 2.749-14.431 8.788-14.431 1.4-.08 2.771.42 3.785 1.38 1.02 1.04 1.53 2.642 1.53 4.764h9.937C35.34 4.315 27.244 1.546 20.486 1.546h.004zm130.868 43.746h-7.396l5.146-28.502h7.397l-5.147 28.502zm-6.631-.652h6.055l4.907-27.198h-6.03l-4.932 27.198zm-23.117.652h-7.35l3.784-20.893h7.396l-3.83 20.893zm-6.631-.652h6.054l3.57-19.59h-6.023l-3.601 19.59zm-3.433.652h-7.397l1.801-9.666c.061-.349.133-.712.21-1.076.17-.73.28-1.471.33-2.218a1.452 1.452 0 0 0-.398-1.18 1.482 1.482 0 0 0-1.172-.447c-1.592 0-2.444 1.04-2.938 3.597l-2.04 10.99h-7.397l3.861-20.893h7.142l-.352 1.779a6.944 6.944 0 0 1 4.978-2.29c3.861 0 6.07 2.108 6.07 5.791a26.708 26.708 0 0 1-.48 3.916l-2.218 11.697zm-6.606-.652h6.106l2.091-11.161c.255-1.253.412-2.523.47-3.8 0-4.471-3.393-5.138-5.413-5.138a6.522 6.522 0 0 0-5.197 2.945l-.097.137h-.643l.51-2.572h-5.81l-3.57 19.589h6.08l1.923-10.459c.393-2.021 1.127-4.128 3.57-4.128a2.133 2.133 0 0 1 1.648.634 2.09 2.09 0 0 1 .592 1.65c-.049.79-.163 1.573-.342 2.344-.071.359-.143.718-.204 1.061l-1.714 8.898zm-50.157.652h-7.396l1.8-9.666c.062-.343.133-.712.205-1.076.173-.727.286-1.468.336-2.213a1.452 1.452 0 0 0-.398-1.18 1.482 1.482 0 0 0-1.173-.447c-1.591 0-2.443 1.04-2.938 3.597l-2.04 10.99h-7.376l5.1-28.502H48.3l-1.668 9.317a6.544 6.544 0 0 1 4.749-2.223c3.856 0 6.07 2.107 6.07 5.79a26.623 26.623 0 0 1-.48 3.916l-2.188 11.697zm-6.63-.652h6.054l2.091-11.161c.254-1.253.41-2.523.47-3.8 0-4.471-3.393-5.138-5.412-5.138a6.13 6.13 0 0 0-4.938 2.925l-.097.157h-.633l1.837-10.181H41.47L36.594 44.64h6.054l1.923-10.459c.393-2.021 1.128-4.128 3.571-4.128a2.133 2.133 0 0 1 1.651.632 2.09 2.09 0 0 1 .593 1.652c-.048.79-.164 1.574-.347 2.344-.07.359-.142.718-.198 1.061l-1.689 8.898zM82.2 40.184c-1.234 0-2.708-.627-2.708-3.603 0-2.218 1.02-7.074 3.968-7.074 2.367 0 2.673 2.193 2.673 4.108.026 1.753-.908 6.569-3.907 6.569H82.2zm1.26-10.025c-2.31 0-3.305 4.254-3.305 6.422 0 2.95 1.53 2.95 2.04 2.95 2.331 0 3.27-4.173 3.27-5.916.03-2.87-.79-3.456-1.98-3.456h-.025zm84.914 2.729h-6.651l.097-.4c.56-2.35 1.918-3.648 3.82-3.648 1.75 0 2.877 1.203 2.877 3.062-.007.24-.03.48-.071.718l-.072.268zm-5.804-.652h5.248c.016-.11.024-.222.026-.334 0-1.162-.582-2.405-2.219-2.405-1.81 0-2.657 1.405-3.055 2.739zm-36.89-9.373h-7.396l1.102-6.063h7.396l-1.102 6.063zm-6.605-.631h6.054l.867-4.77h-6.054l-.867 4.77z"/>
        <path fill="#FFF" fill-rule="nonzero" d="M104.97 30.215c-2.284 0-3.019 1.9-3.422 3.996l-1.949 10.61h-4.131l-.45 2.467h6.724l1.974-10.727c.408-2.107 1.117-3.865 3.26-3.865h.045v-.354a1.93 1.93 0 0 0-.532-1.53 1.969 1.969 0 0 0-1.518-.597zM113.3 27.163c.33.801.49 1.661.47 2.526a15.663 15.663 0 0 1-.133 1.688l-.337 2.142-2.101 11.288h-4.122l-.459 2.465h6.723l2.143-11.429c.256-1.273.415-2.563.474-3.86-.015-2.531-1.087-4.047-2.658-4.82zM56.482 27.163c.335.8.496 1.66.474 2.526 0 .465-.076 1.223-.132 1.688l-.342 2.142-2.112 11.298H50.25l-.46 2.466h6.723l2.148-11.44c.257-1.273.415-2.563.474-3.86-.005-2.531-1.076-4.047-2.652-4.82z"/>
    </g>
</svg>
