<?xml version="1.0" encoding="utf-8"?>
<!-- Generator: Adobe Illustrator 21.1.0, SVG Export Plug-In . SVG Version: 6.00 Build 0)  -->
<!DOCTYPE svg PUBLIC "-//W3C//DTD SVG 1.1//EN" "http://www.w3.org/Graphics/SVG/1.1/DTD/svg11.dtd">
<svg version="1.1" id="Layer_1" xmlns="http://www.w3.org/2000/svg" xmlns:xlink="http://www.w3.org/1999/xlink" x="0px" y="0px"
	 viewBox="0 0 387.8 206.5" style="enable-background:new 0 0 387.8 206.5;" xml:space="preserve">
<style type="text/css">
	.st0{fill:#0F77B2;}
	.st1{fill:#6D6C6C;}
	.st2{fill:#FFFFFF;}
	.st3{clip-path:url(#SVGID_2_);fill:none;}
</style>
<g>
	<polygon class="st0" points="114.1,53 106.2,62.1 105.8,53 96.1,53 98.3,70.7 93.9,81.3 103.6,81.3 107.9,71 125.7,53 	"/>
	<path class="st0" d="M108.5,81.3h10.1l2.9-3.9h7.8l-0.4,3.9h9.5l1.6-28.4h-9.2L108.5,81.3z M126.7,70.4l3.9-5.4l-0.5,5.4H126.7z"/>
	<path class="st0" d="M173.4,60.8c0.5-2.4,0.3-4.3-0.8-5.6c-1.3-1.5-3.5-2.3-7.1-2.3h-14.2l-11.9,28.4h9.6l4-9.5h3.2
		c1,0,1.7,0.2,2.1,0.6c0.2,0.3,0.3,0.6,0.2,1.1c-0.1,0.7-0.4,1.4-0.7,2.1s-0.5,1.5-0.7,2.2c-0.3,1.2-0.4,2.1-0.2,2.9l0.1,0.5h9.2
		l-0.2-0.8c-0.2-1.1,0.2-3,0.7-4.8c0.1-0.6,0.3-1.2,0.4-1.8c0.3-1.4,0.9-4-0.6-5.5C170,67.3,172.6,64.5,173.4,60.8z M157.6,60.7h4.1
		c0.5,0,1.2,0.1,1.5,0.5c0.3,0.3,0.2,0.8,0.2,1.1c-0.3,1.2-1.5,2.5-4.1,2.5h-3.5L157.6,60.7z"/>
	<path class="st0" d="M195.3,75.8c0.1-0.6,0.3-1.2,0.4-1.8c0.3-1.4,0.9-4-0.6-5.5c3.6-1.1,6.2-3.9,7-7.6c0.5-2.4,0.3-4.3-0.8-5.6
		c-1.2-1.5-3.5-2.3-7.1-2.3H180l-11.9,28.4h9.6l4-9.5h3.2c1,0,1.7,0.2,2.1,0.6c0.2,0.3,0.3,0.6,0.2,1.1c-0.1,0.7-0.4,1.4-0.7,2.1
		s-0.5,1.5-0.7,2.2c-0.3,1.2-0.4,2.1-0.2,2.9l0.1,0.5h9.2l-0.2-0.8C194.5,79.5,194.9,77.6,195.3,75.8z M186.4,60.7h4.1
		c0.5,0,1.2,0.1,1.5,0.5c0.3,0.3,0.2,0.8,0.2,1.1c-0.3,1.2-1.5,2.5-4.1,2.5h-3.5L186.4,60.7z"/>
	<path class="st0" d="M195,81.3h10.1l2.9-3.9h7.8l-0.4,3.9h9.5l1.6-28.4h-9.2L195,81.3z M213.2,70.4l3.9-5.4l-0.5,5.4H213.2z"/>
	<polygon class="st0" points="260.4,53 252.2,66.1 255,53 246.6,53 238.4,66.2 241.2,53 231.7,53 227.7,81.3 236.8,81.3 244.1,69.8 
		241.7,81.3 250.8,81.3 270.5,53 	"/>
	<path class="st0" d="M292.6,55.6c-1.8-2.2-4.8-3.3-9.1-3.3c-9.1,0-17.2,7.2-19.3,17c-0.8,3.9-0.4,7.1,1.4,9.3
		c1.8,2.2,4.8,3.4,9,3.4c9.1,0,17.2-7.2,19.3-17C294.8,60.9,294.4,57.7,292.6,55.6z M273.7,69.8c0.7-3.3,3.3-9.5,8.1-9.5
		c1,0,1.8,0.3,2.2,0.8c0.7,0.9,0.6,2.3,0.4,3.4c-0.7,3.3-3.3,9.5-8.1,9.5c-1,0-1.8-0.3-2.2-0.8C273.4,72.3,273.5,70.8,273.7,69.8z"
		/>
	<polygon class="st0" points="318.7,53 313.2,66.1 311.5,53 302.3,53 290.4,81.3 299.7,81.3 305.3,67.8 306.9,81.3 316,81.3 328,53 
			"/>
	<path class="st0" d="M340.8,65.1l-3,7.1h3.5c-1.1,1.2-2.5,1.7-4.4,1.7c-1.2,0-2.1-0.3-2.6-0.9c-0.6-0.7-0.7-2-0.4-3.6
		c0.9-4.4,3.8-9.1,8.1-9.1c1,0,1.7,0.2,2.1,0.7c0.4,0.4,0.5,1.1,0.4,2l-0.1,0.7h9.1l0.1-0.5c0.6-3.2,0.2-5.8-1.4-7.7
		c-1.7-2.1-4.6-3.2-8.3-3.2c-11.1,0-17.9,8.8-19.7,17.5c-0.3,1.3-1,6,1.6,9.2c1.6,2,4.2,3,7.6,3c1.9,0,4.5-0.4,6.9-2.2l-0.5,1.5h6.5
		l6.8-16.2C353.1,65.1,340.8,65.1,340.8,65.1z"/>
	<path class="st0" d="M370.6,53l-22.4,28.4h10.1l2.9-3.9h7.8l-0.4,3.9h9.5l1.6-28.4H370.6z M370.3,65l-0.5,5.4h-3.4L370.3,65z"/>
</g>
<path class="st1" d="M362.4,140.6H376c-0.9,2.9-3.7,13.6-19.8,13.6c-13.2,0-18.5-8.5-18.5-19c0-19.7,13-26.2,22.3-26.2
	c8.2,0,18.2,5.3,18.2,18.8c0,2.3-0.1,4.8-0.7,7.5H351c0,4.6,1.4,8.4,5.8,8.4C359.9,143.6,361.7,142.1,362.4,140.6 M352.2,126.7h12.6
	c0.1-0.4,0.1-1,0.1-1.4c0-3.2-1.8-5.8-5.4-5.8C355.8,119.5,353.3,122.2,352.2,126.7 M314.8,153.1l10.6-59.2h14.2L329,153.1H314.8z
	 M315.3,126.4h-13.6c0.1-2.1-0.2-3.4-1-4.2c-0.7-0.9-1.9-1.2-3.6-1.2c-6.2,0-7.8,9.4-7.8,13.4c0,4.1,0.8,7.9,4.9,7.9
	c3.9,0,5.4-3.9,6.2-6.3H314c-2.4,12.3-9.2,18.3-20,18.3c-15.7,0-18.9-11.6-18.9-19.7c0-14.7,8.2-25.6,22.4-25.6
	C307.9,109,315.5,114.4,315.3,126.4 M276.9,93.9l-2.1,11.5h-14.2l2.1-11.5H276.9z M252.2,153.1l7.7-43.1h14.2l-7.7,43.1H252.2z
	 M206.6,153.1l7.7-43.1H228l-1.1,5.5h0.1c2.7-3.9,7-6.6,11.5-6.6c6.5,0,12.1,3.2,12.1,11.6c0,1.9-0.4,5.1-1,8.2l-4.5,24.3H231
	l3.6-19.7c0.4-2.5,1.1-5.4,1.1-7.1c0-2.7-1.7-4.2-4-4.2c-4.5,0-6,3.7-6.9,8.2l-4.2,22.8L206.6,153.1L206.6,153.1z M164.7,134
	c0-13.8,7.7-25.1,22.9-25.1c10.9,0,18,5.8,18,18.8c0,11-5.3,26.4-22.4,26.4C173,154.2,164.7,148.5,164.7,134 M178.9,135.3
	c0,3.5,1,7,5,7c5.6,0,7.6-9.5,7.6-13.3c0-5.1-1.1-8-4.9-8C180.9,120.9,178.9,130.8,178.9,135.3 M132.1,153.1l7.7-43.1h13.7l-1.2,6.7
	h0.1c2.5-4.6,7.2-7.8,10.8-7.8c2.4,0,3.7,0.2,5,0.7l-2.6,14.5c-1.7-0.7-3.7-1.1-5.4-1.1c-6,0-9,3-10.7,12l-3.2,18h-14.2V153.1z
	 M86.9,153.1l10.5-59.2h14.2l-3.9,21.7h0.1c2.6-4.2,7.1-6.6,11-6.6c6.5,0,12.1,3.2,12.1,11.6c0,1.9-0.4,5.1-1,8.2l-4.5,24.3h-14.2
	l3.7-19.7c0.4-2.5,1.1-5.4,1.1-7.1c0-2.7-1.7-4.2-4-4.2c-4.5,0-6,3.7-6.9,8.2l-4.2,22.8L86.9,153.1L86.9,153.1z M61.3,117.3h23.2
	c-1.4,9.1-7.4,35.8-39.3,35.8c-22.2,0-33-16.7-33-40.5C12.2,83.9,27.7,60,53.8,60c17.1,0,32.3,8.6,32.7,35.2H64.2
	c0.2-8.3-3.2-13.1-10.5-13.1c-13.1,0-17.8,17.4-17.8,30c0,7.3,1.5,18.8,12.3,18.8C55.6,131,59.8,125.1,61.3,117.3"/>
<path class="st2" d="M358.4,136h12.9c-1.1,3.4-4.2,12.9-19.3,12.9c-12.9,0-18.1-8.3-18.1-18.7c0-19.5,12.8-25.9,21.9-25.9
	c8.1,0,17.8,5.2,17.8,18.5c0,1.2,0,2.3-0.1,3.6c-0.1,1-0.3,2.5-0.5,3.5h-26.6v0.3c0,4.6,1.4,8.7,6.1,8.7
	C355.7,139.1,357.6,137.6,358.4,136 M347.7,121.7l-0.1,0.4h13.3v-0.3c0.1-0.5,0.1-1,0.1-1.5c0-3.4-1.9-6.2-5.7-6.2
	C351.4,114.3,348.8,117.1,347.7,121.7 M311,147.9l10.5-58.5H335l-10.5,58.5H311z M310.7,121.1h-12.9c0-1.9-0.3-3.2-1.1-4.1
	c-0.8-1-2.2-1.4-3.8-1.4c-6.5,0-8.1,9.8-8.1,13.8c0,4,0.8,8.2,5.2,8.2c4,0,5.7-3.9,6.5-6.3h12.9c-2.5,11.9-9.1,17.6-19.5,17.6
	c-15.5,0-18.5-11.3-18.5-19.3c0-14.6,8.1-25.2,22.1-25.2C303.4,104.4,310.8,109.6,310.7,121.1 M272.3,89.3l-2,10.8h-13.5l1.9-10.8
	H272.3z M248.3,147.9l7.6-42.4h13.5l-7.6,42.4H248.3z M202.8,147.9l7.6-42.4h13l-1.1,5.5h0.7l0.1-0.1c2.7-3.8,6.9-6.4,11.2-6.4
	c6.4,0,11.8,3.1,11.8,11.3c0,1-0.2,2.6-0.3,3.6l-0.7,4.6l-4.5,24h-13.5l3.6-19.3l0.7-3.8c0.2-1.1,0.4-2.2,0.4-3.4
	c0-2.9-1.9-4.5-4.4-4.5c-4.8,0-6.4,4-7.2,8.5l-4.1,22.5h-13.3V147.9z M160.8,129.1c0-13.6,7.6-24.7,22.6-24.7
	c10.7,0,17.7,5.7,17.7,18.5c0,11-5.3,26-22.1,26C168.9,148.9,160.8,143.4,160.8,129.1 M174.3,130.4c0,3.5,1,7.3,5.4,7.3
	c6,0,7.9-10,7.9-13.6c0-5.1-1.1-8.4-5.3-8.4C176.2,115.7,174.3,126,174.3,130.4 M128.3,147.9l7.5-42.4h13l-1.2,6.7h0.8l0.1-0.2
	c2.5-4.5,7-7.6,10.5-7.6c2.2,0,3.5,0.1,4.6,0.5l-2.5,13.8c-1.7-0.7-3.5-0.9-5.2-0.9c-6.3,0-9.3,3.2-11,12.3l-3.2,17.7h-13.4V147.9z
	 M83.1,147.9l10.4-58.5H107l-3.9,21.7h0.8l0.1-0.2c2.5-4.1,6.9-6.4,10.7-6.4c6.4,0,11.7,3.1,11.7,11.3c0,1-0.2,2.6-0.3,3.6l-0.7,4.6
	l-4.5,24h-13.5l3.6-19.3l0.7-3.8c0.2-1.1,0.4-2.2,0.4-3.4c0-2.9-1.9-4.5-4.4-4.5c-4.8,0-6.4,4-7.2,8.5L96.4,148H83.1V147.9z
	 M57.3,112.7h22.5c-1.5,9.4-7.7,35.2-38.9,35.2c-22,0-32.6-16.4-32.6-40.1c0-28.7,15.4-52.3,41.2-52.3c16.8,0,31.8,8.4,32.4,34.5
	H60.3c0.1-8.2-3.4-13-10.9-13C36,77,31.3,94.8,31.3,107.3c0,7.3,1.5,19.1,12.7,19.1C51.5,126.4,55.8,120.5,57.3,112.7"/>
<g>
	<defs>
		<path id="SVGID_1_" d="M358.2,135.7h13.6c-0.9,2.9-3.7,13.6-19.8,13.6c-13.2,0-18.5-8.5-18.5-19c0-19.7,13-26.2,22.3-26.2
			c8.2,0,18.2,5.3,18.2,18.8c0,2.3-0.1,4.8-0.7,7.5h-26.5c0,4.6,1.4,8.4,5.8,8.4C355.7,138.7,357.5,137.2,358.2,135.7 M348,121.8
			h12.6c0.1-0.4,0.1-1,0.1-1.4c0-3.2-1.8-5.8-5.4-5.8C351.6,114.6,349.1,117.3,348,121.8 M310.5,148.2L321.1,89h14.2l-10.6,59.2
			H310.5z M311.1,121.5h-13.6c0.1-2.1-0.2-3.4-1-4.2c-0.7-0.9-1.9-1.2-3.6-1.2c-6.2,0-7.8,9.4-7.8,13.4c0,4.1,0.8,7.9,4.9,7.9
			c3.9,0,5.4-3.9,6.2-6.3h13.6c-2.4,12.3-9.2,18.3-20,18.3c-15.7,0-18.9-11.6-18.9-19.7c0-14.7,8.2-25.6,22.4-25.6
			C303.6,104.1,311.3,109.5,311.1,121.5 M272.7,89l-2.1,11.5h-14.2l2.1-11.5H272.7z M247.9,148.2l7.7-43.1h14.2l-7.7,43.1H247.9z
			 M202.4,148.2l7.7-43.1h13.7l-1.1,5.5h0.1c2.7-3.9,7-6.6,11.5-6.6c6.5,0,12.1,3.2,12.1,11.6c0,1.9-0.4,5.1-1,8.2l-4.5,24.3h-14.2
			l3.7-19.7c0.4-2.5,1.1-5.4,1.1-7.1c0-2.7-1.7-4.1-4-4.1c-4.5,0-6,3.7-6.9,8.2l-4.2,22.8H202.4z M160.5,129.1
			c0-13.8,7.7-25.1,22.9-25.1c10.9,0,18,5.8,18,18.8c0,11-5.3,26.4-22.4,26.4C168.8,149.3,160.5,143.6,160.5,129.1 M174.6,130.4
			c0,3.5,1,7,5,7c5.6,0,7.6-9.5,7.6-13.3c0-5.1-1.1-8-4.9-8C176.6,116,174.6,125.9,174.6,130.4 M127.9,148.2l7.7-43.1h13.7l-1.2,6.7
			h0.1c2.5-4.6,7.2-7.8,10.8-7.8c2.4,0,3.7,0.2,5,0.7l-2.6,14.5c-1.7-0.7-3.7-1.1-5.4-1.1c-6,0-9,3-10.7,12l-3.2,18h-14.2V148.2z
			 M82.7,148.2L93.2,89h14.2l-3.9,21.7h0.1c2.6-4.2,7.1-6.6,11-6.6c6.5,0,12.1,3.2,12.1,11.6c0,1.9-0.4,5.1-1,8.2l-4.5,24.3H107
			l3.7-19.7c0.4-2.5,1.1-5.4,1.1-7.1c0-2.7-1.7-4.1-4-4.1c-4.5,0-6,3.7-6.9,8.2l-4.2,22.8h-14V148.2z M57.1,112.4h23.2
			c-1.4,9.1-7.4,35.8-39.3,35.8c-22.2,0-33-16.7-33-40.5C8,79,23.5,55.1,49.5,55.1c17.1,0,32.3,8.6,32.7,35.2H60
			c0.2-8.3-3.2-13.1-10.5-13.1c-13.1,0-17.8,17.4-17.8,30c0,7.3,1.5,18.8,12.3,18.8C51.4,126.1,55.6,120.2,57.1,112.4"/>
	</defs>
	<clipPath id="SVGID_2_">
		<use xlink:href="#SVGID_1_"  style="overflow:visible;"/>
	</clipPath>
	<path class="st3" d="M352,150c-12.2,0-19.2-7.2-19.2-19.7c0-21.2,14.4-26.9,23-26.9c9.1,0,18.9,6.1,18.9,19.5
		c0,2.2-0.1,4.8-0.7,7.6l-0.1,0.5h-26.3c0.2,4.6,1.9,7,5.1,7c3.4,0,4.7-2,5-2.7l0.2-0.4h15l-0.4,1.2C371.3,139.6,368,150,352,150z
		 M355.8,104.8c-8,0-21.6,5.4-21.6,25.5c0,11.6,6.5,18.3,17.8,18.3c14.2,0,17.6-8.6,18.8-12.2h-12.2c-0.6,1.1-2.3,3.1-6,3.1
		c-3,0-6.5-1.6-6.5-9.1v-0.7h26.6c0.5-2.4,0.6-4.8,0.6-6.8C373.3,116.2,369.6,104.8,355.8,104.8z M289.8,150
		c-17.7,0-19.6-14.2-19.6-20.4c0-15.7,9.3-26.3,23.1-26.3c5.9,0,10.7,1.7,13.9,5c3.1,3.2,4.6,7.6,4.5,13.1v0.7h-15v-0.7
		c0.1-1.9-0.2-3.1-0.8-3.7c-0.6-0.7-1.5-1-3.1-1c-5.8,0-7.1,9.4-7.1,12.7c0,5,1.2,7.2,4.2,7.2c3.3,0,4.7-3.3,5.6-5.8l0.2-0.5h14.9
		l-0.2,0.8C308,143.6,301.1,150,289.8,150z M293.3,104.8c-13.2,0-21.7,9.8-21.7,24.9c0,7.1,2.4,19,18.2,19
		c10.2,0,16.6-5.7,19.1-16.9h-12.2c-0.7,2-2.4,6.3-6.7,6.3c-5.6,0-5.6-6.5-5.6-8.6c0-5.5,2.3-14.1,8.5-14.1c2,0,3.3,0.5,4.1,1.5
		c0.8,0.8,1.1,2.1,1.2,4h12.2c0-4.9-1.4-8.7-4.1-11.5C303.3,106.3,298.9,104.8,293.3,104.8z M179,150c-5.8,0-19.2-2-19.2-20.9
		c0-3.4,0.4-6.5,1.2-9.3c-1.5-0.6-3.3-1-5.1-1c-5,0-8.2,1.9-10,11.5l-3.3,18.6H127l7.9-44.5h15.2l-0.8,4.6c2.7-3.4,6.5-5.6,9.7-5.6
		c2.5,0,3.9,0.2,5.3,0.7l0.5,0.2l-2,11.1c3.8-7.5,11.1-12,20.6-12c12.1,0,18.7,6.9,18.7,19.5C202.1,133,197.2,150,179,150z
		 M183.4,104.8c-13.5,0-22.2,9.6-22.2,24.4c0,12.4,6.5,19.5,17.8,19.5c10,0,21.7-6.7,21.7-25.7C200.7,111,194.7,104.8,183.4,104.8z
		 M128.7,147.5h12.8l3.1-17.4c1.7-9.1,4.8-12.6,11.3-12.6c1.7,0,3.4,0.3,4.9,0.8l2.4-13.1c-1-0.3-2.2-0.4-4.2-0.4
		c-3.5,0-7.9,3.2-10.2,7.4l-0.2,0.4h-1.4l1.2-6.7h-12.3L128.7,147.5z M41,148.9c-21.1,0-33.7-15.4-33.7-41.1
		c0-31.4,17.4-53.3,42.2-53.3c28.6,0,33.2,22.5,33.4,35.9v0.7H59.2v-0.7c0.1-4.5-0.8-7.8-2.8-9.8c-1.6-1.7-4-2.5-7-2.5
		c-13.5,0-17.1,19.2-17.1,29.3c0,12,3.9,18.1,11.7,18.1c8.6,0,11.5-8.2,12.4-13.1l0.1-0.6h24.6l-0.1,0.8c-1.3,8.4-4.2,15.9-8.3,21.6
		C65.5,144,54.8,148.9,41,148.9z M49.5,55.8c-24.1,0-40.9,21.4-40.9,52c0,25.3,11.8,39.8,32.3,39.8c28.3,0,36.3-21.2,38.5-34.5H57.6
		c-1.8,8.7-6.8,13.7-13.7,13.7c-8.5,0-13-6.7-13-19.5c0-14.8,5.8-30.7,18.5-30.7c3.4,0,6.1,1,8,2.9c2.2,2.2,3.2,5.6,3.2,10.1h20.9
		C80.8,61.7,63.8,55.8,49.5,55.8z M325.3,148.9h-15.6l10.8-60.6h15.6L325.3,148.9z M311.4,147.5h12.8l10.3-57.9h-12.8L311.4,147.5z
		 M262.7,148.9h-15.6l8-44.5h15.6L262.7,148.9z M248.8,147.5h12.8l7.5-41.7h-12.8L248.8,147.5z M241.5,148.9h-15.6l3.8-20.6
		c0.1-0.7,0.3-1.5,0.4-2.3c0.3-1.8,0.7-3.6,0.7-4.7c0-2.2-1.2-3.5-3.3-3.5c-3.4,0-5.1,2.2-6.2,7.7l-4.3,23.4h-15.6l8-44.5h15.1
		l-0.7,3.8c2.9-3.1,6.7-4.9,10.5-4.9c8.1,0,12.8,4.5,12.8,12.3c0,2.4-0.6,6.2-1,8.3L241.5,148.9z M227.6,147.5h12.8l4.4-23.7
		c0.6-3.5,1-6.4,1-8.1c0-9.5-7.1-10.9-11.4-10.9c-4.1,0-8.2,2.3-11,6.3l-0.2,0.3h-1.3l1.1-5.5h-12.2l-7.5,41.7H216l4-22.2
		c0.8-4.3,2.4-8.8,7.6-8.8c2.9,0,4.7,1.9,4.7,4.8c0,1.3-0.4,3.1-0.7,5c-0.2,0.8-0.3,1.5-0.4,2.3L227.6,147.5z M121.8,148.9h-15.6
		l3.8-20.6c0.1-0.7,0.3-1.5,0.4-2.3c0.3-1.8,0.7-3.6,0.7-4.7c0-2.2-1.2-3.5-3.3-3.5c-3.4,0-5.1,2.2-6.2,7.7l-4.3,23.4H81.8
		l10.8-60.6h15.6l-3.5,19.8c2.6-2.9,6.3-4.7,10-4.7c8.1,0,12.8,4.5,12.8,12.3c0,2.4-0.6,6.3-1,8.3L121.8,148.9z M107.9,147.5h12.8
		l4.4-23.7c0.6-3.5,1-6.4,1-8.1c0-9.5-7.1-10.9-11.4-10.9c-4,0-8.2,2.5-10.4,6.2l-0.2,0.3h-1.4l3.9-21.7H93.8l-10.3,57.9h12.8
		l4-22.2c0.8-4.3,2.4-8.8,7.6-8.8c2.9,0,4.7,1.9,4.7,4.8c0,1.3-0.4,3.1-0.7,5c-0.1,0.8-0.3,1.5-0.4,2.3L107.9,147.5z M179.6,138
		c-2.6,0-5.7-1.3-5.7-7.7c0-4.7,2.1-15,8.4-15c5,0,5.6,4.7,5.6,8.7C187.9,127.8,186,138,179.6,138z M182.3,116.7c-4.9,0-7,9-7,13.7
		c0,6.3,3.2,6.3,4.3,6.3c4.9,0,6.9-8.9,6.9-12.6C186.5,118,184.8,116.7,182.3,116.7z M361.2,122.5h-14.1l0.2-0.9c1.2-5,4-7.8,8-7.8
		c3.7,0,6.1,2.6,6.1,6.5c0,0.6-0.1,1.3-0.2,1.5V122.5z M348.9,121.1H360c0-0.3,0.1-0.5,0.1-0.7c0-2.5-1.2-5.1-4.7-5.1
		C351.5,115.3,349.8,118.3,348.9,121.1z M271.2,101.2h-15.6l2.3-12.9h15.6L271.2,101.2z M257.3,99.8H270l1.8-10.1H259L257.3,99.8z"
		/>
</g>
</svg>
