<svg xmlns="http://www.w3.org/2000/svg" width="29" height="21" viewBox="0 0 29 21">
    <path fill="#231F20" fill-rule="evenodd" d="M28.976 12.447V7.679c-.033-.522-.04-1.046-.104-1.565-.122-.984-.21-1.98-.429-2.946-.36-1.59-1.684-2.64-3.312-2.8A70.896 70.896 0 0 0 18.574.03c-2.59-.017-5.182-.05-7.772-.013-1.94.029-3.88.152-5.82.25-.552.03-1.11.077-1.65.192C2.004.738 1.104 1.549.652 2.817.316 3.767.223 4.77.14 5.77.092 6.346.071 6.923.036 7.5c-.005.075-.023.15-.036.226v4.72c.029.454.036.908.09 1.358.118 1.001.216 2.009.4 2.998.315 1.694 1.652 2.833 3.36 3.003 2.181.216 4.367.322 6.556.336 2.591.019 5.182.054 7.772.013 2.002-.032 4.003-.163 6.005-.266.49-.025.987-.071 1.466-.174 1.315-.282 2.211-1.08 2.67-2.338.34-.933.43-1.922.514-2.905.05-.583.07-1.168.107-1.753.005-.09.023-.18.036-.271m-9.012-2.64c-3.1 1.609-6.138 3.183-9.207 4.773V5.003l9.207 4.805"/>
</svg>
