<svg xmlns="http://www.w3.org/2000/svg" width="51" height="35" viewBox="0 0 51 35">
    <g fill="none" fill-rule="evenodd">
        <path fill="#8CC63F" d="M25.38 20.004c-3.627 0-6.567-2.945-6.567-6.577 0-3.633 2.94-6.578 6.567-6.578 3.626 0 6.566 2.945 6.566 6.578 0 3.632-2.94 6.577-6.566 6.577M38.79 4.266h-6.115L29.536.296A.778.778 0 0 0 28.934 0H21.83a.778.778 0 0 0-.602.296L18.084 4.26H11.97a1.935 1.935 0 0 0-1.934 1.937v16.294c0 1.07.866 1.937 1.934 1.937h26.82a1.935 1.935 0 0 0 1.933-1.937V6.197a1.935 1.935 0 0 0-1.934-1.93"/>
        <path stroke="#8CC63F" stroke-linecap="round" d="M44.59 10.862c3.675 2.209 5.898 5.069 5.898 8.2 0 6.7-10.15 12.179-22.982 12.595M23.982 31.657C11.15 31.24 1 25.76 1 19.063c0-3.132 2.223-5.992 5.898-8.2"/>
        <path stroke="#8CC63F" stroke-linecap="round" stroke-linejoin="round" d="M21.482 34.698l2.861-2.866-2.861-2.866"/>
        <path fill="#8CC63F" d="M30.518 13.578a5.125 5.125 0 0 1-5.12 5.129 5.125 5.125 0 0 1-5.12-5.13 5.125 5.125 0 0 1 5.12-5.129 5.125 5.125 0 0 1 5.12 5.13"/>
    </g>
</svg>
