<svg xmlns="http://www.w3.org/2000/svg" width="48" height="48" viewBox="0 0 48 48">
    <g fill="none" fill-rule="evenodd">
        <path fill="#000" d="M24 48c13.255 0 24-10.745 24-24S37.255 0 24 0 0 10.745 0 24s10.745 24 24 24"/>
        <path fill="#FCFCFC" d="M26.338 18.744v-2.621c0-.396.022-.706.067-.93.043-.22.132-.429.264-.628.132-.2.343-.343.631-.432.286-.086.675-.132 1.16-.132h2.62v-5.24h-4.212c-2.43 0-4.178.575-5.239 1.724-1.06 1.15-1.59 2.854-1.59 5.107v3.152h-3.152v5.239h3.151V39.24h6.3V23.983h4.212l.564-5.24h-4.776z"/>
    </g>
</svg>
