<svg xmlns="http://www.w3.org/2000/svg" width="48" height="48" viewBox="0 0 48 48">
    <g fill="none" fill-rule="evenodd">
        <path fill="#000" d="M24 48c13.255 0 24-10.745 24-24S37.255 0 24 0 0 10.745 0 24s10.745 24 24 24"/>
        <path fill="#FCFCFC" d="M40.64 14.832a12.702 12.702 0 0 1-3.506.943c1.303-.785 2.19-1.898 2.664-3.338a11.824 11.824 0 0 1-3.845 1.485C34.738 12.641 33.255 12 31.5 12c-1.685 0-3.125.595-4.315 1.786-1.193 1.192-1.788 2.63-1.788 4.317 0 .449.045.91.136 1.383-2.496-.135-4.824-.764-6.981-1.89a17.534 17.534 0 0 1-5.53-4.485 5.842 5.842 0 0 0-.842 3.036c0 1.08.247 2.057.741 2.933a6.281 6.281 0 0 0 1.99 2.158 6.134 6.134 0 0 1-2.731-.776v.068c-.024 1.485.437 2.776 1.382 3.878.943 1.102 2.112 1.8 3.507 2.09a6.26 6.26 0 0 1-1.584.204c-.36 0-.742-.033-1.148-.103a6.138 6.138 0 0 0 2.158 3.003c1.034.787 2.215 1.19 3.54 1.214-2.203 1.73-4.72 2.597-7.553 2.597-.54 0-1.034-.024-1.483-.07 2.832 1.822 5.945 2.731 9.34 2.731 2.158.024 4.182-.314 6.07-1.01 1.89-.696 3.507-1.608 4.856-2.731a17.15 17.15 0 0 0 3.472-3.946 17.86 17.86 0 0 0 2.158-4.687c.473-1.618.71-3.247.71-4.889 0-.338-.012-.595-.036-.775a12.22 12.22 0 0 0 3.036-3.137l.034-.067z"/>
    </g>
</svg>
