<svg xmlns="http://www.w3.org/2000/svg" width="37" height="37" viewBox="0 0 37 37">
    <g fill="none" fill-rule="evenodd">
        <path stroke="#F03746" stroke-linecap="round" stroke-linejoin="round" stroke-width=".5" d="M7.425 29.76L29.76 7.425M7.425 7.425L29.76 29.76M.43 18h36.325M18 .43v36.325"/>
        <path fill="#FFF" d="M18.593 6.977c6.414 0 11.615 5.2 11.615 11.616 0 6.414-5.2 11.615-11.615 11.615s-11.616-5.2-11.616-11.615 5.2-11.616 11.616-11.616"/>
        <path fill="#FFF" d="M18.593 10.176a8.418 8.418 0 1 1-.001 16.835 8.418 8.418 0 0 1 0-16.835"/>
        <path stroke="#F03746" stroke-linecap="round" stroke-linejoin="round" stroke-width=".5" d="M18.593 10.176a8.418 8.418 0 1 1-.001 16.835 8.418 8.418 0 0 1 0-16.835z"/>
    </g>
</svg>
