<?xml version="1.0" encoding="UTF-8" standalone="no"?>
<svg width="39px" height="21px" viewBox="0 0 39 21" version="1.1" xmlns="http://www.w3.org/2000/svg" xmlns:xlink="http://www.w3.org/1999/xlink">
    <!-- Generator: Sketch 46.2 (44496) - http://www.bohemiancoding.com/sketch -->
    <title>Cloudy</title>
    <desc>Created with Sketch.</desc>
    <defs></defs>
    <g id="Desktop" stroke="none" stroke-width="1" fill="none" fill-rule="evenodd">
        <g id="Inventory" transform="translate(-1022.000000, -485.000000)">
            <g id="Cloudy" transform="translate(1023.000000, 486.000000)">
                <path d="M11.9256172,15.9300118 C11.9256172,14.0310763 10.4121978,12.4929903 8.54349892,12.4929903 C6.6763914,12.4929903 5.1609828,14.0310763 5.1609828,15.9300118 C5.1609828,17.8277538 6.6763914,19.3670333 8.54349892,19.3670333 L35.6024344,19.3670333" id="Fill-1" fill="#FFFFFF"></path>
                <path d="M11.9256172,15.9300118 C11.9256172,14.0310763 10.4121978,12.4929903 8.54349892,12.4929903 C6.6763914,12.4929903 5.1609828,14.0310763 5.1609828,15.9300118 C5.1609828,17.8277538 6.6763914,19.3670333 8.54349892,19.3670333 L35.6024344,19.3670333" id="Stroke-3" stroke="#F03746" stroke-width="0.5"></path>
                <path d="M2.07506344,16.3971667 L25.0576333,16.3971667 C25.0576333,16.3971667 28.4349774,16.2977043 28.4349774,12.3192097 C28.4349774,8.34071505 24.4950742,7.14716667 24.4950742,7.14716667 C24.4950742,7.14716667 24.0817086,0.198725806 16.0141172,0.198725806 C10.488386,0.198725806 9.30398817,5.95043548 9.30398817,5.95043548 C9.30398817,5.95043548 6.98731075,4.57865054 4.73667634,6.73976882 C2.56282688,8.82728495 3.48225699,10.6283495 3.48225699,10.6283495 C3.48225699,10.6283495 0.198805376,10.5702634 0.198805376,13.5127581 C0.198805376,15.4646075 1.60679462,16.3971667 2.07506344,16.3971667" id="Fill-5" fill="#FFFFFF"></path>
                <path d="M2.07506344,16.3971667 L25.0576333,16.3971667 C25.0576333,16.3971667 28.4349774,16.2977043 28.4349774,12.3192097 C28.4349774,8.34071505 24.4950742,7.14716667 24.4950742,7.14716667 C24.4950742,7.14716667 24.0817086,0.198725806 16.0141172,0.198725806 C10.488386,0.198725806 9.30398817,5.95043548 9.30398817,5.95043548 C9.30398817,5.95043548 6.98731075,4.57865054 4.73667634,6.73976882 C2.56282688,8.82728495 3.48225699,10.6283495 3.48225699,10.6283495 C3.48225699,10.6283495 0.198805376,10.5702634 0.198805376,13.5127581 C0.198805376,15.4646075 1.60679462,16.3971667 2.07506344,16.3971667 Z" id="Stroke-7" stroke="#F03746" stroke-width="0.5" stroke-linecap="round" stroke-linejoin="round"></path>
                <path d="M34.1085097,13.5716 L18.9050903,13.5716 C18.9050903,13.5716 16.6126817,13.5039656 16.6126817,10.8025677 C16.6126817,8.10116989 19.2870258,7.29075054 19.2870258,7.29075054 C19.2870258,7.29075054 20.0075312,3.33015914 24.2728753,3.33015914 C28.7387355,3.33015914 29.5694452,6.13857849 29.5694452,6.13857849 C29.5694452,6.13857849 31.5567032,5.07791183 33.4174452,6.71347097 C35.2781871,8.34863226 34.675843,9.65437419 34.675843,9.65437419 C34.675843,9.65437419 36.9045957,9.87120215 36.9045957,11.6129871 C36.9045957,13.1665892 35.4377247,13.5716 34.1085097,13.5716" id="Fill-9" fill="#FFFFFF"></path>
                <path d="M34.1085097,13.5716 L18.9050903,13.5716 C18.9050903,13.5716 16.6126817,13.5039656 16.6126817,10.8025677 C16.6126817,8.10116989 19.2870258,7.29075054 19.2870258,7.29075054 C19.2870258,7.29075054 20.0075312,3.33015914 24.2728753,3.33015914 C28.7387355,3.33015914 29.5694452,6.13857849 29.5694452,6.13857849 C29.5694452,6.13857849 31.5567032,5.07791183 33.4174452,6.71347097 C35.2781871,8.34863226 34.675843,9.65437419 34.675843,9.65437419 C34.675843,9.65437419 36.9045957,9.87120215 36.9045957,11.6129871 C36.9045957,13.1665892 35.4377247,13.5716 34.1085097,13.5716 Z" id="Stroke-11" stroke="#F03746" stroke-width="0.5" stroke-linecap="round" stroke-linejoin="round"></path>
            </g>
        </g>
    </g>
</svg>