<?xml version="1.0" encoding="UTF-8" standalone="no"?>
<svg width="30px" height="30px" viewBox="0 0 30 30" version="1.1" xmlns="http://www.w3.org/2000/svg" xmlns:xlink="http://www.w3.org/1999/xlink">
    <!-- Generator: Sketch 46.2 (44496) - http://www.bohemiancoding.com/sketch -->
    <title>Rain</title>
    <desc>Created with Sketch.</desc>
    <defs></defs>
    <g id="Desktop" stroke="none" stroke-width="1" fill="none" fill-rule="evenodd">
        <g id="Inventory" transform="translate(-1026.000000, -718.000000)">
            <g id="Rain" transform="translate(1027.000000, 719.000000)">
                <g>
                    <path d="M1.87625806,16.1984409 L24.858828,16.1984409 C24.858828,16.1984409 28.236172,16.0989785 28.236172,12.1204839 C28.236172,8.14198925 24.2962688,6.94844086 24.2962688,6.94844086 C24.2962688,6.94844086 23.8829032,0 15.8153118,0 C10.2895806,0 9.1051828,5.75170968 9.1051828,5.75170968 C9.1051828,5.75170968 6.78850538,4.37992473 4.53787097,6.54104301 C2.36402151,8.62855914 3.28345161,10.4296237 3.28345161,10.4296237 C3.28345161,10.4296237 0,10.3715376 0,13.3140323 C0,15.2658817 1.40798925,16.1984409 1.87625806,16.1984409" id="Fill-5" fill="#FFFFFF"></path>
                    <path d="M1.87625806,16.1984409 L24.858828,16.1984409 C24.858828,16.1984409 28.236172,16.0989785 28.236172,12.1204839 C28.236172,8.14198925 24.2962688,6.94844086 24.2962688,6.94844086 C24.2962688,6.94844086 23.8829032,0 15.8153118,0 C10.2895806,0 9.1051828,5.75170968 9.1051828,5.75170968 C9.1051828,5.75170968 6.78850538,4.37992473 4.53787097,6.54104301 C2.36402151,8.62855914 3.28345161,10.4296237 3.28345161,10.4296237 C3.28345161,10.4296237 0,10.3715376 0,13.3140323 C0,15.2658817 1.40798925,16.1984409 1.87625806,16.1984409 Z" id="Stroke-7" stroke="#F03746" stroke-width="0.5" stroke-linecap="round" stroke-linejoin="round"></path>
                    <path d="M10.6338807,24.4821958 L12.5066314,19.6524613" id="Stroke-14" stroke="#F03746" stroke-width="0.5" stroke-linecap="round" stroke-linejoin="round"></path>
                    <path d="M11.5,28.5 L15.81384,19.6524613" id="Stroke-20" stroke="#F03746" stroke-width="0.5" stroke-linecap="round" stroke-linejoin="round"></path>
                    <path d="M17.248243,24.4821958 L19.1209937,19.6524613" id="Stroke-26" stroke="#F03746" stroke-width="0.5" stroke-linecap="round" stroke-linejoin="round"></path>
                </g>
            </g>
        </g>
    </g>
</svg>