<svg xmlns="http://www.w3.org/2000/svg" width="31" height="30" viewBox="0 0 31 30">
    <g fill="none" fill-rule="evenodd">
        <path fill="#FFF" d="M3.827 16.772h22.378s3.288-.097 3.288-3.97c0-3.874-3.836-5.036-3.836-5.036S25.254 1 17.399 1c-5.38 0-6.533 5.6-6.533 5.6S8.61 5.265 6.418 7.37C4.302 9.4 5.197 11.155 5.197 11.155S2 11.1 2 13.964c0 1.9 1.37 2.808 1.827 2.808"/>
        <path stroke="#F03746" stroke-width=".5" d="M1 20l4 4M1 24l4-4M7 26l4 4M7 30l4-4M13.5 20l4 4M13.5 24l4-4M26 20l4 4M26 24l4-4M20 26l4 4M20 30l4-4"/>
        <path stroke="#F03746" stroke-linecap="round" stroke-linejoin="round" stroke-width=".5" d="M3.827 16.772h22.378s3.288-.097 3.288-3.97c0-3.874-3.836-5.036-3.836-5.036S25.254 1 17.399 1c-5.38 0-6.533 5.6-6.533 5.6S8.61 5.265 6.418 7.37C4.302 9.4 5.197 11.155 5.197 11.155S2 11.1 2 13.964c0 1.9 1.37 2.808 1.827 2.808z"/>
    </g>
</svg>
