<svg xmlns="http://www.w3.org/2000/svg" width="25" height="19" viewBox="0 0 25 19">
    <path fill="none" fill-rule="evenodd" stroke="#8CC63F" d="M23.714 2.158c0 1.215-1.075 2.841-2.249 3.732a858.12 858.12 0 0 0-5.587 4.273c-.081.063-.727.592-.95.765-.345.27-.653.487-.95.665-.536.32-1.015.498-1.464.498h-.028c-.449 0-.928-.178-1.463-.498a9.455 9.455 0 0 1-.952-.665c-.222-.173-.868-.702-.946-.763A859.077 859.077 0 0 0 3.533 5.89C2.108 4.8 1.286 3.308 1.286 1.659c0-.51.437-.932.946-.932h20.536c.661 0 .93.45.95 1.064.002.075.001.136-.002.25l-.002.117zm.786.001C24.5 1.252 23.723.5 22.768.5H2.232C1.277.5.5 1.251.5 2.16v14.68c0 .908.777 1.66 1.732 1.66h20.536c.955 0 1.732-.752 1.732-1.66V2.16z"/>
</svg>
